<?xml version="1.0" encoding="UTF-8"?>
<svg width="30px" height="32px" viewBox="0 0 30 32" version="1.1" xmlns="http://www.w3.org/2000/svg" xmlns:xlink="http://www.w3.org/1999/xlink">
    <title>􀉩</title>
    <g id="icons" stroke="none" stroke-width="1" fill="none" fill-rule="evenodd">
        <g id="Desktop-HD" transform="translate(-605.000000, -493.000000)" fill="#504F4F" fill-rule="nonzero">
            <path d="M619.826172,509.328125 C621.150391,509.328125 622.360352,508.970703 623.456055,508.255859 C624.551758,507.541016 625.427734,506.588867 626.083984,505.399414 C626.740234,504.209961 627.068359,502.894531 627.068359,501.453125 C627.068359,500.035156 626.743164,498.749023 626.092773,497.594727 C625.442383,496.44043 624.569336,495.520508 623.473633,494.834961 C622.37793,494.149414 621.162109,493.806641 619.826172,493.806641 C618.501953,493.806641 617.291992,494.152344 616.196289,494.84375 C615.100586,495.535156 614.224609,496.460938 613.568359,497.621094 C612.912109,498.78125 612.589844,500.070312 612.601562,501.488281 C612.601562,502.929688 612.926758,504.242188 613.577148,505.425781 C614.227539,506.609375 615.100586,507.555664 616.196289,508.264648 C617.291992,508.973633 618.501953,509.328125 619.826172,509.328125 Z M619.826172,506.603516 C619.041016,506.603516 618.317383,506.37793 617.655273,505.926758 C616.993164,505.475586 616.462891,504.863281 616.064453,504.089844 C615.666016,503.316406 615.466797,502.449219 615.466797,501.488281 C615.466797,500.5625 615.663086,499.724609 616.055664,498.974609 C616.448242,498.224609 616.975586,497.629883 617.637695,497.19043 C618.299805,496.750977 619.029297,496.53125 619.826172,496.53125 C620.634766,496.53125 621.367188,496.748047 622.023438,497.181641 C622.679688,497.615234 623.204102,498.204102 623.59668,498.948242 C623.989258,499.692383 624.185547,500.527344 624.185547,501.453125 C624.185547,502.414062 623.986328,503.28418 623.587891,504.063477 C623.189453,504.842773 622.662109,505.460938 622.005859,505.917969 C621.349609,506.375 620.623047,506.603516 619.826172,506.603516 Z M630.214844,524.744141 C633.003906,524.744141 634.398438,523.824219 634.398438,521.984375 C634.398438,520.859375 634.061523,519.681641 633.387695,518.451172 C632.713867,517.220703 631.741211,516.063477 630.469727,514.979492 C629.198242,513.895508 627.666016,513.013672 625.873047,512.333984 C624.080078,511.654297 622.064453,511.314453 619.826172,511.314453 C617.576172,511.314453 615.554688,511.654297 613.761719,512.333984 C611.96875,513.013672 610.436523,513.895508 609.165039,514.979492 C607.893555,516.063477 606.920898,517.220703 606.24707,518.451172 C605.573242,519.681641 605.236328,520.859375 605.236328,521.984375 C605.236328,523.824219 606.630859,524.744141 609.419922,524.744141 L630.214844,524.744141 Z M630.865234,522.019531 L608.769531,522.019531 C608.570312,522.019531 608.426758,521.987305 608.338867,521.922852 C608.250977,521.858398 608.207031,521.744141 608.207031,521.580078 C608.207031,520.935547 608.458984,520.182617 608.962891,519.321289 C609.466797,518.459961 610.213867,517.630859 611.204102,516.833984 C612.194336,516.037109 613.413086,515.37207 614.860352,514.838867 C616.307617,514.305664 617.962891,514.039062 619.826172,514.039062 C621.689453,514.039062 623.341797,514.305664 624.783203,514.838867 C626.224609,515.37207 627.44043,516.037109 628.430664,516.833984 C629.420898,517.630859 630.170898,518.459961 630.680664,519.321289 C631.19043,520.182617 631.445312,520.935547 631.445312,521.580078 C631.445312,521.744141 631.401367,521.858398 631.313477,521.922852 C631.225586,521.987305 631.076172,522.019531 630.865234,522.019531 Z" id="􀉩"></path>
        </g>
    </g>
</svg>