<?xml version="1.0" encoding="UTF-8"?>
<svg width="36px" height="36px" viewBox="0 0 36 36" version="1.1" xmlns="http://www.w3.org/2000/svg" xmlns:xlink="http://www.w3.org/1999/xlink">
    <title>Oval 2</title>
    <g id="Dashboard---doctors--webapp" stroke="none" stroke-width="1" fill="none" fill-rule="evenodd">
        <g id="Dashboard" transform="translate(-1240.000000, -712.000000)">
            <g id="Oval-2" transform="translate(1240.000000, 712.000000)">
                <circle id="Oval" fill="#0080FF" cx="18" cy="18" r="18"></circle>
                <path d="M22.1484375,26.9633789 C23.0338542,26.9633789 23.7117513,26.7268066 24.1821289,26.2536621 C24.6525065,25.7805176 24.8876953,25.101237 24.8876953,24.2158203 L24.8876953,17.0854492 C24.8876953,16.6814779 24.8614095,16.335612 24.8088379,16.0478516 C24.7562663,15.7600911 24.6621908,15.4958496 24.5266113,15.255127 C24.3910319,15.0144043 24.1931966,14.7639974 23.9331055,14.5039062 L20.1313477,10.6606445 C19.8823242,10.4060872 19.6374512,10.2096354 19.3967285,10.0712891 C19.1560059,9.93294271 18.8945312,9.83748372 18.6123047,9.78491211 C18.3300781,9.73234049 17.9980469,9.70605469 17.6162109,9.70605469 L13.7397461,9.70605469 C12.8543294,9.70605469 12.1764323,9.94262695 11.7060547,10.4157715 C11.2356771,10.888916 11.0004883,11.5709635 11.0004883,12.4619141 L11.0004883,19.0112305 C11.1609701,18.9780273 11.3228353,18.9517415 11.486084,18.932373 C11.6493327,18.9130046 11.8139648,18.9033203 11.9799805,18.9033203 C12.1515299,18.9033203 12.318929,18.9130046 12.4821777,18.932373 C12.6454264,18.9517415 12.8128255,18.9780273 12.984375,19.0112305 L12.984375,12.6777344 C12.984375,12.3567708 13.0659993,12.1118978 13.229248,11.9431152 C13.3924967,11.7743327 13.6401367,11.6899414 13.972168,11.6899414 L17.0849609,11.6899414 L17.0849609,15.574707 C17.0849609,16.2443034 17.2468262,16.7423503 17.5705566,17.0688477 C17.8942871,17.3953451 18.3909505,17.5585938 19.0605469,17.5585938 L22.9038086,17.5585938 L22.9038086,24 C22.9038086,24.3209635 22.8235677,24.5644531 22.6630859,24.7304688 C22.5026042,24.8964844 22.2508138,24.9794922 21.9077148,24.9794922 L17.1845703,24.9794922 C17.1458333,25.3391927 17.0655924,25.6864421 16.9438477,26.0212402 C16.8221029,26.3560384 16.6671549,26.6700846 16.4790039,26.9633789 L22.1484375,26.9633789 Z M22.7460938,15.9233398 L19.2182617,15.9233398 C19.0467122,15.9233398 18.9194336,15.8818359 18.8364258,15.7988281 C18.753418,15.7158203 18.7119141,15.5913086 18.7119141,15.425293 L18.7119141,11.855957 L22.7460938,15.9233398 Z M11.9882812,28.324707 C12.5472005,28.324707 13.0756836,28.2167969 13.5737305,28.0009766 C14.0717773,27.7851562 14.5103353,27.4863281 14.8894043,27.1044922 C15.2684733,26.7226562 15.565918,26.2827148 15.7817383,25.784668 C15.9975586,25.2866211 16.1054688,24.758138 16.1054688,24.1992188 C16.1054688,23.6347656 15.9989421,23.1035156 15.7858887,22.6054688 C15.5728353,22.1074219 15.2767741,21.6674805 14.8977051,21.2856445 C14.5186361,20.9038086 14.0800781,20.6063639 13.5820312,20.3933105 C13.0839844,20.1802572 12.5527344,20.0737305 11.9882812,20.0737305 C11.4238281,20.0737305 10.8925781,20.1816406 10.3945312,20.3974609 C9.89648438,20.6132812 9.45792643,20.9107259 9.07885742,21.2897949 C8.69978841,21.6688639 8.40234375,22.1074219 8.18652344,22.6054688 C7.97070312,23.1035156 7.86279297,23.6347656 7.86279297,24.1992188 C7.86279297,24.7636719 7.97070312,25.2949219 8.18652344,25.7929688 C8.40234375,26.2910156 8.69978841,26.7295736 9.07885742,27.1086426 C9.45792643,27.4877116 9.89648438,27.7851562 10.3945312,28.0009766 C10.8925781,28.2167969 11.4238281,28.324707 11.9882812,28.324707 Z M11.9882812,26.8637695 C11.8056641,26.8637695 11.6576335,26.8070475 11.5441895,26.6936035 C11.4307454,26.5801595 11.3740234,26.429362 11.3740234,26.2412109 L11.3740234,24.8217773 L9.95458984,24.8217773 C9.77197266,24.8217773 9.62255859,24.7650553 9.50634766,24.6516113 C9.39013672,24.5381673 9.33203125,24.3873698 9.33203125,24.1992188 C9.33203125,24.0110677 9.38875326,23.8602702 9.50219727,23.7468262 C9.61564128,23.6333822 9.7664388,23.5766602 9.95458984,23.5766602 L11.3740234,23.5766602 L11.3740234,22.1655273 C11.3740234,21.9829102 11.4307454,21.8348796 11.5441895,21.7214355 C11.6576335,21.6079915 11.8056641,21.5485026 11.9882812,21.5429688 C12.1764323,21.5429688 12.3272298,21.5996908 12.4406738,21.7131348 C12.5541178,21.8265788 12.6108398,21.9773763 12.6108398,22.1655273 L12.6108398,23.5766602 L14.0385742,23.5766602 C14.2211914,23.5766602 14.369222,23.6333822 14.482666,23.7468262 C14.59611,23.8602702 14.652832,24.0110677 14.652832,24.1992188 C14.652832,24.3873698 14.59611,24.5381673 14.482666,24.6516113 C14.369222,24.7650553 14.2211914,24.8217773 14.0385742,24.8217773 L12.6108398,24.8217773 L12.6108398,26.2412109 C12.6108398,26.429362 12.5541178,26.5801595 12.4406738,26.6936035 C12.3272298,26.8070475 12.1764323,26.8637695 11.9882812,26.8637695 Z" id="􀣗" fill="#F6F7FB" fill-rule="nonzero"></path>
            </g>
        </g>
    </g>
</svg>