<?xml version="1.0" encoding="UTF-8"?>
<svg width="19px" height="20px" viewBox="0 0 19 20" version="1.1" xmlns="http://www.w3.org/2000/svg" xmlns:xlink="http://www.w3.org/1999/xlink">
    <title>􀑍</title>
    <g id="About-Us" stroke="none" stroke-width="1" fill="none" fill-rule="evenodd">
        <g id="Desktop-HD" transform="translate(-295.000000, -4412.000000)" fill="#0080FF" fill-rule="nonzero">
            <path d="M308.341797,4431.04102 C309.240234,4431.04102 310.03776,4430.96777 310.734375,4430.82129 C311.43099,4430.6748 312.029948,4430.34766 312.53125,4429.83984 C313.032552,4429.34505 313.356445,4428.75098 313.50293,4428.05762 C313.649414,4427.36426 313.722656,4426.56836 313.722656,4425.66992 L313.722656,4418.25781 C313.722656,4417.35938 313.649414,4416.56348 313.50293,4415.87012 C313.356445,4415.17676 313.032552,4414.58268 312.53125,4414.08789 C312.023438,4413.58008 311.422852,4413.25293 310.729492,4413.10645 C310.036133,4412.95996 309.240234,4412.88672 308.341797,4412.88672 L300.851562,4412.88672 C299.966146,4412.88672 299.176758,4412.95996 298.483398,4413.10645 C297.790039,4413.25293 297.189453,4413.58008 296.681641,4414.08789 C296.180339,4414.58268 295.856445,4415.17513 295.709961,4415.86523 C295.563477,4416.55534 295.490234,4417.3431 295.490234,4418.22852 L295.490234,4425.66992 C295.490234,4426.56836 295.563477,4427.36426 295.709961,4428.05762 C295.856445,4428.75098 296.180339,4429.34505 296.681641,4429.83984 C297.189453,4430.34766 297.790039,4430.6748 298.483398,4430.82129 C299.176758,4430.96777 299.969401,4431.04102 300.861328,4431.04102 L308.341797,4431.04102 Z M308.615234,4429.08789 L300.597656,4429.08789 C300.089844,4429.08789 299.616211,4429.04232 299.176758,4428.95117 C298.737305,4428.86003 298.380859,4428.68099 298.107422,4428.41406 C297.840495,4428.14062 297.663086,4427.78743 297.575195,4427.35449 C297.487305,4426.92155 297.443359,4426.44792 297.443359,4425.93359 L297.443359,4418.00391 C297.443359,4417.48307 297.487305,4417.00456 297.575195,4416.56836 C297.663086,4416.13216 297.840495,4415.7806 298.107422,4415.51367 C298.374349,4415.24023 298.730794,4415.05957 299.176758,4414.97168 C299.622721,4414.88379 300.10612,4414.83984 300.626953,4414.83984 L308.615234,4414.83984 C309.123047,4414.83984 309.59668,4414.88542 310.036133,4414.97656 C310.475586,4415.06771 310.828776,4415.24674 311.095703,4415.51367 C311.369141,4415.7806 311.549805,4416.13216 311.637695,4416.56836 C311.725586,4417.00456 311.769531,4417.47656 311.769531,4417.98438 L311.769531,4425.93359 C311.769531,4426.44792 311.723958,4426.92155 311.632812,4427.35449 C311.541667,4427.78743 311.36263,4428.14062 311.095703,4428.41406 C310.828776,4428.68099 310.475586,4428.86003 310.036133,4428.95117 C309.59668,4429.04232 309.123047,4429.08789 308.615234,4429.08789 Z M304.601562,4426.48047 C304.875,4426.48047 305.099609,4426.39421 305.275391,4426.22168 C305.451172,4426.04915 305.539062,4425.82617 305.539062,4425.55273 L305.539,4422.868 L308.224609,4422.86719 C308.491536,4422.86719 308.711263,4422.78255 308.883789,4422.61328 C309.056315,4422.44401 309.142578,4422.22591 309.142578,4421.95898 C309.142578,4421.68555 309.057943,4421.46094 308.888672,4421.28516 C308.719401,4421.10938 308.498047,4421.02148 308.224609,4421.02148 L305.539,4421.022 L305.539062,4418.3457 C305.539062,4418.07227 305.451172,4417.84928 305.275391,4417.67676 C305.099609,4417.50423 304.875,4417.41797 304.601562,4417.41797 C304.334635,4417.41797 304.116536,4417.50423 303.947266,4417.67676 C303.777995,4417.84928 303.693359,4418.07227 303.693359,4418.3457 L303.693,4421.022 L301.007812,4421.02148 C300.734375,4421.02148 300.511393,4421.10938 300.338867,4421.28516 C300.166341,4421.46094 300.080078,4421.68555 300.080078,4421.95898 C300.080078,4422.22591 300.167969,4422.44401 300.34375,4422.61328 C300.519531,4422.78255 300.740885,4422.86719 301.007812,4422.86719 L303.693,4422.868 L303.693359,4425.55273 C303.693359,4425.82617 303.777995,4426.04915 303.947266,4426.22168 C304.116536,4426.39421 304.334635,4426.48047 304.601562,4426.48047 Z" id="􀑍"></path>
        </g>
    </g>
</svg>