<?xml version="1.0" encoding="UTF-8"?>
<svg width="46px" height="46px" viewBox="0 0 46 46" version="1.1" xmlns="http://www.w3.org/2000/svg" xmlns:xlink="http://www.w3.org/1999/xlink">
    <title>Group 2</title>
    <g id="Web" stroke="none" stroke-width="1" fill="none" fill-rule="evenodd">
        <g id="Home" transform="translate(-789.000000, -564.000000)">
            <g id="Group-2" transform="translate(790.000000, 565.000000)">
                <rect id="Rectangle" stroke-opacity="0.153829081" stroke="#034D2E" fill="#FFFFFF" x="0" y="0" width="44" height="44" rx="6"></rect>
                <path d="M32.921875,35.1640625 C33.296875,35.1640625 33.6367188,35.0625 33.9414062,34.859375 C34.2460938,34.65625 34.4882812,34.3847656 34.6679688,34.0449219 C34.8476562,33.7050781 34.9375,33.3359375 34.9375,32.9375 C34.9375,32.5625 34.8554688,32.1308594 34.6914062,31.6425781 C34.5273438,31.1542969 34.2988281,30.6328125 34.0058594,30.078125 C33.7128906,29.5234375 33.3769531,28.9453125 32.9980469,28.34375 L32.6106771,27.7408854 L32.6106771,27.7408854 L32.25,27.201 L32.2714844,27.1542969 L32.2714844,27.1542969 C32.7675781,26.0253906 33.015625,24.7851562 33.015625,23.4335937 C33.015625,22.1289062 32.765625,20.9277344 32.265625,19.8300781 C31.765625,18.7324219 31.0644531,17.7792969 30.1621094,16.9707031 C29.2597656,16.1621094 28.1953125,15.5371094 26.96875,15.0957031 C25.7421875,14.6542969 24.4023438,14.4335937 22.9492188,14.4335937 C21.9570312,14.4335937 20.9707031,14.5234375 19.9902344,14.703125 C19.0097656,14.8828125 18,14.9726562 16.9609375,14.9726562 C16.0859375,14.9726562 15.2988281,14.828125 14.5996094,14.5390625 C13.9003906,14.25 13.2617188,13.78125 12.6835938,13.1328125 C12.3476562,12.734375 11.9550781,12.4941406 11.5058594,12.4121094 C11.0566406,12.3300781 10.6386719,12.40625 10.2519531,12.640625 C9.86523438,12.875 9.60546875,13.2695312 9.47265625,13.8242187 C9.37109375,14.2148437 9.29296875,14.6738281 9.23828125,15.2011719 C9.18359375,15.7285156 9.14648438,16.2246094 9.12695312,16.6894531 C9.10742188,17.1542969 9.09765625,17.4960937 9.09765625,17.7148437 C9.09765625,19.9726562 9.42382812,22.0214844 10.0761719,23.8613281 C10.7285156,25.7011719 11.6621094,27.2792969 12.8769531,28.5957031 C14.0917969,29.9121094 15.5449219,30.9257812 17.2363281,31.6367187 C18.9277344,32.3476562 20.8164062,32.703125 22.9023438,32.703125 C24.3789062,32.703125 25.7324219,32.4746094 26.9628906,32.0175781 C28.1933594,31.5605469 29.2617188,30.9179687 30.1679688,30.0898437 L30.266,29.996 L30.4232178,30.4025879 C30.5968018,30.8757324 30.7539062,31.3730469 30.8945312,31.8945312 C31.0820312,32.5898437 31.296875,33.3242187 31.5390625,34.0976562 C31.65625,34.4492187 31.8359375,34.7148437 32.078125,34.8945312 C32.3203125,35.0742187 32.6015625,35.1640625 32.921875,35.1640625 Z M22.9023438,29.9257812 C21.2070312,29.9257812 19.6816406,29.6425781 18.3261719,29.0761719 C16.9707031,28.5097656 15.8125,27.6953125 14.8515625,26.6328125 C13.890625,25.5703125 13.1542969,24.2871094 12.6425781,22.7832031 C12.1308594,21.2792969 11.875,19.5898437 11.875,17.7148437 C11.875,17.5039062 11.8789062,17.2910156 11.8867188,17.0761719 C11.8945312,16.8613281 11.9101562,16.671875 11.9335938,16.5078125 C11.9414062,16.2734375 12.0429688,16.2148437 12.2382812,16.3320312 C12.8867188,16.7851562 13.6289062,17.1328125 14.4648438,17.375 C15.3007812,17.6171875 16.1328125,17.7382812 16.9609375,17.7382812 C17.609375,17.7382812 18.2285156,17.7050781 18.8183594,17.6386719 C19.4082031,17.5722656 19.9648438,17.5039062 20.4882812,17.4335937 C20.9492188,17.3710937 21.3808594,17.3183594 21.7832031,17.2753906 C22.1855469,17.2324219 22.5742188,17.2109375 22.9492188,17.2109375 C24.3789062,17.2109375 25.6425781,17.4746094 26.7402344,18.0019531 C27.8378906,18.5292969 28.6953125,19.2617187 29.3125,20.1992187 C29.9296875,21.1367188 30.2382812,22.2148438 30.2382812,23.4335938 C30.2382812,23.8606771 30.2039931,24.2708333 30.1354167,24.6640625 L30.095,24.864 L29.9390024,24.7521958 C29.476262,24.4392335 28.9646935,24.1618089 28.4042969,23.9199219 C26.9472656,23.2910156 25.0742188,22.8046875 22.7851562,22.4609375 C21.8867188,22.328125 21.0878906,22.1679687 20.3886719,21.9804688 C19.6894531,21.7929688 19.078125,21.5527344 18.5546875,21.2597656 C18.03125,20.9667969 17.5820312,20.59375 17.2070312,20.140625 C17.0195312,19.9296875 16.8183594,19.828125 16.6035156,19.8359375 C16.3886719,19.84375 16.2167969,19.9355469 16.0878906,20.1113281 C15.9589844,20.2871094 15.9414062,20.515625 16.0351562,20.796875 C16.2539062,21.4609375 16.6367188,22.0410156 17.1835938,22.5371094 C17.7304688,23.0332031 18.4101562,23.4570312 19.2226562,23.8085938 C20.0351562,24.1601562 20.9492188,24.453125 21.9648438,24.6875 C23.0585938,24.9296875 23.9882812,25.171875 24.7539062,25.4140625 C25.5195312,25.65625 26.1679688,25.9101562 26.6992188,26.1757812 C27.2304688,26.4414062 27.6933594,26.7402344 28.0878906,27.0722656 C28.2457031,27.2050781 28.4007031,27.3463281 28.5528906,27.4960156 L28.692,27.639 L28.5431302,27.8004261 C28.0382877,28.3224432 27.4353693,28.7574574 26.734375,29.1054687 C25.6328125,29.6523437 24.3554688,29.9257812 22.9023438,29.9257812 Z" id="􀥲" fill="#034D2E" fill-rule="nonzero" opacity="0.799548921"></path>
            </g>
        </g>
    </g>
</svg>