<?xml version="1.0" encoding="UTF-8"?>
<svg width="26px" height="27px" viewBox="0 0 26 27" version="1.1" xmlns="http://www.w3.org/2000/svg" xmlns:xlink="http://www.w3.org/1999/xlink">
    <title>Group 2</title>
    <g id="Page-1" stroke="none" stroke-width="1" fill="none" fill-rule="evenodd">
        <g id="Desktop-HD" transform="translate(-1136.000000, -926.000000)" fill-rule="nonzero">
            <g id="Group-2" transform="translate(1136.643066, 926.200684)">
                <path d="M12.1347656,18.9257812 C13.0625,18.9257812 13.759847,18.689209 14.2268066,18.2160645 C14.6937663,17.7429199 14.9272461,17.039388 14.9272461,16.1054688 L14.9272461,8.13623047 C14.9272461,7.74039714 14.905599,7.40641276 14.8623047,7.13427734 C14.8190104,6.86214193 14.7355143,6.61319987 14.6118164,6.38745117 C14.4881185,6.16170247 14.3025716,5.92513021 14.0551758,5.67773438 L9.34228516,0.890625 C9.10725911,0.649414063 8.87841797,0.463867188 8.65576172,0.333984375 C8.43310547,0.204101562 8.19034831,0.115966797 7.92749023,0.0695800781 C7.66463216,0.0231933594 7.35384115,0 6.99511719,0 L2.79248047,0 C1.87093099,0 1.17513021,0.23811849 0.705078125,0.714355469 C0.235026042,1.19059245 0,1.89567057 0,2.82958984 L0,16.1054688 C0,17.039388 0.235026042,17.7429199 0.705078125,18.2160645 C1.17513021,18.689209 1.87093099,18.9257812 2.79248047,18.9257812 L12.1347656,18.9257812 Z M12.0141602,17.3300781 L2.90380859,17.3300781 C2.47086589,17.3300781 2.14461263,17.21875 1.92504883,16.9960938 C1.70548503,16.7734375 1.59570312,16.4518229 1.59570312,16.03125 L1.59570312,2.90380859 C1.59570312,2.48942057 1.70703125,2.16935221 1.9296875,1.94360352 C2.15234375,1.71785482 2.48014323,1.60498047 2.91308594,1.60498047 L6.72607422,1.60498047 L6.72607422,6.52197266 C6.72607422,7.12190755 6.87296549,7.56876628 7.16674805,7.86254883 C7.4605306,8.15633138 7.90120443,8.30322266 8.48876953,8.30322266 L13.3408203,8.30322266 L13.3408203,16.03125 C13.3408203,16.4518229 13.2310384,16.7734375 13.0114746,16.9960938 C12.7919108,17.21875 12.4594727,17.3300781 12.0141602,17.3300781 Z M13.090332,6.86523438 L8.65576172,6.86523438 C8.48258464,6.86523438 8.35579427,6.82503255 8.27539062,6.74462891 C8.19498698,6.66422526 8.15478516,6.53434245 8.15478516,6.35498047 L8.15478516,1.85546875 L13.090332,6.86523438 Z M8.70214844,16.5786133 C9.14127604,16.5786133 9.36083984,16.3466797 9.36083984,15.8828125 L9.36083984,13.3964844 C9.36083984,12.9697266 9.18147786,12.7408854 8.82275391,12.7099609 L8.82275391,11.9770508 C8.82275391,11.4018555 8.66194661,10.9348958 8.34033203,10.5761719 C8.01871745,10.2174479 7.60123698,10.0380859 7.08789062,10.0380859 C6.56835938,10.0380859 6.15087891,10.2174479 5.83544922,10.5761719 C5.52001953,10.9348958 5.36230469,11.4018555 5.36230469,11.9770508 L5.36230469,12.7099609 C4.99739583,12.7408854 4.81494141,12.9697266 4.81494141,13.3964844 L4.81494141,15.8828125 C4.81494141,16.3466797 5.03141276,16.5786133 5.46435547,16.5786133 L8.70214844,16.5786133 Z M8.11767578,12.6914062 L6.06738281,12.6914062 L6.06738281,11.9121094 C6.06738281,11.5533854 6.16015625,11.2642415 6.34570312,11.0446777 C6.53125,10.8251139 6.77864583,10.715332 7.08789062,10.715332 C7.39713542,10.715332 7.64607747,10.8251139 7.8347168,11.0446777 C8.02335612,11.2642415 8.11767578,11.5533854 8.11767578,11.9121094 L8.11767578,12.6914062 Z" id="􀢍" fill="#2F55D4"></path>
                <path d="M22.7990723,19.8305664 L22.7990723,9.34716797 C22.7990723,8.64208984 22.5748698,8.0715332 22.1264648,7.63549805 C21.6780599,7.19946289 21.0889486,6.98144531 20.3591309,6.98144531 L13.614502,6.98144531 C13.0887858,6.98144531 12.6403809,7.09431966 12.2692871,7.32006836 C11.8981934,7.54581706 11.6291504,7.85970052 11.4621582,8.26171875 C11.4497884,8.29264323 11.4389648,8.32202148 11.4296875,8.34985352 C11.4204102,8.37768555 11.4095866,8.40397135 11.3972168,8.42871094 L12.751709,9.77392578 L12.751709,9.69506836 L12.751709,9.69506836 C12.751709,9.67342122 12.7548014,9.64713542 12.7609863,9.61621094 C12.7671712,9.28841146 12.8661296,9.03483073 13.0578613,8.85546875 C13.2495931,8.67610677 13.5186361,8.58642578 13.8649902,8.58642578 L14.2268066,8.58642578 L14.2268066,9.02246094 C14.2268066,9.20800781 14.2824707,9.35799154 14.3937988,9.47241211 C14.505127,9.58683268 14.6535645,9.64404297 14.8391113,9.64404297 L19.1159668,9.64404297 C19.3076986,9.64404297 19.4592285,9.58683268 19.5705566,9.47241211 C19.6818848,9.35799154 19.7375488,9.20800781 19.7375488,9.02246094 L19.7369336,8.58731641 L20.0900879,8.58642578 C20.442627,8.58642578 20.7163086,8.68074544 20.9111328,8.86938477 C21.105957,9.05802409 21.2033691,9.32242839 21.2033691,9.66259766 L21.2033691,18.2348633 L22.7990723,19.8305664 Z M24.385498,24.5991211 C24.5772298,24.5991211 24.7380371,24.5310872 24.8679199,24.3950195 C24.9978027,24.2589518 25.0627441,24.0965983 25.0627441,23.907959 C25.0627441,23.7193197 24.9978027,23.5569661 24.8679199,23.4208984 L10.052002,8.61425781 C9.92211914,8.4781901 9.76131185,8.40861003 9.56958008,8.40541888 C9.37784831,8.40242513 9.21085612,8.47200521 9.06860352,8.61425781 C8.9449056,8.74414062 8.88305664,8.90649414 8.88305664,9.10131836 C8.88305664,9.29614258 8.9449056,9.45540365 9.06860352,9.57910156 L23.8937988,24.3950195 C24.0298665,24.5310872 24.1937663,24.5991211 24.385498,24.5991211 Z M20.3591309,25.9257812 C21.3858236,25.9257812 22.0816243,25.5206706 22.4465332,24.7104492 C22.458903,24.6857096 22.472819,24.6594238 22.4882812,24.6315918 C22.5037435,24.6037598 22.5145671,24.5805664 22.520752,24.5620117 L21.1940918,23.2075195 L21.1940918,23.2817383 L21.1940918,23.2817383 C21.1940918,23.3064779 21.1909993,23.3343099 21.1848145,23.3652344 C21.1662598,23.6682943 21.0626628,23.9017741 20.8740234,24.0656738 C20.6853841,24.2295736 20.4240723,24.3115234 20.0900879,24.3115234 L13.8649902,24.3115234 C13.5124512,24.3115234 13.2372233,24.2172038 13.0393066,24.0285645 C12.84139,23.8399251 12.7424316,23.5755208 12.7424316,23.2353516 L12.7424316,14.7836914 L11.1560059,13.1879883 L11.1560059,23.5693359 C11.1560059,24.280599 11.3817546,24.8511556 11.833252,25.2810059 C12.2847493,25.7108561 12.8784993,25.9257812 13.614502,25.9257812 L20.3591309,25.9257812 Z M19.310791,23.6342773 C19.428304,23.6342773 19.5288086,23.5956217 19.6123047,23.5183105 C19.6958008,23.4409993 19.7375488,23.3374023 19.7375488,23.2075195 C19.7375488,23.0776367 19.6958008,22.9740397 19.6123047,22.8967285 C19.5288086,22.8194173 19.428304,22.7807617 19.310791,22.7807617 L14.6535645,22.7807617 C14.5298665,22.7807617 14.4278158,22.8194173 14.3474121,22.8967285 C14.2670085,22.9740397 14.2268066,23.0776367 14.2268066,23.2075195 C14.2268066,23.3374023 14.2670085,23.4409993 14.3474121,23.5183105 C14.4278158,23.5956217 14.5298665,23.6342773 14.6535645,23.6342773 L19.310791,23.6342773 Z" id="􀨵" fill="#000000"></path>
            </g>
        </g>
    </g>
</svg>