<?xml version="1.0" encoding="UTF-8"?>
<svg width="44px" height="44px" viewBox="0 0 44 44" version="1.1" xmlns="http://www.w3.org/2000/svg" xmlns:xlink="http://www.w3.org/1999/xlink">
    <title>Group</title>
    <g id="Dashboard---doctors--webapp" stroke="none" stroke-width="1" fill="none" fill-rule="evenodd">
        <g id="Dashboard-Copy" transform="translate(-299.000000, -391.000000)">
            <g id="Group" transform="translate(299.000000, 391.000000)">
                <rect id="Rectangle" fill="#0080FF" x="0" y="0" width="44" height="44" rx="8"></rect>
                <path d="M29.7387695,29.9443359 C31.4233398,29.9443359 32.3535156,29.0141602 32.3535156,27.3442383 L32.3535156,19.7636719 C32.3535156,18.0864258 31.4233398,17.1635742 29.7387695,17.1635742 L28.1567383,17.1635742 L27.7319336,14.7392578 C27.4389648,13.0986328 26.3696289,12.3442383 24.7070312,12.637207 L14.050293,14.512207 C12.3876953,14.8051758 11.640625,15.8818359 11.9262695,17.5297852 L13.2373047,24.9931641 C13.5302734,26.6411133 14.6069336,27.3955078 16.2695313,27.0952148 L16.3061523,27.0952148 L16.3061523,27.3442383 C16.3061523,29.0141602 17.2290039,29.9443359 18.9208984,29.9443359 L29.7387695,29.9443359 Z M15.1269531,24.4072266 L13.9038086,17.4345703 C13.7939453,16.8339844 14.0429688,16.5043945 14.6142578,16.4091797 L24.8242188,14.6000977 C25.3881836,14.5048828 25.7397461,14.7246094 25.8496094,15.3325195 L26.171875,17.1635742 L18.9208984,17.1635742 C17.2290039,17.1635742 16.3061523,18.0864258 16.3061523,19.7636719 L16.3061523,25.1030273 L16.1523438,25.1323242 C15.5883789,25.2275391 15.2368164,25.0078125 15.1269531,24.4072266 Z M18.269043,26.2602539 L18.269043,20.0126953 C18.269043,19.4047852 18.5693359,19.1264648 19.1479492,19.1264648 L29.5117188,19.1264648 C30.0830078,19.1264648 30.3979492,19.4047852 30.3979492,20.0126953 L30.3979492,25.6962891 L27.8198242,23.3012695 C27.5341797,23.0375977 27.1899414,22.9057617 26.8237305,22.9057617 C26.4648438,22.9057617 26.1279297,23.0375977 25.8276367,23.2939453 L22.8027344,25.9746094 L21.5869141,24.8833008 C21.315918,24.6342773 21.0009766,24.5097656 20.6860352,24.5097656 C20.3857422,24.5097656 20.078125,24.6269531 19.8144531,24.8686523 L18.269043,26.2602539 Z M21.9970703,23.6015625 C22.8979492,23.6015625 23.6669922,22.8325195 23.6669922,21.9389648 C23.6669922,21.0307617 22.8979492,20.2617188 21.9970703,20.2617188 C21.1035156,20.2617188 20.3344727,21.0307617 20.3344727,21.9389648 C20.3344727,22.8325195 21.1035156,23.6015625 21.9970703,23.6015625 Z" id="􀣵" fill="#F6F7FB" fill-rule="nonzero"></path>
            </g>
        </g>
    </g>
</svg>