<?xml version="1.0" encoding="UTF-8"?>
<svg width="28px" height="22px" viewBox="0 0 28 22" version="1.1" xmlns="http://www.w3.org/2000/svg" xmlns:xlink="http://www.w3.org/1999/xlink">
    <title>􀏅</title>
    <g id="Dashboard---doctors--webapp" stroke="none" stroke-width="1" fill="none" fill-rule="evenodd">
        <g id="Dashboard-Copy" transform="translate(-886.000000, -765.000000)" fill="#222222" fill-rule="nonzero">
            <path d="M909.464844,786.296875 C910.652344,786.296875 911.544922,786 912.142578,785.40625 C912.740234,784.8125 913.039062,783.933594 913.039062,782.769531 L913.039062,769.257812 C913.039062,768.09375 912.740234,767.214844 912.142578,766.621094 C911.544922,766.027344 910.652344,765.730469 909.464844,765.730469 L890.398438,765.730469 C889.21875,765.730469 888.328125,766.025391 887.726562,766.615234 C887.125,767.205078 886.824219,768.085938 886.824219,769.257812 L886.824219,782.769531 C886.824219,783.941406 887.125,784.822266 887.726562,785.412109 C888.328125,786.001953 889.21875,786.296875 890.398438,786.296875 L909.464844,786.296875 Z M888.839,781.401 L888.839844,769.410156 C888.839844,768.855469 888.982422,768.4375 889.267578,768.15625 C889.552734,767.875 889.957031,767.734375 890.480469,767.734375 L909.382812,767.734375 C909.90625,767.734375 910.310547,767.875 910.595703,768.15625 C910.880859,768.4375 911.023438,768.855469 911.023438,769.410156 L911.023,781.326 L905.304688,775.972656 C905.0625,775.753906 904.798828,775.585938 904.513672,775.46875 C904.228516,775.351562 903.9375,775.292969 903.640625,775.292969 C903.34375,775.292969 903.056641,775.347656 902.779297,775.457031 C902.501953,775.566406 902.238281,775.734375 901.988281,775.960938 L896.972656,780.425781 L894.921875,778.585938 C894.6875,778.375 894.445312,778.214844 894.195312,778.105469 C893.945312,777.996094 893.6875,777.941406 893.421875,777.941406 C893.179688,777.941406 892.939453,777.994141 892.701172,778.099609 C892.462891,778.205078 892.230469,778.359375 892.003906,778.5625 L888.839,781.401 Z M895.285156,776.160156 C895.761719,776.160156 896.199219,776.041016 896.597656,775.802734 C896.996094,775.564453 897.314453,775.246094 897.552734,774.847656 C897.791016,774.449219 897.910156,774.007812 897.910156,773.523438 C897.910156,773.039062 897.791016,772.595703 897.552734,772.193359 C897.314453,771.791016 896.996094,771.470703 896.597656,771.232422 C896.199219,770.994141 895.761719,770.875 895.285156,770.875 C894.792969,770.875 894.347656,770.994141 893.949219,771.232422 C893.550781,771.470703 893.232422,771.791016 892.994141,772.193359 C892.755859,772.595703 892.636719,773.039062 892.636719,773.523438 C892.636719,774.007812 892.755859,774.449219 892.994141,774.847656 C893.232422,775.246094 893.550781,775.564453 893.949219,775.802734 C894.347656,776.041016 894.792969,776.160156 895.285156,776.160156 Z" id="􀏅"></path>
        </g>
    </g>
</svg>