<?xml version="1.0" encoding="UTF-8"?>
<svg width="44px" height="44px" viewBox="0 0 44 44" version="1.1" xmlns="http://www.w3.org/2000/svg" xmlns:xlink="http://www.w3.org/1999/xlink">
    <title>Group 13</title>
    <g id="Dashboard---doctors--webapp" stroke="none" stroke-width="1" fill="none" fill-rule="evenodd">
        <g id="Dashboard-Copy" transform="translate(-356.000000, -391.000000)">
            <g id="Group-13" transform="translate(356.000000, 391.000000)">
                <rect id="Rectangle-Copy-6" fill="#0080FF" x="0" y="0" width="44" height="44" rx="8"></rect>
                <path d="M23.609375,28.6772461 L29.1025391,23.184082 C29.4101563,22.8764648 29.4101563,22.3051758 29.0878906,22.0048828 C28.7875977,21.6826172 28.2675781,21.7045898 27.9453125,22.0195312 L22.4960938,27.46875 C21.1630859,28.809082 19.3833008,28.6918945 18.2333984,27.534668 C17.0761719,26.3920898 16.9736328,24.6196289 18.3066406,23.2792969 L25.7993164,15.7866211 C26.5390625,15.046875 27.6743164,14.8564453 28.4287109,15.6035156 C29.1831055,16.3652344 28.9853516,17.4858398 28.2456055,18.2255859 L20.8334961,25.6523437 C20.5771484,25.9086914 20.2841797,25.8354492 20.1010742,25.6669922 C19.9399414,25.4985352 19.8740234,25.1982422 20.1230469,24.9418945 L25.2866211,19.7856445 C25.6088867,19.4560547 25.6162109,18.9726562 25.3085938,18.6577148 C24.9936523,18.3574219 24.5029297,18.3574219 24.1806641,18.6796875 L18.9951172,23.8652344 C18.1381836,24.7294922 18.1821289,26.0625 18.9511719,26.831543 C19.7788086,27.6591797 21.0385742,27.6445312 21.902832,26.7802734 L29.3662109,19.3242187 C30.8676758,17.8154297 30.8310547,15.8305664 29.4907227,14.4902344 C28.1796875,13.1791992 26.1582031,13.105957 24.6494141,14.6074219 L17.1054688,22.1660156 C15.1645508,24.1142578 15.2744141,26.9267578 17.0615234,28.7138672 C18.8486328,30.4936523 21.6611328,30.6108398 23.609375,28.6772461 Z" id="􀉢" fill="#F6F7FB" fill-rule="nonzero"></path>
            </g>
        </g>
    </g>
</svg>