<?xml version="1.0" encoding="UTF-8"?>
<svg width="24px" height="26px" viewBox="0 0 24 26" version="1.1" xmlns="http://www.w3.org/2000/svg" xmlns:xlink="http://www.w3.org/1999/xlink">
    <title>􀣗</title>
    <g id="Dashboard---doctors--webapp" stroke="none" stroke-width="1" fill="none" fill-rule="evenodd">
        <g id="Dashboard-Copy" transform="translate(-843.000000, -763.000000)" fill="#222222" fill-rule="nonzero">
            <path d="M863.152344,786.949219 C864.324219,786.949219 865.205078,786.650391 865.794922,786.052734 C866.384766,785.455078 866.679688,784.566406 866.679688,783.386719 L866.679688,773.320312 C866.679688,772.820312 866.652344,772.398438 866.597656,772.054688 C866.542969,771.710938 866.4375,771.396484 866.28125,771.111328 C866.125,770.826172 865.890625,770.527344 865.578125,770.214844 L859.625,764.167969 C859.328125,763.863281 859.039062,763.628906 858.757812,763.464844 C858.476562,763.300781 858.169922,763.189453 857.837891,763.130859 C857.505859,763.072266 857.113281,763.042969 856.660156,763.042969 L851.351562,763.042969 C850.1875,763.042969 849.308594,763.34375 848.714844,763.945312 C848.121094,764.546875 847.824219,765.4375 847.824219,766.617188 L847.824219,776.167969 L848.316406,776.121094 L848.316406,776.121094 C848.480469,776.105469 848.648438,776.097656 848.820312,776.097656 C848.984375,776.097656 849.150391,776.105469 849.318359,776.121094 C849.486328,776.136719 849.660156,776.15625 849.839844,776.179688 L849.839844,766.710938 C849.839844,766.1875 849.980469,765.783203 850.261719,765.498047 C850.542969,765.212891 850.957031,765.070312 851.503906,765.070312 L856.320312,765.070312 L856.320312,771.28125 C856.320312,772.039062 856.505859,772.603516 856.876953,772.974609 C857.248047,773.345703 857.804688,773.53125 858.546875,773.53125 L864.675781,773.53125 L864.675781,783.292969 C864.675781,783.824219 864.537109,784.230469 864.259766,784.511719 C863.982422,784.792969 863.5625,784.933594 863,784.933594 L855.839844,784.933594 C855.769531,785.300781 855.667969,785.652344 855.535156,785.988281 C855.402344,786.324219 855.242188,786.644531 855.054688,786.949219 L863.152344,786.949219 Z M864.359375,771.714844 L858.757812,771.714844 C858.539062,771.714844 858.378906,771.664062 858.277344,771.5625 C858.175781,771.460938 858.125,771.296875 858.125,771.070312 L858.125,765.386719 L864.359375,771.714844 Z M848.84375,789.011719 C849.609375,789.011719 850.333984,788.861328 851.017578,788.560547 C851.701172,788.259766 852.304688,787.847656 852.828125,787.324219 C853.351562,786.800781 853.761719,786.197266 854.058594,785.513672 C854.355469,784.830078 854.503906,784.101562 854.503906,783.328125 C854.503906,782.546875 854.357422,781.814453 854.064453,781.130859 C853.771484,780.447266 853.365234,779.84375 852.845703,779.320312 C852.326172,778.796875 851.722656,778.386719 851.035156,778.089844 C850.347656,777.792969 849.617188,777.644531 848.84375,777.644531 C848.0625,777.644531 847.330078,777.794922 846.646484,778.095703 C845.962891,778.396484 845.359375,778.806641 844.835938,779.326172 C844.3125,779.845703 843.902344,780.447266 843.605469,781.130859 C843.308594,781.814453 843.160156,782.546875 843.160156,783.328125 C843.160156,784.109375 843.308594,784.841797 843.605469,785.525391 C843.902344,786.208984 844.3125,786.8125 844.835938,787.335938 C845.359375,787.859375 845.962891,788.269531 846.646484,788.566406 C847.330078,788.863281 848.0625,789.011719 848.84375,789.011719 Z M848.832031,786.902344 C848.621094,786.902344 848.449219,786.835938 848.316406,786.703125 C848.183594,786.570312 848.117188,786.398438 848.117188,786.1875 L848.117188,784.054688 L845.984375,784.054688 C845.765625,784.054688 845.589844,783.988281 845.457031,783.855469 C845.324219,783.722656 845.257812,783.546875 845.257812,783.328125 C845.257812,783.101562 845.324219,782.923828 845.457031,782.794922 C845.589844,782.666016 845.765625,782.601562 845.984375,782.601562 L848.117188,782.601562 L848.117188,780.480469 C848.117188,780.261719 848.183594,780.085938 848.316406,779.953125 C848.449219,779.820312 848.621094,779.753906 848.832031,779.753906 C849.050781,779.753906 849.226562,779.820312 849.359375,779.953125 C849.492188,780.085938 849.558594,780.261719 849.558594,780.480469 L849.558594,782.601562 L851.691406,782.601562 C851.910156,782.601562 852.085938,782.666016 852.21875,782.794922 C852.351562,782.923828 852.417969,783.101562 852.417969,783.328125 C852.417969,783.546875 852.351562,783.722656 852.21875,783.855469 C852.085938,783.988281 851.910156,784.054688 851.691406,784.054688 L849.558594,784.054688 L849.558594,786.1875 C849.558594,786.398438 849.492188,786.570312 849.359375,786.703125 C849.226562,786.835938 849.050781,786.902344 848.832031,786.902344 Z" id="􀣗"></path>
        </g>
    </g>
</svg>