<?xml version="1.0" encoding="UTF-8"?>
<svg width="27px" height="20px" viewBox="0 0 27 20" version="1.1" xmlns="http://www.w3.org/2000/svg" xmlns:xlink="http://www.w3.org/1999/xlink">
    <title>􀐾</title>
    <g id="icons" stroke="none" stroke-width="1" fill="none" fill-rule="evenodd">
        <g id="Desktop-HD" transform="translate(-620.000000, -958.000000)" fill="#504F4F" fill-rule="nonzero">
            <path d="M644.025391,977.314453 C644.904297,977.314453 645.586263,977.084961 646.071289,976.625977 C646.556315,976.166992 646.798828,975.520833 646.798828,974.6875 L646.798828,961.25 C646.798828,960.416667 646.556315,959.76888 646.071289,959.306641 C645.586263,958.844401 644.904297,958.613281 644.025391,958.613281 L641.740234,958.613281 C640.867839,958.613281 640.190755,958.844401 639.708984,959.306641 C639.227214,959.76888 638.986328,960.416667 638.986328,961.25 L638.986328,974.6875 C638.986328,975.520833 639.227214,976.166992 639.708984,976.625977 C640.190755,977.084961 640.867839,977.314453 641.740234,977.314453 L644.025391,977.314453 Z M643.683594,975.332031 L642.091797,975.332031 C641.753255,975.332031 641.507487,975.255534 641.354492,975.102539 C641.201497,974.949544 641.125,974.707031 641.125,974.375 L641.125,961.5625 C641.125,961.223958 641.201497,960.97819 641.354492,960.825195 C641.507487,960.672201 641.753255,960.595703 642.091797,960.595703 L643.683594,960.595703 C644.028646,960.595703 644.277669,960.672201 644.430664,960.825195 C644.583659,960.97819 644.660156,961.223958 644.660156,961.5625 L644.660156,974.375 C644.660156,974.707031 644.583659,974.949544 644.430664,975.102539 C644.277669,975.255534 644.028646,975.332031 643.683594,975.332031 Z M634.777344,977.314453 C635.65625,977.314453 636.336589,977.084961 636.818359,976.625977 C637.30013,976.166992 637.541016,975.520833 637.541016,974.6875 L637.541016,964.091797 C637.541016,963.258464 637.30013,962.610677 636.818359,962.148438 C636.336589,961.686198 635.65625,961.455078 634.777344,961.455078 L632.492188,961.455078 C631.619792,961.455078 630.942708,961.686198 630.460938,962.148438 C629.979167,962.610677 629.738281,963.261719 629.738281,964.101562 L629.738281,974.6875 C629.738281,975.520833 629.979167,976.166992 630.460938,976.625977 C630.942708,977.084961 631.619792,977.314453 632.492188,977.314453 L634.777344,977.314453 Z M634.435547,975.332031 L632.853516,975.332031 C632.508464,975.332031 632.257812,975.255534 632.101562,975.102539 C631.945312,974.949544 631.867188,974.707031 631.867188,974.375 L631.867188,964.404297 C631.867188,964.072266 631.945312,963.828125 632.101562,963.671875 C632.257812,963.515625 632.508464,963.4375 632.853516,963.4375 L634.435547,963.4375 C634.774089,963.4375 635.021484,963.515625 635.177734,963.671875 C635.333984,963.828125 635.412109,964.072266 635.412109,964.404297 L635.412109,974.375 C635.412109,974.707031 635.333984,974.949544 635.177734,975.102539 C635.021484,975.255534 634.774089,975.332031 634.435547,975.332031 Z M625.529297,977.314453 C626.401693,977.314453 627.080404,977.084961 627.56543,976.625977 C628.050456,976.166992 628.292969,975.520833 628.292969,974.6875 L628.292969,966.953125 C628.292969,966.119792 628.050456,965.473633 627.56543,965.014648 C627.080404,964.555664 626.401693,964.326172 625.529297,964.326172 L623.253906,964.326172 C622.375,964.326172 621.694661,964.555664 621.212891,965.014648 C620.73112,965.473633 620.490234,966.123047 620.490234,966.962891 L620.490234,974.6875 C620.490234,975.520833 620.73112,976.166992 621.212891,976.625977 C621.694661,977.084961 622.375,977.314453 623.253906,977.314453 L625.529297,977.314453 Z M625.177734,975.332031 L623.595703,975.332031 C623.257161,975.332031 623.009766,975.255534 622.853516,975.102539 C622.697266,974.949544 622.619141,974.707031 622.619141,974.375 L622.619141,967.265625 C622.619141,966.927083 622.697266,966.681315 622.853516,966.52832 C623.009766,966.375326 623.257161,966.298828 623.595703,966.298828 L625.1875,966.298828 C625.532552,966.298828 625.781576,966.375326 625.93457,966.52832 C626.087565,966.681315 626.164062,966.927083 626.164062,967.265625 L626.164062,974.375 C626.164062,974.707031 626.085938,974.949544 625.929688,975.102539 C625.773438,975.255534 625.522786,975.332031 625.177734,975.332031 Z" id="􀐾"></path>
        </g>
    </g>
</svg>