<?xml version="1.0" encoding="UTF-8"?>
<svg width="50px" height="49px" viewBox="0 0 50 49" version="1.1" xmlns="http://www.w3.org/2000/svg" xmlns:xlink="http://www.w3.org/1999/xlink">
    <title>Group 2</title>
    <g id="icons" stroke="none" stroke-width="1" fill="none" fill-rule="evenodd">
        <g id="Desktop-HD" transform="translate(-465.000000, -644.000000)">
            <g id="Group" transform="translate(490.000000, 668.500000) scale(-1, 1) translate(-490.000000, -668.500000) translate(465.000000, 644.000000)">
                <path d="M24.6074056,45.5159592 C25.7513415,45.5159592 26.6687186,45.1556937 27.3595371,44.4351627 C28.0503555,43.7146316 28.3957647,42.871536 28.3957647,41.9058758 C28.3957647,41.3710487 28.2694861,40.7842244 28.0169288,40.1454031 C27.7643715,39.5065817 27.5043861,38.8900448 27.2369725,38.2957924 L21.3700967,24.7461837 L27.2369725,11.1755979 C27.5043861,10.6110581 27.7643715,10.0056635 28.0169288,9.35941396 C28.2694861,8.71316446 28.3957647,8.12262612 28.3957647,7.58779895 C28.3957647,6.62213878 28.0503555,5.78275724 27.3595371,5.06965434 C26.6687186,4.35655145 25.7513415,4 24.6074056,4 C23.909159,4 23.3000503,4.19684611 22.7800794,4.59053834 C22.2601085,4.98423056 21.8589882,5.48563103 21.5767183,6.09473976 L15.1365077,20.8247715 C14.8096689,21.567587 14.5385412,22.2324069 14.3231247,22.8192311 C14.1077082,23.4060554 14,24.0485908 14,24.7468374 C14,25.4302277 14.1077082,26.069049 14.3231247,26.6633014 C14.5385412,27.2575538 14.8096689,27.9260878 15.1365077,28.6689033 L21.5767183,43.4212195 C21.8589882,44.0303282 22.2601085,44.5317287 22.7800794,44.9254209 C23.3000503,45.3191131 23.909159,45.5159592 24.6074056,45.5159592 Z" id="􀆒" fill="#0080FF" fill-rule="nonzero" transform="translate(21.197882, 24.757980) scale(-1, 1) translate(-21.197882, -24.757980) "></path>
                <rect id="Rectangle" x="0" y="0" width="50" height="49"></rect>
            </g>
        </g>
    </g>
</svg>