<?xml version="1.0" encoding="UTF-8"?>
<svg width="19px" height="20px" viewBox="0 0 19 20" version="1.1" xmlns="http://www.w3.org/2000/svg" xmlns:xlink="http://www.w3.org/1999/xlink">
    <title>􀋙@3x</title>
    <g id="icons" stroke="none" stroke-width="1" fill="none" fill-rule="evenodd">
        <g id="Desktop-HD" transform="translate(-684.000000, -502.000000)" fill="#27282E" fill-rule="nonzero">
            <path d="M693.771484,521.880859 C694.448568,521.880859 695.049154,521.724609 695.573242,521.412109 C696.097331,521.099609 696.51237,520.686198 696.818359,520.171875 C697.080636,519.731027 697.237683,519.26148 697.289501,518.763233 L697.305,518.532 L701.154297,518.53125 C701.610026,518.53125 701.969727,518.418945 702.233398,518.194336 C702.49707,517.969727 702.628906,517.671875 702.628906,517.300781 C702.628906,516.81901 702.441732,516.364909 702.067383,515.938477 C701.693034,515.512044 701.300781,515.09375 700.890625,514.683594 C700.675781,514.47526 700.509766,514.201823 700.392578,513.863281 C700.275391,513.52474 700.1875,513.156901 700.128906,512.759766 C700.070312,512.36263 700.027995,511.965495 700.001953,511.568359 C699.962891,510.389974 699.821289,509.345052 699.577148,508.433594 C699.333008,507.522135 698.958659,506.762044 698.454102,506.15332 C697.949544,505.544596 697.290365,505.09375 696.476562,504.800781 C696.313802,504.188802 695.993164,503.676107 695.514648,503.262695 C695.036133,502.849284 694.455078,502.642578 693.771484,502.642578 C693.08138,502.642578 692.49707,502.849284 692.018555,503.262695 C691.540039,503.676107 691.219401,504.188802 691.056641,504.800781 C690.242839,505.09375 689.583659,505.544596 689.079102,506.15332 C688.574544,506.762044 688.198568,507.522135 687.951172,508.433594 C687.703776,509.345052 687.563802,510.389974 687.53125,511.568359 C687.498698,511.965495 687.454753,512.36263 687.399414,512.759766 C687.344076,513.156901 687.257812,513.52474 687.140625,513.863281 C687.023438,514.201823 686.857422,514.47526 686.642578,514.683594 C686.232422,515.09375 685.840169,515.512044 685.46582,515.938477 C685.091471,516.364909 684.904297,516.81901 684.904297,517.300781 C684.904297,517.671875 685.036133,517.969727 685.299805,518.194336 C685.563477,518.418945 685.923177,518.53125 686.378906,518.53125 L690.228,518.532 L690.246293,518.763134 C690.302894,519.260981 690.462333,519.728934 690.724609,520.166992 C691.030599,520.67806 691.44401,521.091471 691.964844,521.407227 C692.485677,521.722982 693.087891,521.880859 693.771484,521.880859 Z M700.578125,516.958984 L686.935547,516.958984 L686.935547,516.841797 C687.013672,516.757161 687.117839,516.646484 687.248047,516.509766 C687.378255,516.373047 687.52474,516.22168 687.6875,516.055664 C687.85026,515.889648 688.00651,515.715495 688.15625,515.533203 C688.31901,515.344401 688.46224,515.126302 688.585938,514.878906 C688.709635,514.63151 688.812174,514.349935 688.893555,514.03418 C688.974935,513.718424 689.040039,513.370117 689.088867,512.989258 C689.137695,512.608398 689.17513,512.196615 689.201172,511.753906 C689.227214,510.464844 689.367188,509.441081 689.621094,508.682617 C689.875,507.924154 690.205404,507.357747 690.612305,506.983398 C691.019206,506.609049 691.479818,506.35026 691.994141,506.207031 C692.104818,506.18099 692.191081,506.137044 692.25293,506.075195 C692.314779,506.013346 692.352214,505.920573 692.365234,505.796875 C692.384766,505.321615 692.518229,504.9375 692.765625,504.644531 C693.013021,504.351562 693.348307,504.205078 693.771484,504.205078 C694.188151,504.205078 694.520182,504.351562 694.767578,504.644531 C695.014974,504.9375 695.148438,505.321615 695.167969,505.796875 C695.18099,505.920573 695.218424,506.013346 695.280273,506.075195 C695.342122,506.137044 695.428385,506.18099 695.539062,506.207031 C696.053385,506.35026 696.513997,506.609049 696.920898,506.983398 C697.327799,507.357747 697.656576,507.924154 697.907227,508.682617 C698.157878,509.441081 698.302734,510.464844 698.341797,511.753906 C698.354818,512.196615 698.38737,512.608398 698.439453,512.989258 C698.491536,513.370117 698.559896,513.718424 698.644531,514.03418 C698.729167,514.349935 698.831706,514.63151 698.952148,514.878906 C699.072591,515.126302 699.210938,515.344401 699.367188,515.533203 C699.523438,515.715495 699.682943,515.889648 699.845703,516.055664 C700.008464,516.22168 700.15332,516.373047 700.280273,516.509766 C700.407227,516.646484 700.50651,516.757161 700.578125,516.841797 L700.578125,516.958984 Z M693.771484,520.484375 C693.224609,520.484375 692.775391,520.306966 692.423828,519.952148 C692.111328,519.636755 691.924857,519.222339 691.864415,518.7089 L691.849,518.532 L695.683,518.532 L695.668789,518.7089 C695.608346,519.222339 695.421875,519.636755 695.109375,519.952148 C694.757812,520.306966 694.311849,520.484375 693.771484,520.484375 Z" id="􀋙"></path>
        </g>
    </g>
</svg>