<?xml version="1.0" encoding="UTF-8"?>
<svg width="19px" height="20px" viewBox="0 0 19 20" version="1.1" xmlns="http://www.w3.org/2000/svg" xmlns:xlink="http://www.w3.org/1999/xlink">
    <title>􀝖</title>
    <g id="icons" stroke="none" stroke-width="1" fill="none" fill-rule="evenodd">
        <g id="Desktop-HD" transform="translate(-525.000000, -710.000000)" fill="#27282E" fill-rule="nonzero">
            <path d="M534.771484,729.880859 C535.448568,729.880859 536.049154,729.722982 536.573242,729.407227 C537.097331,729.091471 537.51237,728.67806 537.818359,728.166992 C538.080636,727.728934 538.237683,727.260981 538.289501,726.763134 L538.305,726.532 L542.154297,726.53125 C542.610026,726.53125 542.969727,726.418945 543.233398,726.194336 C543.49707,725.969727 543.628906,725.671875 543.628906,725.300781 C543.628906,724.81901 543.441732,724.364909 543.067383,723.938477 C542.693034,723.512044 542.300781,723.09375 541.890625,722.683594 C541.682292,722.481771 541.519531,722.211589 541.402344,721.873047 C541.285156,721.534505 541.197266,721.168294 541.138672,720.774414 C541.080078,720.380534 541.034505,719.991536 541.001953,719.607422 C540.995443,719.327474 540.982422,719.054036 540.962891,718.787109 C540.943359,718.520182 540.923828,718.259766 540.904297,718.005859 C540.350911,718.220703 539.794271,718.298828 539.234375,718.240234 C539.260417,718.468099 539.283203,718.705729 539.302734,718.953125 C539.322266,719.200521 539.335286,719.467448 539.341797,719.753906 C539.354818,720.196615 539.38737,720.608398 539.439453,720.989258 C539.491536,721.370117 539.559896,721.718424 539.644531,722.03418 C539.729167,722.349935 539.831706,722.63151 539.952148,722.878906 C540.072591,723.126302 540.210938,723.344401 540.367188,723.533203 C540.523438,723.715495 540.682943,723.889648 540.845703,724.055664 C541.008464,724.22168 541.15332,724.373047 541.280273,724.509766 C541.407227,724.646484 541.50651,724.757161 541.578125,724.841797 L541.578125,724.958984 L527.935547,724.958984 L527.935547,724.841797 C528.013672,724.757161 528.117839,724.646484 528.248047,724.509766 C528.378255,724.373047 528.52474,724.22168 528.6875,724.055664 C528.85026,723.889648 529.00651,723.715495 529.15625,723.533203 C529.31901,723.344401 529.46224,723.126302 529.585938,722.878906 C529.709635,722.63151 529.812174,722.349935 529.893555,722.03418 C529.974935,721.718424 530.040039,721.370117 530.088867,720.989258 C530.137695,720.608398 530.17513,720.196615 530.201172,719.753906 C530.227214,718.464844 530.367188,717.441081 530.621094,716.682617 C530.875,715.924154 531.205404,715.357747 531.612305,714.983398 C532.019206,714.609049 532.479818,714.35026 532.994141,714.207031 C533.104818,714.18099 533.191081,714.137044 533.25293,714.075195 C533.314779,714.013346 533.352214,713.920573 533.365234,713.796875 C533.384766,713.321615 533.518229,712.9375 533.765625,712.644531 C534.013021,712.351562 534.348307,712.205078 534.771484,712.205078 C534.940755,712.205078 535.083984,712.227865 535.201172,712.273438 C535.285807,712.019531 535.393229,711.780273 535.523438,711.555664 C535.653646,711.331055 535.806641,711.121094 535.982422,710.925781 C535.604818,710.736979 535.201172,710.642578 534.771484,710.642578 C534.08138,710.642578 533.49707,710.849284 533.018555,711.262695 C532.540039,711.676107 532.219401,712.188802 532.056641,712.800781 C531.242839,713.09375 530.583659,713.544596 530.079102,714.15332 C529.574544,714.762044 529.198568,715.522135 528.951172,716.433594 C528.703776,717.345052 528.563802,718.389974 528.53125,719.568359 C528.498698,719.965495 528.454753,720.36263 528.399414,720.759766 C528.344076,721.156901 528.257812,721.52474 528.140625,721.863281 C528.023438,722.201823 527.857422,722.47526 527.642578,722.683594 C527.232422,723.09375 526.840169,723.512044 526.46582,723.938477 C526.091471,724.364909 525.904297,724.81901 525.904297,725.300781 C525.904297,725.671875 526.036133,725.969727 526.299805,726.194336 C526.563477,726.418945 526.923177,726.53125 527.378906,726.53125 L531.228,726.532 L531.246293,726.763134 C531.302894,727.260981 531.462333,727.728934 531.724609,728.166992 C532.030599,728.67806 532.44401,729.091471 532.964844,729.407227 C533.485677,729.722982 534.087891,729.880859 534.771484,729.880859 Z M539.351562,717.048828 C539.9375,717.048828 540.471354,716.903971 540.953125,716.614258 C541.434896,716.324544 541.820638,715.938802 542.110352,715.457031 C542.400065,714.97526 542.544922,714.441406 542.544922,713.855469 C542.544922,713.269531 542.400065,712.735677 542.110352,712.253906 C541.820638,711.772135 541.434896,711.386393 540.953125,711.09668 C540.471354,710.806966 539.9375,710.662109 539.351562,710.662109 C538.765625,710.662109 538.231771,710.806966 537.75,711.09668 C537.268229,711.386393 536.882487,711.772135 536.592773,712.253906 C536.30306,712.735677 536.158203,713.269531 536.158203,713.855469 C536.158203,714.441406 536.30306,714.97526 536.592773,715.457031 C536.882487,715.938802 537.268229,716.324544 537.75,716.614258 C538.231771,716.903971 538.765625,717.048828 539.351562,717.048828 Z M534.771484,728.484375 C534.224609,728.484375 533.775391,728.306966 533.423828,727.952148 C533.111328,727.636755 532.924857,727.222339 532.864415,726.7089 L532.849,726.532 L536.683,726.532 L536.668789,726.7089 C536.608346,727.222339 536.421875,727.636755 536.109375,727.952148 C535.757812,728.306966 535.311849,728.484375 534.771484,728.484375 Z" id="􀝖"></path>
        </g>
    </g>
</svg>