<?xml version="1.0" encoding="UTF-8"?>
<svg width="33px" height="51px" viewBox="0 0 33 51" version="1.1" xmlns="http://www.w3.org/2000/svg" xmlns:xlink="http://www.w3.org/1999/xlink">
    <title>􀋥</title>
    <g id="Icons" stroke="none" stroke-width="1" fill="none" fill-rule="evenodd">
        <g id="Desktop-HD" transform="translate(-1325.000000, -177.000000)" fill="#0080FF" fill-rule="nonzero">
            <path d="M1334.67188,227.90625 C1335.27344,227.90625 1335.83203,227.585938 1336.34766,226.945313 L1356.80859,200.742188 C1357.19922,200.242188 1357.39453,199.75 1357.39453,199.265625 C1357.39453,198.828125 1357.24219,198.460938 1356.9375,198.164063 C1356.63281,197.867188 1356.23828,197.71875 1355.75391,197.71875 L1343.14453,197.71875 L1349.73047,180.398438 C1350.02734,179.601563 1350.01172,178.960938 1349.68359,178.476563 C1349.35547,177.992188 1348.88672,177.746094 1348.27734,177.73814 C1347.66797,177.730469 1347.11328,178.046875 1346.61328,178.6875 L1326.15234,204.914063 C1325.74609,205.414063 1325.54297,205.898438 1325.54297,206.367188 C1325.54297,206.804688 1325.69922,207.175781 1326.01172,207.480469 C1326.32422,207.785156 1326.72266,207.9375 1327.20703,207.9375 L1339.81641,207.9375 L1333.20703,225.234375 C1332.92578,226.03125 1332.94922,226.675781 1333.27734,227.167969 C1333.60547,227.660156 1334.07031,227.90625 1334.67188,227.90625 Z M1339.11,217.611 L1345.18359,204.46875 L1331.40234,204.46875 L1343.777,188.089 L1337.75391,201.164063 L1351.53516,201.164063 L1339.11,217.611 Z" id="􀋥"></path>
        </g>
    </g>
</svg>