<?xml version="1.0" encoding="UTF-8"?>
<svg width="40px" height="37px" viewBox="0 0 40 37" version="1.1" xmlns="http://www.w3.org/2000/svg" xmlns:xlink="http://www.w3.org/1999/xlink">
    <title>Group 5</title>
    <g id="Icons" stroke="none" stroke-width="1" fill="none" fill-rule="evenodd">
        <g id="Desktop-HD" transform="translate(-227.000000, -245.000000)" fill="#0080FF" fill-rule="nonzero">
            <g id="Group-5" transform="translate(227.000000, 245.000000)">
                <g id="Group-4">
                    <path d="M33.3398438,36.5039062 C35.4622396,36.5039062 37.0638021,35.9667969 38.1445312,34.8925781 C39.2252604,33.8183594 39.765625,32.2330729 39.765625,30.1367188 L39.765625,6.3671875 C39.765625,4.27083333 39.2252604,2.68554688 38.1445312,1.61132812 C37.0638021,0.537109375 35.4622396,0 33.3398438,0 L6.4453125,0 C4.32291667,0 2.71809896,0.537109375 1.63085938,1.61132812 C0.543619792,2.68554688 0,4.27083333 0,6.3671875 L0,30.1367188 C0,32.2330729 0.543619792,33.8183594 1.63085938,34.8925781 C2.71809896,35.9667969 4.32291667,36.5039062 6.4453125,36.5039062 L33.3398438,36.5039062 Z M33.3398438,32.5976562 L6.42578125,32.5976562 C5.61848958,32.5976562 4.99674479,32.3860677 4.56054688,31.9628906 C4.12434896,31.5397135 3.90625,30.9049479 3.90625,30.0585938 L3.90625,12.0703125 C3.90625,11.2239583 4.12434896,10.5891927 4.56054688,10.1660156 C4.99674479,9.74283854 5.61848958,9.53125 6.42578125,9.53125 L33.3398438,9.53125 C34.1601562,9.53125 34.7851562,9.74283854 35.2148438,10.1660156 C35.6445312,10.5891927 35.859375,11.2239583 35.859375,12.0703125 L35.859375,30.0585938 C35.859375,30.9049479 35.6445312,31.5397135 35.2148438,31.9628906 C34.7851562,32.3860677 34.1601562,32.5976562 33.3398438,32.5976562 Z" id="􀉉"></path>
                </g>
                <path d="M21.6796875,28.1328125 C22.9088542,28.1328125 23.8372396,27.8242188 24.4648438,27.2070312 C25.0924479,26.5898438 25.40625,25.7161458 25.40625,24.5859375 L25.405625,24.2688125 L27.5546875,26.1015625 C27.8671875,26.3723958 28.1627604,26.5885417 28.4414062,26.75 C28.7200521,26.9114583 29.0104167,26.9921875 29.3125,26.9921875 C29.7447917,26.9921875 30.1028646,26.8567708 30.3867188,26.5859375 C30.6705729,26.3151042 30.8125,25.9375 30.8125,25.453125 L30.8125,16.90625 C30.8125,16.4166667 30.6705729,16.0377604 30.3867188,15.7695312 C30.1028646,15.5013021 29.7447917,15.3671875 29.3125,15.3671875 C29.0052083,15.3671875 28.7135417,15.4479167 28.4375,15.609375 C28.1614583,15.7708333 27.8671875,15.984375 27.5546875,16.25 L25.405625,18.0838125 L25.40625,17.5390625 C25.40625,16.4088542 25.0924479,15.5364583 24.4648438,14.921875 C23.8372396,14.3072917 22.9088542,14 21.6796875,14 L13.7265625,14 C12.4973958,14 11.5690104,14.3072917 10.9414062,14.921875 C10.3138021,15.5364583 10,16.4114583 10,17.546875 L10,24.8828125 C10,26.0078125 10.3138021,26.8307292 10.9414062,27.3515625 C11.5690104,27.8723958 12.4973958,28.1328125 13.7265625,28.1328125 L21.6796875,28.1328125 Z M21.21875,25.6484375 L14.171875,25.6484375 C13.6875,25.6484375 13.3151042,25.5130208 13.0546875,25.2421875 C12.7942708,24.9713542 12.6640625,24.6171875 12.6640625,24.1796875 L12.6640625,17.953125 C12.6640625,17.4635417 12.7942708,17.0950521 13.0546875,16.8476562 C13.3151042,16.6002604 13.6875,16.4765625 14.171875,16.4765625 L21.234375,16.4765625 C21.71875,16.4765625 22.0911458,16.6132812 22.3515625,16.8867188 C22.6119792,17.1601562 22.7421875,17.515625 22.7421875,17.953125 L22.7421875,24.1796875 C22.7421875,24.6171875 22.6054688,24.9713542 22.3320312,25.2421875 C22.0585938,25.5130208 21.6875,25.6484375 21.21875,25.6484375 Z M28.28125,23.875 C28.2552083,23.875 28.2304688,23.8684896 28.2070313,23.8554688 C28.1835938,23.8424479 28.1614583,23.8255208 28.140625,23.8046875 L25.405625,21.6858125 L25.405625,20.6668125 L28.140625,18.546875 C28.1614583,18.5260417 28.1835938,18.5091146 28.2070313,18.4960938 C28.2304688,18.4830729 28.2552083,18.4765625 28.28125,18.4765625 C28.3541667,18.4765625 28.390625,18.5182292 28.390625,18.6015625 L28.390625,23.7578125 C28.390625,23.8359375 28.3541667,23.875 28.28125,23.875 Z" id="􀍉"></path>
            </g>
        </g>
    </g>
</svg>