<?xml version="1.0" encoding="UTF-8"?>
<svg width="28px" height="26px" viewBox="0 0 28 26" version="1.1" xmlns="http://www.w3.org/2000/svg" xmlns:xlink="http://www.w3.org/1999/xlink">
    <title>􀉉</title>
    <g id="Website---home" stroke="none" stroke-width="1" fill="none" fill-rule="evenodd">
        <g id="InstaDR-Website" transform="translate(-220.000000, -4399.000000)" fill="#0376E8" fill-rule="nonzero">
            <path d="M243.537109,4424.5293 C244.876953,4424.5293 245.881836,4424.19206 246.551758,4423.51758 C247.22168,4422.8431 247.556641,4421.84961 247.556641,4420.53711 L247.556641,4403.77539 C247.556641,4402.45378 247.22168,4401.45801 246.551758,4400.78809 C245.881836,4400.11816 244.876953,4399.7832 243.537109,4399.7832 L224.505859,4399.7832 C223.17513,4399.7832 222.172526,4400.11816 221.498047,4400.78809 C220.823568,4401.45801 220.486328,4402.45378 220.486328,4403.77539 L220.486328,4420.53711 C220.486328,4421.85872 220.823568,4422.85449 221.498047,4423.52441 C222.172526,4424.19434 223.17513,4424.5293 224.505859,4424.5293 L243.537109,4424.5293 Z M243.646484,4422.84766 L224.396484,4422.84766 C223.676432,4422.84766 223.125,4422.65853 222.742188,4422.28027 C222.359375,4421.90202 222.167969,4421.34375 222.167969,4420.60547 L222.167969,4408.0957 C222.167969,4407.35742 222.359375,4406.79915 222.742188,4406.4209 C223.125,4406.04264 223.676432,4405.85352 224.396484,4405.85352 L243.646484,4405.85352 C244.357422,4405.85352 244.906576,4406.04264 245.293945,4406.4209 C245.681315,4406.79915 245.875,4407.35742 245.875,4408.0957 L245.875,4420.60547 C245.875,4421.34375 245.681315,4421.90202 245.293945,4422.28027 C244.906576,4422.65853 244.357422,4422.84766 243.646484,4422.84766 Z M232.107422,4410.70703 C232.317057,4410.70703 232.460612,4410.67285 232.538086,4410.60449 C232.61556,4410.53613 232.654297,4410.39714 232.654297,4410.1875 L232.654297,4409.38086 C232.654297,4409.17122 232.61556,4409.02995 232.538086,4408.95703 C232.460612,4408.88411 232.317057,4408.84766 232.107422,4408.84766 L231.300781,4408.84766 C231.091146,4408.84766 230.947591,4408.88411 230.870117,4408.95703 C230.792643,4409.02995 230.753906,4409.17122 230.753906,4409.38086 L230.753906,4410.1875 C230.753906,4410.39714 230.792643,4410.53613 230.870117,4410.60449 C230.947591,4410.67285 231.091146,4410.70703 231.300781,4410.70703 L232.107422,4410.70703 Z M236.742188,4410.70703 C236.960938,4410.70703 237.106771,4410.67285 237.179688,4410.60449 C237.252604,4410.53613 237.289062,4410.39714 237.289062,4410.1875 L237.289062,4409.38086 C237.289062,4409.17122 237.252604,4409.02995 237.179688,4408.95703 C237.106771,4408.88411 236.960938,4408.84766 236.742188,4408.84766 L235.949219,4408.84766 C235.730469,4408.84766 235.584635,4408.88411 235.511719,4408.95703 C235.438802,4409.02995 235.402344,4409.17122 235.402344,4409.38086 L235.402344,4410.1875 C235.402344,4410.39714 235.438802,4410.53613 235.511719,4410.60449 C235.584635,4410.67285 235.730469,4410.70703 235.949219,4410.70703 L236.742188,4410.70703 Z M241.390625,4410.70703 C241.60026,4410.70703 241.741536,4410.67285 241.814453,4410.60449 C241.88737,4410.53613 241.923828,4410.39714 241.923828,4410.1875 L241.923828,4409.38086 C241.923828,4409.17122 241.88737,4409.02995 241.814453,4408.95703 C241.741536,4408.88411 241.60026,4408.84766 241.390625,4408.84766 L240.583984,4408.84766 C240.365234,4408.84766 240.219401,4408.88411 240.146484,4408.95703 C240.073568,4409.02995 240.037109,4409.17122 240.037109,4409.38086 L240.037109,4410.1875 C240.037109,4410.39714 240.073568,4410.53613 240.146484,4410.60449 C240.219401,4410.67285 240.365234,4410.70703 240.583984,4410.70703 L241.390625,4410.70703 Z M227.472656,4415.27344 C227.682292,4415.27344 227.823568,4415.23926 227.896484,4415.1709 C227.969401,4415.10254 228.005859,4414.96354 228.005859,4414.75391 L228.005859,4413.94727 C228.005859,4413.73763 227.969401,4413.59863 227.896484,4413.53027 C227.823568,4413.46191 227.682292,4413.42773 227.472656,4413.42773 L226.666016,4413.42773 C226.447266,4413.42773 226.301432,4413.46191 226.228516,4413.53027 C226.155599,4413.59863 226.119141,4413.73763 226.119141,4413.94727 L226.119141,4414.75391 C226.119141,4414.96354 226.155599,4415.10254 226.228516,4415.1709 C226.301432,4415.23926 226.447266,4415.27344 226.666016,4415.27344 L227.472656,4415.27344 Z M232.107422,4415.27344 C232.317057,4415.27344 232.460612,4415.23926 232.538086,4415.1709 C232.61556,4415.10254 232.654297,4414.96354 232.654297,4414.75391 L232.654297,4413.94727 C232.654297,4413.73763 232.61556,4413.59863 232.538086,4413.53027 C232.460612,4413.46191 232.317057,4413.42773 232.107422,4413.42773 L231.300781,4413.42773 C231.091146,4413.42773 230.947591,4413.46191 230.870117,4413.53027 C230.792643,4413.59863 230.753906,4413.73763 230.753906,4413.94727 L230.753906,4414.75391 C230.753906,4414.96354 230.792643,4415.10254 230.870117,4415.1709 C230.947591,4415.23926 231.091146,4415.27344 231.300781,4415.27344 L232.107422,4415.27344 Z M236.742188,4415.27344 C236.960938,4415.27344 237.106771,4415.23926 237.179688,4415.1709 C237.252604,4415.10254 237.289062,4414.96354 237.289062,4414.75391 L237.289062,4413.94727 C237.289062,4413.73763 237.252604,4413.59863 237.179688,4413.53027 C237.106771,4413.46191 236.960938,4413.42773 236.742188,4413.42773 L235.949219,4413.42773 C235.730469,4413.42773 235.584635,4413.46191 235.511719,4413.53027 C235.438802,4413.59863 235.402344,4413.73763 235.402344,4413.94727 L235.402344,4414.75391 C235.402344,4414.96354 235.438802,4415.10254 235.511719,4415.1709 C235.584635,4415.23926 235.730469,4415.27344 235.949219,4415.27344 L236.742188,4415.27344 Z M241.390625,4415.27344 C241.60026,4415.27344 241.741536,4415.23926 241.814453,4415.1709 C241.88737,4415.10254 241.923828,4414.96354 241.923828,4414.75391 L241.923828,4413.94727 C241.923828,4413.73763 241.88737,4413.59863 241.814453,4413.53027 C241.741536,4413.46191 241.60026,4413.42773 241.390625,4413.42773 L240.583984,4413.42773 C240.365234,4413.42773 240.219401,4413.46191 240.146484,4413.53027 C240.073568,4413.59863 240.037109,4413.73763 240.037109,4413.94727 L240.037109,4414.75391 C240.037109,4414.96354 240.073568,4415.10254 240.146484,4415.1709 C240.219401,4415.23926 240.365234,4415.27344 240.583984,4415.27344 L241.390625,4415.27344 Z M227.472656,4419.85352 C227.682292,4419.85352 227.823568,4419.81706 227.896484,4419.74414 C227.969401,4419.67122 228.005859,4419.52995 228.005859,4419.32031 L228.005859,4418.51367 C228.005859,4418.30404 227.969401,4418.16504 227.896484,4418.09668 C227.823568,4418.02832 227.682292,4417.99414 227.472656,4417.99414 L226.666016,4417.99414 C226.447266,4417.99414 226.301432,4418.02832 226.228516,4418.09668 C226.155599,4418.16504 226.119141,4418.30404 226.119141,4418.51367 L226.119141,4419.32031 C226.119141,4419.52995 226.155599,4419.67122 226.228516,4419.74414 C226.301432,4419.81706 226.447266,4419.85352 226.666016,4419.85352 L227.472656,4419.85352 Z M232.107422,4419.85352 C232.317057,4419.85352 232.460612,4419.81706 232.538086,4419.74414 C232.61556,4419.67122 232.654297,4419.52995 232.654297,4419.32031 L232.654297,4418.51367 C232.654297,4418.30404 232.61556,4418.16504 232.538086,4418.09668 C232.460612,4418.02832 232.317057,4417.99414 232.107422,4417.99414 L231.300781,4417.99414 C231.091146,4417.99414 230.947591,4418.02832 230.870117,4418.09668 C230.792643,4418.16504 230.753906,4418.30404 230.753906,4418.51367 L230.753906,4419.32031 C230.753906,4419.52995 230.792643,4419.67122 230.870117,4419.74414 C230.947591,4419.81706 231.091146,4419.85352 231.300781,4419.85352 L232.107422,4419.85352 Z M236.742188,4419.85352 C236.960938,4419.85352 237.106771,4419.81706 237.179688,4419.74414 C237.252604,4419.67122 237.289062,4419.52995 237.289062,4419.32031 L237.289062,4418.51367 C237.289062,4418.30404 237.252604,4418.16504 237.179688,4418.09668 C237.106771,4418.02832 236.960938,4417.99414 236.742188,4417.99414 L235.949219,4417.99414 C235.730469,4417.99414 235.584635,4418.02832 235.511719,4418.09668 C235.438802,4418.16504 235.402344,4418.30404 235.402344,4418.51367 L235.402344,4419.32031 C235.402344,4419.52995 235.438802,4419.67122 235.511719,4419.74414 C235.584635,4419.81706 235.730469,4419.85352 235.949219,4419.85352 L236.742188,4419.85352 Z" id="􀉉"></path>
        </g>
    </g>
</svg>