<?xml version="1.0" encoding="UTF-8"?>
<svg width="41px" height="38px" viewBox="0 0 41 38" version="1.1" xmlns="http://www.w3.org/2000/svg" xmlns:xlink="http://www.w3.org/1999/xlink">
    <title>􀉉 copy</title>
    <g id="Icons" stroke="none" stroke-width="1" fill="none" fill-rule="evenodd">
        <g id="Desktop-HD" transform="translate(-79.000000, -409.000000)" fill="#504F4F" fill-rule="nonzero">
            <path d="M113.320312,446.179687 C115.442708,446.179687 117.044271,445.642578 118.125,444.568359 C119.205729,443.494141 119.746094,441.908854 119.746094,439.8125 L119.746094,416.042969 C119.746094,413.946615 119.205729,412.361328 118.125,411.287109 C117.044271,410.212891 115.442708,409.675781 113.320312,409.675781 L86.4257812,409.675781 C84.3033854,409.675781 82.6985677,410.212891 81.6113281,411.287109 C80.5240885,412.361328 79.9804688,413.946615 79.9804688,416.042969 L79.9804688,439.8125 C79.9804688,441.908854 80.5240885,443.494141 81.6113281,444.568359 C82.6985677,445.642578 84.3033854,446.179687 86.4257812,446.179687 L113.320312,446.179687 Z M113.320312,442.273437 L86.40625,442.273437 C85.5989583,442.273437 84.9772135,442.061849 84.5410156,441.638672 C84.1048177,441.215495 83.8867188,440.580729 83.8867188,439.734375 L83.8867188,421.746094 C83.8867188,420.89974 84.1048177,420.264974 84.5410156,419.841797 C84.9772135,419.41862 85.5989583,419.207031 86.40625,419.207031 L113.320312,419.207031 C114.140625,419.207031 114.765625,419.41862 115.195312,419.841797 C115.625,420.264974 115.839844,420.89974 115.839844,421.746094 L115.839844,439.734375 C115.839844,440.580729 115.625,441.215495 115.195312,441.638672 C114.765625,442.061849 114.140625,442.273437 113.320312,442.273437 Z M97.2460938,425.945312 C97.5976562,425.945312 97.8417969,425.880208 97.9785156,425.75 C98.1152344,425.619792 98.1835938,425.385417 98.1835938,425.046875 L98.1835938,423.894531 C98.1835938,423.542969 98.1152344,423.302083 97.9785156,423.171875 C97.8417969,423.041667 97.5976562,422.976562 97.2460938,422.976562 L96.1132812,422.976562 C95.7617188,422.976562 95.5143229,423.041667 95.3710938,423.171875 C95.2278646,423.302083 95.15625,423.542969 95.15625,423.894531 L95.15625,425.046875 C95.15625,425.385417 95.2278646,425.619792 95.3710938,425.75 C95.5143229,425.880208 95.7617188,425.945312 96.1132812,425.945312 L97.2460938,425.945312 Z M103.632812,425.945312 C103.984375,425.945312 104.228516,425.880208 104.365234,425.75 C104.501953,425.619792 104.570312,425.385417 104.570312,425.046875 L104.570312,423.894531 C104.570312,423.542969 104.501953,423.302083 104.365234,423.171875 C104.228516,423.041667 103.984375,422.976562 103.632812,422.976562 L102.5,422.976562 C102.135417,422.976562 101.888021,423.041667 101.757812,423.171875 C101.627604,423.302083 101.5625,423.542969 101.5625,423.894531 L101.5625,425.046875 C101.5625,425.385417 101.627604,425.619792 101.757812,425.75 C101.888021,425.880208 102.135417,425.945312 102.5,425.945312 L103.632812,425.945312 Z M110.019531,425.945312 C110.358073,425.945312 110.595703,425.880208 110.732422,425.75 C110.869141,425.619792 110.9375,425.385417 110.9375,425.046875 L110.9375,423.894531 C110.9375,423.542969 110.869141,423.302083 110.732422,423.171875 C110.595703,423.041667 110.358073,422.976562 110.019531,422.976562 L108.867188,422.976562 C108.502604,422.976562 108.255208,423.041667 108.125,423.171875 C107.994792,423.302083 107.929688,423.542969 107.929688,423.894531 L107.929688,425.046875 C107.929688,425.385417 107.994792,425.619792 108.125,425.75 C108.255208,425.880208 108.502604,425.945312 108.867188,425.945312 L110.019531,425.945312 Z M90.8789062,432.214844 C91.2304688,432.214844 91.4713542,432.152995 91.6015625,432.029297 C91.7317708,431.905599 91.796875,431.667969 91.796875,431.316406 L91.796875,430.164062 C91.796875,429.825521 91.7317708,429.591146 91.6015625,429.460937 C91.4713542,429.330729 91.2304688,429.265625 90.8789062,429.265625 L89.7265625,429.265625 C89.375,429.265625 89.1308594,429.330729 88.9941406,429.460937 C88.8574219,429.591146 88.7890625,429.825521 88.7890625,430.164062 L88.7890625,431.316406 C88.7890625,431.667969 88.8574219,431.905599 88.9941406,432.029297 C89.1308594,432.152995 89.375,432.214844 89.7265625,432.214844 L90.8789062,432.214844 Z M97.2460938,432.214844 C97.5976562,432.214844 97.8417969,432.152995 97.9785156,432.029297 C98.1152344,431.905599 98.1835938,431.667969 98.1835938,431.316406 L98.1835938,430.164062 C98.1835938,429.825521 98.1152344,429.591146 97.9785156,429.460937 C97.8417969,429.330729 97.5976562,429.265625 97.2460938,429.265625 L96.1132812,429.265625 C95.7617188,429.265625 95.5143229,429.330729 95.3710938,429.460937 C95.2278646,429.591146 95.15625,429.825521 95.15625,430.164062 L95.15625,431.316406 C95.15625,431.667969 95.2278646,431.905599 95.3710938,432.029297 C95.5143229,432.152995 95.7617188,432.214844 96.1132812,432.214844 L97.2460938,432.214844 Z M103.632812,432.214844 C103.984375,432.214844 104.228516,432.152995 104.365234,432.029297 C104.501953,431.905599 104.570312,431.667969 104.570312,431.316406 L104.570312,430.164062 C104.570312,429.825521 104.501953,429.591146 104.365234,429.460937 C104.228516,429.330729 103.984375,429.265625 103.632812,429.265625 L102.5,429.265625 C102.135417,429.265625 101.888021,429.330729 101.757812,429.460937 C101.627604,429.591146 101.5625,429.825521 101.5625,430.164062 L101.5625,431.316406 C101.5625,431.667969 101.627604,431.905599 101.757812,432.029297 C101.888021,432.152995 102.135417,432.214844 102.5,432.214844 L103.632812,432.214844 Z M110.019531,432.214844 C110.358073,432.214844 110.595703,432.152995 110.732422,432.029297 C110.869141,431.905599 110.9375,431.667969 110.9375,431.316406 L110.9375,430.164062 C110.9375,429.825521 110.869141,429.591146 110.732422,429.460937 C110.595703,429.330729 110.358073,429.265625 110.019531,429.265625 L108.867188,429.265625 C108.502604,429.265625 108.255208,429.330729 108.125,429.460937 C107.994792,429.591146 107.929688,429.825521 107.929688,430.164062 L107.929688,431.316406 C107.929688,431.667969 107.994792,431.905599 108.125,432.029297 C108.255208,432.152995 108.502604,432.214844 108.867188,432.214844 L110.019531,432.214844 Z M90.8789062,438.503906 C91.2304688,438.503906 91.4713542,438.438802 91.6015625,438.308594 C91.7317708,438.178385 91.796875,437.9375 91.796875,437.585937 L91.796875,436.433594 C91.796875,436.095052 91.7317708,435.860677 91.6015625,435.730469 C91.4713542,435.60026 91.2304688,435.535156 90.8789062,435.535156 L89.7265625,435.535156 C89.375,435.535156 89.1308594,435.60026 88.9941406,435.730469 C88.8574219,435.860677 88.7890625,436.095052 88.7890625,436.433594 L88.7890625,437.585937 C88.7890625,437.9375 88.8574219,438.178385 88.9941406,438.308594 C89.1308594,438.438802 89.375,438.503906 89.7265625,438.503906 L90.8789062,438.503906 Z M97.2460938,438.503906 C97.5976562,438.503906 97.8417969,438.438802 97.9785156,438.308594 C98.1152344,438.178385 98.1835938,437.9375 98.1835938,437.585937 L98.1835938,436.433594 C98.1835938,436.095052 98.1152344,435.860677 97.9785156,435.730469 C97.8417969,435.60026 97.5976562,435.535156 97.2460938,435.535156 L96.1132812,435.535156 C95.7617188,435.535156 95.5143229,435.60026 95.3710938,435.730469 C95.2278646,435.860677 95.15625,436.095052 95.15625,436.433594 L95.15625,437.585937 C95.15625,437.9375 95.2278646,438.178385 95.3710938,438.308594 C95.5143229,438.438802 95.7617188,438.503906 96.1132812,438.503906 L97.2460938,438.503906 Z M103.632812,438.503906 C103.984375,438.503906 104.228516,438.438802 104.365234,438.308594 C104.501953,438.178385 104.570312,437.9375 104.570312,437.585937 L104.570312,436.433594 C104.570312,436.095052 104.501953,435.860677 104.365234,435.730469 C104.228516,435.60026 103.984375,435.535156 103.632812,435.535156 L102.5,435.535156 C102.135417,435.535156 101.888021,435.60026 101.757812,435.730469 C101.627604,435.860677 101.5625,436.095052 101.5625,436.433594 L101.5625,437.585937 C101.5625,437.9375 101.627604,438.178385 101.757812,438.308594 C101.888021,438.438802 102.135417,438.503906 102.5,438.503906 L103.632812,438.503906 Z" id="􀉉-copy"></path>
        </g>
    </g>
</svg>