<?xml version="1.0" encoding="UTF-8"?>
<svg width="57px" height="44px" viewBox="0 0 57 44" version="1.1" xmlns="http://www.w3.org/2000/svg" xmlns:xlink="http://www.w3.org/1999/xlink">
    <title>Group 4</title>
    <g id="icons" stroke="none" stroke-width="1" fill="none" fill-rule="evenodd">
        <g id="Desktop-HD" transform="translate(-227.000000, -241.000000)" fill="#0080FF" fill-rule="nonzero">
            <g id="Group-4" transform="translate(227.980469, 241.675781)">
                <path d="M41.7599048,42.7675787 C43.4830089,42.7675787 44.806254,42.3120692 45.7296399,41.40105 C46.6530258,40.4900309 47.1147188,39.2141918 47.1147188,37.5735329 L47.114488,36.4594567 L51.1586545,39.8984867 C51.5296578,40.2117784 51.8903554,40.4652973 52.2407474,40.6590435 C52.5911394,40.8527896 52.951837,40.9496627 53.3228403,40.9496627 C53.9329346,40.9496627 54.433789,40.7517943 54.8254036,40.3560574 C55.2170182,39.9603206 55.4128254,39.424427 55.4128254,38.7483766 L55.4128254,25.590127 C55.4128254,24.9140766 55.2170182,24.3802441 54.8254036,23.9886295 C54.433789,23.597015 53.9329346,23.4012077 53.3228403,23.4012077 C52.951837,23.4012077 52.5911394,23.4960196 52.2407474,23.6856435 C51.8903554,23.8752674 51.5296578,24.1267252 51.1586545,24.4400168 L47.114488,27.8791788 L47.1147188,26.5918359 C47.1147188,24.9429324 46.6530258,23.6670934 45.7296399,22.7643187 C44.806254,21.8615441 43.4830089,21.4101567 41.7599048,21.4101567 L28.9973921,21.4101567 C27.3072661,21.4101567 25.9922655,21.8615441 25.0523906,22.7643187 C24.1125156,23.6670934 23.6425781,24.9470547 23.6425781,26.6042026 L23.6425781,37.8085016 C23.6425781,39.4491605 24.1042711,40.6858381 25.027657,41.5185344 C25.951043,42.3512306 27.274288,42.7675787 28.9973921,42.7675787 L41.7599048,42.7675787 Z M41.2157667,39.8613864 L29.5291635,39.8613864 C28.6387556,39.8613864 27.9523995,39.6222954 27.4700953,39.1441134 C26.987791,38.6659314 26.7466389,37.9857587 26.7466389,37.1035954 L26.7466389,27.0617733 C26.7466389,26.1383874 26.987791,25.4479091 27.4700953,24.9903384 C27.9523995,24.5327677 28.6387556,24.3039823 29.5291635,24.3039823 L41.2281335,24.3039823 C42.1185413,24.3039823 42.8048974,24.5430733 43.2872017,25.0212553 C43.7695059,25.4994373 44.0106581,26.17961 44.0106581,27.0617733 L44.0106581,37.1035954 C44.0106581,37.9857587 43.7653837,38.6659314 43.2748349,39.1441134 C42.7842861,39.6222954 42.09793,39.8613864 41.2157667,39.8613864 Z M52.345865,37.3632977 C52.2963979,37.3632977 52.2510531,37.3509309 52.2098305,37.3261973 C52.1686079,37.3014638 52.1273853,37.272608 52.0861627,37.2396299 L47.114488,33.2499431 L47.114488,31.0893959 L52.0861627,27.0988737 C52.1273853,27.0658956 52.1686079,27.0370398 52.2098305,27.0123062 C52.2510531,26.9875727 52.2963979,26.9752059 52.345865,26.9752059 C52.4695328,26.9752059 52.5313667,27.0576511 52.5313667,27.2225414 L52.5313667,37.1283289 C52.5313667,37.2849748 52.4695328,37.3632977 52.345865,37.3632977 Z" id="􀍉"></path>
                <path d="M33.3398438,36.5039062 C35.4622396,36.5039062 37.0638021,35.9667969 38.1445312,34.8925781 C39.2252604,33.8183594 39.765625,32.2330729 39.765625,30.1367188 L39.765625,6.3671875 C39.765625,4.27083333 39.2252604,2.68554688 38.1445312,1.61132812 C37.0638021,0.537109375 35.4622396,0 33.3398438,0 L6.4453125,0 C4.32291667,0 2.71809896,0.537109375 1.63085938,1.61132812 C0.543619792,2.68554688 0,4.27083333 0,6.3671875 L0,30.1367188 C0,32.2330729 0.543619792,33.8183594 1.63085938,34.8925781 C2.71809896,35.9667969 4.32291667,36.5039062 6.4453125,36.5039062 L33.3398438,36.5039062 Z M33.3398438,32.5976562 L6.42578125,32.5976562 C5.61848958,32.5976562 4.99674479,32.3860677 4.56054688,31.9628906 C4.12434896,31.5397135 3.90625,30.9049479 3.90625,30.0585938 L3.90625,12.0703125 C3.90625,11.2239583 4.12434896,10.5891927 4.56054688,10.1660156 C4.99674479,9.74283854 5.61848958,9.53125 6.42578125,9.53125 L33.3398438,9.53125 C34.1601562,9.53125 34.7851562,9.74283854 35.2148438,10.1660156 C35.6445312,10.5891927 35.859375,11.2239583 35.859375,12.0703125 L35.859375,30.0585938 C35.859375,30.9049479 35.6445312,31.5397135 35.2148438,31.9628906 C34.7851562,32.3860677 34.1601562,32.5976562 33.3398438,32.5976562 Z M17.265625,16.2695312 C17.6171875,16.2695312 17.8613281,16.2044271 17.9980469,16.0742188 C18.1347656,15.9440104 18.203125,15.7096354 18.203125,15.3710938 L18.203125,14.21875 C18.203125,13.8671875 18.1347656,13.6263021 17.9980469,13.4960938 C17.8613281,13.3658854 17.6171875,13.3007812 17.265625,13.3007812 L16.1328125,13.3007812 C15.78125,13.3007812 15.5338542,13.3658854 15.390625,13.4960938 C15.2473958,13.6263021 15.1757812,13.8671875 15.1757812,14.21875 L15.1757812,15.3710938 C15.1757812,15.7096354 15.2473958,15.9440104 15.390625,16.0742188 C15.5338542,16.2044271 15.78125,16.2695312 16.1328125,16.2695312 L17.265625,16.2695312 Z M23.6523438,16.2695312 C24.0039062,16.2695312 24.2480469,16.2044271 24.3847656,16.0742188 C24.5214844,15.9440104 24.5898438,15.7096354 24.5898438,15.3710938 L24.5898438,14.21875 C24.5898438,13.8671875 24.5214844,13.6263021 24.3847656,13.4960938 C24.2480469,13.3658854 24.0039062,13.3007812 23.6523438,13.3007812 L22.5195312,13.3007812 C22.1549479,13.3007812 21.9075521,13.3658854 21.7773438,13.4960938 C21.6471354,13.6263021 21.5820312,13.8671875 21.5820312,14.21875 L21.5820312,15.3710938 C21.5820312,15.7096354 21.6471354,15.9440104 21.7773438,16.0742188 C21.9075521,16.2044271 22.1549479,16.2695312 22.5195312,16.2695312 L23.6523438,16.2695312 Z M30.0390625,16.2695312 C30.3776042,16.2695312 30.6152344,16.2044271 30.7519531,16.0742188 C30.8886719,15.9440104 30.9570312,15.7096354 30.9570312,15.3710938 L30.9570312,14.21875 C30.9570312,13.8671875 30.8886719,13.6263021 30.7519531,13.4960938 C30.6152344,13.3658854 30.3776042,13.3007812 30.0390625,13.3007812 L28.8867188,13.3007812 C28.5221354,13.3007812 28.2747396,13.3658854 28.1445312,13.4960938 C28.0143229,13.6263021 27.9492188,13.8671875 27.9492188,14.21875 L27.9492188,15.3710938 C27.9492188,15.7096354 28.0143229,15.9440104 28.1445312,16.0742188 C28.2747396,16.2044271 28.5221354,16.2695312 28.8867188,16.2695312 L30.0390625,16.2695312 Z M10.8984375,22.5390625 C11.25,22.5390625 11.4908854,22.4772135 11.6210938,22.3535156 C11.7513021,22.2298177 11.8164062,21.9921875 11.8164062,21.640625 L11.8164062,20.4882812 C11.8164062,20.1497396 11.7513021,19.9153646 11.6210938,19.7851562 C11.4908854,19.6549479 11.25,19.5898438 10.8984375,19.5898438 L9.74609375,19.5898438 C9.39453125,19.5898438 9.15039062,19.6549479 9.01367188,19.7851562 C8.87695312,19.9153646 8.80859375,20.1497396 8.80859375,20.4882812 L8.80859375,21.640625 C8.80859375,21.9921875 8.87695312,22.2298177 9.01367188,22.3535156 C9.15039062,22.4772135 9.39453125,22.5390625 9.74609375,22.5390625 L10.8984375,22.5390625 Z M17.265625,22.5390625 C17.6171875,22.5390625 17.8613281,22.4772135 17.9980469,22.3535156 C18.1347656,22.2298177 18.203125,21.9921875 18.203125,21.640625 L18.203125,20.4882812 C18.203125,20.1497396 18.1347656,19.9153646 17.9980469,19.7851562 C17.8613281,19.6549479 17.6171875,19.5898438 17.265625,19.5898438 L16.1328125,19.5898438 C15.78125,19.5898438 15.5338542,19.6549479 15.390625,19.7851562 C15.2473958,19.9153646 15.1757812,20.1497396 15.1757812,20.4882812 L15.1757812,21.640625 C15.1757812,21.9921875 15.2473958,22.2298177 15.390625,22.3535156 C15.5338542,22.4772135 15.78125,22.5390625 16.1328125,22.5390625 L17.265625,22.5390625 Z M23.6523438,22.5390625 C24.0039062,22.5390625 24.2480469,22.4772135 24.3847656,22.3535156 C24.5214844,22.2298177 24.5898438,21.9921875 24.5898438,21.640625 L24.5898438,20.4882812 C24.5898438,20.1497396 24.5214844,19.9153646 24.3847656,19.7851562 C24.2480469,19.6549479 24.0039062,19.5898438 23.6523438,19.5898438 L22.5195312,19.5898438 C22.1549479,19.5898438 21.9075521,19.6549479 21.7773438,19.7851562 C21.6471354,19.9153646 21.5820312,20.1497396 21.5820312,20.4882812 L21.5820312,21.640625 C21.5820312,21.9921875 21.6471354,22.2298177 21.7773438,22.3535156 C21.9075521,22.4772135 22.1549479,22.5390625 22.5195312,22.5390625 L23.6523438,22.5390625 Z M30.0390625,22.5390625 C30.3776042,22.5390625 30.6152344,22.4772135 30.7519531,22.3535156 C30.8886719,22.2298177 30.9570312,21.9921875 30.9570312,21.640625 L30.9570312,20.4882812 C30.9570312,20.1497396 30.8886719,19.9153646 30.7519531,19.7851562 C30.6152344,19.6549479 30.3776042,19.5898438 30.0390625,19.5898438 L28.8867188,19.5898438 C28.5221354,19.5898438 28.2747396,19.6549479 28.1445312,19.7851562 C28.0143229,19.9153646 27.9492188,20.1497396 27.9492188,20.4882812 L27.9492188,21.640625 C27.9492188,21.9921875 28.0143229,22.2298177 28.1445312,22.3535156 C28.2747396,22.4772135 28.5221354,22.5390625 28.8867188,22.5390625 L30.0390625,22.5390625 Z M10.8984375,28.828125 C11.25,28.828125 11.4908854,28.7630208 11.6210938,28.6328125 C11.7513021,28.5026042 11.8164062,28.2617188 11.8164062,27.9101562 L11.8164062,26.7578125 C11.8164062,26.4192708 11.7513021,26.1848958 11.6210938,26.0546875 C11.4908854,25.9244792 11.25,25.859375 10.8984375,25.859375 L9.74609375,25.859375 C9.39453125,25.859375 9.15039062,25.9244792 9.01367188,26.0546875 C8.87695312,26.1848958 8.80859375,26.4192708 8.80859375,26.7578125 L8.80859375,27.9101562 C8.80859375,28.2617188 8.87695312,28.5026042 9.01367188,28.6328125 C9.15039062,28.7630208 9.39453125,28.828125 9.74609375,28.828125 L10.8984375,28.828125 Z M17.265625,28.828125 C17.6171875,28.828125 17.8613281,28.7630208 17.9980469,28.6328125 C18.1347656,28.5026042 18.203125,28.2617188 18.203125,27.9101562 L18.203125,26.7578125 C18.203125,26.4192708 18.1347656,26.1848958 17.9980469,26.0546875 C17.8613281,25.9244792 17.6171875,25.859375 17.265625,25.859375 L16.1328125,25.859375 C15.78125,25.859375 15.5338542,25.9244792 15.390625,26.0546875 C15.2473958,26.1848958 15.1757812,26.4192708 15.1757812,26.7578125 L15.1757812,27.9101562 C15.1757812,28.2617188 15.2473958,28.5026042 15.390625,28.6328125 C15.5338542,28.7630208 15.78125,28.828125 16.1328125,28.828125 L17.265625,28.828125 Z M23.6523438,28.828125 C24.0039062,28.828125 24.2480469,28.7630208 24.3847656,28.6328125 C24.5214844,28.5026042 24.5898438,28.2617188 24.5898438,27.9101562 L24.5898438,26.7578125 C24.5898438,26.4192708 24.5214844,26.1848958 24.3847656,26.0546875 C24.2480469,25.9244792 24.0039062,25.859375 23.6523438,25.859375 L22.5195312,25.859375 C22.1549479,25.859375 21.9075521,25.9244792 21.7773438,26.0546875 C21.6471354,26.1848958 21.5820312,26.4192708 21.5820312,26.7578125 L21.5820312,27.9101562 C21.5820312,28.2617188 21.6471354,28.5026042 21.7773438,28.6328125 C21.9075521,28.7630208 22.1549479,28.828125 22.5195312,28.828125 L23.6523438,28.828125 Z" id="􀉉"></path>
            </g>
        </g>
    </g>
</svg>