<?xml version="1.0" encoding="UTF-8"?>
<svg width="23px" height="21px" viewBox="0 0 23 21" version="1.1" xmlns="http://www.w3.org/2000/svg" xmlns:xlink="http://www.w3.org/1999/xlink">
    <title>􀌨</title>
    <g id="icons" stroke="none" stroke-width="1" fill="none" fill-rule="evenodd">
        <g id="Desktop-HD" transform="translate(-537.000000, -73.000000)" fill="#0080FF" fill-rule="nonzero">
            <path d="M552.949219,93.8476562 C553.346354,93.8476562 553.655599,93.7190755 553.876953,93.4619141 C554.098307,93.2047526 554.208984,92.8580729 554.208984,92.421875 L554.208984,92.421875 L554.208984,90.0292969 L554.599609,90.0292969 C555.54362,90.0292969 556.354167,89.8470052 557.03125,89.4824219 C557.708333,89.1178385 558.227539,88.59375 558.588867,87.9101562 C558.950195,87.2265625 559.130859,86.3997396 559.130859,85.4296875 L559.130859,85.4296875 L559.130859,77.8417969 C559.130859,76.8717448 558.951823,76.0449219 558.59375,75.3613281 C558.235677,74.6777344 557.714844,74.1536458 557.03125,73.7890625 C556.347656,73.4244792 555.514323,73.2421875 554.53125,73.2421875 L554.53125,73.2421875 L542.089844,73.2421875 C541.106771,73.2421875 540.273438,73.4244792 539.589844,73.7890625 C538.90625,74.1536458 538.385417,74.6777344 538.027344,75.3613281 C537.669271,76.0449219 537.490234,76.8717448 537.490234,77.8417969 L537.490234,77.8417969 L537.490234,85.4296875 C537.490234,86.3997396 537.669271,87.2265625 538.027344,87.9101562 C538.385417,88.59375 538.90625,89.1178385 539.589844,89.4824219 C540.273438,89.8470052 541.106771,90.0292969 542.089844,90.0292969 L542.089844,90.0292969 L547.958984,90.0292969 L551.298828,92.9785156 C551.63737,93.2779948 551.928711,93.4977214 552.172852,93.6376953 C552.416992,93.7776693 552.675781,93.8476562 552.949219,93.8476562 Z M552.470703,91.6601562 L549.375,88.59375 C549.166667,88.3854167 548.971354,88.2470703 548.789062,88.1787109 C548.606771,88.1103516 548.369141,88.0761719 548.076172,88.0761719 L548.076172,88.0761719 L542.148438,88.0761719 C541.236979,88.0761719 540.559896,87.8483073 540.117188,87.3925781 C539.674479,86.936849 539.453125,86.2597656 539.453125,85.3613281 L539.453125,85.3613281 L539.453125,77.9003906 C539.453125,77.0084635 539.674479,76.3346354 540.117188,75.8789062 C540.559896,75.4231771 541.236979,75.1953125 542.148438,75.1953125 L542.148438,75.1953125 L554.472656,75.1953125 C555.390625,75.1953125 556.070964,75.4231771 556.513672,75.8789062 C556.95638,76.3346354 557.177734,77.0084635 557.177734,77.9003906 L557.177734,77.9003906 L557.177734,85.3613281 C557.177734,86.2597656 556.95638,86.936849 556.513672,87.3925781 C556.070964,87.8483073 555.390625,88.0761719 554.472656,88.0761719 L554.472656,88.0761719 L553.271484,88.0761719 C552.991536,88.0761719 552.788086,88.1363932 552.661133,88.2568359 C552.53418,88.3772786 552.470703,88.5839844 552.470703,88.8769531 L552.470703,88.8769531 L552.470703,91.6601562 Z" id="􀌨"></path>
        </g>
    </g>
</svg>