<?xml version="1.0" encoding="UTF-8"?>
<svg width="60px" height="60px" viewBox="0 0 60 60" version="1.1" xmlns="http://www.w3.org/2000/svg" xmlns:xlink="http://www.w3.org/1999/xlink">
    <title>Group</title>
    <g id="Dashboard---doctors--webapp" stroke="none" stroke-width="1" fill="none" fill-rule="evenodd">
        <g id="Patient-Block" transform="translate(-1010.000000, -25.000000)">
            <g id="Group" transform="translate(1010.000000, 25.000000)">
                <circle id="Oval" fill="#0080FF" cx="30" cy="30" r="30"></circle>
                <path d="M22.375,44.9902344 C22.7213542,44.9902344 23.0403646,44.9013672 23.3320312,44.7236328 C23.6236979,44.5458984 23.9791667,44.2701823 24.3984375,43.8964844 L28.8554688,39.9453125 L36.8808594,39.9453125 C38.1660156,39.9453125 39.2552083,39.710612 40.1484375,39.2412109 C41.0416667,38.7718099 41.7207031,38.0904948 42.1855469,37.1972656 C42.6503906,36.3040365 42.8828125,35.219401 42.8828125,33.9433594 L42.8828125,23.9628906 C42.8828125,22.686849 42.6503906,21.6022135 42.1855469,20.7089844 C41.7207031,19.8157552 41.0416667,19.1321615 40.1484375,18.6582031 C39.2552083,18.1842448 38.1660156,17.9472656 36.8808594,17.9472656 L20.296875,17.9472656 C19.0208333,17.9472656 17.9361979,18.1819661 17.0429688,18.6513672 C16.1497396,19.1207682 15.4684245,19.804362 14.9990234,20.7021484 C14.5296224,21.5999349 14.2949219,22.686849 14.2949219,23.9628906 L14.2949219,33.9433594 C14.2949219,35.219401 14.5296224,36.3063151 14.9990234,37.2041016 C15.4684245,38.101888 16.1474609,38.7832031 17.0361328,39.2480469 C17.9248047,39.7128906 18.9980469,39.9453125 20.2558594,39.9453125 L20.8300781,39.9453125 L20.8300781,43.2265625 C20.8300781,43.7643229 20.9645182,44.1927083 21.2333984,44.5117188 C21.5022786,44.8307292 21.8828125,44.9902344 22.375,44.9902344 Z M22.9628906,42.3378906 L22.9628906,38.6328125 C22.9628906,38.2682292 22.8808594,38.0061849 22.7167969,37.8466797 C22.5527344,37.6871745 22.2929688,37.6074219 21.9375,37.6074219 L20.3515625,37.6074219 C19.09375,37.6074219 18.1617839,37.2929688 17.5556641,36.6640625 C16.9495443,36.0351562 16.6464844,35.1145833 16.6464844,33.9023438 L16.6464844,24.0039062 C16.6464844,22.7916667 16.9495443,21.8733724 17.5556641,21.2490234 C18.1617839,20.6246745 19.09375,20.3125 20.3515625,20.3125 L36.8261719,20.3125 C38.0839844,20.3125 39.0159505,20.6246745 39.6220703,21.2490234 C40.2281901,21.8733724 40.53125,22.7916667 40.53125,24.0039062 L40.53125,33.9023438 C40.53125,35.1145833 40.2281901,36.0351562 39.6220703,36.6640625 C39.0159505,37.2929688 38.0839844,37.6074219 36.8261719,37.6074219 L28.7324219,37.6074219 C28.3496094,37.6074219 28.0442708,37.6507161 27.8164062,37.7373047 C27.5885417,37.8238932 27.3424479,37.999349 27.078125,38.2636719 L22.9628906,42.3378906 Z" id="􀌪" fill="#F6F7FB" fill-rule="nonzero"></path>
            </g>
        </g>
    </g>
</svg>