<?xml version="1.0" encoding="UTF-8"?>
<svg width="19px" height="19px" viewBox="0 0 19 19" version="1.1" xmlns="http://www.w3.org/2000/svg" xmlns:xlink="http://www.w3.org/1999/xlink">
    <title>􀄄</title>
    <g id="Webapp" stroke="none" stroke-width="1" fill="none" fill-rule="evenodd">
        <g id="Appointments-and-Video-Calling" transform="translate(-966.000000, -118.000000)" fill="#000000" fill-rule="nonzero">
            <path d="M981.349609,136.009766 C982.388672,136.009766 983.169678,135.75 983.692627,135.230469 C984.215576,134.710938 984.477051,133.941895 984.477051,132.92334 L984.477051,121.100586 C984.477051,120.082031 984.215576,119.312988 983.692627,118.793457 C983.169678,118.273926 982.388672,118.01416 981.349609,118.01416 L969.598633,118.01416 C968.566406,118.01416 967.787109,118.272217 967.260742,118.78833 C966.734375,119.304443 966.471191,120.075195 966.471191,121.100586 L966.471191,132.92334 C966.471191,133.94873 966.734375,134.719482 967.260742,135.235596 C967.787109,135.751709 968.566406,136.009766 969.598633,136.009766 L981.349609,136.009766 Z M981.277832,134.256348 L969.67041,134.256348 C969.212402,134.256348 968.858643,134.133301 968.609131,133.887207 C968.359619,133.641113 968.234863,133.275391 968.234863,132.790039 L968.234863,121.233887 C968.234863,120.748535 968.359619,120.382812 968.609131,120.136719 C968.858643,119.890625 969.212402,119.767578 969.67041,119.767578 L981.277832,119.767578 C981.73584,119.767578 982.091309,119.890625 982.344238,120.136719 C982.597168,120.382812 982.723633,120.748535 982.723633,121.233887 L982.723633,132.790039 C982.723633,133.275391 982.597168,133.641113 982.344238,133.887207 C982.091309,134.133301 981.73584,134.256348 981.277832,134.256348 Z M973.848877,131.969727 C974.077881,131.962891 974.260742,131.891113 974.397461,131.754395 L978.38623,127.991211 C978.67334,127.724609 978.816895,127.394775 978.816895,127.001709 C978.816895,126.608643 978.67334,126.278809 978.38623,126.012207 L974.397461,122.249023 C974.24707,122.105469 974.065918,122.030273 973.854004,122.023438 C973.64209,122.016602 973.464355,122.081543 973.320801,122.218262 C973.156738,122.375488 973.072998,122.563477 973.06958,122.782227 C973.066162,123.000977 973.143066,123.182129 973.300293,123.325684 L977.196777,126.996582 L973.300293,130.66748 C973.143066,130.811035 973.064453,130.992188 973.064453,131.210938 C973.064453,131.429688 973.143066,131.617676 973.300293,131.774902 C973.437012,131.911621 973.619873,131.976562 973.848877,131.969727 Z" id="􀄄"></path>
        </g>
    </g>
</svg>