<?xml version="1.0" encoding="UTF-8"?>
<svg width="19px" height="19px" viewBox="0 0 19 19" version="1.1" xmlns="http://www.w3.org/2000/svg" xmlns:xlink="http://www.w3.org/1999/xlink">
    <title>􀄄</title>
    <g id="Webapp" stroke="none" stroke-width="1" fill="none" fill-rule="evenodd">
        <g id="Appointments-and-Video-Calling" transform="translate(-850.000000, -118.000000)" fill="#000000" fill-rule="nonzero">
            <path d="M865.349609,136.009766 C866.388672,136.009766 867.169678,135.75 867.692627,135.230469 C868.215576,134.710938 868.477051,133.941895 868.477051,132.92334 L868.477051,121.100586 C868.477051,120.082031 868.215576,119.312988 867.692627,118.793457 C867.169678,118.273926 866.388672,118.01416 865.349609,118.01416 L853.598633,118.01416 C852.566406,118.01416 851.787109,118.272217 851.260742,118.78833 C850.734375,119.304443 850.471191,120.075195 850.471191,121.100586 L850.471191,132.92334 C850.471191,133.94873 850.734375,134.719482 851.260742,135.235596 C851.787109,135.751709 852.566406,136.009766 853.598633,136.009766 L865.349609,136.009766 Z M865.277832,134.256348 L853.67041,134.256348 C853.212402,134.256348 852.858643,134.133301 852.609131,133.887207 C852.359619,133.641113 852.234863,133.275391 852.234863,132.790039 L852.234863,121.233887 C852.234863,120.748535 852.359619,120.382812 852.609131,120.136719 C852.858643,119.890625 853.212402,119.767578 853.67041,119.767578 L865.277832,119.767578 C865.73584,119.767578 866.091309,119.890625 866.344238,120.136719 C866.597168,120.382812 866.723633,120.748535 866.723633,121.233887 L866.723633,132.790039 C866.723633,133.275391 866.597168,133.641113 866.344238,133.887207 C866.091309,134.133301 865.73584,134.256348 865.277832,134.256348 Z M857.848877,131.969727 C858.077881,131.962891 858.260742,131.891113 858.397461,131.754395 L862.38623,127.991211 C862.67334,127.724609 862.816895,127.394775 862.816895,127.001709 C862.816895,126.608643 862.67334,126.278809 862.38623,126.012207 L858.397461,122.249023 C858.24707,122.105469 858.065918,122.030273 857.854004,122.023438 C857.64209,122.016602 857.464355,122.081543 857.320801,122.218262 C857.156738,122.375488 857.072998,122.563477 857.06958,122.782227 C857.066162,123.000977 857.143066,123.182129 857.300293,123.325684 L861.196777,126.996582 L857.300293,130.66748 C857.143066,130.811035 857.064453,130.992188 857.064453,131.210938 C857.064453,131.429688 857.143066,131.617676 857.300293,131.774902 C857.437012,131.911621 857.619873,131.976562 857.848877,131.969727 Z" id="􀄄" transform="translate(859.474121, 127.011963) scale(-1, 1) translate(-859.474121, -127.011963) "></path>
        </g>
    </g>
</svg>