<?xml version="1.0" encoding="UTF-8"?>
<svg width="13px" height="22px" viewBox="0 0 13 22" version="1.1" xmlns="http://www.w3.org/2000/svg" xmlns:xlink="http://www.w3.org/1999/xlink">
    <title>􀯻</title>
    <g id="Icons" stroke="none" stroke-width="1" fill="none" fill-rule="evenodd">
        <g id="Desktop-HD" transform="translate(-587.000000, -554.000000)" fill="#0080FF" fill-rule="nonzero">
            <path d="M589.222656,575.097656 C589.667969,575.097656 590.046875,574.941406 590.359375,574.628906 L590.359375,574.628906 L599.347656,565.839844 C599.550781,565.644531 599.699219,565.441406 599.792969,565.230469 C599.886719,565.019531 599.933594,564.789062 599.933594,564.539062 C599.925781,564.289062 599.875,564.058594 599.78125,563.847656 C599.6875,563.636719 599.542969,563.433594 599.347656,563.238281 L599.347656,563.238281 L590.359375,554.449219 C590.046875,554.136719 589.667969,553.980469 589.222656,553.980469 C588.917969,553.980469 588.642578,554.054688 588.396484,554.203125 C588.150391,554.351562 587.953125,554.548828 587.804688,554.794922 C587.65625,555.041016 587.582031,555.3125 587.582031,555.609375 C587.582031,556.054688 587.753906,556.449219 588.097656,556.792969 L588.097656,556.792969 L596.066406,564.539062 L588.097656,572.285156 C587.753906,572.628906 587.582031,573.023438 587.582031,573.46875 C587.582031,573.773438 587.65625,574.048828 587.804688,574.294922 C587.953125,574.541016 588.150391,574.736328 588.396484,574.880859 C588.642578,575.025391 588.917969,575.097656 589.222656,575.097656 Z" id="􀯻"></path>
        </g>
    </g>
</svg>