<?xml version="1.0" encoding="UTF-8"?>
<!--Generator: Apple Native CoreSVG 149-->
<!DOCTYPE svg
PUBLIC "-//W3C//DTD SVG 1.1//EN"
       "http://www.w3.org/Graphics/SVG/1.1/DTD/svg11.dtd">
<svg version="1.1" xmlns="http://www.w3.org/2000/svg" xmlns:xlink="http://www.w3.org/1999/xlink" width="3300" height="2200">
 <!--glyph: "uni100B0F.medium", point size: 100.000000, font version: "Version 16.0d18e1", template writer version: "8"-->
 <g id="Notes">
  <rect height="2200" id="artboard" style="fill:white;opacity:1" width="3300" x="0" y="0"/>
  <line id="" style="fill:none;stroke:black;opacity:1;stroke-width:0.5;" x1="263" x2="3036" y1="292" y2="292"/>
  <text style="stroke:none;fill:black;font-family:-apple-system,&quot;SF Pro Display&quot;,&quot;SF Pro Text&quot;,Helvetica,sans-serif;font-weight:bold;" transform="matrix(1 0 0 1 263 322)">Weight/Scale Variations</text>
  <text style="stroke:none;fill:black;font-family:-apple-system,&quot;SF Pro Display&quot;,&quot;SF Pro Text&quot;,Helvetica,sans-serif;text-anchor:middle;" transform="matrix(1 0 0 1 559.711 322)">Ultralight</text>
  <text style="stroke:none;fill:black;font-family:-apple-system,&quot;SF Pro Display&quot;,&quot;SF Pro Text&quot;,Helvetica,sans-serif;text-anchor:middle;" transform="matrix(1 0 0 1 856.422 322)">Thin</text>
  <text style="stroke:none;fill:black;font-family:-apple-system,&quot;SF Pro Display&quot;,&quot;SF Pro Text&quot;,Helvetica,sans-serif;text-anchor:middle;" transform="matrix(1 0 0 1 1153.13 322)">Light</text>
  <text style="stroke:none;fill:black;font-family:-apple-system,&quot;SF Pro Display&quot;,&quot;SF Pro Text&quot;,Helvetica,sans-serif;text-anchor:middle;" transform="matrix(1 0 0 1 1449.84 322)">Regular</text>
  <text style="stroke:none;fill:black;font-family:-apple-system,&quot;SF Pro Display&quot;,&quot;SF Pro Text&quot;,Helvetica,sans-serif;text-anchor:middle;" transform="matrix(1 0 0 1 1746.56 322)">Medium</text>
  <text style="stroke:none;fill:black;font-family:-apple-system,&quot;SF Pro Display&quot;,&quot;SF Pro Text&quot;,Helvetica,sans-serif;text-anchor:middle;" transform="matrix(1 0 0 1 2043.27 322)">Semibold</text>
  <text style="stroke:none;fill:black;font-family:-apple-system,&quot;SF Pro Display&quot;,&quot;SF Pro Text&quot;,Helvetica,sans-serif;text-anchor:middle;" transform="matrix(1 0 0 1 2339.98 322)">Bold</text>
  <text style="stroke:none;fill:black;font-family:-apple-system,&quot;SF Pro Display&quot;,&quot;SF Pro Text&quot;,Helvetica,sans-serif;text-anchor:middle;" transform="matrix(1 0 0 1 2636.69 322)">Heavy</text>
  <text style="stroke:none;fill:black;font-family:-apple-system,&quot;SF Pro Display&quot;,&quot;SF Pro Text&quot;,Helvetica,sans-serif;text-anchor:middle;" transform="matrix(1 0 0 1 2933.4 322)">Black</text>
  <line id="" style="fill:none;stroke:black;opacity:1;stroke-width:0.5;" x1="263" x2="3036" y1="1903" y2="1903"/>
  <g id="" transform="matrix(1 0 0 1 263 1933)">
   <path d="M9.24805 0.830078C13.5547 0.830078 17.1387-2.74414 17.1387-7.05078C17.1387-11.3574 13.5449-14.9316 9.23828-14.9316C4.94141-14.9316 1.36719-11.3574 1.36719-7.05078C1.36719-2.74414 4.95117 0.830078 9.24805 0.830078ZM9.24805-0.654297C5.70312-0.654297 2.87109-3.49609 2.87109-7.05078C2.87109-10.6055 5.69336-13.4473 9.23828-13.4473C12.793-13.4473 15.6348-10.6055 15.6445-7.05078C15.6543-3.49609 12.8027-0.654297 9.24805-0.654297ZM6.39648-6.31836L8.50586-6.31836L8.50586-4.19922C8.50586-3.75977 8.79883-3.45703 9.22852-3.45703C9.67773-3.45703 9.9707-3.75977 9.9707-4.19922L9.9707-6.31836L12.0996-6.31836C12.5391-6.31836 12.8418-6.61133 12.8418-7.04102C12.8418-7.48047 12.5391-7.7832 12.0996-7.7832L9.9707-7.7832L9.9707-9.89258C9.9707-10.3418 9.67773-10.6445 9.22852-10.6445C8.79883-10.6445 8.50586-10.3418 8.50586-9.89258L8.50586-7.7832L6.39648-7.7832C5.94727-7.7832 5.64453-7.48047 5.64453-7.04102C5.64453-6.61133 5.94727-6.31836 6.39648-6.31836Z"/>
  </g>
  <g id="" transform="matrix(1 0 0 1 281.506 1933)">
   <path d="M11.709 2.91016C17.1582 2.91016 21.6699-1.61133 21.6699-7.05078C21.6699-12.5 17.1484-17.0117 11.6992-17.0117C6.25977-17.0117 1.74805-12.5 1.74805-7.05078C1.74805-1.61133 6.26953 2.91016 11.709 2.91016ZM11.709 1.25C7.09961 1.25 3.41797-2.44141 3.41797-7.05078C3.41797-11.6602 7.08984-15.3516 11.6992-15.3516C16.3086-15.3516 20-11.6602 20.0098-7.05078C20.0195-2.44141 16.3184 1.25 11.709 1.25ZM7.98828-6.23047L10.8789-6.23047L10.8789-3.32031C10.8789-2.83203 11.2109-2.5 11.6895-2.5C12.1777-2.5 12.5195-2.83203 12.5195-3.32031L12.5195-6.23047L15.4297-6.23047C15.918-6.23047 16.25-6.5625 16.25-7.04102C16.25-7.5293 15.918-7.87109 15.4297-7.87109L12.5195-7.87109L12.5195-10.7617C12.5195-11.2695 12.1777-11.6016 11.6895-11.6016C11.2109-11.6016 10.8789-11.2598 10.8789-10.7617L10.8789-7.87109L7.98828-7.87109C7.48047-7.87109 7.14844-7.5293 7.14844-7.04102C7.14844-6.5625 7.49023-6.23047 7.98828-6.23047Z"/>
  </g>
  <g id="" transform="matrix(1 0 0 1 304.924 1933)">
   <path d="M14.9707 5.66406C21.9336 5.66406 27.6953-0.0976562 27.6953-7.05078C27.6953-14.0137 21.9238-19.7754 14.9609-19.7754C8.00781-19.7754 2.25586-14.0137 2.25586-7.05078C2.25586-0.0976562 8.01758 5.66406 14.9707 5.66406ZM14.9707 3.84766C8.93555 3.84766 4.08203-1.01562 4.08203-7.05078C4.08203-13.0957 8.92578-17.9492 14.9609-17.9492C21.0059-17.9492 25.8594-13.0957 25.8691-7.05078C25.8789-1.01562 21.0156 3.84766 14.9707 3.84766ZM10.0586-6.14258L14.0625-6.14258L14.0625-2.12891C14.0625-1.5918 14.4336-1.2207 14.9512-1.2207C15.4883-1.2207 15.8594-1.5918 15.8594-2.12891L15.8594-6.14258L19.8828-6.14258C20.4102-6.14258 20.791-6.51367 20.791-7.03125C20.791-7.56836 20.4199-7.94922 19.8828-7.94922L15.8594-7.94922L15.8594-11.9531C15.8594-12.5098 15.4883-12.8809 14.9512-12.8809C14.4336-12.8809 14.0625-12.5 14.0625-11.9531L14.0625-7.94922L10.0586-7.94922C9.50195-7.94922 9.13086-7.56836 9.13086-7.03125C9.13086-6.51367 9.51172-6.14258 10.0586-6.14258Z"/>
  </g>
  <text style="stroke:none;fill:black;font-family:-apple-system,&quot;SF Pro Display&quot;,&quot;SF Pro Text&quot;,Helvetica,sans-serif;font-weight:bold;" transform="matrix(1 0 0 1 263 1953)">Design Variations</text>
  <text style="stroke:none;fill:black;font-family:-apple-system,&quot;SF Pro Display&quot;,&quot;SF Pro Text&quot;,Helvetica,sans-serif;" transform="matrix(1 0 0 1 263 1971)">Symbols are supported in up to nine weights and three scales.</text>
  <text style="stroke:none;fill:black;font-family:-apple-system,&quot;SF Pro Display&quot;,&quot;SF Pro Text&quot;,Helvetica,sans-serif;" transform="matrix(1 0 0 1 263 1989)">For optimal layout with text and other symbols, vertically align</text>
  <text style="stroke:none;fill:black;font-family:-apple-system,&quot;SF Pro Display&quot;,&quot;SF Pro Text&quot;,Helvetica,sans-serif;" transform="matrix(1 0 0 1 263 2007)">symbols with the adjacent text.</text>
  <line id="" style="fill:none;stroke:#00AEEF;stroke-width:0.5;opacity:1.0;" x1="776" x2="776" y1="1919" y2="1933"/>
  <g id="" transform="matrix(1 0 0 1 776 1933)">
   <path d="M3.31055 0.126953C3.82812 0.126953 4.08203-0.0683594 4.26758-0.605469L5.52734-4.0625L11.2891-4.0625L12.5488-0.605469C12.7344-0.0683594 12.9883 0.126953 13.4961 0.126953C14.0137 0.126953 14.3457-0.185547 14.3457-0.673828C14.3457-0.839844 14.3164-0.986328 14.2383-1.20117L9.6582-13.3887C9.43359-13.9941 9.0332-14.2871 8.4082-14.2871C7.80273-14.2871 7.39258-13.9941 7.17773-13.3984L2.59766-1.19141C2.51953-0.976562 2.49023-0.830078 2.49023-0.664062C2.49023-0.175781 2.80273 0.126953 3.31055 0.126953ZM6.00586-5.53711L8.37891-12.1094L8.42773-12.1094L10.8008-5.53711Z"/>
  </g>
  <line id="" style="fill:none;stroke:#00AEEF;stroke-width:0.5;opacity:1.0;" x1="792.836" x2="792.836" y1="1919" y2="1933"/>
  <text style="stroke:none;fill:black;font-family:-apple-system,&quot;SF Pro Display&quot;,&quot;SF Pro Text&quot;,Helvetica,sans-serif;font-weight:bold;" transform="matrix(1 0 0 1 776 1953)">Margins</text>
  <text style="stroke:none;fill:black;font-family:-apple-system,&quot;SF Pro Display&quot;,&quot;SF Pro Text&quot;,Helvetica,sans-serif;" transform="matrix(1 0 0 1 776 1971)">Leading and trailing margins on the left and right side of each symbol</text>
  <text style="stroke:none;fill:black;font-family:-apple-system,&quot;SF Pro Display&quot;,&quot;SF Pro Text&quot;,Helvetica,sans-serif;" transform="matrix(1 0 0 1 776 1989)">can be adjusted by modifying the x-location of the margin guidelines.</text>
  <text style="stroke:none;fill:black;font-family:-apple-system,&quot;SF Pro Display&quot;,&quot;SF Pro Text&quot;,Helvetica,sans-serif;" transform="matrix(1 0 0 1 776 2007)">Modifications are automatically applied proportionally to all</text>
  <text style="stroke:none;fill:black;font-family:-apple-system,&quot;SF Pro Display&quot;,&quot;SF Pro Text&quot;,Helvetica,sans-serif;" transform="matrix(1 0 0 1 776 2025)">scales and weights.</text>
  <g id="" transform="matrix(1 0 0 1 1289 1933)">
   <path d="M2.8418 1.86523L4.54102 3.57422C5.40039 4.44336 6.38672 4.38477 7.31445 3.35938L17.4902-7.85156C17.7539-7.76367 18.0273-7.7832 18.3398-7.8418L19.4043-8.03711L20.0684-7.36328L20.0293-6.80664C19.9902-6.30859 20.1172-5.92773 20.6055-5.44922L21.3672-4.70703C21.8457-4.22852 22.4609-4.19922 22.9297-4.66797L25.8398-7.58789C26.3086-8.05664 26.2891-8.65234 25.8105-9.13086L25.0391-9.89258C24.5605-10.3711 24.1895-10.5273 23.7109-10.4883L23.1348-10.4395L22.4902-11.0742L22.7344-12.1973C22.8613-12.7637 22.7051-13.2031 22.1191-13.7891L19.9219-15.9766C16.582-19.2969 12.1484-19.2188 9.25781-16.3281C8.83789-15.918 8.80859-15.3418 9.04297-14.9512C9.27734-14.5898 9.73633-14.3555 10.3809-14.5215C11.8457-14.8633 13.3691-14.9219 14.7949-13.9844L14.209-12.5293C14.0137-12.0508 13.9844-11.6504 14.1113-11.2891L3.04688-0.898438C2.06055 0.0195312 1.98242 0.996094 2.8418 1.86523ZM10.752-15.957C13.1836-17.7344 16.4746-17.4316 18.7012-15.2051L21.1328-12.793C21.3672-12.5586 21.4062-12.373 21.3379-12.0312L21.0156-10.5469L22.5195-9.0625L23.5059-9.12109C23.7598-9.13086 23.8379-9.11133 24.0332-8.91602L24.6094-8.33984L22.168-5.89844L21.5918-6.47461C21.3965-6.66992 21.3672-6.74805 21.377-7.01172L21.4453-7.98828L19.9512-9.47266L18.4277-9.21875C18.1055-9.15039 17.959-9.17969 17.7148-9.41406L15.7129-11.416C15.459-11.6504 15.4297-11.8164 15.5859-12.1875L16.4648-14.2773C14.9023-15.7324 12.8711-16.3574 10.8398-15.7617C10.6836-15.7227 10.625-15.8496 10.752-15.957ZM5.27344 2.30469L4.10156 1.14258C3.63281 0.683594 3.74023 0.341797 4.14062-0.0195312L14.9512-10.1953L16.416-8.71094L6.42578 2.27539C6.07422 2.67578 5.74219 2.77344 5.27344 2.30469Z"/>
  </g>
  <text style="stroke:none;fill:black;font-family:-apple-system,&quot;SF Pro Display&quot;,&quot;SF Pro Text&quot;,Helvetica,sans-serif;font-weight:bold;" transform="matrix(1 0 0 1 1289 1953)">Exporting</text>
  <text style="stroke:none;fill:black;font-family:-apple-system,&quot;SF Pro Display&quot;,&quot;SF Pro Text&quot;,Helvetica,sans-serif;" transform="matrix(1 0 0 1 1289 1971)">Symbols should be outlined when exporting to ensure the</text>
  <text style="stroke:none;fill:black;font-family:-apple-system,&quot;SF Pro Display&quot;,&quot;SF Pro Text&quot;,Helvetica,sans-serif;" transform="matrix(1 0 0 1 1289 1989)">design is preserved when submitting to Xcode.</text>
  <text id="template-version" style="stroke:none;fill:black;font-family:-apple-system,&quot;SF Pro Display&quot;,&quot;SF Pro Text&quot;,Helvetica,sans-serif;text-anchor:end;" transform="matrix(1 0 0 1 3036 1933)">Template v.2.0</text>
  <text style="stroke:none;fill:black;font-family:-apple-system,&quot;SF Pro Display&quot;,&quot;SF Pro Text&quot;,Helvetica,sans-serif;text-anchor:end;" transform="matrix(1 0 0 1 3036 1951)">Requires Xcode 12 or greater</text>
  <text style="stroke:none;fill:black;font-family:-apple-system,&quot;SF Pro Display&quot;,&quot;SF Pro Text&quot;,Helvetica,sans-serif;text-anchor:end;" transform="matrix(1 0 0 1 3036 1969)">Generated from circles.hexagonpath.fill</text>
  <text style="stroke:none;fill:black;font-family:-apple-system,&quot;SF Pro Display&quot;,&quot;SF Pro Text&quot;,Helvetica,sans-serif;text-anchor:end;" transform="matrix(1 0 0 1 3036 1987)">Typeset at 100 points</text>
  <text style="stroke:none;fill:black;font-family:-apple-system,&quot;SF Pro Display&quot;,&quot;SF Pro Text&quot;,Helvetica,sans-serif;" transform="matrix(1 0 0 1 263 726)">Small</text>
  <text style="stroke:none;fill:black;font-family:-apple-system,&quot;SF Pro Display&quot;,&quot;SF Pro Text&quot;,Helvetica,sans-serif;" transform="matrix(1 0 0 1 263 1156)">Medium</text>
  <text style="stroke:none;fill:black;font-family:-apple-system,&quot;SF Pro Display&quot;,&quot;SF Pro Text&quot;,Helvetica,sans-serif;" transform="matrix(1 0 0 1 263 1586)">Large</text>
 </g>
 <g id="Guides">
  <g id="H-reference" style="fill:#27AAE1;stroke:none;" transform="matrix(1 0 0 1 339 696)">
   <path d="M0.976562 0L3.66211 0L12.9883-24.4629L45.752-24.4629L55.127 0L57.7637 0L30.6152-70.459L28.125-70.459ZM29.3457-67.1387L29.4434-67.1387L44.873-26.709L13.8672-26.709Z"/>
  </g>
  <line id="Baseline-S" style="fill:none;stroke:#27AAE1;opacity:1;stroke-width:0.5;" x1="263" x2="3036" y1="696" y2="696"/>
  <line id="Capline-S" style="fill:none;stroke:#27AAE1;opacity:1;stroke-width:0.5;" x1="263" x2="3036" y1="625.541" y2="625.541"/>
  <g id="H-reference" style="fill:#27AAE1;stroke:none;" transform="matrix(1 0 0 1 339 1126)">
   <path d="M0.976562 0L3.66211 0L12.9883-24.4629L45.752-24.4629L55.127 0L57.7637 0L30.6152-70.459L28.125-70.459ZM29.3457-67.1387L29.4434-67.1387L44.873-26.709L13.8672-26.709Z"/>
  </g>
  <line id="Baseline-M" style="fill:none;stroke:#27AAE1;opacity:1;stroke-width:0.5;" x1="263" x2="3036" y1="1126" y2="1126"/>
  <line id="Capline-M" style="fill:none;stroke:#27AAE1;opacity:1;stroke-width:0.5;" x1="263" x2="3036" y1="1055.54" y2="1055.54"/>
  <g id="H-reference" style="fill:#27AAE1;stroke:none;" transform="matrix(1 0 0 1 339 1556)">
   <path d="M0.976562 0L3.66211 0L12.9883-24.4629L45.752-24.4629L55.127 0L57.7637 0L30.6152-70.459L28.125-70.459ZM29.3457-67.1387L29.4434-67.1387L44.873-26.709L13.8672-26.709Z"/>
  </g>
  <line id="Baseline-L" style="fill:none;stroke:#27AAE1;opacity:1;stroke-width:0.5;" x1="263" x2="3036" y1="1556" y2="1556"/>
  <line id="Capline-L" style="fill:none;stroke:#27AAE1;opacity:1;stroke-width:0.5;" x1="263" x2="3036" y1="1485.54" y2="1485.54"/>
  <line id="left-margin" style="fill:none;stroke:#00AEEF;stroke-width:0.5;opacity:1.0;" x1="1390.45" x2="1390.45" y1="1030.79" y2="1150.12"/>
  <line id="right-margin" style="fill:none;stroke:#00AEEF;stroke-width:0.5;opacity:1.0;" x1="1509.24" x2="1509.24" y1="1030.79" y2="1150.12"/>
 </g>
 <g id="Symbols">
  <g id="Black-L" transform="matrix(1 0 0 1 2847.19 1556)">
   <path d="M60.5469-57.5195C73.5352-57.5195 84.2773-68.2617 84.2773-81.1035C84.2773-94.0918 73.4863-104.883 60.5469-104.883C47.6562-104.883 36.9141-94.0918 36.9141-81.1035C36.9141-68.2617 47.6074-57.5195 60.5469-57.5195ZM111.865-57.5195C124.805-57.5195 135.498-68.1641 135.498-81.1035C135.498-94.0918 124.756-104.883 111.865-104.883C98.9258-104.883 88.1348-94.0918 88.1348-81.1035C88.1348-68.2617 98.877-57.5195 111.865-57.5195ZM34.9609-11.6211C47.9492-11.6211 58.6914-22.3633 58.6914-35.2539C58.6914-48.1934 47.9492-58.8867 34.9609-58.8867C22.0215-58.8867 11.2793-48.1934 11.2793-35.2539C11.2793-22.3145 21.9727-11.6211 34.9609-11.6211ZM137.451-11.6211C150.391-11.6211 161.133-22.3633 161.133-35.2539C161.133-48.1934 150.391-58.8867 137.451-58.8867C124.463-58.8867 113.721-48.1934 113.721-35.2539C113.721-22.3633 124.463-11.6211 137.451-11.6211ZM60.5469 34.3262C73.4863 34.3262 84.2773 23.5352 84.2773 10.5957C84.2773-2.29492 73.5352-13.0371 60.5469-13.0371C47.6074-13.0371 36.9141-2.34375 36.9141 10.5957C36.9141 23.5352 47.6074 34.3262 60.5469 34.3262ZM111.865 34.3262C124.756 34.3262 135.498 23.5352 135.498 10.5957C135.498-2.34375 124.805-13.0371 111.865-13.0371C98.877-13.0371 88.1348-2.29492 88.1348 10.5957C88.1348 23.5352 98.9258 34.3262 111.865 34.3262Z"/>
  </g>
  <g id="Heavy-L" transform="matrix(1 0 0 1 2552.88 1556)">
   <path d="M58.8379-57.373C71.2402-57.373 81.4941-67.627 81.4941-79.9316C81.4941-92.334 71.1914-102.637 58.8379-102.637C46.4844-102.637 36.2305-92.334 36.2305-79.9316C36.2305-67.6758 46.4844-57.373 58.8379-57.373ZM108.789-57.373C121.191-57.373 131.396-67.5781 131.396-79.9316C131.396-92.334 121.143-102.637 108.789-102.637C96.4355-102.637 86.1328-92.334 86.1328-79.9316C86.1328-67.627 96.3867-57.373 108.789-57.373ZM33.9355-12.6953C46.2891-12.6953 56.543-22.9492 56.543-35.2539C56.543-47.6074 46.2891-57.8613 33.9355-57.8613C21.5332-57.8613 11.2793-47.6074 11.2793-35.2539C11.2793-22.9004 21.4844-12.6953 33.9355-12.6953ZM133.691-12.6953C146.094-12.6953 156.348-22.9492 156.348-35.2539C156.348-47.6074 146.094-57.8613 133.691-57.8613C121.338-57.8613 111.084-47.6074 111.084-35.2539C111.084-22.9492 121.338-12.6953 133.691-12.6953ZM58.8379 32.0801C71.1914 32.0801 81.4941 21.7773 81.4941 9.42383C81.4941-2.88086 71.2402-13.1348 58.8379-13.1348C46.4844-13.1348 36.2305-2.92969 36.2305 9.42383C36.2305 21.7773 46.4844 32.0801 58.8379 32.0801ZM108.789 32.0801C121.143 32.0801 131.396 21.7773 131.396 9.42383C131.396-2.92969 121.191-13.1348 108.789-13.1348C96.3867-13.1348 86.1328-2.88086 86.1328 9.42383C86.1328 21.7773 96.4355 32.0801 108.789 32.0801Z"/>
  </g>
  <g id="Bold-L" transform="matrix(1 0 0 1 2258.83 1556)">
   <path d="M56.9336-57.2266C68.6523-57.2266 78.3691-66.9434 78.3691-78.6133C78.3691-90.332 68.6035-100.098 56.9336-100.098C45.2148-100.098 35.498-90.332 35.498-78.6133C35.498-66.9922 45.166-57.2266 56.9336-57.2266ZM105.371-57.2266C117.09-57.2266 126.807-66.9434 126.807-78.6133C126.807-90.332 117.041-100.098 105.371-100.098C93.6523-100.098 83.9355-90.332 83.9355-78.6133C83.9355-66.9434 93.6523-57.2266 105.371-57.2266ZM32.7148-13.8672C44.4336-13.8672 54.1992-23.584 54.1992-35.2539C54.1992-46.9727 44.4336-56.6895 32.7148-56.6895C20.9961-56.6895 11.2793-46.9727 11.2793-35.2539C11.2793-23.584 20.9473-13.8672 32.7148-13.8672ZM129.541-13.8672C141.26-13.8672 151.025-23.584 151.025-35.2539C151.025-46.9727 141.26-56.6895 129.541-56.6895C117.822-56.6895 108.105-46.9727 108.105-35.2539C108.105-23.584 117.822-13.8672 129.541-13.8672ZM56.9336 29.541C68.6035 29.541 78.3691 19.8242 78.3691 8.10547C78.3691-3.56445 68.6523-13.2812 56.9336-13.2812C45.2148-13.2812 35.498-3.61328 35.498 8.10547C35.498 19.7754 45.166 29.541 56.9336 29.541ZM105.371 29.541C117.041 29.541 126.807 19.8242 126.807 8.10547C126.807-3.61328 117.09-13.2812 105.371-13.2812C93.6523-13.2812 83.9355-3.56445 83.9355 8.10547C83.9355 19.8242 93.6523 29.541 105.371 29.541Z"/>
  </g>
  <g id="Semibold-L" transform="matrix(1 0 0 1 1963.97 1556)">
   <path d="M55.6152-57.1289C66.8945-57.1289 76.2207-66.5039 76.2207-77.7344C76.2207-88.9648 66.8457-98.3398 55.6152-98.3398C44.3359-98.3398 34.9609-88.9648 34.9609-77.7344C34.9609-66.5527 44.2871-57.1289 55.6152-57.1289ZM103.027-57.1289C114.258-57.1289 123.633-66.4551 123.633-77.7344C123.633-88.9648 114.258-98.3398 103.027-98.3398C91.748-98.3398 82.373-88.9648 82.373-77.7344C82.373-66.5039 91.748-57.1289 103.027-57.1289ZM31.9336-14.6484C43.1641-14.6484 52.5391-24.0234 52.5391-35.2539C52.5391-46.5332 43.1641-55.8594 31.9336-55.8594C20.6543-55.8594 11.2793-46.5332 11.2793-35.2539C11.2793-24.0234 20.6055-14.6484 31.9336-14.6484ZM126.709-14.6484C137.988-14.6484 147.314-24.0234 147.314-35.2539C147.314-46.5332 137.988-55.8594 126.709-55.8594C115.43-55.8594 106.055-46.5332 106.055-35.2539C106.055-24.0234 115.43-14.6484 126.709-14.6484ZM55.6152 27.832C66.8457 27.832 76.2207 18.457 76.2207 7.17773C76.2207-4.05273 66.8945-13.3789 55.6152-13.3789C44.3359-13.3789 34.9609-4.05273 34.9609 7.17773C34.9609 18.4082 44.2871 27.832 55.6152 27.832ZM103.027 27.832C114.258 27.832 123.633 18.457 123.633 7.17773C123.633-4.05273 114.258-13.3789 103.027-13.3789C91.748-13.3789 82.373-4.05273 82.373 7.17773C82.373 18.457 91.748 27.832 103.027 27.832Z"/>
  </g>
  <g id="Medium-L" transform="matrix(1 0 0 1 1668.65 1556)">
   <path d="M54.5898-57.0801C65.5273-57.0801 74.6094-66.1621 74.6094-77.002C74.6094-87.9395 65.5273-97.0215 54.5898-97.0215C43.6523-97.0215 34.5703-87.9395 34.5703-77.002C34.5703-66.2109 43.6035-57.0801 54.5898-57.0801ZM101.221-57.0801C112.158-57.0801 121.24-66.1133 121.24-77.002C121.24-87.9395 112.158-97.0215 101.221-97.0215C90.2832-97.0215 81.2012-87.9395 81.2012-77.002C81.2012-66.1621 90.2832-57.0801 101.221-57.0801ZM31.2988-15.2832C42.2363-15.2832 51.3184-24.3652 51.3184-35.2539C51.3184-46.1914 42.2363-55.2734 31.2988-55.2734C20.3613-55.2734 11.2793-46.1914 11.2793-35.2539C11.2793-24.3652 20.3125-15.2832 31.2988-15.2832ZM124.512-15.2832C135.449-15.2832 144.531-24.3652 144.531-35.2539C144.531-46.1914 135.449-55.2734 124.512-55.2734C113.574-55.2734 104.492-46.1914 104.492-35.2539C104.492-24.3652 113.574-15.2832 124.512-15.2832ZM54.5898 26.5137C65.5273 26.5137 74.6094 17.4316 74.6094 6.49414C74.6094-4.39453 65.5273-13.4766 54.5898-13.4766C43.6523-13.4766 34.5703-4.39453 34.5703 6.49414C34.5703 17.3828 43.6035 26.5137 54.5898 26.5137ZM101.221 26.5137C112.158 26.5137 121.24 17.4316 121.24 6.49414C121.24-4.39453 112.158-13.4766 101.221-13.4766C90.2832-13.4766 81.2012-4.39453 81.2012 6.49414C81.2012 17.4316 90.2832 26.5137 101.221 26.5137Z"/>
  </g>
  <g id="Regular-L" transform="matrix(1 0 0 1 1373.77 1556)">
   <path d="M53.2715-56.9824C63.7695-56.9824 72.4609-65.6738 72.4609-76.123C72.4609-86.6211 63.7695-95.3125 53.2715-95.3125C42.7734-95.3125 34.082-86.6211 34.082-76.123C34.082-65.7227 42.7246-56.9824 53.2715-56.9824ZM98.877-56.9824C109.375-56.9824 118.066-65.6738 118.066-76.123C118.066-86.6211 109.375-95.3125 98.877-95.3125C88.3789-95.3125 79.6875-86.6211 79.6875-76.123C79.6875-65.6738 88.3789-56.9824 98.877-56.9824ZM30.4688-16.0645C40.9668-16.0645 49.707-24.8047 49.707-35.2539C49.707-45.752 40.9668-54.4922 30.4688-54.4922C20.0195-54.4922 11.2793-45.752 11.2793-35.2539C11.2793-24.8535 19.9219-16.0645 30.4688-16.0645ZM121.68-16.0645C132.178-16.0645 140.869-24.8047 140.869-35.2539C140.869-45.752 132.178-54.4922 121.68-54.4922C111.182-54.4922 102.49-45.752 102.49-35.2539C102.49-24.8047 111.182-16.0645 121.68-16.0645ZM53.2715 24.8047C63.7695 24.8047 72.4609 16.0645 72.4609 5.56641C72.4609-4.83398 63.7695-13.5742 53.2715-13.5742C42.7734-13.5742 34.082-4.83398 34.082 5.56641C34.082 16.0156 42.7246 24.8047 53.2715 24.8047ZM98.877 24.8047C109.375 24.8047 118.066 16.0645 118.066 5.56641C118.066-4.83398 109.375-13.5742 98.877-13.5742C88.3789-13.5742 79.6875-4.83398 79.6875 5.56641C79.6875 16.0645 88.3789 24.8047 98.877 24.8047Z"/>
  </g>
  <g id="Light-L" transform="matrix(1 0 0 1 1077.82 1556)">
   <path d="M52.9297-56.2012C63.4277-56.2012 72.168-64.9414 72.168-75.3906C72.168-85.8887 63.4277-94.6289 52.9297-94.6289C42.4316-94.6289 33.6914-85.8887 33.6914-75.3906C33.6914-64.9414 42.3828-56.2012 52.9297-56.2012ZM97.7051-56.2012C108.203-56.2012 116.943-64.9414 116.943-75.3906C116.943-85.8887 108.203-94.6289 97.7051-94.6289C87.207-94.6289 78.4668-85.8887 78.4668-75.3906C78.4668-64.9414 87.207-56.2012 97.7051-56.2012ZM30.5176-16.0156C41.0156-16.0156 49.7559-24.7559 49.7559-35.2539C49.7559-45.752 41.0156-54.4922 30.5176-54.4922C20.0195-54.4922 11.2793-45.752 11.2793-35.2539C11.2793-24.8047 19.9707-16.0156 30.5176-16.0156ZM120.117-16.0156C130.615-16.0156 139.355-24.7559 139.355-35.2539C139.355-45.752 130.615-54.4922 120.117-54.4922C109.57-54.4922 100.83-45.752 100.83-35.2539C100.83-24.7559 109.57-16.0156 120.117-16.0156ZM52.9297 24.1211C63.4277 24.1211 72.168 15.3809 72.168 4.88281C72.168-5.61523 63.4277-14.3555 52.9297-14.3555C42.4316-14.3555 33.6914-5.61523 33.6914 4.88281C33.6914 15.332 42.3828 24.1211 52.9297 24.1211ZM97.7051 24.1211C108.203 24.1211 116.943 15.3809 116.943 4.88281C116.943-5.61523 108.203-14.3555 97.7051-14.3555C87.207-14.3555 78.4668-5.61523 78.4668 4.88281C78.4668 15.3809 87.207 24.1211 97.7051 24.1211Z"/>
  </g>
  <g id="Thin-L" transform="matrix(1 0 0 1 782.155 1556)">
   <path d="M52.4414-55.1758C62.9395-55.1758 71.7285-63.916 71.7285-74.4629C71.7285-84.9609 62.9395-93.75 52.4414-93.75C41.8945-93.75 33.1543-84.9609 33.1543-74.4629C33.1543-63.916 41.8945-55.1758 52.4414-55.1758ZM96.1426-55.1758C106.641-55.1758 115.43-63.916 115.43-74.4629C115.43-84.9609 106.641-93.75 96.1426-93.75C85.5957-93.75 76.8555-84.9609 76.8555-74.4629C76.8555-63.916 85.5957-55.1758 96.1426-55.1758ZM30.5664-15.9668C41.1133-15.9668 49.8535-24.7559 49.8535-35.2539C49.8535-45.8008 41.1133-54.541 30.5664-54.541C20.0195-54.541 11.2793-45.8008 11.2793-35.2539C11.2793-24.7559 20.0195-15.9668 30.5664-15.9668ZM117.969-15.9668C128.516-15.9668 137.256-24.7559 137.256-35.2539C137.256-45.8008 128.516-54.541 117.969-54.541C107.471-54.541 98.6816-45.8008 98.6816-35.2539C98.6816-24.7559 107.471-15.9668 117.969-15.9668ZM52.4414 23.1934C62.9395 23.1934 71.7285 14.4531 71.7285 3.90625C71.7285-6.5918 62.9395-15.3809 52.4414-15.3809C41.8945-15.3809 33.1543-6.5918 33.1543 3.90625C33.1543 14.4043 41.8945 23.1934 52.4414 23.1934ZM96.1426 23.1934C106.641 23.1934 115.43 14.4531 115.43 3.90625C115.43-6.5918 106.641-15.3809 96.1426-15.3809C85.5957-15.3809 76.8555-6.5918 76.8555 3.90625C76.8555 14.4531 85.5957 23.1934 96.1426 23.1934Z"/>
  </g>
  <g id="Ultralight-L" transform="matrix(1 0 0 1 485.956 1556)">
   <path d="M52.1484-54.6387C62.6953-54.6387 71.4844-63.4277 71.4844-73.9746C71.4844-84.5215 62.6953-93.2617 52.1484-93.2617C41.6504-93.2617 32.8613-84.5215 32.8613-73.9746C32.8613-63.4277 41.6504-54.6387 52.1484-54.6387ZM95.3125-54.6387C105.859-54.6387 114.648-63.4277 114.648-73.9746C114.648-84.5215 105.859-93.2617 95.3125-93.2617C84.8145-93.2617 76.0254-84.5215 76.0254-73.9746C76.0254-63.4277 84.8145-54.6387 95.3125-54.6387ZM30.6152-15.9668C41.1133-15.9668 49.9023-24.707 49.9023-35.2539C49.9023-45.8008 41.1133-54.5898 30.6152-54.5898C20.0684-54.5898 11.2793-45.8008 11.2793-35.2539C11.2793-24.707 20.0684-15.9668 30.6152-15.9668ZM116.895-15.9668C127.441-15.9668 136.23-24.707 136.23-35.2539C136.23-45.8008 127.441-54.5898 116.895-54.5898C106.396-54.5898 97.6074-45.8008 97.6074-35.2539C97.6074-24.707 106.396-15.9668 116.895-15.9668ZM52.1484 22.7539C62.6953 22.7539 71.4844 13.9648 71.4844 3.41797C71.4844-7.12891 62.6953-15.918 52.1484-15.918C41.6504-15.918 32.8613-7.12891 32.8613 3.41797C32.8613 13.9648 41.6504 22.7539 52.1484 22.7539ZM95.3125 22.7539C105.859 22.7539 114.648 13.9648 114.648 3.41797C114.648-7.12891 105.859-15.918 95.3125-15.918C84.8145-15.918 76.0254-7.12891 76.0254 3.41797C76.0254 13.9648 84.8145 22.7539 95.3125 22.7539Z"/>
  </g>
  <g id="Black-M" transform="matrix(1 0 0 1 2863.8 1126)">
   <path d="M49.0723-52.2461C59.9121-52.2461 68.8477-61.2305 68.8477-72.0215C68.8477-82.8613 59.8145-91.8945 49.0723-91.8945C38.2812-91.8945 29.2969-82.8613 29.2969-72.0215C29.2969-61.2305 38.2812-52.2461 49.0723-52.2461ZM90.1855-52.2461C101.025-52.2461 109.912-61.1328 109.912-72.0215C109.912-82.8613 100.977-91.8945 90.1855-91.8945C79.3945-91.8945 70.3613-82.8613 70.3613-72.0215C70.3613-61.2305 79.3457-52.2461 90.1855-52.2461ZM28.5645-15.5273C39.4043-15.5273 48.3887-24.4629 48.3887-35.2539C48.3887-46.0449 39.4043-55.0293 28.5645-55.0293C17.7246-55.0293 8.74023-46.0449 8.74023-35.2539C8.74023-24.4141 17.7246-15.5273 28.5645-15.5273ZM110.693-15.5273C121.533-15.5273 130.469-24.4629 130.469-35.2539C130.469-46.0449 121.533-55.0293 110.693-55.0293C99.8047-55.0293 90.8691-46.0449 90.8691-35.2539C90.8691-24.4629 99.8047-15.5273 110.693-15.5273ZM49.0723 21.3379C59.8145 21.3379 68.8477 12.3535 68.8477 1.46484C68.8477-9.27734 59.9121-18.2617 49.0723-18.2617C38.1836-18.2617 29.2969-9.375 29.2969 1.46484C29.2969 12.3535 38.2812 21.3379 49.0723 21.3379ZM90.1855 21.3379C100.977 21.3379 109.912 12.3535 109.912 1.46484C109.912-9.375 101.025-18.2617 90.1855-18.2617C79.3457-18.2617 70.3613-9.27734 70.3613 1.46484C70.3613 12.3535 79.3945 21.3379 90.1855 21.3379Z"/>
  </g>
  <g id="Heavy-M" transform="matrix(1 0 0 1 2569.48 1126)">
   <path d="M47.2656-52.2949C57.4707-52.2949 65.918-60.7422 65.918-70.8984C65.918-81.1035 57.4219-89.5996 47.2656-89.5996C37.1094-89.5996 28.6621-81.1035 28.6621-70.8984C28.6621-60.791 37.1094-52.2949 47.2656-52.2949ZM87.1582-52.2949C97.3145-52.2949 105.713-60.6934 105.713-70.8984C105.713-81.1035 97.2656-89.5996 87.1582-89.5996C77.002-89.5996 68.5059-81.1035 68.5059-70.8984C68.5059-60.7422 76.9531-52.2949 87.1582-52.2949ZM27.3926-16.6504C37.5977-16.6504 46.0449-25.0977 46.0449-35.2539C46.0449-45.4102 37.5977-53.8574 27.3926-53.8574C17.1875-53.8574 8.74023-45.4102 8.74023-35.2539C8.74023-25.0488 17.1875-16.6504 27.3926-16.6504ZM107.031-16.6504C117.236-16.6504 125.684-25.0977 125.684-35.2539C125.684-45.4102 117.236-53.8574 107.031-53.8574C96.8262-53.8574 88.3789-45.4102 88.3789-35.2539C88.3789-25.0977 96.8262-16.6504 107.031-16.6504ZM47.2656 19.0918C57.4219 19.0918 65.918 10.5957 65.918 0.390625C65.918-9.76562 57.4707-18.2129 47.2656-18.2129C37.0605-18.2129 28.6621-9.81445 28.6621 0.390625C28.6621 10.5957 37.1094 19.0918 47.2656 19.0918ZM87.1582 19.0918C97.2656 19.0918 105.713 10.5957 105.713 0.390625C105.713-9.81445 97.3145-18.2129 87.1582-18.2129C76.9531-18.2129 68.5059-9.76562 68.5059 0.390625C68.5059 10.5957 77.002 19.0918 87.1582 19.0918Z"/>
  </g>
  <g id="Bold-M" transform="matrix(1 0 0 1 2275.48 1126)">
   <path d="M45.2637-52.3926C54.7363-52.3926 62.5977-60.2539 62.5977-69.6777C62.5977-79.1504 54.7363-87.0605 45.2637-87.0605C35.8398-87.0605 27.9785-79.1504 27.9785-69.6777C27.9785-60.2539 35.791-52.3926 45.2637-52.3926ZM83.7402-52.3926C93.2129-52.3926 101.025-60.2051 101.025-69.6777C101.025-79.1504 93.1641-87.0605 83.7402-87.0605C74.2676-87.0605 66.4062-79.1504 66.4062-69.6777C66.4062-60.2539 74.2676-52.3926 83.7402-52.3926ZM26.0742-17.9688C35.5469-17.9688 43.4082-25.8301 43.4082-35.2539C43.4082-44.7266 35.5469-52.5879 26.0742-52.5879C16.6016-52.5879 8.74023-44.7266 8.74023-35.2539C8.74023-25.7812 16.5527-17.9688 26.0742-17.9688ZM102.93-17.9688C112.402-17.9688 120.264-25.8301 120.264-35.2539C120.264-44.7266 112.402-52.5879 102.93-52.5879C93.457-52.5879 85.5957-44.7266 85.5957-35.2539C85.5957-25.8301 93.457-17.9688 102.93-17.9688ZM45.2637 16.5039C54.7363 16.5039 62.5977 8.64258 62.5977-0.830078C62.5977-10.3027 54.7363-18.1152 45.2637-18.1152C35.791-18.1152 27.9785-10.3027 27.9785-0.830078C27.9785 8.59375 35.791 16.5039 45.2637 16.5039ZM83.7402 16.5039C93.1641 16.5039 101.025 8.64258 101.025-0.830078C101.025-10.3027 93.2129-18.1152 83.7402-18.1152C74.2676-18.1152 66.4062-10.3027 66.4062-0.830078C66.4062 8.64258 74.2676 16.5039 83.7402 16.5039Z"/>
  </g>
  <g id="Semibold-M" transform="matrix(1 0 0 1 1980.62 1126)">
   <path d="M43.8965-52.4414C52.8809-52.4414 60.3516-59.8633 60.3516-68.7988C60.3516-77.7832 52.8809-85.2539 43.8965-85.2539C34.9609-85.2539 27.4902-77.7832 27.4902-68.7988C27.4902-59.9121 34.9121-52.4414 43.8965-52.4414ZM81.3965-52.4414C90.3809-52.4414 97.8027-59.8633 97.8027-68.7988C97.8027-77.7832 90.3809-85.2539 81.3965-85.2539C72.4121-85.2539 64.9414-77.7832 64.9414-68.7988C64.9414-59.8633 72.4121-52.4414 81.3965-52.4414ZM25.1953-18.8477C34.1797-18.8477 41.6016-26.3184 41.6016-35.2539C41.6016-44.2383 34.1797-51.6602 25.1953-51.6602C16.2109-51.6602 8.74023-44.2383 8.74023-35.2539C8.74023-26.3184 16.1621-18.8477 25.1953-18.8477ZM100.146-18.8477C109.131-18.8477 116.553-26.3184 116.553-35.2539C116.553-44.2383 109.131-51.6602 100.146-51.6602C91.1621-51.6602 83.6914-44.2383 83.6914-35.2539C83.6914-26.3184 91.1621-18.8477 100.146-18.8477ZM43.8965 14.7461C52.8809 14.7461 60.3516 7.27539 60.3516-1.70898C60.3516-10.6445 52.8809-18.0664 43.8965-18.0664C34.9121-18.0664 27.4902-10.6445 27.4902-1.70898C27.4902 7.22656 34.9121 14.7461 43.8965 14.7461ZM81.3965 14.7461C90.3809 14.7461 97.8027 7.27539 97.8027-1.70898C97.8027-10.6445 90.3809-18.0664 81.3965-18.0664C72.4121-18.0664 64.9414-10.6445 64.9414-1.70898C64.9414 7.27539 72.4121 14.7461 81.3965 14.7461Z"/>
  </g>
  <g id="Medium-M" transform="matrix(1 0 0 1 1685.33 1126)">
   <path d="M42.8711-52.4902C51.4648-52.4902 58.5938-59.6191 58.5938-68.1641C58.5938-76.7578 51.4648-83.9355 42.8711-83.9355C34.2773-83.9355 27.0996-76.7578 27.0996-68.1641C27.0996-59.668 34.2285-52.4902 42.8711-52.4902ZM79.6387-52.4902C88.2324-52.4902 95.3613-59.6191 95.3613-68.1641C95.3613-76.7578 88.2324-83.9355 79.6387-83.9355C71.0449-83.9355 63.8672-76.7578 63.8672-68.1641C63.8672-59.6191 70.9961-52.4902 79.6387-52.4902ZM24.5117-19.5312C33.1055-19.5312 40.2344-26.6602 40.2344-35.2539C40.2344-43.8477 33.1055-50.9766 24.5117-50.9766C15.8691-50.9766 8.74023-43.8477 8.74023-35.2539C8.74023-26.709 15.8691-19.5312 24.5117-19.5312ZM97.998-19.5312C106.592-19.5312 113.721-26.6602 113.721-35.2539C113.721-43.8477 106.592-50.9766 97.998-50.9766C89.4043-50.9766 82.2266-43.8477 82.2266-35.2539C82.2266-26.6602 89.4043-19.5312 97.998-19.5312ZM42.8711 13.4277C51.4648 13.4277 58.5938 6.25 58.5938-2.34375C58.5938-10.8887 51.4648-18.0664 42.8711-18.0664C34.2773-18.0664 27.0996-10.9375 27.0996-2.34375C27.0996 6.20117 34.2285 13.4277 42.8711 13.4277ZM79.6387 13.4277C88.2324 13.4277 95.3613 6.25 95.3613-2.34375C95.3613-10.9375 88.2324-18.0664 79.6387-18.0664C70.9961-18.0664 63.8672-10.8887 63.8672-2.34375C63.8672 6.25 71.0449 13.4277 79.6387 13.4277Z"/>
  </g>
  <g id="Regular-M" transform="matrix(1 0 0 1 1390.45 1126)">
   <path d="M41.5039-52.5391C49.6094-52.5391 56.3477-59.2773 56.3477-67.334C56.3477-75.4395 49.6094-82.1777 41.5039-82.1777C33.3984-82.1777 26.6602-75.4395 26.6602-67.334C26.6602-59.3262 33.3496-52.5391 41.5039-52.5391ZM77.2949-52.5391C85.4004-52.5391 92.1875-59.2773 92.1875-67.334C92.1875-75.4395 85.4004-82.1777 77.2949-82.1777C69.1895-82.1777 62.4512-75.4395 62.4512-67.334C62.4512-59.2773 69.1895-52.5391 77.2949-52.5391ZM23.584-20.4102C31.7383-20.4102 38.4766-27.1484 38.4766-35.2539C38.4766-43.3594 31.7383-50.0977 23.584-50.0977C15.4785-50.0977 8.74023-43.3594 8.74023-35.2539C8.74023-27.1973 15.4297-20.4102 23.584-20.4102ZM95.2148-20.4102C103.32-20.4102 110.059-27.1484 110.059-35.2539C110.059-43.3594 103.32-50.0977 95.2148-50.0977C87.1094-50.0977 80.3223-43.3594 80.3223-35.2539C80.3223-27.1484 87.1094-20.4102 95.2148-20.4102ZM41.5039 11.6699C49.6094 11.6699 56.3477 4.93164 56.3477-3.17383C56.3477-11.2793 49.6094-18.0176 41.5039-18.0176C33.3984-18.0176 26.6602-11.2793 26.6602-3.17383C26.6602 4.88281 33.3496 11.6699 41.5039 11.6699ZM77.2949 11.6699C85.4004 11.6699 92.1875 4.93164 92.1875-3.17383C92.1875-11.2793 85.4004-18.0176 77.2949-18.0176C69.1895-18.0176 62.4512-11.2793 62.4512-3.17383C62.4512 4.93164 69.1895 11.6699 77.2949 11.6699Z"/>
  </g>
  <g id="Light-M" transform="matrix(1 0 0 1 1094.42 1126)">
   <path d="M41.1621-51.8066C49.3164-51.8066 56.0547-58.5938 56.0547-66.6992C56.0547-74.8047 49.3164-81.5918 41.1621-81.5918C33.0566-81.5918 26.2695-74.8047 26.2695-66.6992C26.2695-58.5938 33.0078-51.8066 41.1621-51.8066ZM76.2207-51.8066C84.375-51.8066 91.1133-58.5938 91.1133-66.6992C91.1133-74.8047 84.375-81.5918 76.2207-81.5918C68.1152-81.5918 61.3281-74.8047 61.3281-66.6992C61.3281-58.5938 68.1152-51.8066 76.2207-51.8066ZM23.6328-20.3613C31.7871-20.3613 38.5254-27.1484 38.5254-35.2539C38.5254-43.4082 31.7871-50.1465 23.6328-50.1465C15.4785-50.1465 8.74023-43.4082 8.74023-35.2539C8.74023-27.1484 15.4785-20.3613 23.6328-20.3613ZM93.7988-20.3613C101.904-20.3613 108.691-27.1484 108.691-35.2539C108.691-43.4082 101.904-50.1465 93.7988-50.1465C85.6445-50.1465 78.9062-43.4082 78.9062-35.2539C78.9062-27.1484 85.6445-20.3613 93.7988-20.3613ZM41.1621 11.0352C49.3164 11.0352 56.0547 4.29688 56.0547-3.85742C56.0547-11.9629 49.3164-18.7012 41.1621-18.7012C33.0566-18.7012 26.2695-11.9629 26.2695-3.85742C26.2695 4.24805 33.0078 11.0352 41.1621 11.0352ZM76.2207 11.0352C84.375 11.0352 91.1133 4.29688 91.1133-3.85742C91.1133-11.9629 84.375-18.7012 76.2207-18.7012C68.1152-18.7012 61.3281-11.9629 61.3281-3.85742C61.3281 4.29688 68.1152 11.0352 76.2207 11.0352Z"/>
  </g>
  <g id="Thin-M" transform="matrix(1 0 0 1 798.634 1126)">
   <path d="M40.7227-50.8789C48.877-50.8789 55.6641-57.666 55.6641-65.8203C55.6641-73.9746 48.877-80.7617 40.7227-80.7617C32.5684-80.7617 25.7812-73.9746 25.7812-65.8203C25.7812-57.7148 32.5684-50.8789 40.7227-50.8789ZM74.8535-50.8789C83.0078-50.8789 89.7949-57.666 89.7949-65.8203C89.7949-73.9746 83.0078-80.7617 74.8535-80.7617C66.6992-80.7617 59.9121-73.9746 59.9121-65.8203C59.9121-57.666 66.6992-50.8789 74.8535-50.8789ZM23.6816-20.3125C31.8359-20.3125 38.623-27.0996 38.623-35.2539C38.623-43.4082 31.8359-50.1953 23.6816-50.1953C15.5273-50.1953 8.74023-43.4082 8.74023-35.2539C8.74023-27.0996 15.5273-20.3125 23.6816-20.3125ZM91.8945-20.3125C100.049-20.3125 106.836-27.0996 106.836-35.2539C106.836-43.4082 100.049-50.1953 91.8945-50.1953C83.7402-50.1953 76.9531-43.4082 76.9531-35.2539C76.9531-27.0996 83.7402-20.3125 91.8945-20.3125ZM40.7227 10.2539C48.877 10.2539 55.6641 3.4668 55.6641-4.6875C55.6641-12.8418 48.877-19.6289 40.7227-19.6289C32.5684-19.6289 25.7812-12.8418 25.7812-4.6875C25.7812 3.4668 32.5684 10.2539 40.7227 10.2539ZM74.8535 10.2539C83.0078 10.2539 89.7949 3.4668 89.7949-4.6875C89.7949-12.8418 83.0078-19.6289 74.8535-19.6289C66.6992-19.6289 59.9121-12.8418 59.9121-4.6875C59.9121 3.4668 66.6992 10.2539 74.8535 10.2539Z"/>
  </g>
  <g id="Ultralight-M" transform="matrix(1 0 0 1 502.387 1126)">
   <path d="M40.5273-50.4395C48.6816-50.4395 55.4688-57.2266 55.4688-65.3809C55.4688-73.5352 48.6816-80.3711 40.5273-80.3711C32.3242-80.3711 25.5371-73.5352 25.5371-65.3809C25.5371-57.2266 32.3242-50.4395 40.5273-50.4395ZM74.1211-50.4395C82.2754-50.4395 89.0625-57.2266 89.0625-65.3809C89.0625-73.5352 82.2754-80.3711 74.1211-80.3711C65.9668-80.3711 59.1797-73.5352 59.1797-65.3809C59.1797-57.2266 65.9668-50.4395 74.1211-50.4395ZM23.6816-20.3125C31.8848-20.3125 38.6719-27.0996 38.6719-35.2539C38.6719-43.4082 31.8848-50.2441 23.6816-50.2441C15.5273-50.2441 8.74023-43.4082 8.74023-35.2539C8.74023-27.0996 15.5273-20.3125 23.6816-20.3125ZM90.918-20.3125C99.0723-20.3125 105.908-27.0996 105.908-35.2539C105.908-43.4082 99.0723-50.2441 90.918-50.2441C82.7637-50.2441 75.9766-43.4082 75.9766-35.2539C75.9766-27.0996 82.7637-20.3125 90.918-20.3125ZM40.5273 9.81445C48.6816 9.81445 55.4688 3.02734 55.4688-5.12695C55.4688-13.2812 48.6816-20.0684 40.5273-20.0684C32.3242-20.0684 25.5371-13.2812 25.5371-5.12695C25.5371 3.02734 32.3242 9.81445 40.5273 9.81445ZM74.1211 9.81445C82.2754 9.81445 89.0625 3.02734 89.0625-5.12695C89.0625-13.2812 82.2754-20.0684 74.1211-20.0684C65.9668-20.0684 59.1797-13.2812 59.1797-5.12695C59.1797 3.02734 65.9668 9.81445 74.1211 9.81445Z"/>
  </g>
  <g id="Black-S" transform="matrix(1 0 0 1 2879.05 696)">
   <path d="M38.2812-48.584C46.7285-48.584 53.7109-55.5664 53.7109-63.9648C53.7109-72.4121 46.6797-79.4434 38.2812-79.4434C29.8828-79.4434 22.9004-72.4121 22.9004-63.9648C22.9004-55.5664 29.8828-48.584 38.2812-48.584ZM70.4102-48.584C78.8574-48.584 85.791-55.5176 85.791-63.9648C85.791-72.4121 78.8086-79.4434 70.4102-79.4434C62.0117-79.4434 54.9805-72.4121 54.9805-63.9648C54.9805-55.5664 61.9629-48.584 70.4102-48.584ZM22.2656-19.873C30.7129-19.873 37.6953-26.8555 37.6953-35.2539C37.6953-43.6523 30.7129-50.6348 22.2656-50.6348C13.8184-50.6348 6.83594-43.6523 6.83594-35.2539C6.83594-26.8066 13.8184-19.873 22.2656-19.873ZM86.4258-19.873C94.873-19.873 101.855-26.8555 101.855-35.2539C101.855-43.6523 94.873-50.6348 86.4258-50.6348C77.9785-50.6348 70.9961-43.6523 70.9961-35.2539C70.9961-26.8555 77.9785-19.873 86.4258-19.873ZM38.2812 8.93555C46.6797 8.93555 53.7109 1.9043 53.7109-6.54297C53.7109-14.9414 46.7285-21.9238 38.2812-21.9238C29.834-21.9238 22.9004-14.9902 22.9004-6.54297C22.9004 1.9043 29.8828 8.93555 38.2812 8.93555ZM70.4102 8.93555C78.8086 8.93555 85.791 1.9043 85.791-6.54297C85.791-14.9902 78.8574-21.9238 70.4102-21.9238C61.9629-21.9238 54.9805-14.9414 54.9805-6.54297C54.9805 1.9043 62.0117 8.93555 70.4102 8.93555Z"/>
  </g>
  <g id="Heavy-S" transform="matrix(1 0 0 1 2584.1 696)">
   <path d="M36.9629-48.7305C44.9219-48.7305 51.4648-55.2734 51.4648-63.1836C51.4648-71.1426 44.873-77.7832 36.9629-77.7832C29.0527-77.7832 22.4609-71.1426 22.4609-63.1836C22.4609-55.3223 29.0527-48.7305 36.9629-48.7305ZM68.2129-48.7305C76.1719-48.7305 82.7148-55.2734 82.7148-63.1836C82.7148-71.1426 76.123-77.7832 68.2129-77.7832C60.3027-77.7832 53.6621-71.1426 53.6621-63.1836C53.6621-55.2734 60.2539-48.7305 68.2129-48.7305ZM21.3867-20.752C29.2969-20.752 35.8887-27.3438 35.8887-35.2539C35.8887-43.1641 29.2969-49.7559 21.3867-49.7559C13.4277-49.7559 6.83594-43.1641 6.83594-35.2539C6.83594-27.2949 13.4277-20.752 21.3867-20.752ZM83.7891-20.752C91.748-20.752 98.3398-27.3438 98.3398-35.2539C98.3398-43.1641 91.748-49.7559 83.7891-49.7559C75.8301-49.7559 69.2383-43.1641 69.2383-35.2539C69.2383-27.3438 75.8301-20.752 83.7891-20.752ZM36.9629 7.27539C44.873 7.27539 51.4648 0.634766 51.4648-7.32422C51.4648-15.2344 44.9219-21.7773 36.9629-21.7773C29.0039-21.7773 22.4609-15.2344 22.4609-7.32422C22.4609 0.634766 29.0527 7.27539 36.9629 7.27539ZM68.2129 7.27539C76.123 7.27539 82.7148 0.634766 82.7148-7.32422C82.7148-15.2344 76.1719-21.7773 68.2129-21.7773C60.2539-21.7773 53.6621-15.2344 53.6621-7.32422C53.6621 0.634766 60.3027 7.27539 68.2129 7.27539Z"/>
  </g>
  <g id="Bold-S" transform="matrix(1 0 0 1 2289.37 696)">
   <path d="M35.4492-48.8281C42.8711-48.8281 49.0234-54.9805 49.0234-62.3047C49.0234-69.7266 42.8711-75.8789 35.4492-75.8789C28.0762-75.8789 21.9727-69.7266 21.9727-62.3047C21.9727-54.9805 28.0762-48.8281 35.4492-48.8281ZM65.7227-48.8281C73.1445-48.8281 79.248-54.9316 79.248-62.3047C79.248-69.7266 73.0957-75.8789 65.7227-75.8789C58.3496-75.8789 52.1973-69.7266 52.1973-62.3047C52.1973-54.9805 58.3496-48.8281 65.7227-48.8281ZM20.3613-21.7285C27.7832-21.7285 33.8867-27.8809 33.8867-35.2539C33.8867-42.627 27.7832-48.7793 20.3613-48.7793C12.9883-48.7793 6.83594-42.627 6.83594-35.2539C6.83594-27.8809 12.9395-21.7285 20.3613-21.7285ZM80.8594-21.7285C88.2324-21.7285 94.3848-27.8809 94.3848-35.2539C94.3848-42.627 88.2324-48.7793 80.8594-48.7793C73.4375-48.7793 67.334-42.627 67.334-35.2539C67.334-27.8809 73.4375-21.7285 80.8594-21.7285ZM35.4492 5.37109C42.8711 5.37109 49.0234-0.78125 49.0234-8.20312C49.0234-15.5273 42.8711-21.6797 35.4492-21.6797C28.0762-21.6797 21.9727-15.5762 21.9727-8.20312C21.9727-0.78125 28.0762 5.37109 35.4492 5.37109ZM65.7227 5.37109C73.0957 5.37109 79.248-0.78125 79.248-8.20312C79.248-15.5762 73.1445-21.6797 65.7227-21.6797C58.3496-21.6797 52.1973-15.5273 52.1973-8.20312C52.1973-0.78125 58.3496 5.37109 65.7227 5.37109Z"/>
  </g>
  <g id="Semibold-S" transform="matrix(1 0 0 1 1994.02 696)">
   <path d="M34.4727-48.9258C41.4551-48.9258 47.2656-54.7852 47.2656-61.7188C47.2656-68.75 41.4551-74.5605 34.4727-74.5605C27.4414-74.5605 21.6309-68.75 21.6309-61.7188C21.6309-54.7852 27.3926-48.9258 34.4727-48.9258ZM64.0137-48.9258C71.0449-48.9258 76.8555-54.7363 76.8555-61.7188C76.8555-68.75 71.0449-74.5605 64.0137-74.5605C57.0312-74.5605 51.2207-68.75 51.2207-61.7188C51.2207-54.7852 57.0312-48.9258 64.0137-48.9258ZM19.6777-22.4121C26.709-22.4121 32.5195-28.2715 32.5195-35.2539C32.5195-42.2363 26.709-48.0957 19.6777-48.0957C12.6465-48.0957 6.83594-42.2363 6.83594-35.2539C6.83594-28.2715 12.6465-22.4121 19.6777-22.4121ZM78.8086-22.4121C85.8398-22.4121 91.6504-28.2715 91.6504-35.2539C91.6504-42.2363 85.8398-48.0957 78.8086-48.0957C71.7773-48.0957 65.9668-42.2363 65.9668-35.2539C65.9668-28.2715 71.7773-22.4121 78.8086-22.4121ZM34.4727 4.05273C41.4551 4.05273 47.2656-1.75781 47.2656-8.78906C47.2656-15.7227 41.4551-21.582 34.4727-21.582C27.4414-21.582 21.6309-15.7715 21.6309-8.78906C21.6309-1.80664 27.3926 4.05273 34.4727 4.05273ZM64.0137 4.05273C71.0449 4.05273 76.8555-1.75781 76.8555-8.78906C76.8555-15.7715 71.0449-21.582 64.0137-21.582C57.0312-21.582 51.2207-15.7227 51.2207-8.78906C51.2207-1.75781 57.0312 4.05273 64.0137 4.05273Z"/>
  </g>
  <g id="Medium-S" transform="matrix(1 0 0 1 1698.34 696)">
   <path d="M33.6914-49.0234C40.3809-49.0234 45.9961-54.5898 45.9961-61.2793C45.9961-68.0176 40.3809-73.584 33.6914-73.584C26.9531-73.584 21.3867-68.0176 21.3867-61.2793C21.3867-54.6387 26.9043-49.0234 33.6914-49.0234ZM62.7441-49.0234C69.4824-49.0234 75.0488-54.5898 75.0488-61.2793C75.0488-68.0176 69.4824-73.584 62.7441-73.584C56.0059-73.584 50.4395-68.0176 50.4395-61.2793C50.4395-54.5898 56.0059-49.0234 62.7441-49.0234ZM19.1406-22.9492C25.8789-22.9492 31.4453-28.5156 31.4453-35.2539C31.4453-41.9922 25.8789-47.5586 19.1406-47.5586C12.4023-47.5586 6.83594-41.9922 6.83594-35.2539C6.83594-28.5645 12.4023-22.9492 19.1406-22.9492ZM77.2949-22.9492C83.9844-22.9492 89.5996-28.5156 89.5996-35.2539C89.5996-41.9922 83.9844-47.5586 77.2949-47.5586C70.5566-47.5586 64.9414-41.9922 64.9414-35.2539C64.9414-28.5156 70.5566-22.9492 77.2949-22.9492ZM33.6914 3.07617C40.3809 3.07617 45.9961-2.49023 45.9961-9.22852C45.9961-15.918 40.3809-21.4844 33.6914-21.4844C26.9531-21.4844 21.3867-15.918 21.3867-9.22852C21.3867-2.53906 26.9043 3.07617 33.6914 3.07617ZM62.7441 3.07617C69.4824 3.07617 75.0488-2.49023 75.0488-9.22852C75.0488-15.918 69.4824-21.4844 62.7441-21.4844C56.0059-21.4844 50.4395-15.918 50.4395-9.22852C50.4395-2.49023 56.0059 3.07617 62.7441 3.07617Z"/>
  </g>
  <g id="Regular-S" transform="matrix(1 0 0 1 1402.97 696)">
   <path d="M32.666-49.1211C39.0137-49.1211 44.2871-54.3945 44.2871-60.6934C44.2871-67.041 39.0137-72.3145 32.666-72.3145C26.3184-72.3145 21.0449-67.041 21.0449-60.6934C21.0449-54.4434 26.2695-49.1211 32.666-49.1211ZM61.084-49.1211C67.4316-49.1211 72.7051-54.3945 72.7051-60.6934C72.7051-67.041 67.4316-72.3145 61.084-72.3145C54.7363-72.3145 49.4629-67.041 49.4629-60.6934C49.4629-54.3945 54.7363-49.1211 61.084-49.1211ZM18.457-23.6328C24.8047-23.6328 30.0781-28.9062 30.0781-35.2539C30.0781-41.6016 24.8047-46.875 18.457-46.875C12.1094-46.875 6.83594-41.6016 6.83594-35.2539C6.83594-28.9551 12.0605-23.6328 18.457-23.6328ZM75.2441-23.6328C81.6406-23.6328 86.9141-28.9062 86.9141-35.2539C86.9141-41.6016 81.6406-46.875 75.2441-46.875C68.8965-46.875 63.623-41.6016 63.623-35.2539C63.623-28.9062 68.8965-23.6328 75.2441-23.6328ZM32.666 1.80664C39.0137 1.80664 44.2871-3.4668 44.2871-9.81445C44.2871-16.1133 39.0137-21.3867 32.666-21.3867C26.3184-21.3867 21.0449-16.1133 21.0449-9.81445C21.0449-3.51562 26.2695 1.80664 32.666 1.80664ZM61.084 1.80664C67.4316 1.80664 72.7051-3.4668 72.7051-9.81445C72.7051-16.1133 67.4316-21.3867 61.084-21.3867C54.7363-21.3867 49.4629-16.1133 49.4629-9.81445C49.4629-3.4668 54.7363 1.80664 61.084 1.80664Z"/>
  </g>
  <g id="Light-S" transform="matrix(1 0 0 1 1106.89 696)">
   <path d="M32.373-48.4863C38.7207-48.4863 44.043-53.8086 44.043-60.1074C44.043-66.5039 38.7207-71.7773 32.373-71.7773C26.0254-71.7773 20.7031-66.5039 20.7031-60.1074C20.7031-53.8086 25.9766-48.4863 32.373-48.4863ZM60.1074-48.4863C66.5039-48.4863 71.7773-53.8086 71.7773-60.1074C71.7773-66.5039 66.5039-71.7773 60.1074-71.7773C53.7598-71.7773 48.4863-66.5039 48.4863-60.1074C48.4863-53.8086 53.7598-48.4863 60.1074-48.4863ZM18.5059-23.584C24.8535-23.584 30.127-28.9062 30.127-35.2539C30.127-41.6016 24.8535-46.9238 18.5059-46.9238C12.1094-46.9238 6.83594-41.6016 6.83594-35.2539C6.83594-28.9062 12.1094-23.584 18.5059-23.584ZM74.0234-23.584C80.3711-23.584 85.6445-28.9062 85.6445-35.2539C85.6445-41.6016 80.3711-46.9238 74.0234-46.9238C67.627-46.9238 62.3535-41.6016 62.3535-35.2539C62.3535-28.9062 67.627-23.584 74.0234-23.584ZM32.373 1.26953C38.7207 1.26953 44.043-4.00391 44.043-10.4004C44.043-16.6992 38.7207-22.0215 32.373-22.0215C26.0254-22.0215 20.7031-16.6992 20.7031-10.4004C20.7031-4.05273 25.9766 1.26953 32.373 1.26953ZM60.1074 1.26953C66.5039 1.26953 71.7773-4.00391 71.7773-10.4004C71.7773-16.6992 66.5039-22.0215 60.1074-22.0215C53.7598-22.0215 48.4863-16.6992 48.4863-10.4004C48.4863-4.00391 53.7598 1.26953 60.1074 1.26953Z"/>
  </g>
  <g id="Thin-S" transform="matrix(1 0 0 1 810.988 696)">
   <path d="M31.9824-47.7051C38.3789-47.7051 43.7012-52.9785 43.7012-59.375C43.7012-65.7715 38.3789-71.0449 31.9824-71.0449C25.5859-71.0449 20.3125-65.7715 20.3125-59.375C20.3125-53.0273 25.5859-47.7051 31.9824-47.7051ZM58.8867-47.7051C65.2832-47.7051 70.6055-52.9785 70.6055-59.375C70.6055-65.7715 65.2832-71.0449 58.8867-71.0449C52.4902-71.0449 47.2168-65.7715 47.2168-59.375C47.2168-52.9785 52.4902-47.7051 58.8867-47.7051ZM18.5059-23.584C24.9023-23.584 30.2246-28.8574 30.2246-35.2539C30.2246-41.6504 24.9023-46.9238 18.5059-46.9238C12.1582-46.9238 6.83594-41.6504 6.83594-35.2539C6.83594-28.9062 12.1094-23.584 18.5059-23.584ZM72.3633-23.584C78.7109-23.584 84.0332-28.8574 84.0332-35.2539C84.0332-41.6504 78.7109-46.9238 72.3633-46.9238C65.9668-46.9238 60.6445-41.6504 60.6445-35.2539C60.6445-28.8574 65.9668-23.584 72.3633-23.584ZM31.9824 0.537109C38.3789 0.537109 43.7012-4.73633 43.7012-11.1328C43.7012-17.5293 38.3789-22.8027 31.9824-22.8027C25.5859-22.8027 20.3125-17.5293 20.3125-11.1328C20.3125-4.78516 25.5859 0.537109 31.9824 0.537109ZM58.8867 0.537109C65.2832 0.537109 70.6055-4.73633 70.6055-11.1328C70.6055-17.5293 65.2832-22.8027 58.8867-22.8027C52.4902-22.8027 47.2168-17.5293 47.2168-11.1328C47.2168-4.73633 52.4902 0.537109 58.8867 0.537109Z"/>
  </g>
  <g id="Ultralight-S" transform="matrix(1 0 0 1 514.692 696)">
   <path d="M31.7871-47.2656C38.1836-47.2656 43.5059-52.5879 43.5059-58.9844C43.5059-65.3809 38.1836-70.7031 31.7871-70.7031C25.3906-70.7031 20.0684-65.3809 20.0684-58.9844C20.0684-52.5879 25.3906-47.2656 31.7871-47.2656ZM58.252-47.2656C64.6484-47.2656 69.9707-52.5879 69.9707-58.9844C69.9707-65.3809 64.6484-70.7031 58.252-70.7031C51.8555-70.7031 46.5332-65.3809 46.5332-58.9844C46.5332-52.5879 51.8555-47.2656 58.252-47.2656ZM18.5547-23.5352C24.9512-23.5352 30.2734-28.8574 30.2734-35.2539C30.2734-41.6504 24.9512-46.9727 18.5547-46.9727C12.1582-46.9727 6.83594-41.6504 6.83594-35.2539C6.83594-28.8574 12.1582-23.5352 18.5547-23.5352ZM71.4844-23.5352C77.8809-23.5352 83.2031-28.8574 83.2031-35.2539C83.2031-41.6504 77.8809-46.9727 71.4844-46.9727C65.0879-46.9727 59.7656-41.6504 59.7656-35.2539C59.7656-28.8574 65.0879-23.5352 71.4844-23.5352ZM31.7871 0.195312C38.1836 0.195312 43.5059-5.12695 43.5059-11.5234C43.5059-17.9199 38.1836-23.2422 31.7871-23.2422C25.3906-23.2422 20.0684-17.9199 20.0684-11.5234C20.0684-5.12695 25.3906 0.195312 31.7871 0.195312ZM58.252 0.195312C64.6484 0.195312 69.9707-5.12695 69.9707-11.5234C69.9707-17.9199 64.6484-23.2422 58.252-23.2422C51.8555-23.2422 46.5332-17.9199 46.5332-11.5234C46.5332-5.12695 51.8555 0.195312 58.252 0.195312Z"/>
  </g>
 </g>
</svg>
