<?xml version="1.0" encoding="UTF-8"?>
<svg width="36px" height="34px" viewBox="0 0 36 34" version="1.1" xmlns="http://www.w3.org/2000/svg" xmlns:xlink="http://www.w3.org/1999/xlink">
    <title>􀬎</title>
    <g id="Icons" stroke="none" stroke-width="1" fill="none" fill-rule="evenodd">
        <g id="Desktop-HD" transform="translate(-603.000000, -564.000000)" fill="#0080FF" fill-rule="nonzero">
            <path d="M615.359375,575.53125 C616.369792,575.53125 617.296875,575.28125 618.140625,574.78125 C618.984375,574.28125 619.658854,573.609375 620.164062,572.765625 C620.669271,571.921875 620.921875,570.994792 620.921875,569.984375 C620.921875,568.963542 620.669271,568.03125 620.164062,567.1875 C619.658854,566.34375 618.984375,565.669271 618.140625,565.164062 C617.296875,564.658854 616.369792,564.40625 615.359375,564.40625 C614.348958,564.40625 613.421875,564.658854 612.578125,565.164062 C611.734375,565.669271 611.059896,566.34375 610.554688,567.1875 C610.049479,568.03125 609.796875,568.963542 609.796875,569.984375 C609.796875,570.994792 610.049479,571.921875 610.554688,572.765625 C611.059896,573.609375 611.734375,574.28125 612.578125,574.78125 C613.421875,575.28125 614.348958,575.53125 615.359375,575.53125 Z M627.359375,575.53125 C628.369792,575.53125 629.296875,575.28125 630.140625,574.78125 C630.984375,574.28125 631.658854,573.609375 632.164062,572.765625 C632.669271,571.921875 632.921875,570.994792 632.921875,569.984375 C632.921875,568.963542 632.669271,568.03125 632.164062,567.1875 C631.658854,566.34375 630.984375,565.669271 630.140625,565.164062 C629.296875,564.658854 628.369792,564.40625 627.359375,564.40625 C626.348958,564.40625 625.421875,564.658854 624.578125,565.164062 C623.734375,565.669271 623.057292,566.34375 622.546875,567.1875 C622.036458,568.03125 621.78125,568.963542 621.78125,569.984375 C621.78125,570.994792 622.033854,571.921875 622.539062,572.765625 C623.044271,573.609375 623.71875,574.28125 624.5625,574.78125 C625.40625,575.28125 626.338542,575.53125 627.359375,575.53125 Z M615.359375,572.28125 C614.942708,572.28125 614.559896,572.177083 614.210938,571.96875 C613.861979,571.760417 613.580729,571.481771 613.367188,571.132812 C613.153646,570.783854 613.046875,570.401042 613.046875,569.984375 C613.046875,569.567708 613.153646,569.179688 613.367188,568.820312 C613.580729,568.460938 613.861979,568.177083 614.210938,567.96875 C614.559896,567.760417 614.942708,567.65625 615.359375,567.65625 C615.776042,567.65625 616.161458,567.763021 616.515625,567.976562 C616.869792,568.190104 617.153646,568.473958 617.367188,568.828125 C617.580729,569.182292 617.6875,569.567708 617.6875,569.984375 C617.6875,570.401042 617.580729,570.783854 617.367188,571.132812 C617.153646,571.481771 616.869792,571.760417 616.515625,571.96875 C616.161458,572.177083 615.776042,572.28125 615.359375,572.28125 Z M627.359375,572.28125 C626.942708,572.28125 626.557292,572.177083 626.203125,571.96875 C625.848958,571.760417 625.565104,571.481771 625.351562,571.132812 C625.138021,570.783854 625.03125,570.401042 625.03125,569.984375 C625.03125,569.567708 625.138021,569.182292 625.351562,568.828125 C625.565104,568.473958 625.848958,568.190104 626.203125,567.976562 C626.557292,567.763021 626.942708,567.65625 627.359375,567.65625 C627.765625,567.65625 628.145833,567.760417 628.5,567.96875 C628.854167,568.177083 629.138021,568.460938 629.351562,568.820312 C629.565104,569.179688 629.671875,569.567708 629.671875,569.984375 C629.671875,570.401042 629.565104,570.783854 629.351562,571.132812 C629.138021,571.481771 628.856771,571.760417 628.507812,571.96875 C628.158854,572.177083 627.776042,572.28125 627.359375,572.28125 Z M609.359375,586.28125 C610.380208,586.28125 611.3125,586.028646 612.15625,585.523438 C613,585.018229 613.677083,584.34375 614.1875,583.5 C614.697917,582.65625 614.953125,581.729167 614.953125,580.71875 C614.953125,579.708333 614.697917,578.78125 614.1875,577.9375 C613.677083,577.09375 613,576.419271 612.15625,575.914062 C611.3125,575.408854 610.380208,575.15625 609.359375,575.15625 C608.348958,575.15625 607.421875,575.408854 606.578125,575.914062 C605.734375,576.419271 605.059896,577.09375 604.554688,577.9375 C604.049479,578.78125 603.796875,579.708333 603.796875,580.71875 C603.796875,581.729167 604.049479,582.65625 604.554688,583.5 C605.059896,584.34375 605.734375,585.018229 606.578125,585.523438 C607.421875,586.028646 608.348958,586.28125 609.359375,586.28125 Z M633.359375,586.28125 C634.369792,586.28125 635.296875,586.028646 636.140625,585.523438 C636.984375,585.018229 637.658854,584.34375 638.164062,583.5 C638.669271,582.65625 638.921875,581.729167 638.921875,580.71875 C638.921875,579.708333 638.669271,578.78125 638.164062,577.9375 C637.658854,577.09375 636.984375,576.419271 636.140625,575.914062 C635.296875,575.408854 634.369792,575.15625 633.359375,575.15625 C632.338542,575.15625 631.40625,575.408854 630.5625,575.914062 C629.71875,576.419271 629.041667,577.09375 628.53125,577.9375 C628.020833,578.78125 627.765625,579.708333 627.765625,580.71875 C627.765625,581.729167 628.020833,582.65625 628.53125,583.5 C629.041667,584.34375 629.71875,585.018229 630.5625,585.523438 C631.40625,586.028646 632.338542,586.28125 633.359375,586.28125 Z M609.359375,583.03125 C608.942708,583.03125 608.557292,582.927083 608.203125,582.71875 C607.848958,582.510417 607.567708,582.229167 607.359375,581.875 C607.151042,581.520833 607.046875,581.135417 607.046875,580.71875 C607.046875,580.302083 607.153646,579.916667 607.367188,579.5625 C607.580729,579.208333 607.861979,578.927083 608.210938,578.71875 C608.559896,578.510417 608.942708,578.40625 609.359375,578.40625 C609.786458,578.40625 610.174479,578.510417 610.523438,578.71875 C610.872396,578.927083 611.15625,579.208333 611.375,579.5625 C611.59375,579.916667 611.703125,580.302083 611.703125,580.71875 C611.703125,581.135417 611.59375,581.520833 611.375,581.875 C611.15625,582.229167 610.872396,582.510417 610.523438,582.71875 C610.174479,582.927083 609.786458,583.03125 609.359375,583.03125 Z M633.359375,583.03125 C632.932292,583.03125 632.544271,582.927083 632.195312,582.71875 C631.846354,582.510417 631.5625,582.229167 631.34375,581.875 C631.125,581.520833 631.015625,581.135417 631.015625,580.71875 C631.015625,580.302083 631.125,579.916667 631.34375,579.5625 C631.5625,579.208333 631.846354,578.927083 632.195312,578.71875 C632.544271,578.510417 632.932292,578.40625 633.359375,578.40625 C633.776042,578.40625 634.158854,578.510417 634.507812,578.71875 C634.856771,578.927083 635.138021,579.208333 635.351562,579.5625 C635.565104,579.916667 635.671875,580.302083 635.671875,580.71875 C635.671875,581.135417 635.565104,581.520833 635.351562,581.875 C635.138021,582.229167 634.856771,582.510417 634.507812,582.71875 C634.158854,582.927083 633.776042,583.03125 633.359375,583.03125 Z M615.359375,597.03125 C616.369792,597.03125 617.296875,596.778646 618.140625,596.273438 C618.984375,595.768229 619.658854,595.091146 620.164062,594.242188 C620.669271,593.393229 620.921875,592.463542 620.921875,591.453125 C620.921875,590.442708 620.669271,589.515625 620.164062,588.671875 C619.658854,587.828125 618.984375,587.153646 618.140625,586.648438 C617.296875,586.143229 616.369792,585.890625 615.359375,585.890625 C614.348958,585.890625 613.421875,586.143229 612.578125,586.648438 C611.734375,587.153646 611.059896,587.828125 610.554688,588.671875 C610.049479,589.515625 609.796875,590.442708 609.796875,591.453125 C609.796875,592.463542 610.049479,593.393229 610.554688,594.242188 C611.059896,595.091146 611.734375,595.768229 612.578125,596.273438 C613.421875,596.778646 614.348958,597.03125 615.359375,597.03125 Z M627.359375,597.03125 C628.369792,597.03125 629.296875,596.778646 630.140625,596.273438 C630.984375,595.768229 631.658854,595.091146 632.164062,594.242188 C632.669271,593.393229 632.921875,592.463542 632.921875,591.453125 C632.921875,590.442708 632.669271,589.515625 632.164062,588.671875 C631.658854,587.828125 630.984375,587.153646 630.140625,586.648438 C629.296875,586.143229 628.369792,585.890625 627.359375,585.890625 C626.338542,585.890625 625.40625,586.143229 624.5625,586.648438 C623.71875,587.153646 623.044271,587.828125 622.539062,588.671875 C622.033854,589.515625 621.78125,590.442708 621.78125,591.453125 C621.78125,592.463542 622.036458,593.393229 622.546875,594.242188 C623.057292,595.091146 623.734375,595.768229 624.578125,596.273438 C625.421875,596.778646 626.348958,597.03125 627.359375,597.03125 Z M615.359375,593.78125 C614.942708,593.78125 614.559896,593.674479 614.210938,593.460938 C613.861979,593.247396 613.580729,592.963542 613.367188,592.609375 C613.153646,592.255208 613.046875,591.869792 613.046875,591.453125 C613.046875,591.036458 613.151042,590.653646 613.359375,590.304688 C613.567708,589.955729 613.848958,589.674479 614.203125,589.460938 C614.557292,589.247396 614.942708,589.140625 615.359375,589.140625 C615.776042,589.140625 616.161458,589.247396 616.515625,589.460938 C616.869792,589.674479 617.153646,589.955729 617.367188,590.304688 C617.580729,590.653646 617.6875,591.036458 617.6875,591.453125 C617.6875,591.869792 617.580729,592.255208 617.367188,592.609375 C617.153646,592.963542 616.869792,593.247396 616.515625,593.460938 C616.161458,593.674479 615.776042,593.78125 615.359375,593.78125 Z M627.359375,593.78125 C626.942708,593.78125 626.557292,593.674479 626.203125,593.460938 C625.848958,593.247396 625.565104,592.963542 625.351562,592.609375 C625.138021,592.255208 625.03125,591.869792 625.03125,591.453125 C625.03125,591.036458 625.138021,590.653646 625.351562,590.304688 C625.565104,589.955729 625.848958,589.674479 626.203125,589.460938 C626.557292,589.247396 626.942708,589.140625 627.359375,589.140625 C627.776042,589.140625 628.158854,589.247396 628.507812,589.460938 C628.856771,589.674479 629.138021,589.955729 629.351562,590.304688 C629.565104,590.653646 629.671875,591.036458 629.671875,591.453125 C629.671875,591.869792 629.565104,592.255208 629.351562,592.609375 C629.138021,592.963542 628.854167,593.247396 628.5,593.460938 C628.145833,593.674479 627.765625,593.78125 627.359375,593.78125 Z" id="􀬎"></path>
        </g>
    </g>
</svg>