<?xml version="1.0" encoding="UTF-8"?>
<svg width="22px" height="22px" viewBox="0 0 22 22" version="1.1" xmlns="http://www.w3.org/2000/svg" xmlns:xlink="http://www.w3.org/1999/xlink">
    <title>􀐫</title>
    <g id="Icons" stroke="none" stroke-width="1" fill="none" fill-rule="evenodd">
        <g id="Desktop-HD" transform="translate(-698.000000, -918.000000)" fill="#504F4F" fill-rule="nonzero">
            <path d="M708.953125,939.154297 C710.352865,939.154297 711.667969,938.888997 712.898438,938.358398 C714.128906,937.827799 715.214518,937.09375 716.155273,936.15625 C717.096029,935.21875 717.831706,934.133138 718.362305,932.899414 C718.892904,931.66569 719.158203,930.348958 719.158203,928.949219 C719.158203,927.55599 718.892904,926.242513 718.362305,925.008789 C717.831706,923.775065 717.096029,922.689453 716.155273,921.751953 C715.214518,920.814453 714.127279,920.078776 712.893555,919.544922 C711.659831,919.011068 710.343099,918.744141 708.943359,918.744141 C707.55013,918.744141 706.236654,919.011068 705.00293,919.544922 C703.769206,920.078776 702.683594,920.814453 701.746094,921.751953 C700.808594,922.689453 700.074544,923.775065 699.543945,925.008789 C699.013346,926.242513 698.748047,927.55599 698.748047,928.949219 C698.748047,930.348958 699.013346,931.66569 699.543945,932.899414 C700.074544,934.133138 700.810221,935.21875 701.750977,936.15625 C702.691732,937.09375 703.777344,937.827799 705.007812,938.358398 C706.238281,938.888997 707.553385,939.154297 708.953125,939.154297 Z M708.953125,936.869141 C707.859375,936.869141 706.833984,936.664062 705.876953,936.253906 C704.919922,935.84375 704.080078,935.277344 703.357422,934.554688 C702.634766,933.832031 702.068359,932.992188 701.658203,932.035156 C701.248047,931.078125 701.042969,930.049479 701.042969,928.949219 C701.042969,927.855469 701.248047,926.830078 701.658203,925.873047 C702.068359,924.916016 702.633138,924.074544 703.352539,923.348633 C704.07194,922.622721 704.910156,922.056315 705.867188,921.649414 C706.824219,921.242513 707.849609,921.039062 708.943359,921.039062 C710.04362,921.039062 711.072266,921.242513 712.029297,921.649414 C712.986328,922.056315 713.827799,922.622721 714.553711,923.348633 C715.279622,924.074544 715.846029,924.916016 716.25293,925.873047 C716.659831,926.830078 716.863281,927.855469 716.863281,928.949219 C716.863281,930.049479 716.659831,931.078125 716.25293,932.035156 C715.846029,932.992188 715.28125,933.832031 714.558594,934.554688 C713.835938,935.277344 712.994466,935.84375 712.03418,936.253906 C711.073893,936.664062 710.046875,936.869141 708.953125,936.869141 Z M708.943359,930.316406 C709.190755,930.316406 709.397461,930.233398 709.563477,930.067383 C709.729492,929.901367 709.8125,929.694661 709.8125,929.447266 L709.8125,923.216797 C709.8125,922.975911 709.729492,922.772461 709.563477,922.606445 C709.397461,922.44043 709.190755,922.357422 708.943359,922.357422 C708.702474,922.357422 708.500651,922.44043 708.337891,922.606445 C708.17513,922.772461 708.09375,922.975911 708.09375,923.216797 L708.09375,928.587891 L704.177734,928.587891 C703.930339,928.587891 703.723633,928.670898 703.557617,928.836914 C703.391602,929.00293 703.308594,929.20638 703.308594,929.447266 C703.308594,929.694661 703.391602,929.901367 703.557617,930.067383 C703.723633,930.233398 703.930339,930.316406 704.177734,930.316406 L708.943359,930.316406 Z" id="􀐫"></path>
        </g>
    </g>
</svg>