<?xml version="1.0" encoding="UTF-8"?>
<svg width="16px" height="16px" viewBox="0 0 16 16" version="1.1" xmlns="http://www.w3.org/2000/svg" xmlns:xlink="http://www.w3.org/1999/xlink">
    <title>􀆄</title>
    <g id="Dashboard---doctors--webapp" stroke="none" stroke-width="1" fill="none" fill-rule="evenodd">
        <g id="Dashboard-Copy" transform="translate(-298.000000, -123.000000)" fill="#0080FF" fill-rule="nonzero">
            <path d="M313.348633,138.59375 C313.914551,138.037109 313.914551,137.09082 313.367188,136.543457 L308.144043,131.320312 L313.367188,126.087891 C313.914551,125.540527 313.914551,124.594238 313.348633,124.037598 C312.791992,123.47168 311.845703,123.47168 311.29834,124.019043 L306.075195,129.242187 L300.842773,124.009766 C300.313965,123.490234 299.339844,123.462402 298.783203,124.02832 C298.226562,124.594238 298.245117,125.559082 298.764648,126.087891 L303.99707,131.320312 L298.764648,136.543457 C298.245117,137.072266 298.217285,138.046387 298.783203,138.603027 C299.349121,139.168945 300.313965,139.150391 300.842773,138.621582 L306.075195,133.38916 L311.29834,138.612305 C311.845703,139.168945 312.791992,139.159668 313.348633,138.59375 Z" id="􀆄"></path>
        </g>
    </g>
</svg>