<?xml version="1.0" encoding="UTF-8"?>
<svg width="32px" height="32px" viewBox="0 0 32 32" version="1.1" xmlns="http://www.w3.org/2000/svg" xmlns:xlink="http://www.w3.org/1999/xlink">
    <title>􀪁</title>
    <g id="icons" stroke="none" stroke-width="1" fill="none" fill-rule="evenodd">
        <g id="Desktop-HD" transform="translate(-1285.000000, -403.000000)" fill="#0080FF" fill-rule="nonzero">
            <path d="M1310.74219,434.445312 C1312.52344,434.445312 1313.8623,434 1314.75879,433.109375 C1315.65527,432.21875 1316.10352,430.900391 1316.10352,429.154297 L1316.10352,408.886719 C1316.10352,407.140625 1315.65527,405.822266 1314.75879,404.931641 C1313.8623,404.041016 1312.52344,403.595703 1310.74219,403.595703 L1290.59766,403.595703 C1288.82812,403.595703 1287.49219,404.038086 1286.58984,404.922852 C1285.6875,405.807617 1285.23633,407.128906 1285.23633,408.886719 L1285.23633,429.154297 C1285.23633,430.912109 1285.6875,432.233398 1286.58984,433.118164 C1287.49219,434.00293 1288.82812,434.445312 1290.59766,434.445312 L1310.74219,434.445312 Z M1310.61914,431.439453 L1290.7207,431.439453 C1289.93555,431.439453 1289.3291,431.228516 1288.90137,430.806641 C1288.47363,430.384766 1288.25977,429.757812 1288.25977,428.925781 L1288.25977,409.115234 C1288.25977,408.283203 1288.47363,407.65625 1288.90137,407.234375 C1289.3291,406.8125 1289.93555,406.601562 1290.7207,406.601562 L1310.61914,406.601562 C1311.4043,406.601562 1312.01367,406.8125 1312.44727,407.234375 C1312.88086,407.65625 1313.09766,408.283203 1313.09766,409.115234 L1313.09766,428.925781 C1313.09766,429.757812 1312.88086,430.384766 1312.44727,430.806641 C1312.01367,431.228516 1311.4043,431.439453 1310.61914,431.439453 Z M1305.53906,427.519531 C1306.51172,427.519531 1307.34668,427.170898 1308.04395,426.473633 C1308.74121,425.776367 1309.08984,424.941406 1309.08984,423.96875 C1309.08984,422.996094 1308.74121,422.166992 1308.04395,421.481445 C1307.34668,420.795898 1306.51172,420.453125 1305.53906,420.453125 L1304.34375,420.453125 L1304.34375,417.570312 L1305.53906,417.570312 C1306.51172,417.570312 1307.34668,417.224609 1308.04395,416.533203 C1308.74121,415.841797 1309.08984,415.009766 1309.08984,414.037109 C1309.08984,413.052734 1308.74121,412.214844 1308.04395,411.523438 C1307.34668,410.832031 1306.51172,410.486328 1305.53906,410.486328 C1304.56641,410.486328 1303.73438,410.834961 1303.04297,411.532227 C1302.35156,412.229492 1302.00586,413.064453 1302.00586,414.037109 L1302.00586,415.232422 L1299.14062,415.232422 L1299.14062,414.037109 C1299.14062,413.064453 1298.79492,412.229492 1298.10352,411.532227 C1297.41211,410.834961 1296.58008,410.486328 1295.60742,410.486328 C1294.62305,410.486328 1293.78516,410.832031 1293.09375,411.523438 C1292.40234,412.214844 1292.05664,413.052734 1292.05664,414.037109 C1292.05664,415.009766 1292.40527,415.841797 1293.10254,416.533203 C1293.7998,417.224609 1294.63477,417.570312 1295.60742,417.570312 L1296.78516,417.570312 L1296.78516,420.453125 L1295.60742,420.453125 C1294.63477,420.453125 1293.7998,420.795898 1293.10254,421.481445 C1292.40527,422.166992 1292.05664,422.996094 1292.05664,423.96875 C1292.05664,424.941406 1292.40234,425.776367 1293.09375,426.473633 C1293.78516,427.170898 1294.62305,427.519531 1295.60742,427.519531 C1296.58008,427.519531 1297.41211,427.170898 1298.10352,426.473633 C1298.79492,425.776367 1299.14062,424.941406 1299.14062,423.96875 L1299.14062,422.773438 L1302.00586,422.773438 L1302.00586,423.96875 C1302.00586,424.941406 1302.35156,425.776367 1303.04297,426.473633 C1303.73438,427.170898 1304.56641,427.519531 1305.53906,427.519531 Z M1296.80273,415.285156 L1295.625,415.285156 C1295.28516,415.285156 1294.99219,415.162109 1294.74609,414.916016 C1294.5,414.669922 1294.37695,414.376953 1294.37695,414.037109 C1294.37695,413.697266 1294.49707,413.407227 1294.7373,413.166992 C1294.97754,412.926758 1295.26758,412.806641 1295.60742,412.806641 C1295.93555,412.806641 1296.2168,412.932617 1296.45117,413.18457 C1296.68555,413.436523 1296.80273,413.726562 1296.80273,414.054688 L1296.80273,415.285156 Z M1305.52148,415.285156 L1304.32617,415.285156 L1304.32617,414.054688 C1304.32617,413.726562 1304.44629,413.436523 1304.68652,413.18457 C1304.92676,412.932617 1305.21094,412.806641 1305.53906,412.806641 C1305.87891,412.806641 1306.16895,412.926758 1306.40918,413.166992 C1306.64941,413.407227 1306.76953,413.697266 1306.76953,414.037109 C1306.76953,414.376953 1306.64648,414.669922 1306.40039,414.916016 C1306.1543,415.162109 1305.86133,415.285156 1305.52148,415.285156 Z M1302.02344,420.488281 L1299.12305,420.488281 L1299.12305,417.517578 L1302.02344,417.517578 L1302.02344,420.488281 Z M1295.60742,425.181641 C1295.26758,425.181641 1294.97754,425.061523 1294.7373,424.821289 C1294.49707,424.581055 1294.37695,424.291016 1294.37695,423.951172 C1294.37695,423.623047 1294.5,423.335938 1294.74609,423.089844 C1294.99219,422.84375 1295.28516,422.720703 1295.625,422.720703 L1296.80273,422.720703 L1296.80273,423.933594 C1296.80273,424.285156 1296.68555,424.581055 1296.45117,424.821289 C1296.2168,425.061523 1295.93555,425.181641 1295.60742,425.181641 Z M1305.53906,425.181641 C1305.21094,425.181641 1304.92676,425.061523 1304.68652,424.821289 C1304.44629,424.581055 1304.32617,424.285156 1304.32617,423.933594 L1304.32617,422.720703 L1305.52148,422.720703 C1305.86133,422.720703 1306.1543,422.84375 1306.40039,423.089844 C1306.64648,423.335938 1306.76953,423.623047 1306.76953,423.951172 C1306.76953,424.291016 1306.64941,424.581055 1306.40918,424.821289 C1306.16895,425.061523 1305.87891,425.181641 1305.53906,425.181641 Z" id="􀪁"></path>
        </g>
    </g>
</svg>