<?xml version="1.0" encoding="UTF-8"?>
<svg width="24px" height="18px" viewBox="0 0 24 18" version="1.1" xmlns="http://www.w3.org/2000/svg" xmlns:xlink="http://www.w3.org/1999/xlink">
    <title>􀍯</title>
    <g id="Icons" stroke="none" stroke-width="1" fill="none" fill-rule="evenodd">
        <g id="Desktop-HD" transform="translate(-285.000000, -771.000000)" fill="#000000" fill-rule="nonzero">
            <path d="M305.392578,788.416016 C306.453776,788.416016 307.256185,788.147461 307.799805,787.610352 C308.343424,787.073242 308.615234,786.283854 308.615234,785.242188 L308.615234,774.685547 C308.615234,773.64388 308.343424,772.852865 307.799805,772.3125 C307.256185,771.772135 306.453776,771.501953 305.392578,771.501953 L288.712891,771.501953 C287.651693,771.501953 286.849284,771.770508 286.305664,772.307617 C285.762044,772.844727 285.490234,773.63737 285.490234,774.685547 L285.490234,785.242188 C285.490234,786.283854 285.762044,787.073242 286.305664,787.610352 C286.849284,788.147461 287.651693,788.416016 288.712891,788.416016 L305.392578,788.416016 Z M306.662109,775.575 L287.443,775.575 L287.443359,774.871094 C287.443359,774.395833 287.562174,774.041016 287.799805,773.806641 C288.037435,773.572266 288.380859,773.455078 288.830078,773.455078 L305.265625,773.455078 C305.714844,773.455078 306.059896,773.572266 306.300781,773.806641 C306.541667,774.041016 306.662109,774.395833 306.662109,774.871094 L306.662109,775.575 Z M305.265625,786.462891 L288.830078,786.462891 C288.380859,786.462891 288.037435,786.347331 287.799805,786.116211 C287.562174,785.885091 287.443359,785.531901 287.443359,785.056641 L287.443,777.86 L306.662109,777.86 L306.662109,785.056641 C306.662109,785.531901 306.541667,785.885091 306.300781,786.116211 C306.059896,786.347331 305.714844,786.462891 305.265625,786.462891 Z M292.560547,784.705078 C292.847005,784.705078 293.078125,784.617188 293.253906,784.441406 C293.429688,784.265625 293.517578,784.041016 293.517578,783.767578 L293.517578,781.960938 C293.517578,781.6875 293.429688,781.462891 293.253906,781.287109 C293.078125,781.111328 292.847005,781.023438 292.560547,781.023438 L290.167969,781.023438 C289.88151,781.023438 289.650391,781.111328 289.474609,781.287109 C289.298828,781.462891 289.210938,781.6875 289.210938,781.960938 L289.210938,783.767578 C289.210938,784.041016 289.298828,784.265625 289.474609,784.441406 C289.650391,784.617188 289.88151,784.705078 290.167969,784.705078 L292.560547,784.705078 Z" id="􀍯"></path>
        </g>
    </g>
</svg>