<?xml version="1.0" encoding="UTF-8"?>
<svg width="43px" height="35px" viewBox="0 0 43 35" version="1.1" xmlns="http://www.w3.org/2000/svg" xmlns:xlink="http://www.w3.org/1999/xlink">
    <title>􀩳</title>
    <g id="icons" stroke="none" stroke-width="1" fill="none" fill-rule="evenodd">
        <g id="Desktop-HD" transform="translate(-333.000000, -115.000000)" fill="#0080FF" fill-rule="nonzero">
            <path d="M369.21875,149.201172 C371.246094,149.201172 372.798828,148.665039 373.876953,147.592773 C374.955078,146.520508 375.494141,144.976562 375.494141,142.960938 L375.494141,121.708984 C375.494141,119.693359 374.955078,118.149414 373.876953,117.077148 C372.798828,116.004883 371.246094,115.46875 369.21875,115.46875 L339.757812,115.46875 C337.742188,115.46875 336.192383,116.004883 335.108398,117.077148 C334.024414,118.149414 333.482422,119.693359 333.482422,121.708984 L333.482422,142.960938 C333.482422,144.976562 334.024414,146.520508 335.108398,147.592773 C336.192383,148.665039 337.742188,149.201172 339.757812,149.201172 L369.21875,149.201172 Z M368.673828,144.490234 L340.302734,144.490234 C339.611328,144.490234 339.086914,144.317383 338.729492,143.97168 C338.37207,143.625977 338.193359,143.089844 338.193359,142.363281 L338.193359,122.306641 C338.193359,121.568359 338.37207,121.026367 338.729492,120.680664 C339.086914,120.334961 339.611328,120.162109 340.302734,120.162109 L368.673828,120.162109 C369.365234,120.162109 369.889648,120.334961 370.24707,120.680664 C370.604492,121.026367 370.783203,121.568359 370.783203,122.306641 L370.783203,142.363281 C370.783203,143.089844 370.604492,143.625977 370.24707,143.97168 C369.889648,144.317383 369.365234,144.490234 368.673828,144.490234 Z M343.273438,126.525391 C343.742188,126.525391 344.134766,126.367188 344.451172,126.050781 C344.767578,125.734375 344.925781,125.347656 344.925781,124.890625 C344.925781,124.433594 344.767578,124.043945 344.451172,123.72168 C344.134766,123.399414 343.742188,123.238281 343.273438,123.238281 C342.839844,123.238281 342.458984,123.402344 342.130859,123.730469 C341.802734,124.058594 341.638672,124.445312 341.638672,124.890625 C341.638672,125.335938 341.802734,125.719727 342.130859,126.041992 C342.458984,126.364258 342.839844,126.525391 343.273438,126.525391 Z M366.142578,126.121094 C366.482422,126.121094 366.772461,125.998047 367.012695,125.751953 C367.25293,125.505859 367.373047,125.21875 367.373047,124.890625 C367.373047,124.550781 367.25,124.260742 367.003906,124.020508 C366.757812,123.780273 366.470703,123.660156 366.142578,123.660156 L347.791016,123.660156 C347.451172,123.660156 347.161133,123.780273 346.920898,124.020508 C346.680664,124.260742 346.560547,124.550781 346.560547,124.890625 C346.560547,125.21875 346.677734,125.505859 346.912109,125.751953 C347.146484,125.998047 347.439453,126.121094 347.791016,126.121094 L366.142578,126.121094 Z M343.273438,131.412109 C343.742188,131.412109 344.134766,131.250977 344.451172,130.928711 C344.767578,130.606445 344.925781,130.216797 344.925781,129.759766 C344.925781,129.302734 344.767578,128.913086 344.451172,128.59082 C344.134766,128.268555 343.742188,128.107422 343.273438,128.107422 C342.839844,128.107422 342.458984,128.268555 342.130859,128.59082 C341.802734,128.913086 341.638672,129.302734 341.638672,129.759766 C341.638672,130.205078 341.802734,130.591797 342.130859,130.919922 C342.458984,131.248047 342.839844,131.412109 343.273438,131.412109 Z M358.302734,130.990234 C358.642578,130.990234 358.932617,130.870117 359.172852,130.629883 C359.413086,130.389648 359.533203,130.099609 359.533203,129.759766 C359.533203,129.419922 359.413086,129.126953 359.172852,128.880859 C358.932617,128.634766 358.642578,128.511719 358.302734,128.511719 L347.791016,128.511719 C347.451172,128.511719 347.161133,128.634766 346.920898,128.880859 C346.680664,129.126953 346.560547,129.419922 346.560547,129.759766 C346.560547,130.099609 346.680664,130.389648 346.920898,130.629883 C347.161133,130.870117 347.451172,130.990234 347.791016,130.990234 L358.302734,130.990234 Z M343.273438,136.246094 C343.742188,136.246094 344.134766,136.087891 344.451172,135.771484 C344.767578,135.455078 344.925781,135.068359 344.925781,134.611328 C344.925781,134.154297 344.767578,133.767578 344.451172,133.451172 C344.134766,133.134766 343.742188,132.976562 343.273438,132.976562 C342.828125,132.976562 342.444336,133.134766 342.12207,133.451172 C341.799805,133.767578 341.638672,134.154297 341.638672,134.611328 C341.638672,135.068359 341.799805,135.455078 342.12207,135.771484 C342.444336,136.087891 342.828125,136.246094 343.273438,136.246094 Z M366.142578,135.841797 C366.482422,135.841797 366.772461,135.72168 367.012695,135.481445 C367.25293,135.241211 367.373047,134.951172 367.373047,134.611328 C367.373047,134.271484 367.25293,133.984375 367.012695,133.75 C366.772461,133.515625 366.482422,133.398438 366.142578,133.398438 L347.791016,133.398438 C347.439453,133.398438 347.146484,133.515625 346.912109,133.75 C346.677734,133.984375 346.560547,134.271484 346.560547,134.611328 C346.560547,134.951172 346.677734,135.241211 346.912109,135.481445 C347.146484,135.72168 347.439453,135.841797 347.791016,135.841797 L366.142578,135.841797 Z M343.273438,141.361328 C343.742188,141.361328 344.134766,141.200195 344.451172,140.87793 C344.767578,140.555664 344.925781,140.166016 344.925781,139.708984 C344.925781,139.251953 344.767578,138.865234 344.451172,138.548828 C344.134766,138.232422 343.742188,138.074219 343.273438,138.074219 C342.839844,138.074219 342.458984,138.235352 342.130859,138.557617 C341.802734,138.879883 341.638672,139.263672 341.638672,139.708984 C341.638672,140.154297 341.802734,140.541016 342.130859,140.869141 C342.458984,141.197266 342.839844,141.361328 343.273438,141.361328 Z M358.302734,140.939453 C358.642578,140.939453 358.932617,140.819336 359.172852,140.579102 C359.413086,140.338867 359.533203,140.048828 359.533203,139.708984 C359.533203,139.369141 359.413086,139.079102 359.172852,138.838867 C358.932617,138.598633 358.642578,138.478516 358.302734,138.478516 L347.791016,138.478516 C347.439453,138.478516 347.146484,138.598633 346.912109,138.838867 C346.677734,139.079102 346.560547,139.369141 346.560547,139.708984 C346.560547,140.048828 346.680664,140.338867 346.920898,140.579102 C347.161133,140.819336 347.451172,140.939453 347.791016,140.939453 L358.302734,140.939453 Z" id="􀩳"></path>
        </g>
    </g>
</svg>