<?xml version="1.0" encoding="UTF-8"?>
<svg width="27px" height="10px" viewBox="0 0 27 10" version="1.1" xmlns="http://www.w3.org/2000/svg" xmlns:xlink="http://www.w3.org/1999/xlink">
    <title>􀖆</title>
    <g id="Page-1" stroke="none" stroke-width="1" fill="none" fill-rule="evenodd">
        <g id="Desktop-HD" transform="translate(-1011.000000, -958.000000)" fill="#2F55D4" fill-rule="nonzero">
            <path d="M1030.70654,968.025879 C1031.39925,968.025879 1032.04712,967.895996 1032.65015,967.63623 C1033.25317,967.376465 1033.78353,967.017741 1034.24121,966.560059 C1034.69889,966.102376 1035.05607,965.573568 1035.31274,964.973633 C1035.49608,964.545108 1035.61394,964.094494 1035.66632,963.621791 L1035.668,963.601 L1036.72754,963.600586 C1036.93783,963.600586 1037.08626,963.544922 1037.17285,963.433594 C1037.25944,963.322266 1037.30273,963.183105 1037.30273,963.016113 L1037.30273,962.64502 C1037.30273,962.471842 1037.25944,962.332682 1037.17285,962.227539 C1037.08626,962.122396 1036.93783,962.069824 1036.72754,962.069824 L1035.603,962.07 L1035.57204,961.915517 C1035.50918,961.642877 1035.42275,961.377337 1035.31274,961.118896 C1035.05607,960.515869 1034.69889,959.985514 1034.24121,959.527832 C1033.78353,959.07015 1033.25317,958.711426 1032.65015,958.45166 C1032.04712,958.191895 1031.39925,958.062012 1030.70654,958.062012 C1030.02002,958.062012 1029.37524,958.191895 1028.77222,958.45166 C1028.16919,958.711426 1027.64038,959.07015 1027.18579,959.527832 C1026.7312,959.985514 1026.37402,960.515869 1026.11426,961.118896 C1026.04004,961.29119 1025.97642,961.466639 1025.92341,961.645244 L1025.886,961.786 C1025.75057,961.734005 1025.6071,961.692546 1025.45557,961.661621 C1025.15251,961.599772 1024.87109,961.568848 1024.61133,961.568848 C1024.35156,961.568848 1024.0686,961.599772 1023.76245,961.661621 C1023.63999,961.686361 1023.52371,961.717533 1023.41362,961.755137 L1023.329,961.788 L1023.29234,961.645244 C1023.23995,961.466639 1023.17709,961.29119 1023.10376,961.118896 C1022.84709,960.515869 1022.48991,959.985514 1022.03223,959.527832 C1021.57454,959.07015 1021.04419,958.711426 1020.44116,958.45166 C1019.83813,958.191895 1019.19336,958.062012 1018.50684,958.062012 C1017.81413,958.062012 1017.16626,958.191895 1016.56323,958.45166 C1015.96021,958.711426 1015.42985,959.07015 1014.97217,959.527832 C1014.51449,959.985514 1014.15576,960.515869 1013.896,961.118896 C1013.78467,961.377337 1013.6972,961.642877 1013.63358,961.915517 L1013.605,962.052 L1012.48584,962.05127 C1012.28174,962.05127 1012.13485,962.103841 1012.04517,962.208984 C1011.95549,962.314128 1011.91064,962.450195 1011.91064,962.617188 L1011.91064,963.016113 C1011.91064,963.183105 1011.95549,963.322266 1012.04517,963.433594 C1012.13485,963.544922 1012.28174,963.600586 1012.48584,963.600586 L1013.536,963.601 L1013.53816,963.621791 C1013.59117,964.094494 1013.71045,964.545108 1013.896,964.973633 C1014.15576,965.573568 1014.51449,966.102376 1014.97217,966.560059 C1015.42985,967.017741 1015.96021,967.376465 1016.56323,967.63623 C1017.16626,967.895996 1017.81413,968.025879 1018.50684,968.025879 C1019.19954,968.025879 1019.84741,967.89445 1020.45044,967.631592 C1021.05347,967.368734 1021.58228,967.008464 1022.03687,966.550781 C1022.49146,966.093099 1022.84709,965.562744 1023.10376,964.959717 C1023.32377,964.442836 1023.44948,963.899828 1023.48091,963.330691 L1023.484,963.181 L1023.65982,963.123672 C1023.72515,963.105311 1023.79183,963.089559 1023.85986,963.076416 C1024.132,963.023844 1024.38249,962.997559 1024.61133,962.997559 C1024.83398,962.997559 1025.08293,963.023844 1025.35815,963.076416 L1025.56023,963.123672 L1025.56023,963.123672 L1025.728,963.179 L1025.73256,963.335519 C1025.76437,963.913365 1025.8916,964.459403 1026.11426,964.973633 C1026.37402,965.573568 1026.7312,966.102376 1027.18579,966.560059 C1027.64038,967.017741 1028.16919,967.376465 1028.77222,967.63623 C1029.37524,967.895996 1030.02002,968.025879 1030.70654,968.025879 Z M1018.50684,966.578613 C1017.85742,966.578613 1017.26522,966.420898 1016.73022,966.105469 C1016.19523,965.790039 1015.76847,965.363281 1015.44995,964.825195 C1015.13143,964.287109 1014.97217,963.693359 1014.97217,963.043945 C1014.97217,962.394531 1015.13143,961.800781 1015.44995,961.262695 C1015.76847,960.724609 1016.19523,960.297852 1016.73022,959.982422 C1017.26522,959.666992 1017.85742,959.509277 1018.50684,959.509277 C1019.15625,959.509277 1019.74845,959.666992 1020.28345,959.982422 C1020.81844,960.297852 1021.2452,960.724609 1021.56372,961.262695 C1021.88224,961.800781 1022.0415,962.394531 1022.0415,963.043945 C1022.0415,963.693359 1021.88379,964.287109 1021.56836,964.825195 C1021.25293,965.363281 1020.82772,965.790039 1020.29272,966.105469 C1019.75773,966.420898 1019.16243,966.578613 1018.50684,966.578613 Z M1030.70654,966.578613 C1030.05094,966.578613 1029.45565,966.420898 1028.92065,966.105469 C1028.38566,965.790039 1027.96045,965.363281 1027.64502,964.825195 C1027.32959,964.287109 1027.17188,963.693359 1027.17188,963.043945 C1027.17188,962.394531 1027.32959,961.800781 1027.64502,961.262695 C1027.96045,960.724609 1028.38566,960.297852 1028.92065,959.982422 C1029.45565,959.666992 1030.05094,959.509277 1030.70654,959.509277 C1031.35596,959.509277 1031.94971,959.666992 1032.48779,959.982422 C1033.02588,960.297852 1033.45264,960.724609 1033.76807,961.262695 C1034.0835,961.800781 1034.24121,962.394531 1034.24121,963.043945 C1034.24121,963.693359 1034.0835,964.287109 1033.76807,964.825195 C1033.45264,965.363281 1033.02588,965.790039 1032.48779,966.105469 C1031.94971,966.420898 1031.35596,966.578613 1030.70654,966.578613 Z" id="􀖆"></path>
        </g>
    </g>
</svg>