<?xml version="1.0" encoding="UTF-8"?>
<svg width="29px" height="36px" viewBox="0 0 29 36" version="1.1" xmlns="http://www.w3.org/2000/svg" xmlns:xlink="http://www.w3.org/1999/xlink">
    <title>􀈷</title>
    <g id="icons" stroke="none" stroke-width="1" fill="none" fill-rule="evenodd">
        <g id="Desktop-HD" transform="translate(-327.000000, -486.000000)" fill="#504F4F" fill-rule="nonzero">
            <path d="M350.228516,521.923828 C351.986328,521.923828 353.307617,521.475586 354.192383,520.579102 C355.077148,519.682617 355.519531,518.349609 355.519531,516.580078 L355.519531,501.480469 C355.519531,500.730469 355.478516,500.097656 355.396484,499.582031 C355.314453,499.066406 355.15625,498.594727 354.921875,498.166992 C354.6875,497.739258 354.335938,497.291016 353.867188,496.822266 L344.9375,487.751953 C344.492188,487.294922 344.058594,486.943359 343.636719,486.697266 C343.214844,486.451172 342.754883,486.28418 342.256836,486.196289 C341.758789,486.108398 341.169922,486.064453 340.490234,486.064453 L332.527344,486.064453 C330.78125,486.064453 329.462891,486.515625 328.572266,487.417969 C327.681641,488.320312 327.236328,489.65625 327.236328,491.425781 L327.236328,516.580078 C327.236328,518.349609 327.681641,519.682617 328.572266,520.579102 C329.462891,521.475586 330.78125,521.923828 332.527344,521.923828 L350.228516,521.923828 Z M350,518.900391 L332.738281,518.900391 C331.917969,518.900391 331.299805,518.689453 330.883789,518.267578 C330.467773,517.845703 330.259766,517.236328 330.259766,516.439453 L330.259766,491.566406 C330.259766,490.78125 330.470703,490.174805 330.892578,489.74707 C331.314453,489.319336 331.935547,489.105469 332.755859,489.105469 L339.980469,489.105469 L339.980469,498.421875 C339.980469,499.558594 340.258789,500.405273 340.81543,500.961914 C341.37207,501.518555 342.207031,501.796875 343.320312,501.796875 L352.513672,501.796875 L352.513672,516.439453 C352.513672,517.236328 352.305664,517.845703 351.889648,518.267578 C351.473633,518.689453 350.84375,518.900391 350,518.900391 Z M352.039062,499.072266 L343.636719,499.072266 C343.308594,499.072266 343.068359,498.996094 342.916016,498.84375 C342.763672,498.691406 342.6875,498.445312 342.6875,498.105469 L342.6875,489.580078 L352.039062,499.072266 Z" id="􀈷"></path>
        </g>
    </g>
</svg>