<?xml version="1.0" encoding="UTF-8"?>
<svg width="17px" height="17px" viewBox="0 0 17 17" version="1.1" xmlns="http://www.w3.org/2000/svg" xmlns:xlink="http://www.w3.org/1999/xlink">
    <title>􀒀</title>
    <g id="Page-1" stroke="none" stroke-width="1" fill="none" fill-rule="evenodd">
        <g id="Desktop-HD" transform="translate(-940.000000, -946.000000)" fill="#2F55D4" fill-rule="nonzero">
            <path d="M953.927246,962.818359 C954.86735,962.818359 955.573975,962.583333 956.047119,962.113281 C956.520264,961.643229 956.756836,960.947428 956.756836,960.025879 L956.756836,949.329102 C956.756836,948.407552 956.520264,947.711751 956.047119,947.241699 C955.573975,946.771647 954.86735,946.536621 953.927246,946.536621 L943.29541,946.536621 C942.361491,946.536621 941.656413,946.770101 941.180176,947.237061 C940.703939,947.70402 940.46582,948.401367 940.46582,949.329102 L940.46582,960.025879 C940.46582,960.953613 940.703939,961.65096 941.180176,962.11792 C941.656413,962.58488 942.361491,962.818359 943.29541,962.818359 L953.927246,962.818359 Z M953.862305,961.231934 L943.360352,961.231934 C942.945964,961.231934 942.625895,961.120605 942.400146,960.897949 C942.174398,960.675293 942.061523,960.344401 942.061523,959.905273 L942.061523,949.449707 C942.061523,949.010579 942.174398,948.679688 942.400146,948.457031 C942.625895,948.234375 942.945964,948.123047 943.360352,948.123047 L953.862305,948.123047 C954.276693,948.123047 954.598307,948.234375 954.827148,948.457031 C955.05599,948.679688 955.17041,949.010579 955.17041,949.449707 L955.17041,959.905273 C955.17041,960.344401 955.05599,960.675293 954.827148,960.897949 C954.598307,961.120605 954.276693,961.231934 953.862305,961.231934 Z M950.800781,957.873535 C950.893555,957.873535 950.981689,957.859619 951.065186,957.831787 C951.148682,957.803955 951.224447,957.756022 951.29248,957.687988 L953.769531,955.210938 C953.942708,955.025391 954.029297,954.842936 954.029297,954.663574 C954.029297,954.465658 953.942708,954.277018 953.769531,954.097656 L951.29248,951.629883 C951.224447,951.568034 951.148682,951.520101 951.065186,951.486084 C950.981689,951.452067 950.893555,951.435059 950.800781,951.435059 C950.615234,951.435059 950.460612,951.498454 950.336914,951.625244 C950.213216,951.752035 950.151367,951.911296 950.151367,952.103027 C950.151367,952.208171 950.169922,952.30249 950.207031,952.385986 C950.244141,952.469482 950.296712,952.542155 950.364746,952.604004 L950.967773,953.188477 L951.997559,954.032715 L950.179199,953.958496 L947.052734,953.958496 L945.234375,954.032715 L946.26416,953.188477 L946.867188,952.604004 C946.935221,952.542155 946.989339,952.469482 947.029541,952.385986 C947.069743,952.30249 947.089844,952.208171 947.089844,952.103027 C947.089844,951.911296 947.027995,951.752035 946.904297,951.625244 C946.780599,951.498454 946.622884,951.435059 946.431152,951.435059 C946.338379,951.435059 946.25179,951.452067 946.171387,951.486084 C946.090983,951.520101 946.016764,951.568034 945.94873,951.629883 L943.462402,954.097656 C943.289225,954.277018 943.202637,954.465658 943.202637,954.663574 C943.202637,954.842936 943.289225,955.025391 943.462402,955.210938 L945.94873,957.687988 C946.016764,957.756022 946.090983,957.803955 946.171387,957.831787 C946.25179,957.859619 946.338379,957.873535 946.431152,957.873535 C946.622884,957.873535 946.780599,957.811686 946.904297,957.687988 C947.027995,957.56429 947.089844,957.406576 947.089844,957.214844 C947.089844,957.115885 947.068197,957.023112 947.024902,956.936523 C946.981608,956.849935 946.929036,956.778809 946.867188,956.723145 L946.26416,956.129395 L945.243652,955.285156 L947.052734,955.359375 L950.179199,955.359375 L951.988281,955.285156 L950.967773,956.129395 L950.364746,956.723145 C950.302897,956.778809 950.251872,956.849935 950.21167,956.936523 C950.171468,957.023112 950.151367,957.115885 950.151367,957.214844 C950.151367,957.406576 950.213216,957.56429 950.336914,957.687988 C950.460612,957.811686 950.615234,957.873535 950.800781,957.873535 Z" id="􀒀"></path>
        </g>
    </g>
</svg>