<?xml version="1.0" encoding="UTF-8"?>
<svg width="43px" height="43px" viewBox="0 0 43 43" version="1.1" xmlns="http://www.w3.org/2000/svg" xmlns:xlink="http://www.w3.org/1999/xlink">
    <title>Group 7</title>
    <g id="Web" stroke="none" stroke-width="1" fill="none" fill-rule="evenodd">
        <g id="Home" transform="translate(-884.000000, -421.000000)">
            <g id="Group-7" transform="translate(884.000000, 421.000000)">
                <circle id="Oval" fill="#D8D8D8" opacity="0.523043678" cx="21.5" cy="21.5" r="21.5"></circle>
                <path d="M21.7226562,31.625 C21.9882812,31.625 22.2128906,31.5332031 22.3964844,31.3496094 C22.5800781,31.1660156 22.671875,30.9414062 22.671875,30.6757812 L22.6717188,20.4819375 L22.758809,20.4502152 C22.887795,20.3983976 23.0131138,20.3362165 23.1347656,20.2636719 C23.5605469,20.0097656 23.9003906,19.6699219 24.1542969,19.2441406 C24.4082031,18.8183594 24.5351562,18.3476562 24.5351562,17.8320312 C24.5351562,17.3164062 24.4082031,16.8457031 24.1542969,16.4199219 C23.9003906,15.9941406 23.5605469,15.6542969 23.1347656,15.4003906 C23.0131138,15.327846 22.887795,15.2656649 22.758809,15.2138473 L22.6717188,15.1829375 L22.671875,11.9023438 C22.671875,11.6601562 22.5800781,11.4492188 22.3964844,11.2695312 C22.2128906,11.0898438 21.9882812,11 21.7226562,11 C21.4570312,11 21.234375,11.0898438 21.0546875,11.2695312 C20.875,11.4492188 20.7851562,11.6601562 20.7851562,11.9023438 L20.7847188,15.1789375 L20.6865035,15.2138473 C20.5575175,15.2656649 20.4321987,15.327846 20.3105469,15.4003906 C19.8847656,15.6542969 19.5429688,15.9941406 19.2851562,16.4199219 C19.0273438,16.8457031 18.8984375,17.3164062 18.8984375,17.8320312 C18.8984375,18.3476562 19.0273438,18.8183594 19.2851562,19.2441406 C19.5429688,19.6699219 19.8847656,20.0097656 20.3105469,20.2636719 C20.4321987,20.3362165 20.5575175,20.3983976 20.6865035,20.4502152 L20.7847188,20.4859375 L20.7851562,30.6757812 C20.7851562,30.9414062 20.875,31.1660156 21.0546875,31.3496094 C21.234375,31.5332031 21.4570312,31.625 21.7226562,31.625 Z M29.6328125,31.625 C29.890625,31.625 30.1113281,31.5351562 30.2949219,31.3554688 C30.4785156,31.1757812 30.5703125,30.9648438 30.5703125,30.7226562 L30.5697187,27.2589375 L30.6689652,27.2236527 C30.7979512,27.1718351 30.9232701,27.109654 31.0449219,27.0371094 C31.4707031,26.7832031 31.8105469,26.4433594 32.0644531,26.0175781 C32.3183594,25.5917969 32.4453125,25.1210938 32.4453125,24.6054688 C32.4453125,24.0898438 32.3183594,23.6191406 32.0644531,23.1933594 C31.8105469,22.7675781 31.4707031,22.4277344 31.0449219,22.1738281 C30.9232701,22.1012835 30.7979512,22.0391024 30.6689652,21.9872848 L30.5697187,21.9529375 L30.5703125,11.9492188 C30.5703125,11.6835938 30.4785156,11.4589844 30.2949219,11.2753906 C30.1113281,11.0917969 29.890625,11 29.6328125,11 C29.3671875,11 29.1425781,11.0917969 28.9589844,11.2753906 C28.7753906,11.4589844 28.6835938,11.6835938 28.6835938,11.9492188 L28.6827187,21.9569375 L28.5966598,21.9872848 C28.4676738,22.0391024 28.3423549,22.1012835 28.2207031,22.1738281 C27.7949219,22.4277344 27.4550781,22.7675781 27.2011719,23.1933594 C26.9472656,23.6191406 26.8203125,24.0898438 26.8203125,24.6054688 C26.8203125,25.1210938 26.9472656,25.5917969 27.2011719,26.0175781 C27.4550781,26.4433594 27.7949219,26.7832031 28.2207031,27.0371094 C28.3423549,27.109654 28.4676738,27.1718351 28.5966598,27.2236527 L28.6827187,27.2549375 L28.6835938,30.7226562 C28.6835938,30.9648438 28.7753906,31.1757812 28.9589844,31.3554688 C29.1425781,31.5351562 29.3671875,31.625 29.6328125,31.625 Z M13.8242188,31.625 C14.0820312,31.625 14.3027344,31.5351562 14.4863281,31.3554688 C14.6699219,31.1757812 14.7617188,30.9648438 14.7617188,30.7226562 L14.7617188,27.2549375 L14.8486527,27.2236527 C14.9776387,27.1718351 15.1029576,27.109654 15.2246094,27.0371094 C15.6503906,26.7832031 15.9921875,26.4433594 16.25,26.0175781 C16.5078125,25.5917969 16.6367188,25.1210938 16.6367188,24.6054688 C16.6367188,24.0898438 16.5078125,23.6191406 16.25,23.1933594 C15.9921875,22.7675781 15.6503906,22.4277344 15.2246094,22.1738281 C15.1029576,22.1012835 14.9776387,22.0391024 14.8486527,21.9872848 L14.7617188,21.9569375 L14.7617188,11.9492188 C14.7617188,11.6835938 14.6699219,11.4589844 14.4863281,11.2753906 C14.3027344,11.0917969 14.0820312,11 13.8242188,11 C13.5585938,11 13.3339844,11.0917969 13.1503906,11.2753906 C12.9667969,11.4589844 12.875,11.6835938 12.875,11.9492188 L12.8747187,21.9529375 L12.7763473,21.9872848 C12.6473613,22.0391024 12.5220424,22.1012835 12.4003906,22.1738281 C11.9746094,22.4277344 11.6347656,22.7675781 11.3808594,23.1933594 C11.1269531,23.6191406 11,24.0898438 11,24.6054688 C11,25.1210938 11.1269531,25.5917969 11.3808594,26.0175781 C11.6347656,26.4433594 11.9746094,26.7832031 12.4003906,27.0371094 C12.5220424,27.109654 12.6473613,27.1718351 12.7763473,27.2236527 L12.8747187,27.2589375 L12.875,30.7226562 C12.875,30.9648438 12.9667969,31.1757812 13.1503906,31.3554688 C13.3339844,31.5351562 13.5585938,31.625 13.8242188,31.625 Z M21.7226562,19.203125 C21.3398438,19.203125 21.015625,19.0722656 20.75,18.8105469 C20.484375,18.5488281 20.3515625,18.2226562 20.3515625,17.8320312 C20.3515625,17.4492188 20.484375,17.125 20.75,16.859375 C21.015625,16.59375 21.3398438,16.4609375 21.7226562,16.4609375 C22.1132812,16.4609375 22.4394531,16.59375 22.7011719,16.859375 C22.9628906,17.125 23.09375,17.4492188 23.09375,17.8320312 C23.09375,18.2226562 22.9628906,18.5488281 22.7011719,18.8105469 C22.4394531,19.0722656 22.1132812,19.203125 21.7226562,19.203125 Z M29.6328125,25.9765625 C29.25,25.9765625 28.9257812,25.8457031 28.6601562,25.5839844 C28.3945312,25.3222656 28.2617188,24.9960938 28.2617188,24.6054688 C28.2617188,24.2226562 28.3945312,23.8984375 28.6601562,23.6328125 C28.9257812,23.3671875 29.25,23.234375 29.6328125,23.234375 C30.0234375,23.234375 30.3496094,23.3671875 30.6113281,23.6328125 C30.8730469,23.8984375 31.0039062,24.2226562 31.0039062,24.6054688 C31.0039062,24.9960938 30.8730469,25.3222656 30.6113281,25.5839844 C30.3496094,25.8457031 30.0234375,25.9765625 29.6328125,25.9765625 Z M13.8242188,25.9765625 C13.4414062,25.9765625 13.1152344,25.8457031 12.8457031,25.5839844 C12.5761719,25.3222656 12.4414062,24.9960938 12.4414062,24.6054688 C12.4414062,24.2226562 12.5761719,23.8984375 12.8457031,23.6328125 C13.1152344,23.3671875 13.4414062,23.234375 13.8242188,23.234375 C14.2070312,23.234375 14.53125,23.3671875 14.796875,23.6328125 C15.0625,23.8984375 15.1953125,24.2226562 15.1953125,24.6054688 C15.1953125,24.9960938 15.0625,25.3222656 14.796875,25.5839844 C14.53125,25.8457031 14.2070312,25.9765625 13.8242188,25.9765625 Z" id="􀟲" fill="#034D2E" fill-rule="nonzero" opacity="0.802717663" transform="translate(21.722656, 21.312500) rotate(90.000000) translate(-21.722656, -21.312500) "></path>
            </g>
        </g>
    </g>
</svg>