<?xml version="1.0" encoding="UTF-8"?>
<svg width="42px" height="42px" viewBox="0 0 42 42" version="1.1" xmlns="http://www.w3.org/2000/svg" xmlns:xlink="http://www.w3.org/1999/xlink">
    <title>hangup</title>
    <g id="Page-1" stroke="none" stroke-width="1" fill="none" fill-rule="evenodd">
        <g id="hangup">
            <circle id="Oval" fill="#FD6250" cx="21" cy="21" r="21"></circle>
            <path d="M31.1376953,25.590332 C31.5683594,25.590332 31.9204102,25.479248 32.1938477,25.2570801 C32.4672852,25.0349121 32.6706543,24.7546387 32.8039551,24.4162598 C32.9372559,24.0778809 33.0039062,23.730957 33.0039062,23.3754883 L33.0039062,22.7192383 L33.0039062,22.7192383 C33.0039062,21.7827148 32.7971191,20.9453125 32.3835449,20.2070312 C31.9699707,19.46875 31.388916,18.8261719 30.6403809,18.2792969 C29.8918457,17.7324219 29.0134277,17.277832 28.005127,16.9155273 C26.9968262,16.5532227 25.8928223,16.2832031 24.6931152,16.1054688 C23.4934082,15.9277344 22.2338867,15.8354492 20.9145508,15.8286133 C19.6020508,15.8354492 18.3459473,15.9277344 17.1462402,16.1054688 C15.9465332,16.2832031 14.8408203,16.5532227 13.8291016,16.9155273 C12.8173828,17.277832 11.9389648,17.7324219 11.1938477,18.2792969 C10.4487305,18.8261719 9.86938477,19.46875 9.45581055,20.2070312 C9.04223633,20.9453125 8.83544922,21.7827148 8.83544922,22.7192383 L8.83544922,23.3754883 L8.83544922,23.3754883 C8.83544922,23.730957 8.90039062,24.0778809 9.03027344,24.4162598 C9.16015625,24.7546387 9.36181641,25.0349121 9.63525391,25.2570801 C9.90869141,25.479248 10.2607422,25.590332 10.6914062,25.590332 C10.7939453,25.590332 10.9272461,25.5852051 11.0913086,25.5749512 C11.2553711,25.5646973 11.4741211,25.5322266 11.7475586,25.4775391 L15.2646484,24.9033203 C15.9003906,24.8076172 16.3515625,24.604248 16.6181641,24.2932129 C16.8847656,23.9821777 17.0214844,23.5053711 17.0283203,22.862793 C17.0283203,22.6713867 17.0300293,22.4833984 17.0334473,22.2988281 C17.0368652,22.1142578 17.0385742,21.9296875 17.0385742,21.7451172 C17.0454102,21.4716797 17.1821289,21.2939453 17.4487305,21.2119141 C17.8520508,21.109375 18.3596191,21.0307617 18.9714355,20.9760742 C19.583252,20.9213867 20.230957,20.894043 20.9145508,20.894043 C21.5981445,20.894043 22.2475586,20.9213867 22.862793,20.9760742 C23.4780273,21.0307617 23.9838867,21.109375 24.3803711,21.2119141 C24.6538086,21.2939453 24.7905273,21.4716797 24.7905273,21.7451172 C24.7973633,21.9296875 24.8007812,22.1142578 24.8007812,22.2988281 C24.8007812,22.4833984 24.8041992,22.6713867 24.8110352,22.862793 C24.8110352,23.5053711 24.9460449,23.9821777 25.2160645,24.2932129 C25.486084,24.604248 25.9389648,24.8076172 26.574707,24.9033203 L30.081543,25.4775391 C30.3618164,25.5322266 30.5822754,25.5646973 30.7429199,25.5749512 C30.9035645,25.5852051 31.0351562,25.590332 31.1376953,25.590332 Z M30.8710938,24.390625 C30.8027344,24.390625 30.7241211,24.385498 30.6352539,24.3752441 C30.5463867,24.3649902 30.4130859,24.3427734 30.2353516,24.3085938 L26.8413086,23.6728516 C26.6362305,23.625 26.4602051,23.5310059 26.3132324,23.3908691 C26.1662598,23.2507324 26.0927734,23.0234375 26.0927734,22.7089844 L26.0927734,21.5195312 L26.0927734,21.5195312 C26.0927734,21.0478516 25.9987793,20.7026367 25.810791,20.4838867 C25.6228027,20.2651367 25.4125977,20.125 25.1801758,20.0634766 C24.8657227,19.9677734 24.4230957,19.8925781 23.8522949,19.8378906 C23.2814941,19.7832031 22.6491699,19.7456055 21.9553223,19.7250977 C21.2614746,19.7045898 20.5693359,19.7045898 19.8789062,19.7250977 C19.1884766,19.7456055 18.5578613,19.7832031 17.9870605,19.8378906 C17.4162598,19.8925781 16.9736328,19.9677734 16.6591797,20.0634766 C16.4199219,20.125 16.2080078,20.2651367 16.0234375,20.4838867 C15.8388672,20.7026367 15.746582,21.0478516 15.746582,21.5195312 L15.746582,22.7089844 L15.746582,22.7089844 C15.746582,23.0234375 15.6730957,23.2507324 15.526123,23.3908691 C15.3791504,23.5310059 15.199707,23.625 14.987793,23.6728516 L11.6040039,24.3085938 C11.4262695,24.3427734 11.2929688,24.3649902 11.2041016,24.3752441 C11.1152344,24.385498 11.0332031,24.390625 10.9580078,24.390625 C10.7460938,24.390625 10.5786133,24.3256836 10.4555664,24.1958008 C10.3325195,24.065918 10.2453613,23.9086914 10.1940918,23.7241211 C10.1428223,23.5395508 10.1171875,23.3686523 10.1171875,23.2114258 L10.1171875,22.7602539 L10.1171875,22.7602539 C10.1171875,21.9399414 10.3171387,21.215332 10.717041,20.5864258 C11.1169434,19.9575195 11.6672363,19.4191895 12.3679199,18.9714355 C13.0686035,18.5236816 13.8769531,18.15625 14.7929688,17.8691406 C15.7089844,17.5820312 16.6899414,17.3701172 17.7358398,17.2333984 C18.7817383,17.0966797 19.8413086,17.0283203 20.9145508,17.0283203 C21.9946289,17.0283203 23.0576172,17.0966797 24.1035156,17.2333984 C25.1494141,17.3701172 26.1303711,17.5820312 27.0463867,17.8691406 C27.9624023,18.15625 28.770752,18.5236816 29.4714355,18.9714355 C30.1721191,19.4191895 30.7207031,19.9575195 31.1171875,20.5864258 C31.5136719,21.215332 31.7119141,21.9399414 31.7119141,22.7602539 L31.7119141,23.2114258 L31.7119141,23.2114258 C31.7119141,23.3686523 31.6862793,23.5395508 31.6350098,23.7241211 C31.5837402,23.9086914 31.498291,24.065918 31.3786621,24.1958008 C31.2590332,24.3256836 31.0898438,24.390625 30.8710938,24.390625 Z" id="􀍆" fill="#FFFFFF" fill-rule="nonzero"></path>
        </g>
    </g>
</svg>