<?xml version="1.0" encoding="UTF-8"?>
<svg width="133px" height="31px" viewBox="0 0 133 31" version="1.1" xmlns="http://www.w3.org/2000/svg" xmlns:xlink="http://www.w3.org/1999/xlink">
    <title>Group 4</title>
    <g id="Website---home" stroke="none" stroke-width="1" fill="none" fill-rule="evenodd">
        <g id="Insta-Website" transform="translate(-284.000000, -33.000000)" fill-rule="nonzero">
            <g id="Group-4" transform="translate(284.000000, 33.000000)">
                <path d="M16.3476562,30.234375 C17.8027344,30.234375 19.0332031,29.8608398 20.0390625,29.1137695 C21.0449219,28.3666992 21.8725586,27.2412109 22.5219727,25.7373047 C23.1713867,24.2333984 23.6865234,22.3486328 24.0673828,20.0830078 C24.3408203,18.4423828 24.6630859,17.1533203 25.0341797,16.2158203 C25.4052734,15.2783203 25.8374023,14.609375 26.3305664,14.2089844 C26.8237305,13.8085938 27.4023438,13.6083984 28.0664062,13.6083984 C28.828125,13.6083984 29.4628906,13.8647461 29.9707031,14.3774414 C30.4785156,14.8901367 30.8666992,15.6713867 31.1352539,16.7211914 C31.3305664,17.4846857 31.4677694,18.3966821 31.5468629,19.4571806 L31.5557266,19.5953984 L31.3850911,19.6533203 C31.1420356,19.7444661 30.9073893,19.8583984 30.6811523,19.9951172 C30.0024414,20.4052734 29.4628906,20.9570312 29.0625,21.6503906 C28.6621094,22.34375 28.4619141,23.1005859 28.4619141,23.9208984 C28.4619141,24.7509766 28.6621094,25.5053711 29.0625,26.184082 C29.4628906,26.862793 30.0024414,27.4047852 30.6811523,27.8100586 C31.3598633,28.215332 32.1142578,28.4179688 32.9443359,28.4179688 C33.7744141,28.4179688 34.5263672,28.215332 35.2001953,27.8100586 C35.8740234,27.4047852 36.4135742,26.862793 36.8188477,26.184082 C37.2241211,25.5053711 37.4267578,24.7509766 37.4267578,23.9208984 C37.4267578,23.1005859 37.2241211,22.34375 36.8188477,21.6503906 C36.4135742,20.9570312 35.8740234,20.4077148 35.2001953,20.0024414 C34.9007161,19.8223199 34.5858049,19.6812609 34.2554615,19.5792643 L34.0187266,19.5143984 L33.9958164,19.2780372 C33.8334412,17.7496302 33.5757212,16.4408053 33.2226562,15.3515625 C32.7636719,13.9355469 32.109375,12.878418 31.2597656,12.1801758 C30.4101562,11.4819336 29.3505859,11.1328125 28.0810547,11.1328125 C26.9189453,11.1328125 25.9228516,11.4135742 25.0927734,11.9750977 C24.2626953,12.5366211 23.5668945,13.4301758 23.0053711,14.6557617 C22.4438477,15.8813477 21.9824219,17.4951172 21.6210938,19.4970703 C21.3867188,20.8447266 21.1254883,22.03125 20.8374023,23.0566406 C20.5493164,24.0820312 20.2026367,24.9414062 19.7973633,25.6347656 C19.3920898,26.328125 18.9013672,26.8530273 18.3251953,27.2094727 C17.7490234,27.565918 17.0556641,27.7441406 16.2451172,27.7441406 C14.7509766,27.7441406 13.6083984,26.9677734 12.8173828,25.4150391 C12.1512644,24.1074733 11.7690795,22.332456 11.6708281,20.0899871 L11.6607266,19.8183984 L11.8125726,19.7881021 C12.4238523,19.6491235 13.0371094,19.3885387 13.6523438,19.0063477 C14.6191406,18.4057617 15.5371094,17.6025391 16.40625,16.5966797 C17.2753906,15.5908203 18.0444336,14.465332 18.7133789,13.2202148 C19.3823242,11.9750977 19.9121094,10.7055664 20.3027344,9.41162109 C20.6933594,8.11767578 20.8886719,6.88964844 20.8886719,5.72753906 C20.8886719,4.15527344 20.5004883,2.96875 19.7241211,2.16796875 C18.9477539,1.3671875 17.8076172,0.966796875 16.3037109,0.966796875 L15.9437266,0.967398437 L15.9284578,0.943287037 C15.8541908,0.839602623 15.7693142,0.740017361 15.6738281,0.64453125 C15.2441406,0.21484375 14.7265625,0 14.1210938,0 C13.5253906,0 13.0151367,0.21484375 12.590332,0.64453125 C12.1655273,1.07421875 11.953125,1.58691406 11.953125,2.18261719 C11.953125,2.78808594 12.1655273,3.30566406 12.590332,3.73535156 C13.0151367,4.16503906 13.5253906,4.37988281 14.1210938,4.37988281 C14.7265625,4.37988281 15.2441406,4.16503906 15.6738281,3.73535156 L15.8091001,3.58886719 L15.8091001,3.58886719 L15.9227266,3.44239844 L16.3916016,3.44238281 C17.0654297,3.44238281 17.5683594,3.63525391 17.9003906,4.02099609 C18.2324219,4.40673828 18.3984375,4.9609375 18.3984375,5.68359375 C18.3984375,6.57226562 18.2470703,7.5390625 17.9443359,8.58398438 C17.6416016,9.62890625 17.2265625,10.6738281 16.6992188,11.71875 C16.171875,12.7636719 15.5688477,13.7158203 14.8901367,14.5751953 C14.2114258,15.4345703 13.4912109,16.1254883 12.7294922,16.6479492 C11.9677734,17.1704102 11.2011719,17.4316406 10.4296875,17.4316406 C9.67773438,17.4316406 8.91845703,17.1704102 8.15185547,16.6479492 C7.38525391,16.1254883 6.66259766,15.4345703 5.98388672,14.5751953 C5.30517578,13.7158203 4.70458984,12.7636719 4.18212891,11.71875 C3.65966797,10.6738281 3.24707031,9.62890625 2.94433594,8.58398438 C2.64160156,7.5390625 2.49023438,6.57226562 2.49023438,5.68359375 C2.49023438,4.9609375 2.65625,4.40673828 2.98828125,4.02099609 C3.3203125,3.63525391 3.81347656,3.44238281 4.46777344,3.44238281 L4.93572656,3.44239844 L5.05027488,3.58886719 C5.09271316,3.63878038 5.13780382,3.68760851 5.18554688,3.73535156 C5.61523438,4.16503906 6.1328125,4.37988281 6.73828125,4.37988281 C7.32421875,4.37988281 7.83203125,4.16503906 8.26171875,3.73535156 C8.69140625,3.30566406 8.90625,2.78808594 8.90625,2.18261719 C8.90625,1.58691406 8.69140625,1.07421875 8.26171875,0.64453125 C7.83203125,0.21484375 7.32421875,0 6.73828125,0 C6.1328125,0 5.61523438,0.21484375 5.18554688,0.64453125 C5.09006076,0.740017361 5.00518422,0.839602623 4.93091725,0.943287037 L4.91472656,0.967398437 L4.58496094,0.966796875 C3.07128906,0.966796875 1.92871094,1.3671875 1.15722656,2.16796875 C0.385742188,2.96875 0,4.15527344 0,5.72753906 C0,6.88964844 0.192871094,8.11767578 0.578613281,9.41162109 C0.964355469,10.7055664 1.49414062,11.9750977 2.16796875,13.2202148 C2.84179688,14.465332 3.60839844,15.5908203 4.46777344,16.5966797 C5.32714844,17.6025391 6.24023438,18.4057617 7.20703125,19.0063477 C7.82226562,19.3885387 8.43947734,19.6491235 9.05866639,19.7881021 L9.18372656,19.8133984 L9.19555664,20.123291 C9.32373047,23.1652832 9.93041992,25.5493164 11.015625,27.2753906 C12.2558594,29.2480469 14.0332031,30.234375 16.3476562,30.234375 Z M32.9443359,26.2207031 C32.5244141,26.2207031 32.1386719,26.1181641 31.7871094,25.9130859 C31.4355469,25.7080078 31.1547852,25.4296875 30.9448242,25.078125 C30.7348633,24.7265625 30.6298828,24.3408203 30.6298828,23.9208984 C30.6298828,23.4912109 30.7348633,23.1005859 30.9448242,22.7490234 C31.1547852,22.3974609 31.4355469,22.121582 31.7871094,21.9213867 C32.1386719,21.7211914 32.5244141,21.6210938 32.9443359,21.6210938 C33.3740234,21.6210938 33.762207,21.7211914 34.1088867,21.9213867 C34.4555664,22.121582 34.7314453,22.3974609 34.9365234,22.7490234 C35.1416016,23.1005859 35.2441406,23.4912109 35.2441406,23.9208984 C35.2441406,24.3408203 35.1416016,24.7265625 34.9365234,25.078125 C34.7314453,25.4296875 34.4555664,25.7080078 34.1088867,25.9130859 C33.762207,26.1181641 33.3740234,26.2207031 32.9443359,26.2207031 Z" id="􀝾" fill="#0080FF"></path>
                <g id="Group-4-Copy" transform="translate(48.000000, 1.000000)" fill="#000000">
                    <path d="M4.86328125,22 L4.86328125,4.9375 L1.91015625,4.9375 L1.91015625,22 L4.86328125,22 Z M11.0390625,22 L11.0390625,12.9765625 C11.6015625,11.9375 12.4570312,11.4179688 13.6054688,11.4179688 C14.3945312,11.4179688 14.9628906,11.6113281 15.3105469,11.9980469 C15.6582031,12.3847656 15.8320312,12.9804688 15.8320312,13.7851562 L15.8320312,13.7851562 L15.8320312,22 L18.6796875,22 L18.6796875,13.6210938 C18.6328125,10.5976562 17.2890625,9.0859375 14.6484375,9.0859375 C13.125,9.0859375 11.8945312,9.65234375 10.9570312,10.7851562 L10.9570312,10.7851562 L10.875,9.3203125 L8.19140625,9.3203125 L8.19140625,22 L11.0390625,22 Z M26.3554688,22.234375 C27.8867188,22.234375 29.125,21.8808594 30.0703125,21.1738281 C31.015625,20.4667969 31.4882812,19.5429688 31.4882812,18.4023438 C31.4882812,17.7226562 31.3339844,17.1445312 31.0253906,16.6679688 C30.7167969,16.1914062 30.2441406,15.7832031 29.6074219,15.4433594 C28.9707031,15.1035156 28.09375,14.8105469 26.9765625,14.5644531 C25.859375,14.3183594 25.1171875,14.0742188 24.75,13.8320312 C24.3828125,13.5898438 24.1992188,13.25 24.1992188,12.8125 C24.1992188,12.328125 24.3964844,11.9414062 24.7910156,11.6523438 C25.1855469,11.3632812 25.6953125,11.21875 26.3203125,11.21875 C26.9921875,11.21875 27.53125,11.4003906 27.9375,11.7636719 C28.34375,12.1269531 28.546875,12.5820312 28.546875,13.1289062 L28.546875,13.1289062 L31.3945312,13.1289062 C31.3945312,11.9335938 30.9277344,10.9609375 29.9941406,10.2109375 C29.0605469,9.4609375 27.8359375,9.0859375 26.3203125,9.0859375 C24.8984375,9.0859375 23.7265625,9.453125 22.8046875,10.1875 C21.8828125,10.921875 21.421875,11.8359375 21.421875,12.9296875 C21.421875,14.234375 22.1328125,15.2304688 23.5546875,15.9179688 C24.203125,16.2304688 25.0117188,16.4882812 25.9804688,16.6914062 C26.9492188,16.8945312 27.6425781,17.1289062 28.0605469,17.3945312 C28.4785156,17.6601562 28.6875,18.046875 28.6875,18.5546875 C28.6875,19.015625 28.4921875,19.3886719 28.1015625,19.6738281 C27.7109375,19.9589844 27.140625,20.1015625 26.390625,20.1015625 C25.6171875,20.1015625 24.9960938,19.9199219 24.5273438,19.5566406 C24.0585938,19.1933594 23.8046875,18.6757812 23.765625,18.0039062 L23.765625,18.0039062 L21,18.0039062 C21,18.7617188 21.2265625,19.46875 21.6796875,20.125 C22.1328125,20.78125 22.765625,21.296875 23.578125,21.671875 C24.390625,22.046875 25.3164062,22.234375 26.3554688,22.234375 Z M37.96875,22.234375 C38.5703125,22.234375 39.1953125,22.1445312 39.84375,21.9648438 L39.84375,21.9648438 L39.84375,19.7617188 C39.5078125,19.8398438 39.1757812,19.8789062 38.8476562,19.8789062 C38.3554688,19.8789062 38.0136719,19.7714844 37.8222656,19.5566406 C37.6308594,19.3417969 37.5351562,18.9921875 37.5351562,18.5078125 L37.5351562,18.5078125 L37.5351562,11.4296875 L39.7734375,11.4296875 L39.7734375,9.3203125 L37.5351562,9.3203125 L37.5351562,6.23828125 L34.6875,6.23828125 L34.6875,9.3203125 L32.6015625,9.3203125 L32.6015625,11.4296875 L34.6875,11.4296875 L34.6875,18.6132812 C34.6875,21.0273438 35.78125,22.234375 37.96875,22.234375 Z M45.8671875,22.234375 C47.1796875,22.234375 48.2890625,21.7617188 49.1953125,20.8164062 C49.2890625,21.3632812 49.3984375,21.7578125 49.5234375,22 L49.5234375,22 L52.4296875,22 L52.4296875,21.8007812 C52.109375,21.1210938 51.9492188,20.2109375 51.9492188,19.0703125 L51.9492188,19.0703125 L51.9492188,13.3515625 C51.9257812,12 51.4726562,10.9511719 50.5898438,10.2050781 C49.7070312,9.45898438 48.5234375,9.0859375 47.0390625,9.0859375 C46.0625,9.0859375 45.1777344,9.2578125 44.3847656,9.6015625 C43.5917969,9.9453125 42.9648438,10.4199219 42.5039062,11.0253906 C42.0429688,11.6308594 41.8125,12.28125 41.8125,12.9765625 L41.8125,12.9765625 L44.6601562,12.9765625 C44.6601562,12.4765625 44.8671875,12.0644531 45.28125,11.7402344 C45.6953125,11.4160156 46.2265625,11.2539062 46.875,11.2539062 C47.625,11.2539062 48.1835938,11.4511719 48.5507812,11.8457031 C48.9179688,12.2402344 49.1015625,12.765625 49.1015625,13.421875 L49.1015625,13.421875 L49.1015625,14.2539062 L47.3554688,14.2539062 C45.4882812,14.2539062 44.0527344,14.6152344 43.0488281,15.3378906 C42.0449219,16.0605469 41.5429688,17.0976562 41.5429688,18.4492188 C41.5429688,19.5195312 41.9453125,20.4179688 42.75,21.1445312 C43.5546875,21.8710938 44.59375,22.234375 45.8671875,22.234375 Z M46.3945312,19.9492188 C45.7851562,19.9492188 45.2988281,19.7871094 44.9355469,19.4628906 C44.5722656,19.1386719 44.390625,18.703125 44.390625,18.15625 C44.390625,17.484375 44.65625,16.9648438 45.1875,16.5976562 C45.71875,16.2304688 46.5117188,16.046875 47.5664062,16.046875 L47.5664062,16.046875 L49.1015625,16.046875 L49.1015625,18.4375 C48.8515625,18.8984375 48.4785156,19.265625 47.9824219,19.5390625 C47.4863281,19.8125 46.9570312,19.9492188 46.3945312,19.9492188 Z M60.1171875,22 C61.65625,22 63.0214844,21.6679688 64.2128906,21.0039062 C65.4042969,20.3398438 66.3222656,19.3945312 66.9667969,18.1679688 C67.6113281,16.9414062 67.9335938,15.5195312 67.9335938,13.9023438 L67.9335938,13.9023438 L67.9335938,13.046875 C67.9335938,11.453125 67.6132812,10.0390625 66.9726562,8.8046875 C66.3320312,7.5703125 65.4277344,6.6171875 64.2597656,5.9453125 C63.0917969,5.2734375 61.7539062,4.9375 60.2460938,4.9375 L60.2460938,4.9375 L55.2070312,4.9375 L55.2070312,22 L60.1171875,22 Z M60.1054688,19.6328125 L58.171875,19.6328125 L58.171875,7.328125 L60.2460938,7.328125 C61.7773438,7.328125 62.9453125,7.81640625 63.75,8.79296875 C64.5546875,9.76953125 64.9570312,11.1835938 64.9570312,13.0351562 L64.9570312,13.0351562 L64.9570312,13.984375 C64.9414062,15.8046875 64.5175781,17.2011719 63.6855469,18.1738281 C62.8535156,19.1464844 61.6601562,19.6328125 60.1054688,19.6328125 L60.1054688,19.6328125 Z M73.8515625,22 L73.8515625,15.4257812 L77.15625,15.4257812 L80.578125,22 L83.7539062,22 L83.7539062,21.8476562 L79.921875,14.734375 C80.90625,14.3203125 81.6738281,13.7285156 82.2246094,12.9589844 C82.7753906,12.1894531 83.0507812,11.234375 83.0507812,10.09375 C83.0507812,8.421875 82.515625,7.14453125 81.4453125,6.26171875 C80.375,5.37890625 78.8554688,4.9375 76.8867188,4.9375 L76.8867188,4.9375 L70.8867188,4.9375 L70.8867188,22 L73.8515625,22 Z M76.8984375,13.046875 L73.8515625,13.046875 L73.8515625,7.328125 L76.9804688,7.328125 C78.0117188,7.34375 78.7871094,7.6015625 79.3066406,8.1015625 C79.8261719,8.6015625 80.0859375,9.30859375 80.0859375,10.2226562 C80.0859375,11.0976562 79.8046875,11.7871094 79.2421875,12.2910156 C78.6796875,12.7949219 77.8984375,13.046875 76.8984375,13.046875 L76.8984375,13.046875 Z" id="InstaDR"></path>
                </g>
            </g>
        </g>
    </g>
</svg>