<?xml version="1.0" encoding="UTF-8"?>
<svg width="41px" height="39px" viewBox="0 0 41 39" version="1.1" xmlns="http://www.w3.org/2000/svg" xmlns:xlink="http://www.w3.org/1999/xlink">
    <title>􀬎</title>
    <g id="Icons" stroke="none" stroke-width="1" fill="none" fill-rule="evenodd">
        <g id="Desktop-HD" transform="translate(-72.000000, -584.000000)" fill="#0080FF" fill-rule="nonzero">
            <path d="M85.5585938,597.384766 C86.7421875,597.384766 87.8261719,597.091797 88.8105469,596.505859 C89.7949219,595.919922 90.5800781,595.134766 91.1660156,594.150391 C91.7519531,593.166016 92.0449219,592.087891 92.0449219,590.916016 C92.0449219,589.732422 91.7519531,588.648438 91.1660156,587.664062 C90.5800781,586.679688 89.7949219,585.891602 88.8105469,585.299805 C87.8261719,584.708008 86.7421875,584.412109 85.5585938,584.412109 C84.375,584.412109 83.2939453,584.708008 82.3154297,585.299805 C81.3369141,585.891602 80.5517578,586.679688 79.9599609,587.664062 C79.3681641,588.648438 79.0722656,589.732422 79.0722656,590.916016 C79.0722656,592.087891 79.3681641,593.166016 79.9599609,594.150391 C80.5517578,595.134766 81.3369141,595.919922 82.3154297,596.505859 C83.2939453,597.091797 84.375,597.384766 85.5585938,597.384766 Z M99.4101562,597.384766 C100.59375,597.384766 101.674805,597.091797 102.65332,596.505859 C103.631836,595.919922 104.414062,595.137695 105,594.15918 C105.585938,593.180664 105.878906,592.099609 105.878906,590.916016 C105.878906,589.732422 105.585938,588.648438 105,587.664062 C104.414062,586.679688 103.628906,585.891602 102.644531,585.299805 C101.660156,584.708008 100.582031,584.412109 99.4101562,584.412109 C98.2265625,584.412109 97.1425781,584.708008 96.1582031,585.299805 C95.1738281,585.891602 94.3857422,586.679688 93.7939453,587.664062 C93.2021484,588.648438 92.90625,589.732422 92.90625,590.916016 C92.90625,592.087891 93.2021484,593.166016 93.7939453,594.150391 C94.3857422,595.134766 95.1738281,595.919922 96.1582031,596.505859 C97.1425781,597.091797 98.2265625,597.384766 99.4101562,597.384766 Z M85.5585938,593.253906 C85.1367188,593.253906 84.7470703,593.145508 84.3896484,592.928711 C84.0322266,592.711914 83.7451172,592.427734 83.5283203,592.076172 C83.3115234,591.724609 83.203125,591.337891 83.203125,590.916016 C83.203125,590.494141 83.3115234,590.101562 83.5283203,589.738281 C83.7451172,589.375 84.0322266,589.084961 84.3896484,588.868164 C84.7470703,588.651367 85.1367188,588.542969 85.5585938,588.542969 C85.9804688,588.542969 86.3701172,588.651367 86.7275391,588.868164 C87.0849609,589.084961 87.3720703,589.375 87.5888672,589.738281 C87.8056641,590.101562 87.9140625,590.494141 87.9140625,590.916016 C87.9140625,591.337891 87.8056641,591.724609 87.5888672,592.076172 C87.3720703,592.427734 87.0849609,592.711914 86.7275391,592.928711 C86.3701172,593.145508 85.9804688,593.253906 85.5585938,593.253906 Z M99.4101562,593.253906 C98.9882812,593.253906 98.5957031,593.145508 98.2324219,592.928711 C97.8691406,592.711914 97.5791016,592.427734 97.3623047,592.076172 C97.1455078,591.724609 97.0371094,591.337891 97.0371094,590.916016 C97.0371094,590.494141 97.1455078,590.101562 97.3623047,589.738281 C97.5791016,589.375 97.8691406,589.084961 98.2324219,588.868164 C98.5957031,588.651367 98.9882812,588.542969 99.4101562,588.542969 C99.8203125,588.542969 100.204102,588.651367 100.561523,588.868164 C100.918945,589.084961 101.206055,589.375 101.422852,589.738281 C101.639648,590.101562 101.748047,590.494141 101.748047,590.916016 C101.748047,591.337891 101.642578,591.724609 101.431641,592.076172 C101.220703,592.427734 100.936523,592.711914 100.579102,592.928711 C100.22168,593.145508 99.8320312,593.253906 99.4101562,593.253906 Z M78.6503906,609.777344 C79.8339844,609.777344 80.9179688,609.484375 81.9023438,608.898438 C82.8867188,608.3125 83.6748047,607.527344 84.2666016,606.542969 C84.8583984,605.558594 85.1542969,604.480469 85.1542969,603.308594 C85.1542969,602.125 84.8583984,601.041016 84.2666016,600.056641 C83.6748047,599.072266 82.8867188,598.287109 81.9023438,597.701172 C80.9179688,597.115234 79.8339844,596.822266 78.6503906,596.822266 C77.4667969,596.822266 76.3828125,597.115234 75.3984375,597.701172 C74.4140625,598.287109 73.6259766,599.072266 73.0341797,600.056641 C72.4423828,601.041016 72.1464844,602.125 72.1464844,603.308594 C72.1464844,604.492188 72.4423828,605.573242 73.0341797,606.551758 C73.6259766,607.530273 74.4140625,608.3125 75.3984375,608.898438 C76.3828125,609.484375 77.4667969,609.777344 78.6503906,609.777344 Z M106.318359,609.777344 C107.501953,609.777344 108.585938,609.484375 109.570312,608.898438 C110.554688,608.3125 111.339844,607.527344 111.925781,606.542969 C112.511719,605.558594 112.804688,604.480469 112.804688,603.308594 C112.804688,602.125 112.511719,601.041016 111.925781,600.056641 C111.339844,599.072266 110.554688,598.287109 109.570312,597.701172 C108.585938,597.115234 107.501953,596.822266 106.318359,596.822266 C105.134766,596.822266 104.050781,597.115234 103.066406,597.701172 C102.082031,598.287109 101.293945,599.072266 100.702148,600.056641 C100.110352,601.041016 99.8144531,602.125 99.8144531,603.308594 C99.8144531,604.480469 100.110352,605.558594 100.702148,606.542969 C101.293945,607.527344 102.082031,608.3125 103.066406,608.898438 C104.050781,609.484375 105.134766,609.777344 106.318359,609.777344 Z M78.6503906,605.646484 C78.2167969,605.646484 77.8212891,605.541016 77.4638672,605.330078 C77.1064453,605.119141 76.8193359,604.834961 76.6025391,604.477539 C76.3857422,604.120117 76.2773438,603.730469 76.2773438,603.308594 C76.2773438,602.886719 76.3857422,602.49707 76.6025391,602.139648 C76.8193359,601.782227 77.109375,601.495117 77.4726562,601.27832 C77.8359375,601.061523 78.2285156,600.953125 78.6503906,600.953125 C79.0722656,600.953125 79.4619141,601.061523 79.8193359,601.27832 C80.1767578,601.495117 80.4667969,601.782227 80.6894531,602.139648 C80.9121094,602.49707 81.0234375,602.886719 81.0234375,603.308594 C81.0234375,603.730469 80.9121094,604.120117 80.6894531,604.477539 C80.4667969,604.834961 80.1767578,605.119141 79.8193359,605.330078 C79.4619141,605.541016 79.0722656,605.646484 78.6503906,605.646484 Z M106.318359,605.646484 C105.896484,605.646484 105.506836,605.541016 105.149414,605.330078 C104.791992,605.119141 104.501953,604.834961 104.279297,604.477539 C104.056641,604.120117 103.945312,603.730469 103.945312,603.308594 C103.945312,602.886719 104.056641,602.49707 104.279297,602.139648 C104.501953,601.782227 104.791992,601.495117 105.149414,601.27832 C105.506836,601.061523 105.896484,600.953125 106.318359,600.953125 C106.740234,600.953125 107.129883,601.061523 107.487305,601.27832 C107.844727,601.495117 108.131836,601.782227 108.348633,602.139648 C108.56543,602.49707 108.673828,602.886719 108.673828,603.308594 C108.673828,603.730469 108.56543,604.120117 108.348633,604.477539 C108.131836,604.834961 107.844727,605.119141 107.487305,605.330078 C107.129883,605.541016 106.740234,605.646484 106.318359,605.646484 Z M85.5585938,622.205078 C86.7421875,622.205078 87.8261719,621.90918 88.8105469,621.317383 C89.7949219,620.725586 90.5800781,619.9375 91.1660156,618.953125 C91.7519531,617.96875 92.0449219,616.878906 92.0449219,615.683594 C92.0449219,614.511719 91.7519531,613.433594 91.1660156,612.449219 C90.5800781,611.464844 89.7949219,610.679688 88.8105469,610.09375 C87.8261719,609.507812 86.7421875,609.214844 85.5585938,609.214844 C84.375,609.214844 83.2910156,609.507812 82.3066406,610.09375 C81.3222656,610.679688 80.5371094,611.464844 79.9511719,612.449219 C79.3652344,613.433594 79.0722656,614.511719 79.0722656,615.683594 C79.0722656,616.878906 79.3681641,617.96875 79.9599609,618.953125 C80.5517578,619.9375 81.3369141,620.725586 82.3154297,621.317383 C83.2939453,621.90918 84.375,622.205078 85.5585938,622.205078 Z M99.4101562,622.205078 C100.582031,622.205078 101.660156,621.90918 102.644531,621.317383 C103.628906,620.725586 104.414062,619.9375 105,618.953125 C105.585938,617.96875 105.878906,616.878906 105.878906,615.683594 C105.878906,614.511719 105.585938,613.433594 105,612.449219 C104.414062,611.464844 103.631836,610.679688 102.65332,610.09375 C101.674805,609.507812 100.59375,609.214844 99.4101562,609.214844 C98.2265625,609.214844 97.1425781,609.507812 96.1582031,610.09375 C95.1738281,610.679688 94.3857422,611.464844 93.7939453,612.449219 C93.2021484,613.433594 92.90625,614.511719 92.90625,615.683594 C92.90625,616.878906 93.2021484,617.96875 93.7939453,618.953125 C94.3857422,619.9375 95.1738281,620.725586 96.1582031,621.317383 C97.1425781,621.90918 98.2265625,622.205078 99.4101562,622.205078 Z M85.5585938,618.074219 C85.1367188,618.074219 84.7470703,617.96582 84.3896484,617.749023 C84.0322266,617.532227 83.7451172,617.242188 83.5283203,616.878906 C83.3115234,616.515625 83.203125,616.117188 83.203125,615.683594 C83.203125,615.261719 83.3115234,614.875 83.5283203,614.523438 C83.7451172,614.171875 84.0322266,613.887695 84.3896484,613.670898 C84.7470703,613.454102 85.1367188,613.345703 85.5585938,613.345703 C85.9804688,613.345703 86.3701172,613.454102 86.7275391,613.670898 C87.0849609,613.887695 87.3720703,614.171875 87.5888672,614.523438 C87.8056641,614.875 87.9140625,615.261719 87.9140625,615.683594 C87.9140625,616.117188 87.8056641,616.515625 87.5888672,616.878906 C87.3720703,617.242188 87.0849609,617.532227 86.7275391,617.749023 C86.3701172,617.96582 85.9804688,618.074219 85.5585938,618.074219 Z M99.4101562,618.074219 C98.9882812,618.074219 98.5957031,617.96582 98.2324219,617.749023 C97.8691406,617.532227 97.5791016,617.242188 97.3623047,616.878906 C97.1455078,616.515625 97.0371094,616.117188 97.0371094,615.683594 C97.0371094,615.261719 97.1455078,614.875 97.3623047,614.523438 C97.5791016,614.171875 97.8691406,613.887695 98.2324219,613.670898 C98.5957031,613.454102 98.9882812,613.345703 99.4101562,613.345703 C99.8320312,613.345703 100.22168,613.454102 100.579102,613.670898 C100.936523,613.887695 101.220703,614.171875 101.431641,614.523438 C101.642578,614.875 101.748047,615.261719 101.748047,615.683594 C101.748047,616.117188 101.639648,616.515625 101.422852,616.878906 C101.206055,617.242188 100.918945,617.532227 100.561523,617.749023 C100.204102,617.96582 99.8203125,618.074219 99.4101562,618.074219 Z" id="􀬎"></path>
        </g>
    </g>
</svg>