<?xml version="1.0" encoding="UTF-8"?>
<svg width="141px" height="37px" viewBox="0 0 141 37" version="1.1" xmlns="http://www.w3.org/2000/svg" xmlns:xlink="http://www.w3.org/1999/xlink">
    <title>instaDR</title>
    <g id="Icons" stroke="none" stroke-width="1" fill="none" fill-rule="evenodd">
        <g id="Desktop-HD" transform="translate(-409.000000, -944.000000)" fill-rule="nonzero">
            <g id="instaDR" transform="translate(409.580469, 944.982002)">
                <path d="M8.14746094,6.09766964 L8.3671875,6.09612342 C9.2734375,6.06487342 10.0195312,5.76018592 10.6054687,5.18206092 C11.1914062,4.60393592 11.484375,3.86956092 11.484375,2.97893592 C11.484375,2.13518592 11.1835937,1.42034217 10.5820312,0.834404668 C9.98046875,0.248467168 9.2265625,-0.0288765823 8.3203125,0.00237341772 C7.3671875,0.0336234177 6.609375,0.353935918 6.046875,0.963310918 C5.484375,1.57268592 5.203125,2.30706092 5.203125,3.16643592 C5.203125,4.01018592 5.5078125,4.71721717 6.1171875,5.28752967 C6.7265625,5.85784217 7.4765625,6.12737342 8.3671875,6.09612342 L8.14746094,6.09766964 Z M5.5546875,35.0179984 L9.9609375,9.65862342 L4.40625,9.65862342 L-2.84217094e-14,35.0179984 L5.5546875,35.0179984 Z M13.25,35.0179984 L16.4140625,16.9476859 C18.0078125,14.8383109 19.859375,13.7992484 21.96875,13.8304984 C23.984375,13.8773734 25.09375,14.8304984 25.296875,16.6898734 C25.359375,17.2679984 25.3515625,17.8929984 25.2734375,18.5648734 L25.2734375,18.5648734 L22.5078125,35.0179984 L28.0625,35.0179984 L30.8046875,18.6351859 C31.1015625,15.6820609 30.6796875,13.3812797 29.5390625,11.7328422 C28.3984375,10.0844047 26.640625,9.23674842 24.265625,9.18987342 C21.421875,9.12737342 18.9140625,10.2679984 16.7421875,12.6117484 L16.7421875,12.6117484 L17.3046875,9.63518592 L12.078125,9.65862342 L7.6953125,35.0179984 L13.25,35.0179984 Z M39.7890625,35.4867484 C41.6328125,35.5336234 43.375,35.2406547 45.015625,34.6078422 C46.65625,33.9750297 47.9648437,33.0609672 48.9414062,31.8656547 C49.9179687,30.6703422 50.4453125,29.2679984 50.5234375,27.6586234 C50.6328125,24.7679984 49.140625,22.6429984 46.046875,21.2836234 C44.984375,20.8148734 43.34375,20.3031547 41.125,19.7484672 C38.90625,19.1937797 37.90625,18.2054984 38.125,16.7836234 C38.265625,15.7992484 38.7773437,15.0023734 39.6601562,14.3929984 C40.5429687,13.7836234 41.6015625,13.4789359 42.8359375,13.4789359 C44.0078125,13.5101859 44.9296875,13.8578422 45.6015625,14.5219047 C46.2734375,15.1859672 46.59375,16.1039359 46.5625,17.2758109 L46.5625,17.2758109 L52.0703125,17.2992484 C52.1015625,14.8929984 51.2695312,12.9476859 49.5742187,11.4633109 C47.8789062,9.97893592 45.6875,9.22112342 43,9.18987342 C40.21875,9.15862342 37.8320312,9.88909217 35.8398437,11.3812797 C33.8476562,12.8734672 32.8125,14.7601859 32.734375,17.0414359 C32.625,19.8539359 34.1796875,21.9476859 37.3984375,23.3226859 C38.2265625,23.6820609 39.7773437,24.1625297 42.0507812,24.7640922 C44.3242187,25.3656547 45.328125,26.4398734 45.0625,27.9867484 C44.90625,28.9867484 44.3710937,29.7719047 43.4570312,30.3422172 C42.5429687,30.9125297 41.3984375,31.1976859 40.0234375,31.1976859 C38.6640625,31.1820609 37.59375,30.8226859 36.8125,30.1195609 C36.03125,29.4164359 35.625,28.3851859 35.59375,27.0258109 L35.59375,27.0258109 L30.2265625,27.0023734 C30.1953125,29.4711234 31.0898437,31.4945609 32.9101562,33.0726859 C34.7304687,34.6508109 37.0234375,35.4554984 39.7890625,35.4867484 Z M58.3359375,35.4633109 C59.5078125,35.4633109 60.671875,35.2992484 61.828125,34.9711234 L61.828125,34.9711234 L62.203125,30.5179984 C61.46875,30.6586234 60.8125,30.7289359 60.234375,30.7289359 C59.078125,30.6820609 58.453125,30.1508109 58.359375,29.1351859 C58.328125,28.8226859 58.3359375,28.4711234 58.3828125,28.0804984 L58.3828125,28.0804984 L60.7734375,13.8773734 L65.1328125,13.8773734 L65.859375,9.65862342 L61.5234375,9.65862342 L62.6015625,3.49456092 L57.0234375,3.49456092 L55.9453125,9.65862342 L51.9140625,9.65862342 L51.1640625,13.8773734 L55.21875,13.8773734 L52.8515625,28.3617484 C52.6484375,30.4867484 53.0273437,32.1937797 53.9882812,33.4828422 C54.9492187,34.7719047 56.3984375,35.4320609 58.3359375,35.4633109 Z M69.9453125,35.4867484 C72.3671875,35.5492484 74.625,34.6039359 76.71875,32.6508109 C76.6875,33.6039359 76.765625,34.3929984 76.953125,35.0179984 L76.953125,35.0179984 L82.4609375,35.0179984 L82.484375,34.5961234 C82.203125,33.7211234 82.0859375,32.8226859 82.1328125,31.9008109 L82.1328125,31.9008109 L82.3203125,29.7914359 L84.265625,17.9086234 C84.53125,15.3617484 83.890625,13.2875297 82.34375,11.6859672 C80.796875,10.0844047 78.640625,9.25237342 75.875,9.18987342 C74.03125,9.15862342 72.28125,9.47112342 70.625,10.1273734 C68.96875,10.7836234 67.640625,11.7015922 66.640625,12.8812797 C65.640625,14.0609672 65.0859375,15.4320609 64.9765625,16.9945609 L64.9765625,16.9945609 L70.53125,16.9476859 C70.734375,15.8851859 71.2851562,15.0375297 72.1835937,14.4047172 C73.0820312,13.7719047 74.125,13.4711234 75.3125,13.5023734 C77.234375,13.5492484 78.3515625,14.4164359 78.6640625,16.1039359 C78.7578125,16.6351859 78.7578125,17.2054984 78.6640625,17.8148734 L78.6640625,17.8148734 L78.3359375,19.5492484 L74.7265625,19.5023734 C71.0390625,19.5023734 68.1015625,20.2679984 65.9140625,21.7992484 C63.7265625,23.3304984 62.5703125,25.4320609 62.4453125,28.1039359 C62.3515625,30.2289359 63.0273437,31.9828422 64.4726562,33.3656547 C65.9179687,34.7484672 67.7421875,35.4554984 69.9453125,35.4867484 Z M71.5518466,30.9409388 L71.234375,30.9398734 C70.203125,30.9086234 69.3945312,30.5922172 68.8085937,29.9906547 C68.2226562,29.3890922 67.9921875,28.5648734 68.1171875,27.5179984 C68.2890625,26.1429984 69,25.0609672 70.25,24.2719047 C71.5,23.4828422 73.171875,23.0883109 75.265625,23.0883109 L75.265625,23.0883109 L77.9140625,23.1117484 L77.046875,27.9164359 C76.34375,28.8226859 75.4921875,29.5609672 74.4921875,30.1312797 C73.4921875,30.7015922 72.40625,30.9711234 71.234375,30.9398734 L71.5518466,30.9409388 Z" id="insta" fill="#03000E"></path>
                <path d="M96.5546875,35.0179984 C99.5390625,35.0023734 102.21875,34.3148734 104.59375,32.9554984 C106.96875,31.5961234 108.808594,29.6820609 110.113281,27.2133109 C111.417969,24.7445609 112.070312,21.9242484 112.070312,18.7523734 L112.070312,18.7523734 L112.070312,17.1820609 C112.070312,14.0101859 111.40625,11.1781547 110.078125,8.68596717 C108.75,6.19377967 106.902344,4.27190467 104.535156,2.92034217 C102.167969,1.56877967 99.484375,0.892998418 96.484375,0.892998418 L96.484375,0.892998418 L85.984375,0.892998418 L85.984375,35.0179984 L96.5546875,35.0179984 Z M96.4140625,29.3695609 L93.015625,29.3695609 L93.015625,6.58831092 L96.484375,6.58831092 C99.25,6.58831092 101.351562,7.48284217 102.789062,9.27190467 C104.226562,11.0609672 104.945312,13.6898734 104.945312,17.1586234 L104.945312,17.1586234 L104.945312,18.9633109 C104.914062,22.3070609 104.171875,24.8773734 102.71875,26.6742484 C101.265625,28.4711234 99.1640625,29.3695609 96.4140625,29.3695609 L96.4140625,29.3695609 Z M120.610937,35.0179984 L120.610937,22.5258109 L126.2125,22.5258109 L132.610937,35.0179984 L140.157812,35.0179984 L140.157812,34.6898734 L132.775,20.7445609 C134.821875,19.8226859 136.349219,18.5844047 137.357031,17.0297172 C138.364844,15.4750297 138.86875,13.5336234 138.86875,11.2054984 C138.86875,7.92424842 137.775,5.38518592 135.5875,3.58831092 C133.4,1.79143592 130.290625,0.892998418 126.259375,0.892998418 L126.259375,0.892998418 L113.579687,0.892998418 L113.579687,35.0179984 L120.610937,35.0179984 Z M126.282812,16.8304984 L120.610937,16.8304984 L120.610937,6.58831092 L126.259375,6.58831092 C128.15,6.58831092 129.552344,7.04924842 130.466406,7.97112342 C131.380469,8.89299842 131.8375,10.1586234 131.8375,11.7679984 C131.8375,13.3461234 131.353125,14.5844047 130.384375,15.4828422 C129.415625,16.3812797 128.048437,16.8304984 126.282812,16.8304984 L126.282812,16.8304984 Z" id="DR" fill="#0080FF"></path>
            </g>
        </g>
    </g>
</svg>