<?xml version="1.0" encoding="UTF-8"?>
<svg width="158px" height="33px" viewBox="0 0 158 33" version="1.1" xmlns="http://www.w3.org/2000/svg" xmlns:xlink="http://www.w3.org/1999/xlink">
    <title>Group 6 Copy</title>
    <g id="Icons" stroke="none" stroke-width="1" fill="none" fill-rule="evenodd">
        <g id="Desktop-HD" transform="translate(-100.000000, -840.000000)" fill-rule="nonzero">
            <g id="Group-7" transform="translate(100.000000, 840.000000)">
                <path d="M11.5625,11.125 C12.5729167,11.125 13.5,10.875 14.34375,10.375 C15.1875,9.875 15.8619792,9.203125 16.3671875,8.359375 C16.8723958,7.515625 17.125,6.58854167 17.125,5.578125 C17.125,4.55729167 16.8723958,3.625 16.3671875,2.78125 C15.8619792,1.9375 15.1875,1.26302083 14.34375,0.7578125 C13.5,0.252604167 12.5729167,0 11.5625,0 C10.5520833,0 9.625,0.252604167 8.78125,0.7578125 C7.9375,1.26302083 7.26302083,1.9375 6.7578125,2.78125 C6.25260417,3.625 6,4.55729167 6,5.578125 C6,6.58854167 6.25260417,7.515625 6.7578125,8.359375 C7.26302083,9.203125 7.9375,9.875 8.78125,10.375 C9.625,10.875 10.5520833,11.125 11.5625,11.125 Z M23.5625,11.125 C24.5729167,11.125 25.5,10.875 26.34375,10.375 C27.1875,9.875 27.8619792,9.203125 28.3671875,8.359375 C28.8723958,7.515625 29.125,6.58854167 29.125,5.578125 C29.125,4.55729167 28.8723958,3.625 28.3671875,2.78125 C27.8619792,1.9375 27.1875,1.26302083 26.34375,0.7578125 C25.5,0.252604167 24.5729167,0 23.5625,0 C22.5520833,0 21.625,0.252604167 20.78125,0.7578125 C19.9375,1.26302083 19.2604167,1.9375 18.75,2.78125 C18.2395833,3.625 17.984375,4.55729167 17.984375,5.578125 C17.984375,6.58854167 18.2369792,7.515625 18.7421875,8.359375 C19.2473958,9.203125 19.921875,9.875 20.765625,10.375 C21.609375,10.875 22.5416667,11.125 23.5625,11.125 Z M11.5625,7.875 C11.1458333,7.875 10.7630208,7.77083333 10.4140625,7.5625 C10.0651042,7.35416667 9.78385417,7.07552083 9.5703125,6.7265625 C9.35677083,6.37760417 9.25,5.99479167 9.25,5.578125 C9.25,5.16145833 9.35677083,4.7734375 9.5703125,4.4140625 C9.78385417,4.0546875 10.0651042,3.77083333 10.4140625,3.5625 C10.7630208,3.35416667 11.1458333,3.25 11.5625,3.25 C11.9791667,3.25 12.3645833,3.35677083 12.71875,3.5703125 C13.0729167,3.78385417 13.3567708,4.06770833 13.5703125,4.421875 C13.7838542,4.77604167 13.890625,5.16145833 13.890625,5.578125 C13.890625,5.99479167 13.7838542,6.37760417 13.5703125,6.7265625 C13.3567708,7.07552083 13.0729167,7.35416667 12.71875,7.5625 C12.3645833,7.77083333 11.9791667,7.875 11.5625,7.875 Z M23.5625,7.875 C23.1458333,7.875 22.7604167,7.77083333 22.40625,7.5625 C22.0520833,7.35416667 21.7682292,7.07552083 21.5546875,6.7265625 C21.3411458,6.37760417 21.234375,5.99479167 21.234375,5.578125 C21.234375,5.16145833 21.3411458,4.77604167 21.5546875,4.421875 C21.7682292,4.06770833 22.0520833,3.78385417 22.40625,3.5703125 C22.7604167,3.35677083 23.1458333,3.25 23.5625,3.25 C23.96875,3.25 24.3489583,3.35416667 24.703125,3.5625 C25.0572917,3.77083333 25.3411458,4.0546875 25.5546875,4.4140625 C25.7682292,4.7734375 25.875,5.16145833 25.875,5.578125 C25.875,5.99479167 25.7682292,6.37760417 25.5546875,6.7265625 C25.3411458,7.07552083 25.0598958,7.35416667 24.7109375,7.5625 C24.3619792,7.77083333 23.9791667,7.875 23.5625,7.875 Z M5.5625,21.875 C6.58333333,21.875 7.515625,21.6223958 8.359375,21.1171875 C9.203125,20.6119792 9.88020833,19.9375 10.390625,19.09375 C10.9010417,18.25 11.15625,17.3229167 11.15625,16.3125 C11.15625,15.3020833 10.9010417,14.375 10.390625,13.53125 C9.88020833,12.6875 9.203125,12.0130208 8.359375,11.5078125 C7.515625,11.0026042 6.58333333,10.75 5.5625,10.75 C4.55208333,10.75 3.625,11.0026042 2.78125,11.5078125 C1.9375,12.0130208 1.26302083,12.6875 0.7578125,13.53125 C0.252604167,14.375 0,15.3020833 0,16.3125 C0,17.3229167 0.252604167,18.25 0.7578125,19.09375 C1.26302083,19.9375 1.9375,20.6119792 2.78125,21.1171875 C3.625,21.6223958 4.55208333,21.875 5.5625,21.875 Z M29.5625,21.875 C30.5729167,21.875 31.5,21.6223958 32.34375,21.1171875 C33.1875,20.6119792 33.8619792,19.9375 34.3671875,19.09375 C34.8723958,18.25 35.125,17.3229167 35.125,16.3125 C35.125,15.3020833 34.8723958,14.375 34.3671875,13.53125 C33.8619792,12.6875 33.1875,12.0130208 32.34375,11.5078125 C31.5,11.0026042 30.5729167,10.75 29.5625,10.75 C28.5416667,10.75 27.609375,11.0026042 26.765625,11.5078125 C25.921875,12.0130208 25.2447917,12.6875 24.734375,13.53125 C24.2239583,14.375 23.96875,15.3020833 23.96875,16.3125 C23.96875,17.3229167 24.2239583,18.25 24.734375,19.09375 C25.2447917,19.9375 25.921875,20.6119792 26.765625,21.1171875 C27.609375,21.6223958 28.5416667,21.875 29.5625,21.875 Z M5.5625,18.625 C5.14583333,18.625 4.76041667,18.5208333 4.40625,18.3125 C4.05208333,18.1041667 3.77083333,17.8229167 3.5625,17.46875 C3.35416667,17.1145833 3.25,16.7291667 3.25,16.3125 C3.25,15.8958333 3.35677083,15.5104167 3.5703125,15.15625 C3.78385417,14.8020833 4.06510417,14.5208333 4.4140625,14.3125 C4.76302083,14.1041667 5.14583333,14 5.5625,14 C5.98958333,14 6.37760417,14.1041667 6.7265625,14.3125 C7.07552083,14.5208333 7.359375,14.8020833 7.578125,15.15625 C7.796875,15.5104167 7.90625,15.8958333 7.90625,16.3125 C7.90625,16.7291667 7.796875,17.1145833 7.578125,17.46875 C7.359375,17.8229167 7.07552083,18.1041667 6.7265625,18.3125 C6.37760417,18.5208333 5.98958333,18.625 5.5625,18.625 Z M29.5625,18.625 C29.1354167,18.625 28.7473958,18.5208333 28.3984375,18.3125 C28.0494792,18.1041667 27.765625,17.8229167 27.546875,17.46875 C27.328125,17.1145833 27.21875,16.7291667 27.21875,16.3125 C27.21875,15.8958333 27.328125,15.5104167 27.546875,15.15625 C27.765625,14.8020833 28.0494792,14.5208333 28.3984375,14.3125 C28.7473958,14.1041667 29.1354167,14 29.5625,14 C29.9791667,14 30.3619792,14.1041667 30.7109375,14.3125 C31.0598958,14.5208333 31.3411458,14.8020833 31.5546875,15.15625 C31.7682292,15.5104167 31.875,15.8958333 31.875,16.3125 C31.875,16.7291667 31.7682292,17.1145833 31.5546875,17.46875 C31.3411458,17.8229167 31.0598958,18.1041667 30.7109375,18.3125 C30.3619792,18.5208333 29.9791667,18.625 29.5625,18.625 Z M11.5625,32.625 C12.5729167,32.625 13.5,32.3723958 14.34375,31.8671875 C15.1875,31.3619792 15.8619792,30.6848958 16.3671875,29.8359375 C16.8723958,28.9869792 17.125,28.0572917 17.125,27.046875 C17.125,26.0364583 16.8723958,25.109375 16.3671875,24.265625 C15.8619792,23.421875 15.1875,22.7473958 14.34375,22.2421875 C13.5,21.7369792 12.5729167,21.484375 11.5625,21.484375 C10.5520833,21.484375 9.625,21.7369792 8.78125,22.2421875 C7.9375,22.7473958 7.26302083,23.421875 6.7578125,24.265625 C6.25260417,25.109375 6,26.0364583 6,27.046875 C6,28.0572917 6.25260417,28.9869792 6.7578125,29.8359375 C7.26302083,30.6848958 7.9375,31.3619792 8.78125,31.8671875 C9.625,32.3723958 10.5520833,32.625 11.5625,32.625 Z M23.5625,32.625 C24.5729167,32.625 25.5,32.3723958 26.34375,31.8671875 C27.1875,31.3619792 27.8619792,30.6848958 28.3671875,29.8359375 C28.8723958,28.9869792 29.125,28.0572917 29.125,27.046875 C29.125,26.0364583 28.8723958,25.109375 28.3671875,24.265625 C27.8619792,23.421875 27.1875,22.7473958 26.34375,22.2421875 C25.5,21.7369792 24.5729167,21.484375 23.5625,21.484375 C22.5416667,21.484375 21.609375,21.7369792 20.765625,22.2421875 C19.921875,22.7473958 19.2473958,23.421875 18.7421875,24.265625 C18.2369792,25.109375 17.984375,26.0364583 17.984375,27.046875 C17.984375,28.0572917 18.2395833,28.9869792 18.75,29.8359375 C19.2604167,30.6848958 19.9375,31.3619792 20.78125,31.8671875 C21.625,32.3723958 22.5520833,32.625 23.5625,32.625 Z M11.5625,29.375 C11.1458333,29.375 10.7630208,29.2682292 10.4140625,29.0546875 C10.0651042,28.8411458 9.78385417,28.5572917 9.5703125,28.203125 C9.35677083,27.8489583 9.25,27.4635417 9.25,27.046875 C9.25,26.6302083 9.35416667,26.2473958 9.5625,25.8984375 C9.77083333,25.5494792 10.0520833,25.2682292 10.40625,25.0546875 C10.7604167,24.8411458 11.1458333,24.734375 11.5625,24.734375 C11.9791667,24.734375 12.3645833,24.8411458 12.71875,25.0546875 C13.0729167,25.2682292 13.3567708,25.5494792 13.5703125,25.8984375 C13.7838542,26.2473958 13.890625,26.6302083 13.890625,27.046875 C13.890625,27.4635417 13.7838542,27.8489583 13.5703125,28.203125 C13.3567708,28.5572917 13.0729167,28.8411458 12.71875,29.0546875 C12.3645833,29.2682292 11.9791667,29.375 11.5625,29.375 Z M23.5625,29.375 C23.1458333,29.375 22.7604167,29.2682292 22.40625,29.0546875 C22.0520833,28.8411458 21.7682292,28.5572917 21.5546875,28.203125 C21.3411458,27.8489583 21.234375,27.4635417 21.234375,27.046875 C21.234375,26.6302083 21.3411458,26.2473958 21.5546875,25.8984375 C21.7682292,25.5494792 22.0520833,25.2682292 22.40625,25.0546875 C22.7604167,24.8411458 23.1458333,24.734375 23.5625,24.734375 C23.9791667,24.734375 24.3619792,24.8411458 24.7109375,25.0546875 C25.0598958,25.2682292 25.3411458,25.5494792 25.5546875,25.8984375 C25.7682292,26.2473958 25.875,26.6302083 25.875,27.046875 C25.875,27.4635417 25.7682292,27.8489583 25.5546875,28.203125 C25.3411458,28.5572917 25.0572917,28.8411458 24.703125,29.0546875 C24.3489583,29.2682292 23.96875,29.375 23.5625,29.375 Z" id="􀬎-copy" fill="#FFFFFF"></path>
                <path d="M51.9375,27.75 L51.9375,5 L48,5 L48,27.75 L51.9375,27.75 Z M60.171875,27.75 L60.171875,15.71875 C60.921875,14.3333333 62.0625,13.640625 63.59375,13.640625 C64.6458333,13.640625 65.4036458,13.8984375 65.8671875,14.4140625 C66.3307292,14.9296875 66.5625,15.7239583 66.5625,16.796875 L66.5625,16.796875 L66.5625,27.75 L70.359375,27.75 L70.359375,16.578125 C70.296875,12.546875 68.5052083,10.53125 64.984375,10.53125 C62.953125,10.53125 61.3125,11.2864583 60.0625,12.796875 L60.0625,12.796875 L59.953125,10.84375 L56.375,10.84375 L56.375,27.75 L60.171875,27.75 Z M80.59375,28.0625 C82.6354167,28.0625 84.2864583,27.5911458 85.546875,26.6484375 C86.8072917,25.7057292 87.4375,24.4739583 87.4375,22.953125 C87.4375,22.046875 87.2317708,21.2760417 86.8203125,20.640625 C86.4088542,20.0052083 85.7786458,19.4609375 84.9296875,19.0078125 C84.0807292,18.5546875 82.9114583,18.1640625 81.421875,17.8359375 C79.9322917,17.5078125 78.9427083,17.1822917 78.453125,16.859375 C77.9635417,16.5364583 77.71875,16.0833333 77.71875,15.5 C77.71875,14.8541667 77.9817708,14.3385417 78.5078125,13.953125 C79.0338542,13.5677083 79.7135417,13.375 80.546875,13.375 C81.4427083,13.375 82.1614583,13.6171875 82.703125,14.1015625 C83.2447917,14.5859375 83.515625,15.1927083 83.515625,15.921875 L83.515625,15.921875 L87.3125,15.921875 C87.3125,14.328125 86.6901042,13.03125 85.4453125,12.03125 C84.2005208,11.03125 82.5677083,10.53125 80.546875,10.53125 C78.6510417,10.53125 77.0885417,11.0208333 75.859375,12 C74.6302083,12.9791667 74.015625,14.1979167 74.015625,15.65625 C74.015625,17.3958333 74.9635417,18.7239583 76.859375,19.640625 C77.7239583,20.0572917 78.8020833,20.4010417 80.09375,20.671875 C81.3854167,20.9427083 82.3098958,21.2552083 82.8671875,21.609375 C83.4244792,21.9635417 83.703125,22.4791667 83.703125,23.15625 C83.703125,23.7708333 83.4427083,24.2682292 82.921875,24.6484375 C82.4010417,25.0286458 81.640625,25.21875 80.640625,25.21875 C79.609375,25.21875 78.78125,24.9765625 78.15625,24.4921875 C77.53125,24.0078125 77.1927083,23.3177083 77.140625,22.421875 L77.140625,22.421875 L73.453125,22.421875 C73.453125,23.4322917 73.7552083,24.375 74.359375,25.25 C74.9635417,26.125 75.8072917,26.8125 76.890625,27.3125 C77.9739583,27.8125 79.2083333,28.0625 80.59375,28.0625 Z M96.078125,28.0625 C96.8802083,28.0625 97.7135417,27.9427083 98.578125,27.703125 L98.578125,27.703125 L98.578125,24.765625 C98.1302083,24.8697917 97.6875,24.921875 97.25,24.921875 C96.59375,24.921875 96.1380208,24.7786458 95.8828125,24.4921875 C95.6276042,24.2057292 95.5,23.7395833 95.5,23.09375 L95.5,23.09375 L95.5,13.65625 L98.484375,13.65625 L98.484375,10.84375 L95.5,10.84375 L95.5,6.734375 L91.703125,6.734375 L91.703125,10.84375 L88.921875,10.84375 L88.921875,13.65625 L91.703125,13.65625 L91.703125,23.234375 C91.703125,26.453125 93.1614583,28.0625 96.078125,28.0625 Z M106.609375,28.0625 C108.359375,28.0625 109.838542,27.4322917 111.046875,26.171875 C111.171875,26.9010417 111.317708,27.4270833 111.484375,27.75 L111.484375,27.75 L115.359375,27.75 L115.359375,27.484375 C114.932292,26.578125 114.71875,25.3645833 114.71875,23.84375 L114.71875,23.84375 L114.71875,16.21875 C114.6875,14.4166667 114.083333,13.0182292 112.90625,12.0234375 C111.729167,11.0286458 110.151042,10.53125 108.171875,10.53125 C106.869792,10.53125 105.690104,10.7604167 104.632812,11.21875 C103.575521,11.6770833 102.739583,12.3098958 102.125,13.1171875 C101.510417,13.9244792 101.203125,14.7916667 101.203125,15.71875 L101.203125,15.71875 L105,15.71875 C105,15.0520833 105.276042,14.5026042 105.828125,14.0703125 C106.380208,13.6380208 107.088542,13.421875 107.953125,13.421875 C108.953125,13.421875 109.697917,13.6848958 110.1875,14.2109375 C110.677083,14.7369792 110.921875,15.4375 110.921875,16.3125 L110.921875,16.3125 L110.921875,17.421875 L108.59375,17.421875 C106.104167,17.421875 104.190104,17.9036458 102.851562,18.8671875 C101.513021,19.8307292 100.84375,21.2135417 100.84375,23.015625 C100.84375,24.4427083 101.380208,25.640625 102.453125,26.609375 C103.526042,27.578125 104.911458,28.0625 106.609375,28.0625 Z M107.3125,25.015625 C106.5,25.015625 105.851562,24.7994792 105.367188,24.3671875 C104.882812,23.9348958 104.640625,23.3541667 104.640625,22.625 C104.640625,21.7291667 104.994792,21.0364583 105.703125,20.546875 C106.411458,20.0572917 107.46875,19.8125 108.875,19.8125 L108.875,19.8125 L110.921875,19.8125 L110.921875,23 C110.588542,23.6145833 110.091146,24.1041667 109.429688,24.46875 C108.768229,24.8333333 108.0625,25.015625 107.3125,25.015625 Z M125.609375,27.75 C127.661458,27.75 129.481771,27.3072917 131.070312,26.421875 C132.658854,25.5364583 133.882812,24.2760417 134.742188,22.640625 C135.601562,21.0052083 136.03125,19.109375 136.03125,16.953125 L136.03125,16.953125 L136.03125,15.8125 C136.03125,13.6875 135.604167,11.8020833 134.75,10.15625 C133.895833,8.51041667 132.690104,7.23958333 131.132812,6.34375 C129.575521,5.44791667 127.791667,5 125.78125,5 L125.78125,5 L119.0625,5 L119.0625,27.75 L125.609375,27.75 Z M125.59375,24.59375 L123.015625,24.59375 L123.015625,8.1875 L125.78125,8.1875 C127.822917,8.1875 129.380208,8.83854167 130.453125,10.140625 C131.526042,11.4427083 132.0625,13.328125 132.0625,15.796875 L132.0625,15.796875 L132.0625,17.0625 C132.041667,19.4895833 131.476562,21.3515625 130.367188,22.6484375 C129.257812,23.9453125 127.666667,24.59375 125.59375,24.59375 L125.59375,24.59375 Z M143.921875,27.75 L143.921875,18.984375 L148.328125,18.984375 L152.890625,27.75 L157.125,27.75 L157.125,27.546875 L152.015625,18.0625 C153.328125,17.5104167 154.351562,16.7213542 155.085938,15.6953125 C155.820312,14.6692708 156.1875,13.3958333 156.1875,11.875 C156.1875,9.64583333 155.473958,7.94270833 154.046875,6.765625 C152.619792,5.58854167 150.59375,5 147.96875,5 L147.96875,5 L139.96875,5 L139.96875,27.75 L143.921875,27.75 Z M147.984375,15.8125 L143.921875,15.8125 L143.921875,8.1875 L148.09375,8.1875 C149.46875,8.20833333 150.502604,8.55208333 151.195312,9.21875 C151.888021,9.88541667 152.234375,10.828125 152.234375,12.046875 C152.234375,13.2135417 151.859375,14.1328125 151.109375,14.8046875 C150.359375,15.4765625 149.317708,15.8125 147.984375,15.8125 L147.984375,15.8125 Z" id="InstaDR" fill="#222222"></path>
            </g>
        </g>
    </g>
</svg>