<?xml version="1.0" encoding="UTF-8"?>
<svg width="75px" height="75px" viewBox="0 0 75 75" version="1.1" xmlns="http://www.w3.org/2000/svg" xmlns:xlink="http://www.w3.org/1999/xlink">
    <title>Group 8</title>
    <g id="Icons" stroke="none" stroke-width="1" fill="none" fill-rule="evenodd">
        <g id="Desktop-HD" transform="translate(-25.000000, -803.000000)">
            <g id="Group-8" transform="translate(25.000000, 803.000000)">
                <rect id="Rectangle" fill="#0080FF" x="0" y="0" width="75" height="75" rx="16"></rect>
                <path d="M29.7212317,30.2061192 C31.1086012,30.2061192 32.3792119,29.862711 33.5330637,29.1758944 C34.6869156,28.4890778 35.6072498,27.5687435 36.2940664,26.4148917 C36.980883,25.2610398 37.3242913,23.9972973 37.3242913,22.6236641 C37.3242913,21.2362946 36.980883,19.9656839 36.2940664,18.8118321 C35.6072498,17.6579802 34.6869156,16.7342119 33.5330637,16.0405271 C32.3792119,15.3468424 31.1086012,15 29.7212317,15 C28.3338622,15 27.0666856,15.3468424 25.9197019,16.0405271 C24.7727182,16.7342119 23.8523839,17.6579802 23.1586992,18.8118321 C22.4650144,19.9656839 22.1181721,21.2362946 22.1181721,22.6236641 C22.1181721,23.9972973 22.4650144,25.2610398 23.1586992,26.4148917 C23.8523839,27.5687435 24.7727182,28.4890778 25.9197019,29.1758944 C27.0666856,29.862711 28.3338622,30.2061192 29.7212317,30.2061192 Z M45.9575758,30.2061192 C47.3449453,30.2061192 48.6121219,29.862711 49.7591056,29.1758944 C50.9060893,28.4890778 51.8229895,27.5721776 52.5098061,26.4251939 C53.1966226,25.2782102 53.5400309,24.0110336 53.5400309,22.6236641 C53.5400309,21.2362946 53.1966226,19.9656839 52.5098061,18.8118321 C51.8229895,17.6579802 50.9026552,16.7342119 49.7488034,16.0405271 C48.5949515,15.3468424 47.331209,15 45.9575758,15 C44.5702063,15 43.2995956,15.3468424 42.1457438,16.0405271 C40.9918919,16.7342119 40.0681236,17.6579802 39.3744388,18.8118321 C38.6807541,19.9656839 38.3339117,21.2362946 38.3339117,22.6236641 C38.3339117,23.9972973 38.6807541,25.2610398 39.3744388,26.4148917 C40.0681236,27.5687435 40.9918919,28.4890778 42.1457438,29.1758944 C43.2995956,29.862711 44.5702063,30.2061192 45.9575758,30.2061192 Z M29.7212317,25.3640623 C29.2267237,25.3640623 28.7699907,25.2370012 28.3510326,24.9828791 C27.9320745,24.728757 27.5955343,24.3956509 27.3414122,23.983561 C27.0872901,23.571471 26.960229,23.1181721 26.960229,22.6236641 C26.960229,22.1291562 27.0872901,21.6689891 27.3414122,21.2431628 C27.5955343,20.8173365 27.9320745,20.4773623 28.3510326,20.2232401 C28.7699907,19.969118 29.2267237,19.8420569 29.7212317,19.8420569 C30.2157396,19.8420569 30.6724727,19.969118 31.0914308,20.2232401 C31.5103889,20.4773623 31.846929,20.8173365 32.1010512,21.2431628 C32.3551733,21.6689891 32.4822344,22.1291562 32.4822344,22.6236641 C32.4822344,23.1181721 32.3551733,23.571471 32.1010512,23.983561 C31.846929,24.3956509 31.5103889,24.728757 31.0914308,24.9828791 C30.6724727,25.2370012 30.2157396,25.3640623 29.7212317,25.3640623 Z M45.9575758,25.3640623 C45.4630679,25.3640623 45.0029008,25.2370012 44.5770745,24.9828791 C44.1512482,24.728757 43.811274,24.3956509 43.5571518,23.983561 C43.3030297,23.571471 43.1759686,23.1181721 43.1759686,22.6236641 C43.1759686,22.1291562 43.3030297,21.6689891 43.5571518,21.2431628 C43.811274,20.8173365 44.1512482,20.4773623 44.5770745,20.2232401 C45.0029008,19.969118 45.4630679,19.8420569 45.9575758,19.8420569 C46.4383474,19.8420569 46.8882123,19.969118 47.3071704,20.2232401 C47.7261285,20.4773623 48.0626687,20.8173365 48.3167908,21.2431628 C48.5709129,21.6689891 48.697974,22.1291562 48.697974,22.6236641 C48.697974,23.1181721 48.574347,23.571471 48.327093,23.983561 C48.0798391,24.3956509 47.746733,24.728757 47.3277749,24.9828791 C46.9088168,25.2370012 46.4520838,25.3640623 45.9575758,25.3640623 Z M21.6236641,44.7322901 C23.0110336,44.7322901 24.2816443,44.3888818 25.4354962,43.7020652 C26.589348,43.0152486 27.5131164,42.0949144 28.2068011,40.9410625 C28.9004859,39.7872106 29.2473282,38.5234681 29.2473282,37.1498349 C29.2473282,35.7624654 28.9004859,34.4918548 28.2068011,33.3380029 C27.5131164,32.184151 26.589348,31.2638168 25.4354962,30.5770002 C24.2816443,29.8901836 23.0110336,29.5467753 21.6236641,29.5467753 C20.2362946,29.5467753 18.9656839,29.8901836 17.8118321,30.5770002 C16.6579802,31.2638168 15.7342119,32.184151 15.0405271,33.3380029 C14.3468424,34.4918548 14,35.7624654 14,37.1498349 C14,38.5372045 14.3468424,39.8043811 15.0405271,40.9513648 C15.7342119,42.0983485 16.6579802,43.0152486 17.8118321,43.7020652 C18.9656839,44.3888818 20.2362946,44.7322901 21.6236641,44.7322901 Z M54.0551434,44.7322901 C55.4425129,44.7322901 56.7131236,44.3888818 57.8669754,43.7020652 C59.0208273,43.0152486 59.9411615,42.0949144 60.6279781,40.9410625 C61.3147947,39.7872106 61.658203,38.5234681 61.658203,37.1498349 C61.658203,35.7624654 61.3147947,34.4918548 60.6279781,33.3380029 C59.9411615,32.184151 59.0208273,31.2638168 57.8669754,30.5770002 C56.7131236,29.8901836 55.4425129,29.5467753 54.0551434,29.5467753 C52.6677739,29.5467753 51.3971632,29.8901836 50.2433113,30.5770002 C49.0894595,31.2638168 48.1656911,32.184151 47.4720064,33.3380029 C46.7783216,34.4918548 46.4314793,35.7624654 46.4314793,37.1498349 C46.4314793,38.5234681 46.7783216,39.7872106 47.4720064,40.9410625 C48.1656911,42.0949144 49.0894595,43.0152486 50.2433113,43.7020652 C51.3971632,44.3888818 52.6677739,44.7322901 54.0551434,44.7322901 Z M21.6236641,39.8902331 C21.1154198,39.8902331 20.6518186,39.7666061 20.2328605,39.5193522 C19.8139024,39.2720982 19.4773623,38.9389922 19.2232401,38.520034 C18.969118,38.1010759 18.8420569,37.6443429 18.8420569,37.1498349 C18.8420569,36.655327 18.969118,36.198594 19.2232401,35.7796359 C19.4773623,35.3606777 19.8173365,35.0241376 20.2431628,34.7700155 C20.6689891,34.5158933 21.1291562,34.3888323 21.6236641,34.3888323 C22.1181721,34.3888323 22.5749051,34.5158933 22.9938632,34.7700155 C23.4128213,35.0241376 23.7527955,35.3606777 24.0137858,35.7796359 C24.2747761,36.198594 24.4052713,36.655327 24.4052713,37.1498349 C24.4052713,37.6443429 24.2747761,38.1010759 24.0137858,38.520034 C23.7527955,38.9389922 23.4128213,39.2720982 22.9938632,39.5193522 C22.5749051,39.7666061 22.1181721,39.8902331 21.6236641,39.8902331 Z M54.0551434,39.8902331 C53.5606354,39.8902331 53.1039024,39.7666061 52.6849443,39.5193522 C52.2659862,39.2720982 51.926012,38.9389922 51.6650217,38.520034 C51.4040314,38.1010759 51.2735362,37.6443429 51.2735362,37.1498349 C51.2735362,36.655327 51.4040314,36.198594 51.6650217,35.7796359 C51.926012,35.3606777 52.2659862,35.0241376 52.6849443,34.7700155 C53.1039024,34.5158933 53.5606354,34.3888323 54.0551434,34.3888323 C54.5496513,34.3888323 55.0063844,34.5158933 55.4253425,34.7700155 C55.8443006,35.0241376 56.1808407,35.3606777 56.4349629,35.7796359 C56.689085,36.198594 56.8161461,36.655327 56.8161461,37.1498349 C56.8161461,37.6443429 56.689085,38.1010759 56.4349629,38.520034 C56.1808407,38.9389922 55.8443006,39.2720982 55.4253425,39.5193522 C55.0063844,39.7666061 54.5496513,39.8902331 54.0551434,39.8902331 Z M29.7212317,59.2996699 C31.1086012,59.2996699 32.3792119,58.9528275 33.5330637,58.2591428 C34.6869156,57.565458 35.6072498,56.6416897 36.2940664,55.4878378 C36.980883,54.333986 37.3242913,53.0565071 37.3242913,51.6554013 C37.3242913,50.2817681 36.980883,49.0180256 36.2940664,47.8641737 C35.6072498,46.7103218 34.6869156,45.7899876 33.5330637,45.103171 C32.3792119,44.4163544 31.1086012,44.0729461 29.7212317,44.0729461 C28.3338622,44.0729461 27.0632515,44.4163544 25.9093996,45.103171 C24.7555478,45.7899876 23.8352135,46.7103218 23.1483969,47.8641737 C22.4615804,49.0180256 22.1181721,50.2817681 22.1181721,51.6554013 C22.1181721,53.0565071 22.4650144,54.333986 23.1586992,55.4878378 C23.8523839,56.6416897 24.7727182,57.565458 25.9197019,58.2591428 C27.0666856,58.9528275 28.3338622,59.2996699 29.7212317,59.2996699 Z M45.9575758,59.2996699 C47.331209,59.2996699 48.5949515,58.9528275 49.7488034,58.2591428 C50.9026552,57.565458 51.8229895,56.6416897 52.5098061,55.4878378 C53.1966226,54.333986 53.5400309,53.0565071 53.5400309,51.6554013 C53.5400309,50.2817681 53.1966226,49.0180256 52.5098061,47.8641737 C51.8229895,46.7103218 50.9060893,45.7899876 49.7591056,45.103171 C48.6121219,44.4163544 47.3449453,44.0729461 45.9575758,44.0729461 C44.5702063,44.0729461 43.2995956,44.4163544 42.1457438,45.103171 C40.9918919,45.7899876 40.0681236,46.7103218 39.3744388,47.8641737 C38.6807541,49.0180256 38.3339117,50.2817681 38.3339117,51.6554013 C38.3339117,53.0565071 38.6807541,54.333986 39.3744388,55.4878378 C40.0681236,56.6416897 40.9918919,57.565458 42.1457438,58.2591428 C43.2995956,58.9528275 44.5702063,59.2996699 45.9575758,59.2996699 Z M29.7212317,54.4576129 C29.2267237,54.4576129 28.7699907,54.3305519 28.3510326,54.0764297 C27.9320745,53.8223076 27.5955343,53.4823334 27.3414122,53.0565071 C27.0872901,52.6306808 26.960229,52.1636455 26.960229,51.6554013 C26.960229,51.1608933 27.0872901,50.7075944 27.3414122,50.2955044 C27.5955343,49.8834145 27.9320745,49.5503084 28.3510326,49.2961863 C28.7699907,49.0420642 29.2267237,48.9150031 29.7212317,48.9150031 C30.2157396,48.9150031 30.6724727,49.0420642 31.0914308,49.2961863 C31.5103889,49.5503084 31.846929,49.8834145 32.1010512,50.2955044 C32.3551733,50.7075944 32.4822344,51.1608933 32.4822344,51.6554013 C32.4822344,52.1636455 32.3551733,52.6306808 32.1010512,53.0565071 C31.846929,53.4823334 31.5103889,53.8223076 31.0914308,54.0764297 C30.6724727,54.3305519 30.2157396,54.4576129 29.7212317,54.4576129 Z M45.9575758,54.4576129 C45.4630679,54.4576129 45.0029008,54.3305519 44.5770745,54.0764297 C44.1512482,53.8223076 43.811274,53.4823334 43.5571518,53.0565071 C43.3030297,52.6306808 43.1759686,52.1636455 43.1759686,51.6554013 C43.1759686,51.1608933 43.3030297,50.7075944 43.5571518,50.2955044 C43.811274,49.8834145 44.1512482,49.5503084 44.5770745,49.2961863 C45.0029008,49.0420642 45.4630679,48.9150031 45.9575758,48.9150031 C46.4520838,48.9150031 46.9088168,49.0420642 47.3277749,49.2961863 C47.746733,49.5503084 48.0798391,49.8834145 48.327093,50.2955044 C48.574347,50.7075944 48.697974,51.1608933 48.697974,51.6554013 C48.697974,52.1636455 48.5709129,52.6306808 48.3167908,53.0565071 C48.0626687,53.4823334 47.7261285,53.8223076 47.3071704,54.0764297 C46.8882123,54.3305519 46.4383474,54.4576129 45.9575758,54.4576129 Z" id="􀬎" fill="#FFFFFF" fill-rule="nonzero"></path>
            </g>
        </g>
    </g>
</svg>