<?xml version="1.0" encoding="UTF-8"?>
<svg width="20px" height="24px" viewBox="0 0 20 24" version="1.1" xmlns="http://www.w3.org/2000/svg" xmlns:xlink="http://www.w3.org/1999/xlink">
    <title>􀳼</title>
    <g id="Dashboard---doctors--webapp" stroke="none" stroke-width="1" fill="none" fill-rule="evenodd">
        <g id="Dashboard-Copy" transform="translate(-775.000000, -749.000000)" fill="#222222" fill-rule="nonzero">
            <path d="M791.152344,772.949219 C792.324219,772.949219 793.205078,772.650391 793.794922,772.052734 C794.384766,771.455078 794.679688,770.566406 794.679688,769.386719 L794.679688,752.617188 C794.679688,751.4375 794.384766,750.546875 793.794922,749.945312 C793.205078,749.34375 792.324219,749.042969 791.152344,749.042969 L779.351562,749.042969 C778.1875,749.042969 777.308594,749.34375 776.714844,749.945312 C776.121094,750.546875 775.824219,751.4375 775.824219,752.617188 L775.824219,769.386719 C775.824219,770.566406 776.121094,771.455078 776.714844,772.052734 C777.308594,772.650391 778.1875,772.949219 779.351562,772.949219 L791.152344,772.949219 Z M791,770.933594 L779.503906,770.933594 C778.957031,770.933594 778.542969,770.792969 778.261719,770.511719 C777.980469,770.230469 777.839844,769.824219 777.839844,769.292969 L777.839844,752.710938 C777.839844,752.179688 777.980469,751.773438 778.261719,751.492188 C778.542969,751.210938 778.957031,751.070312 779.503906,751.070312 L791,751.070312 C791.5625,751.070312 791.982422,751.210938 792.259766,751.492188 C792.537109,751.773438 792.675781,752.179688 792.675781,752.710938 L792.675781,769.292969 C792.675781,769.824219 792.537109,770.230469 792.259766,770.511719 C791.982422,770.792969 791.5625,770.933594 791,770.933594 Z M785.591797,760.908203 C785.759766,760.841797 785.878906,760.707031 785.949219,760.503906 L786.981,756.943 L787.132812,757.585938 C787.210938,757.929688 787.421875,758.101562 787.765625,758.101562 L789.476562,758.101562 C789.640625,758.101562 789.78125,758.044922 789.898438,757.931641 C790.015625,757.818359 790.074219,757.683594 790.074219,757.527344 C790.074219,757.355469 790.017578,757.214844 789.904297,757.105469 C789.791016,756.996094 789.648438,756.941406 789.476562,756.941406 L788.132,756.942 L787.566406,754.773438 C787.519531,754.578125 787.416016,754.447266 787.255859,754.380859 C787.095703,754.314453 786.935547,754.318359 786.775391,754.392578 C786.615234,754.466797 786.5,754.601562 786.429688,754.796875 L785.437,758.036 L784.472656,753.320312 C784.425781,753.109375 784.322266,752.970703 784.162109,752.904297 C784.001953,752.837891 783.839844,752.835938 783.675781,752.898438 C783.511719,752.960938 783.40625,753.097656 783.359375,753.308594 L782.478,756.942 L781.039062,756.941406 C780.867188,756.941406 780.724609,756.998047 780.611328,757.111328 C780.498047,757.224609 780.441406,757.363281 780.441406,757.527344 C780.441406,757.683594 780.498047,757.818359 780.611328,757.931641 C780.724609,758.044922 780.867188,758.101562 781.039062,758.101562 L782.867188,758.101562 C783.203125,758.101562 783.414062,757.941406 783.5,757.621094 L783.886,756.077 L784.789062,760.492188 C784.835938,760.695312 784.939453,760.832031 785.099609,760.902344 C785.259766,760.972656 785.423828,760.974609 785.591797,760.908203 Z M789.382812,763.914062 C789.578125,763.914062 789.742188,763.84375 789.875,763.703125 C790.007812,763.5625 790.074219,763.398438 790.074219,763.210938 C790.074219,763.015625 790.007812,762.851562 789.875,762.71875 C789.742188,762.585938 789.578125,762.519531 789.382812,762.519531 L781.15625,762.519531 C780.945312,762.519531 780.773438,762.585938 780.640625,762.71875 C780.507812,762.851562 780.441406,763.015625 780.441406,763.210938 C780.441406,763.398438 780.507812,763.5625 780.640625,763.703125 C780.773438,763.84375 780.945312,763.914062 781.15625,763.914062 L789.382812,763.914062 Z M785.09375,767.734375 C785.289062,767.734375 785.455078,767.667969 785.591797,767.535156 C785.728516,767.402344 785.796875,767.238281 785.796875,767.042969 C785.796875,766.855469 785.728516,766.691406 785.591797,766.550781 C785.455078,766.410156 785.289062,766.339844 785.09375,766.339844 L781.15625,766.339844 C780.945312,766.339844 780.773438,766.410156 780.640625,766.550781 C780.507812,766.691406 780.441406,766.855469 780.441406,767.042969 C780.441406,767.238281 780.507812,767.402344 780.640625,767.535156 C780.773438,767.667969 780.945312,767.734375 781.15625,767.734375 L785.09375,767.734375 Z" id="􀳼"></path>
        </g>
    </g>
</svg>