<?xml version="1.0" encoding="UTF-8"?>
<svg width="24px" height="21px" viewBox="0 0 24 21" version="1.1" xmlns="http://www.w3.org/2000/svg" xmlns:xlink="http://www.w3.org/1999/xlink">
    <title>􀆨</title>
    <g id="Webapp" stroke="none" stroke-width="1" fill="none" fill-rule="evenodd">
        <g id="Appointments-and-Video-Calling" transform="translate(-1581.000000, -27.000000)" fill="#FD6250" fill-rule="nonzero">
            <path d="M1592.62605,37.9658203 C1592.94126,37.9658203 1593.19343,37.8786621 1593.38256,37.7043457 C1593.57169,37.5300293 1593.66625,37.3027344 1593.66625,37.0224609 L1593.66625,28.4091797 C1593.66625,28.1289062 1593.57169,27.8999023 1593.38256,27.722168 C1593.19343,27.5444336 1592.94126,27.4555664 1592.62605,27.4555664 C1592.31872,27.4555664 1592.06852,27.5444336 1591.87545,27.722168 C1591.68238,27.8999023 1591.58585,28.1289062 1591.58585,28.4091797 L1591.58585,37.0224609 C1591.58585,37.3027344 1591.68238,37.5300293 1591.87545,37.7043457 C1592.06852,37.8786621 1592.31872,37.9658203 1592.62605,37.9658203 Z M1592.62605,47.9633789 C1594.20211,47.9633789 1595.68361,47.7019043 1597.07055,47.1789551 C1598.45749,46.6560059 1599.67893,45.9365234 1600.7349,45.0205078 C1601.79086,44.1044922 1602.61829,43.0466309 1603.2172,41.8469238 C1603.8161,40.6472168 1604.11555,39.3637695 1604.11555,37.996582 C1604.11555,37.012207 1603.95992,36.0791016 1603.64864,35.1972656 C1603.33737,34.3154297 1602.90789,33.4985352 1602.36021,32.746582 C1601.81253,31.9946289 1601.18408,31.3349609 1600.47485,30.7675781 C1600.26208,30.5966797 1600.04143,30.4992676 1599.8129,30.4753418 C1599.58437,30.451416 1599.37751,30.4838867 1599.19233,30.5727539 C1599.00714,30.6616211 1598.86332,30.7880859 1598.76088,30.9521484 C1598.65843,31.1162109 1598.62297,31.2956543 1598.65449,31.4904785 C1598.68601,31.6853027 1598.80816,31.878418 1599.02093,32.0698242 C1599.94293,32.8081055 1600.66988,33.6865234 1601.20181,34.7050781 C1601.73373,35.7236328 1601.99969,36.8208008 1601.99969,37.996582 C1602.00757,39.1245117 1601.76722,40.1806641 1601.27864,41.1650391 C1600.79006,42.1494141 1600.12023,43.0124512 1599.26916,43.7541504 C1598.41808,44.4958496 1597.42516,45.0769043 1596.2904,45.4973145 C1595.15563,45.9177246 1593.93418,46.1279297 1592.62605,46.1279297 C1591.33368,46.1279297 1590.12011,45.9177246 1588.98534,45.4973145 C1587.85058,45.0769043 1586.85569,44.4958496 1586.00067,43.7541504 C1585.14566,43.0124512 1584.4778,42.1494141 1583.9971,41.1650391 C1583.5164,40.1806641 1583.27606,39.1245117 1583.27606,37.996582 C1583.27606,36.8139648 1583.54202,35.7133789 1584.07394,34.6948242 C1584.60586,33.6762695 1585.32888,32.7978516 1586.24299,32.0595703 C1586.45576,31.8681641 1586.57988,31.6750488 1586.61534,31.4802246 C1586.6508,31.2854004 1586.61731,31.105957 1586.51487,30.9418945 C1586.41242,30.777832 1586.26664,30.6513672 1586.07751,30.5625 C1585.88838,30.4736328 1585.67955,30.4411621 1585.45102,30.4650879 C1585.22249,30.4890137 1585.00184,30.5864258 1584.78908,30.7573242 C1584.07985,31.324707 1583.44942,31.984375 1582.8978,32.7363281 C1582.34618,33.4882812 1581.91473,34.3068848 1581.60346,35.1921387 C1581.29219,36.0773926 1581.13655,37.012207 1581.13655,37.996582 C1581.13655,39.3637695 1581.43797,40.6472168 1582.04082,41.8469238 C1582.64366,43.0466309 1583.47306,44.1044922 1584.52903,45.0205078 C1585.58499,45.9365234 1586.80644,46.6560059 1588.19337,47.1789551 C1589.58031,47.7019043 1591.05787,47.9633789 1592.62605,47.9633789 Z" id="􀆨" transform="translate(1592.626051, 37.709473) scale(-1, 1) translate(-1592.626051, -37.709473) "></path>
        </g>
    </g>
</svg>