<?xml version="1.0" encoding="UTF-8"?>
<svg width="42px" height="42px" viewBox="0 0 42 42" version="1.1" xmlns="http://www.w3.org/2000/svg" xmlns:xlink="http://www.w3.org/1999/xlink">
    <title>mic-off</title>
    <g id="Page-1" stroke="none" stroke-width="1" fill="none" fill-rule="evenodd">
        <g id="mic-off">
            <circle id="Oval" fill="#FFFFFF" cx="21" cy="21" r="21"></circle>
            <path d="M24.565918,21.2275391 C24.6206055,20.9404297 24.6479492,20.6533203 24.6479492,20.3662109 L24.6479492,13.7729492 C24.6479492,13.034668 24.5009766,12.380127 24.2070312,11.8093262 C23.9130859,11.2385254 23.5029297,10.7890625 22.9765625,10.4609375 C22.4501953,10.1328125 21.8349609,9.96875 21.1308594,9.96875 C20.4677734,9.96875 19.8833008,10.1157227 19.3774414,10.409668 C18.871582,10.7036133 18.4682617,11.1086426 18.1674805,11.6247559 C17.8666992,12.1408691 17.6889648,12.7338867 17.6342773,13.4038086 L17.6342773,14.3164062 L18.8032227,15.4750977 L18.8032227,13.7729492 C18.8032227,13.0004883 19.0151367,12.3681641 19.4389648,11.8759766 C19.862793,11.3837891 20.4267578,11.1376953 21.1308594,11.1376953 C21.8349609,11.1376953 22.3989258,11.3837891 22.8227539,11.8759766 C23.246582,12.3681641 23.4584961,13.0004883 23.4584961,13.7729492 L23.4584961,19.7099609 C23.4584961,19.7783203 23.4550781,19.8432617 23.4482422,19.9047852 C23.4414062,19.9663086 23.4345703,20.027832 23.4277344,20.0893555 L24.565918,21.2275391 Z M29.0878906,28.784668 C29.2587891,28.784668 29.4023438,28.7265625 29.5185547,28.6103516 C29.6347656,28.4873047 29.6928711,28.342041 29.6928711,28.1745605 C29.6928711,28.0070801 29.6347656,27.8652344 29.5185547,27.7490234 L14.0043945,12.2451172 C13.8813477,12.1289062 13.736084,12.0708008 13.5686035,12.0708008 C13.401123,12.0708008 13.2558594,12.1289062 13.1328125,12.2451172 C13.0166016,12.3613281 12.9584961,12.5065918 12.9584961,12.6809082 C12.9584961,12.8552246 13.0166016,12.9970703 13.1328125,13.1064453 L28.6572266,28.6103516 C28.7734375,28.7265625 28.9169922,28.784668 29.0878906,28.784668 Z M25.7143555,31.6352539 C25.878418,31.6352539 26.0185547,31.5754395 26.1347656,31.4558105 C26.2509766,31.3361816 26.309082,31.1977539 26.309082,31.0405273 C26.309082,30.8696289 26.2509766,30.7260742 26.1347656,30.6098633 C26.0185547,30.4936523 25.878418,30.4355469 25.7143555,30.4355469 L21.725,30.436 L21.725,27.637 L21.8788249,27.6265462 C22.3656955,27.5862901 22.8290202,27.505778 23.2687988,27.3850098 C23.9284668,27.2038574 24.5283203,26.9458008 25.0683594,26.6108398 L24.2172852,25.7597656 C23.793457,26.0058594 23.3234863,26.1938477 22.807373,26.3237305 C22.2912598,26.4536133 21.7324219,26.5185547 21.1308594,26.5185547 C19.9482422,26.5185547 18.9160156,26.2758789 18.0341797,25.7905273 C17.1523438,25.3051758 16.472168,24.626709 15.9936523,23.755127 C15.5151367,22.8835449 15.2758789,21.8735352 15.2758789,20.7250977 L15.2758789,18.7563477 C15.2758789,18.5991211 15.2177734,18.4606934 15.1015625,18.3410645 C14.9853516,18.2214355 14.8417969,18.1616211 14.6708984,18.1616211 C14.5068359,18.1616211 14.3684082,18.2214355 14.2556152,18.3410645 C14.1428223,18.4606934 14.0864258,18.5991211 14.0864258,18.7563477 L14.0864258,20.7661133 C14.0864258,21.784668 14.2539062,22.7160645 14.5888672,23.5603027 C14.9238281,24.404541 15.4040527,25.1308594 16.029541,25.7392578 C16.6550293,26.3476562 17.4001465,26.8193359 18.2648926,27.1542969 C18.9134521,27.4055176 19.6129608,27.5625305 20.3634186,27.6253357 L20.536,27.636 L20.536,30.436 L16.5473633,30.4355469 C16.3833008,30.4355469 16.2431641,30.4936523 16.1269531,30.6098633 C16.0107422,30.7260742 15.9526367,30.8696289 15.9526367,31.0405273 C15.9526367,31.1977539 16.0107422,31.3361816 16.1269531,31.4558105 C16.2431641,31.5754395 16.3833008,31.6352539 16.5473633,31.6352539 L25.7143555,31.6352539 Z M27.4267578,24.0883789 C27.9326172,23.097168 28.1855469,21.9897461 28.1855469,20.7661133 L28.1855469,18.7563477 C28.1855469,18.5991211 28.1274414,18.4606934 28.0112305,18.3410645 C27.8950195,18.2214355 27.7548828,18.1616211 27.5908203,18.1616211 C27.4267578,18.1616211 27.2866211,18.2214355 27.1704102,18.3410645 C27.0541992,18.4606934 26.9960938,18.5991211 26.9960938,18.7563477 L26.9960938,20.7250977 C26.9960938,21.6137695 26.8354492,22.4306641 26.5141602,23.1757812 L27.4267578,24.0883789 Z M21.1308594,24.1704102 C21.5751953,24.1704102 21.9921875,24.0883789 22.3818359,23.9243164 L21.2128906,22.7553711 C21.0556641,22.8442383 20.8642578,22.8886719 20.6386719,22.8886719 C20.1601562,22.8476562 19.7739258,22.65625 19.4799805,22.3144531 C19.1860352,21.9726562 19.0151367,21.559082 18.9672852,21.0737305 L18.9570312,20.5097656 L17.6137695,19.1665039 L17.6137695,20.3662109 C17.6137695,21.1044922 17.7607422,21.7590332 18.0546875,22.329834 C18.3486328,22.9006348 18.7587891,23.3500977 19.2851562,23.6782227 C19.8115234,24.0063477 20.4267578,24.1704102 21.1308594,24.1704102 Z" id="􀊲" fill="#222222" fill-rule="nonzero"></path>
        </g>
    </g>
</svg>