<?xml version="1.0" encoding="UTF-8"?>
<svg width="42px" height="42px" viewBox="0 0 42 42" version="1.1" xmlns="http://www.w3.org/2000/svg" xmlns:xlink="http://www.w3.org/1999/xlink">
    <title>mic-on</title>
    <g id="Page-1" stroke="none" stroke-width="1" fill="none" fill-rule="evenodd">
        <g id="mic-on">
            <circle id="Oval" fill="#FFFFFF" cx="21" cy="21" r="21"></circle>
            <path d="M21.1411133,23.1704102 C21.8383789,23.1704102 22.4519043,23.0063477 22.9816895,22.6782227 C23.5114746,22.3500977 23.9216309,21.9006348 24.2121582,21.329834 C24.5026855,20.7590332 24.6479492,20.1044922 24.6479492,19.3662109 L24.6479492,12.7729492 C24.6479492,12.034668 24.5026855,11.380127 24.2121582,10.8093262 C23.9216309,10.2385254 23.5114746,9.7890625 22.9816895,9.4609375 C22.4519043,9.1328125 21.8383789,8.96875 21.1411133,8.96875 C20.4370117,8.96875 19.8200684,9.1328125 19.2902832,9.4609375 C18.760498,9.7890625 18.3503418,10.2385254 18.0598145,10.8093262 C17.7692871,11.380127 17.6240234,12.034668 17.6240234,12.7729492 L17.6240234,19.3662109 C17.6240234,20.1044922 17.7692871,20.7590332 18.0598145,21.329834 C18.3503418,21.9006348 18.760498,22.3500977 19.2902832,22.6782227 C19.8200684,23.0063477 20.4370117,23.1704102 21.1411133,23.1704102 Z M21.1411133,22.0014648 C20.4301758,22.0014648 19.864502,21.7570801 19.4440918,21.2683105 C19.0236816,20.779541 18.8134766,20.1455078 18.8134766,19.3662109 L18.8134766,12.7729492 C18.8134766,12.0004883 19.0236816,11.3681641 19.4440918,10.8759766 C19.864502,10.3837891 20.4301758,10.1376953 21.1411133,10.1376953 C21.8452148,10.1376953 22.4074707,10.3837891 22.8278809,10.8759766 C23.248291,11.3681641 23.4584961,12.0004883 23.4584961,12.7729492 L23.4584961,19.3662109 C23.4584961,20.1455078 23.248291,20.779541 22.8278809,21.2683105 C22.4074707,21.7570801 21.8452148,22.0014648 21.1411133,22.0014648 Z M25.7143555,30.6352539 C25.8852539,30.6352539 26.0288086,30.5754395 26.1450195,30.4558105 C26.2612305,30.3361816 26.3193359,30.1977539 26.3193359,30.0405273 C26.3193359,29.8696289 26.2612305,29.7260742 26.1450195,29.6098633 C26.0288086,29.4936523 25.8852539,29.4355469 25.7143555,29.4355469 L21.735,29.436 L21.735,26.636 L21.9085541,26.6253357 C22.6590118,26.5625305 23.3585205,26.4055176 24.0070801,26.1542969 C24.8718262,25.8193359 25.6152344,25.3476562 26.2373047,24.7392578 C26.859375,24.1308594 27.3395996,23.404541 27.6779785,22.5603027 C28.0163574,21.7160645 28.1855469,20.784668 28.1855469,19.7661133 L28.1855469,17.7563477 C28.1855469,17.5991211 28.1274414,17.4606934 28.0112305,17.3410645 C27.8950195,17.2214355 27.7548828,17.1616211 27.5908203,17.1616211 C27.4267578,17.1616211 27.2866211,17.2214355 27.1704102,17.3410645 C27.0541992,17.4606934 26.9960938,17.5991211 26.9960938,17.7563477 L26.9960938,19.7250977 C26.9960938,20.8735352 26.753418,21.8835449 26.2680664,22.755127 C25.7827148,23.626709 25.1025391,24.3051758 24.2275391,24.7905273 C23.3525391,25.2758789 22.3237305,25.5185547 21.1411133,25.5185547 C19.9516602,25.5185547 18.9177246,25.2758789 18.0393066,24.7905273 C17.1608887,24.3051758 16.4807129,23.626709 15.9987793,22.755127 C15.5168457,21.8835449 15.2758789,20.8735352 15.2758789,19.7250977 L15.2758789,17.7563477 C15.2758789,17.5991211 15.2177734,17.4606934 15.1015625,17.3410645 C14.9853516,17.2214355 14.8452148,17.1616211 14.6811523,17.1616211 C14.5102539,17.1616211 14.3684082,17.2214355 14.2556152,17.3410645 C14.1428223,17.4606934 14.0864258,17.5991211 14.0864258,17.7563477 L14.0864258,19.7661133 C14.0864258,20.784668 14.2539062,21.7160645 14.5888672,22.5603027 C14.9238281,23.404541 15.4040527,24.1308594 16.029541,24.7392578 C16.6550293,25.3476562 17.4001465,25.8193359 18.2648926,26.1542969 C18.9134521,26.4055176 19.6148834,26.5625305 20.3691864,26.6253357 L20.536,26.636 L20.536,29.436 L16.5576172,29.4355469 C16.3867188,29.4355469 16.2431641,29.4936523 16.1269531,29.6098633 C16.0107422,29.7260742 15.9526367,29.8696289 15.9526367,30.0405273 C15.9526367,30.1977539 16.0107422,30.3361816 16.1269531,30.4558105 C16.2431641,30.5754395 16.3867188,30.6352539 16.5576172,30.6352539 L25.7143555,30.6352539 Z" id="􀊰" fill="#222222" fill-rule="nonzero"></path>
        </g>
    </g>
</svg>