<?xml version="1.0" encoding="UTF-8"?>
<svg width="44px" height="44px" viewBox="0 0 44 44" version="1.1" xmlns="http://www.w3.org/2000/svg" xmlns:xlink="http://www.w3.org/1999/xlink">
    <title>Group 15</title>
    <g id="Dashboard---doctors--webapp" stroke="none" stroke-width="1" fill="none" fill-rule="evenodd">
        <g id="Dashboard-Copy" transform="translate(-992.000000, -391.000000)">
            <g id="Group-15" transform="translate(992.000000, 391.000000)">
                <rect id="Rectangle-Copy-7" fill="#0080FF" x="0" y="0" width="44" height="44" rx="8"></rect>
                <path d="M21.3349609,23.7993164 C23.1147461,23.7993164 24.4111328,22.4663086 24.4111328,20.5546875 L24.4111328,16.0722656 C24.4111328,14.1679688 23.1147461,12.8276367 21.3349609,12.8276367 C19.5478516,12.8276367 18.2514648,14.1679688 18.2514648,16.0722656 L18.2514648,20.5546875 C18.2514648,22.4663086 19.5478516,23.7993164 21.3349609,23.7993164 Z M21.3349609,21.9829102 C20.6245117,21.9829102 20.2216797,21.3896484 20.2216797,20.6279297 L20.2216797,16.0063477 C20.2216797,15.2519531 20.6245117,14.6513672 21.3349609,14.6513672 C22.0454102,14.6513672 22.4482422,15.2446289 22.4482422,16.0063477 L22.4482422,20.6279297 C22.4482422,21.3896484 22.0454102,21.9829102 21.3349609,21.9829102 Z M24.8798828,29.8417969 C25.4072266,29.8417969 25.8613281,29.4023438 25.8613281,28.8823242 C25.8613281,28.3549805 25.4072266,27.9301758 24.8798828,27.9301758 L22.2431641,27.9301758 L22.2431641,26.8388672 C25.3266602,26.4799805 27.5678711,24.3120117 27.5678711,21.0014648 L27.5678711,19.6245117 C27.5678711,19.1044922 27.128418,18.6943359 26.6010742,18.6943359 C26.0664062,18.6943359 25.6196289,19.1044922 25.6196289,19.6245117 L25.6196289,20.9428711 C25.6196289,23.4331055 23.8105469,25.0444336 21.3349609,25.0444336 C18.859375,25.0444336 17.050293,23.4331055 17.050293,20.9428711 L17.050293,19.6245117 C17.050293,19.1044922 16.6035156,18.6943359 16.0688477,18.6943359 C15.5341797,18.6943359 15.1020508,19.1044922 15.1020508,19.6245117 L15.1020508,21.0014648 C15.1020508,24.3120117 17.3432617,26.4799805 20.4267578,26.8388672 L20.4267578,27.9301758 L17.7900391,27.9301758 C17.2626953,27.9301758 16.8085938,28.3549805 16.8085938,28.8823242 C16.8085938,29.4023438 17.2626953,29.8417969 17.7900391,29.8417969 L24.8798828,29.8417969 Z" id="􀊰" fill="#F6F7FB" fill-rule="nonzero"></path>
            </g>
        </g>
    </g>
</svg>