<?xml version="1.0" encoding="UTF-8"?>
<svg width="22px" height="6px" viewBox="0 0 22 6" version="1.1" xmlns="http://www.w3.org/2000/svg" xmlns:xlink="http://www.w3.org/1999/xlink">
    <title>􀍠</title>
    <g id="icons" stroke="none" stroke-width="1" fill="none" fill-rule="evenodd">
        <g id="Desktop-HD" transform="translate(-310.000000, -831.000000)" fill="#27282E" fill-rule="nonzero">
            <path d="M312.277344,836.292969 C312.707031,836.292969 313.095703,836.189453 313.443359,835.982422 C313.791016,835.775391 314.068359,835.5 314.275391,835.15625 C314.482422,834.8125 314.585938,834.429688 314.585938,834.007812 C314.585938,833.375 314.363281,832.835938 313.917969,832.390625 C313.472656,831.945312 312.925781,831.722656 312.277344,831.722656 C311.855469,831.722656 311.470703,831.824219 311.123047,832.027344 C310.775391,832.230469 310.498047,832.505859 310.291016,832.853516 C310.083984,833.201172 309.980469,833.585938 309.980469,834.007812 C309.980469,834.429688 310.083984,834.8125 310.291016,835.15625 C310.498047,835.5 310.775391,835.775391 311.123047,835.982422 C311.470703,836.189453 311.855469,836.292969 312.277344,836.292969 Z M320.539062,836.292969 C320.960938,836.292969 321.34375,836.189453 321.6875,835.982422 C322.03125,835.775391 322.306641,835.5 322.513672,835.15625 C322.720703,834.8125 322.824219,834.429688 322.824219,834.007812 C322.824219,833.375 322.601562,832.835938 322.15625,832.390625 C321.710938,831.945312 321.171875,831.722656 320.539062,831.722656 C320.117188,831.722656 319.734375,831.824219 319.390625,832.027344 C319.046875,832.230469 318.771484,832.505859 318.564453,832.853516 C318.357422,833.201172 318.253906,833.585938 318.253906,834.007812 C318.253906,834.429688 318.357422,834.8125 318.564453,835.15625 C318.771484,835.5 319.046875,835.775391 319.390625,835.982422 C319.734375,836.189453 320.117188,836.292969 320.539062,836.292969 Z M328.800781,836.292969 C329.222656,836.292969 329.607422,836.189453 329.955078,835.982422 C330.302734,835.775391 330.580078,835.5 330.787109,835.15625 C330.994141,834.8125 331.097656,834.429688 331.097656,834.007812 C331.097656,833.375 330.875,832.835938 330.429688,832.390625 C329.984375,831.945312 329.441406,831.722656 328.800781,831.722656 C328.371094,831.722656 327.980469,831.824219 327.628906,832.027344 C327.277344,832.230469 327,832.505859 326.796875,832.853516 C326.59375,833.201172 326.492188,833.585938 326.492188,834.007812 C326.492188,834.429688 326.59375,834.8125 326.796875,835.15625 C327,835.5 327.277344,835.775391 327.628906,835.982422 C327.980469,836.189453 328.371094,836.292969 328.800781,836.292969 Z" id="􀍠"></path>
        </g>
    </g>
</svg>