<?xml version="1.0" encoding="UTF-8"?>
<svg width="15px" height="16px" viewBox="0 0 15 16" version="1.1" xmlns="http://www.w3.org/2000/svg" xmlns:xlink="http://www.w3.org/1999/xlink">
    <title>􀣗</title>
    <defs>
        <path d="M140.588867,726.303711 C141.272461,726.303711 141.786296,726.129395 142.130371,725.780762 C142.474447,725.432129 142.646484,724.913737 142.646484,724.225586 L142.646484,718.353516 C142.646484,718.061849 142.630534,717.815755 142.598633,717.615234 C142.566732,717.414714 142.505208,717.231283 142.414062,717.064941 C142.322917,716.8986 142.186198,716.724284 142.003906,716.541992 L138.53125,713.014648 C138.358073,712.836914 138.189453,712.700195 138.025391,712.604492 C137.861328,712.508789 137.682454,712.443848 137.48877,712.409668 C137.295085,712.375488 137.066081,712.358398 136.801758,712.358398 L133.705078,712.358398 C133.026042,712.358398 132.513346,712.533854 132.166992,712.884766 C131.820638,713.235677 131.647461,713.755208 131.647461,714.443359 L131.647461,720.014648 L131.93457,719.987305 L131.93457,719.987305 C132.030273,719.97819 132.128255,719.973633 132.228516,719.973633 C132.324219,719.973633 132.421061,719.97819 132.519043,719.987305 C132.617025,719.996419 132.718424,720.007812 132.823242,720.021484 L132.823242,714.498047 C132.823242,714.192708 132.905273,713.956868 133.069336,713.790527 C133.233398,713.624186 133.474935,713.541016 133.793945,713.541016 L136.603516,713.541016 L136.603516,717.164062 C136.603516,717.60612 136.711751,717.935384 136.928223,718.151855 C137.144694,718.368327 137.469401,718.476562 137.902344,718.476562 L141.477539,718.476562 L141.477539,724.170898 C141.477539,724.480794 141.396647,724.717773 141.234863,724.881836 C141.073079,725.045898 140.828125,725.12793 140.5,725.12793 L136.323242,725.12793 C136.282227,725.342122 136.222982,725.547201 136.145508,725.743164 C136.068034,725.939128 135.974609,726.125977 135.865234,726.303711 L140.588867,726.303711 Z M141.292969,717.416992 L138.025391,717.416992 C137.897786,717.416992 137.804362,717.38737 137.745117,717.328125 C137.685872,717.26888 137.65625,717.173177 137.65625,717.041016 L137.65625,713.725586 L141.292969,717.416992 Z M132.242188,727.506836 C132.688802,727.506836 133.111491,727.419108 133.510254,727.243652 C133.909017,727.068197 134.261068,726.827799 134.566406,726.522461 C134.871745,726.217122 135.111003,725.865072 135.28418,725.466309 C135.457357,725.067546 135.543945,724.642578 135.543945,724.191406 C135.543945,723.735677 135.458496,723.308431 135.287598,722.909668 C135.116699,722.510905 134.87972,722.158854 134.57666,721.853516 C134.2736,721.548177 133.921549,721.308919 133.520508,721.135742 C133.119466,720.962565 132.693359,720.875977 132.242188,720.875977 C131.786458,720.875977 131.359212,720.963704 130.960449,721.13916 C130.561686,721.314616 130.209635,721.553874 129.904297,721.856934 C129.598958,722.159993 129.359701,722.510905 129.186523,722.909668 C129.013346,723.308431 128.926758,723.735677 128.926758,724.191406 C128.926758,724.647135 129.013346,725.074382 129.186523,725.473145 C129.359701,725.871908 129.598958,726.223958 129.904297,726.529297 C130.209635,726.834635 130.561686,727.073893 130.960449,727.24707 C131.359212,727.420247 131.786458,727.506836 132.242188,727.506836 Z M132.235352,726.276367 C132.112305,726.276367 132.012044,726.23763 131.93457,726.160156 C131.857096,726.082682 131.818359,725.982422 131.818359,725.859375 L131.818359,724.615234 L130.574219,724.615234 C130.446615,724.615234 130.344076,724.576497 130.266602,724.499023 C130.189128,724.421549 130.150391,724.31901 130.150391,724.191406 C130.150391,724.059245 130.189128,723.955566 130.266602,723.880371 C130.344076,723.805176 130.446615,723.767578 130.574219,723.767578 L131.818359,723.767578 L131.818359,722.530273 C131.818359,722.402669 131.857096,722.30013 131.93457,722.222656 C132.012044,722.145182 132.112305,722.106445 132.235352,722.106445 C132.362956,722.106445 132.465495,722.145182 132.542969,722.222656 C132.620443,722.30013 132.65918,722.402669 132.65918,722.530273 L132.65918,723.767578 L133.90332,723.767578 C134.030924,723.767578 134.133464,723.805176 134.210938,723.880371 C134.288411,723.955566 134.327148,724.059245 134.327148,724.191406 C134.327148,724.31901 134.288411,724.421549 134.210938,724.499023 C134.133464,724.576497 134.030924,724.615234 133.90332,724.615234 L132.65918,724.615234 L132.65918,725.859375 C132.65918,725.982422 132.620443,726.082682 132.542969,726.160156 C132.465495,726.23763 132.362956,726.276367 132.235352,726.276367 Z" id="path-1"></path>
    </defs>
    <g id="Dashboard---Doctor" stroke="none" stroke-width="1" fill="none" fill-rule="evenodd">
        <g id="Calendar-Copy-3" transform="translate(-128.000000, -712.000000)" fill-rule="nonzero">
            <g id="􀣗">
                <use fill="#000000" xlink:href="#path-1"></use>
                <use fill="#FFFFFF" xlink:href="#path-1"></use>
            </g>
        </g>
    </g>
</svg>