<?xml version="1.0" encoding="UTF-8"?>
<svg width="51px" height="35px" viewBox="0 0 51 35" version="1.1" xmlns="http://www.w3.org/2000/svg" xmlns:xlink="http://www.w3.org/1999/xlink">
    <title>􀉫</title>
    <g id="icons" stroke="none" stroke-width="1" fill="none" fill-rule="evenodd">
        <g id="Desktop-HD" transform="translate(-332.000000, -251.000000)" fill="#0080FF" fill-rule="nonzero">
            <path d="M366.759766,268.695312 C368.224609,268.695312 369.551758,268.311523 370.741211,267.543945 C371.930664,266.776367 372.879883,265.748047 373.588867,264.458984 C374.297852,263.169922 374.652344,261.734375 374.652344,260.152344 C374.652344,258.617188 374.297852,257.216797 373.588867,255.951172 C372.879883,254.685547 371.927734,253.677734 370.732422,252.927734 C369.537109,252.177734 368.212891,251.802734 366.759766,251.802734 C365.318359,251.802734 364,252.180664 362.804688,252.936523 C361.609375,253.692383 360.654297,254.706055 359.939453,255.977539 C359.224609,257.249023 358.873047,258.646484 358.884766,260.169922 C358.884766,261.740234 359.236328,263.172852 359.939453,264.467773 C360.642578,265.762695 361.591797,266.791016 362.787109,267.552734 C363.982422,268.314453 365.306641,268.695312 366.759766,268.695312 Z M346.158203,269.082031 C347.435547,269.082031 348.595703,268.745117 349.638672,268.071289 C350.681641,267.397461 351.513672,266.492188 352.134766,265.355469 C352.755859,264.21875 353.066406,262.958984 353.066406,261.576172 C353.066406,260.228516 352.75293,258.998047 352.125977,257.884766 C351.499023,256.771484 350.664062,255.880859 349.621094,255.212891 C348.578125,254.544922 347.423828,254.210938 346.158203,254.210938 C344.892578,254.210938 343.735352,254.544922 342.686523,255.212891 C341.637695,255.880859 340.802734,256.777344 340.181641,257.902344 C339.560547,259.027344 339.25,260.257812 339.25,261.59375 C339.261719,262.976562 339.578125,264.233398 340.199219,265.364258 C340.820312,266.495117 341.649414,267.397461 342.686523,268.071289 C343.723633,268.745117 344.880859,269.082031 346.158203,269.082031 Z M366.759766,264.880859 C366.044922,264.880859 365.385742,264.672852 364.782227,264.256836 C364.178711,263.84082 363.695312,263.27832 363.332031,262.569336 C362.96875,261.860352 362.787109,261.060547 362.787109,260.169922 C362.775391,259.326172 362.954102,258.558594 363.323242,257.867188 C363.692383,257.175781 364.178711,256.62793 364.782227,256.223633 C365.385742,255.819336 366.044922,255.617188 366.759766,255.617188 C367.486328,255.617188 368.151367,255.816406 368.754883,256.214844 C369.358398,256.613281 369.841797,257.158203 370.205078,257.849609 C370.568359,258.541016 370.75,259.308594 370.75,260.152344 C370.75,261.042969 370.568359,261.842773 370.205078,262.551758 C369.841797,263.260742 369.361328,263.826172 368.763672,264.248047 C368.166016,264.669922 367.498047,264.880859 366.759766,264.880859 Z M346.158203,265.320312 C345.595703,265.320312 345.074219,265.15625 344.59375,264.828125 C344.113281,264.5 343.729492,264.054688 343.442383,263.492188 C343.155273,262.929688 343.011719,262.296875 343.011719,261.59375 C343.011719,260.925781 343.155273,260.316406 343.442383,259.765625 C343.729492,259.214844 344.113281,258.77832 344.59375,258.456055 C345.074219,258.133789 345.595703,257.972656 346.158203,257.972656 C346.720703,257.972656 347.242188,258.133789 347.722656,258.456055 C348.203125,258.77832 348.589844,259.211914 348.882812,259.756836 C349.175781,260.301758 349.322266,260.908203 349.322266,261.576172 C349.322266,262.279297 349.178711,262.915039 348.891602,263.483398 C348.604492,264.051758 348.220703,264.5 347.740234,264.828125 C347.259766,265.15625 346.732422,265.320312 346.158203,265.320312 Z M377.570312,285.306641 C380.792969,285.306641 382.404297,284.164062 382.404297,281.878906 C382.404297,280.566406 382.023438,279.248047 381.261719,277.923828 C380.5,276.599609 379.424805,275.383789 378.036133,274.276367 C376.647461,273.168945 374.998047,272.27832 373.087891,271.604492 C371.177734,270.930664 369.068359,270.59375 366.759766,270.59375 C364.451172,270.59375 362.341797,270.930664 360.431641,271.604492 C358.521484,272.27832 356.87207,273.168945 355.483398,274.276367 C354.094727,275.383789 353.019531,276.599609 352.257812,277.923828 C351.496094,279.248047 351.115234,280.566406 351.115234,281.878906 C351.115234,284.164062 352.732422,285.306641 355.966797,285.306641 L377.570312,285.306641 Z M350.078125,285.324219 C349.679688,285.089844 349.348633,284.761719 349.084961,284.339844 C348.821289,283.917969 348.62793,283.463867 348.504883,282.977539 C348.381836,282.491211 348.34375,282.019531 348.390625,281.5625 L337,281.5625 C336.847656,281.5625 336.745117,281.527344 336.692383,281.457031 C336.639648,281.386719 336.613281,281.298828 336.613281,281.193359 C336.613281,280.337891 336.859375,279.50293 337.351562,278.688477 C337.84375,277.874023 338.526367,277.138672 339.399414,276.482422 C340.272461,275.826172 341.286133,275.304688 342.44043,274.917969 C343.594727,274.53125 344.833984,274.337891 346.158203,274.337891 C346.662109,274.337891 347.198242,274.378906 347.766602,274.460938 C348.334961,274.542969 348.885742,274.660156 349.418945,274.8125 C349.952148,274.964844 350.417969,275.140625 350.816406,275.339844 C351.121094,274.765625 351.504883,274.241211 351.967773,273.766602 C352.430664,273.291992 352.984375,272.855469 353.628906,272.457031 C352.914062,272.070312 352.131836,271.739258 351.282227,271.463867 C350.432617,271.188477 349.568359,270.974609 348.689453,270.822266 C347.810547,270.669922 346.966797,270.59375 346.158203,270.59375 C344.259766,270.59375 342.487305,270.895508 340.84082,271.499023 C339.194336,272.102539 337.744141,272.922852 336.490234,273.959961 C335.236328,274.99707 334.257812,276.180664 333.554688,277.510742 C332.851562,278.84082 332.5,280.238281 332.5,281.703125 C332.5,282.875 332.845703,283.771484 333.537109,284.392578 C334.228516,285.013672 335.271484,285.324219 336.666016,285.324219 L350.078125,285.324219 Z M377.587891,281.492188 L355.931641,281.492188 C355.755859,281.492188 355.635742,281.459961 355.571289,281.395508 C355.506836,281.331055 355.474609,281.234375 355.474609,281.105469 C355.474609,280.519531 355.726562,279.848633 356.230469,279.092773 C356.734375,278.336914 357.469727,277.604492 358.436523,276.895508 C359.40332,276.186523 360.586914,275.597656 361.987305,275.128906 C363.387695,274.660156 364.978516,274.425781 366.759766,274.425781 C368.552734,274.425781 370.146484,274.660156 371.541016,275.128906 C372.935547,275.597656 374.116211,276.186523 375.083008,276.895508 C376.049805,277.604492 376.785156,278.336914 377.289062,279.092773 C377.792969,279.848633 378.044922,280.519531 378.044922,281.105469 C378.044922,281.234375 378.012695,281.331055 377.948242,281.395508 C377.883789,281.459961 377.763672,281.492188 377.587891,281.492188 Z" id="􀉫"></path>
        </g>
    </g>
</svg>