<?xml version="1.0" encoding="UTF-8"?>
<svg width="28px" height="20px" viewBox="0 0 28 20" version="1.1" xmlns="http://www.w3.org/2000/svg" xmlns:xlink="http://www.w3.org/1999/xlink">
    <title>􀉫</title>
    <g id="icons" stroke="none" stroke-width="1" fill="none" fill-rule="evenodd">
        <g id="Desktop-HD" transform="translate(-620.000000, -914.000000)" fill="#504F4F" fill-rule="nonzero">
            <path d="M639.386719,924.095703 C640.1875,924.095703 640.913411,923.885742 641.564453,923.46582 C642.215495,923.045898 642.736328,922.48112 643.126953,921.771484 C643.517578,921.061849 643.712891,920.277344 643.712891,919.417969 C643.712891,918.571615 643.517578,917.801758 643.126953,917.108398 C642.736328,916.415039 642.215495,915.863281 641.564453,915.453125 C640.913411,915.042969 640.1875,914.837891 639.386719,914.837891 C638.592448,914.837891 637.868164,915.044596 637.213867,915.458008 C636.55957,915.871419 636.037109,916.426432 635.646484,917.123047 C635.255859,917.819661 635.063802,918.587891 635.070312,919.427734 C635.070312,920.287109 635.263997,921.069987 635.651367,921.776367 C636.038737,922.482747 636.55957,923.045898 637.213867,923.46582 C637.868164,923.885742 638.592448,924.095703 639.386719,924.095703 Z M628.019531,924.310547 C628.709635,924.310547 629.339518,924.126628 629.90918,923.758789 C630.478841,923.390951 630.93457,922.896159 631.276367,922.274414 C631.618164,921.652669 631.789062,920.960938 631.789062,920.199219 C631.789062,919.457031 631.618164,918.781576 631.276367,918.172852 C630.93457,917.564128 630.478841,917.079102 629.90918,916.717773 C629.339518,916.356445 628.709635,916.175781 628.019531,916.175781 C627.329427,916.175781 626.697917,916.358073 626.125,916.722656 C625.552083,917.08724 625.094727,917.577148 624.75293,918.192383 C624.411133,918.807617 624.240234,919.479818 624.240234,920.208984 C624.246745,920.970703 624.419271,921.660807 624.757812,922.279297 C625.096354,922.897786 625.550456,923.390951 626.120117,923.758789 C626.689779,924.126628 627.322917,924.310547 628.019531,924.310547 Z M639.386719,922.220703 C638.957031,922.220703 638.563151,922.097005 638.205078,921.849609 C637.847005,921.602214 637.558919,921.266927 637.34082,920.84375 C637.122721,920.420573 637.013672,919.948568 637.013672,919.427734 C637.013672,918.919922 637.122721,918.462565 637.34082,918.055664 C637.558919,917.648763 637.847005,917.32487 638.205078,917.083984 C638.563151,916.843099 638.957031,916.722656 639.386719,916.722656 C639.822917,916.722656 640.220052,916.839844 640.578125,917.074219 C640.936198,917.308594 641.222656,917.630859 641.4375,918.041016 C641.652344,918.451172 641.759766,918.910156 641.759766,919.417969 C641.759766,919.938802 641.652344,920.410807 641.4375,920.833984 C641.222656,921.257161 640.936198,921.594076 640.578125,921.844727 C640.220052,922.095378 639.822917,922.220703 639.386719,922.220703 Z M628.019531,922.464844 C627.674479,922.464844 627.355469,922.363932 627.0625,922.162109 C626.769531,921.960286 626.535156,921.690104 626.359375,921.351562 C626.183594,921.013021 626.095703,920.632161 626.095703,920.208984 C626.095703,919.811849 626.183594,919.447266 626.359375,919.115234 C626.535156,918.783203 626.767904,918.519531 627.057617,918.324219 C627.347331,918.128906 627.667969,918.03125 628.019531,918.03125 C628.364583,918.03125 628.683594,918.127279 628.976562,918.319336 C629.269531,918.511393 629.503906,918.77181 629.679688,919.100586 C629.855469,919.429362 629.943359,919.795573 629.943359,920.199219 C629.943359,920.622396 629.855469,921.004883 629.679688,921.34668 C629.503906,921.688477 629.269531,921.960286 628.976562,922.162109 C628.683594,922.363932 628.364583,922.464844 628.019531,922.464844 Z M630.207031,933.314453 C630.011719,933.197266 629.845703,933.03776 629.708984,932.835938 C629.572266,932.634115 629.469727,932.41276 629.401367,932.171875 C629.333008,931.93099 629.315104,931.693359 629.347656,931.458984 L622.716797,931.458984 C622.625651,931.458984 622.562174,931.439453 622.526367,931.400391 C622.49056,931.361328 622.472656,931.30599 622.472656,931.234375 C622.472656,930.713542 622.615885,930.205729 622.902344,929.710938 C623.188802,929.216146 623.587565,928.773438 624.098633,928.382812 C624.609701,927.992188 625.200521,927.681315 625.871094,927.450195 C626.541667,927.219076 627.254557,927.103516 628.009766,927.103516 C628.335286,927.103516 628.668945,927.129557 629.010742,927.181641 C629.352539,927.233724 629.681315,927.308594 629.99707,927.40625 C630.312826,927.503906 630.597656,927.624349 630.851562,927.767578 C631.014323,927.494141 631.211263,927.241862 631.442383,927.010742 C631.673503,926.779622 631.942057,926.566406 632.248047,926.371094 C631.837891,926.130208 631.39681,925.928385 630.924805,925.765625 C630.452799,925.602865 629.971029,925.477539 629.479492,925.389648 C628.987956,925.301758 628.498047,925.257812 628.009766,925.257812 C626.968099,925.257812 625.993164,925.425456 625.084961,925.760742 C624.176758,926.096029 623.377604,926.553385 622.6875,927.132812 C621.997396,927.71224 621.458659,928.373047 621.071289,929.115234 C620.683919,929.857422 620.490234,930.632161 620.490234,931.439453 C620.490234,932.051432 620.672526,932.516927 621.037109,932.835938 C621.401693,933.154948 621.951823,933.314453 622.6875,933.314453 L630.207031,933.314453 Z M645.441406,933.304688 C647.160156,933.304688 648.019531,932.71224 648.019531,931.527344 C648.019531,930.830729 647.812826,930.117839 647.399414,929.388672 C646.986003,928.659505 646.400065,927.982422 645.641602,927.357422 C644.883138,926.732422 643.974935,926.227865 642.916992,925.84375 C641.859049,925.459635 640.682292,925.267578 639.386719,925.267578 C638.084635,925.267578 636.90625,925.459635 635.851562,925.84375 C634.796875,926.227865 633.888672,926.732422 633.126953,927.357422 C632.365234,927.982422 631.779297,928.659505 631.369141,929.388672 C630.958984,930.117839 630.753906,930.830729 630.753906,931.527344 C630.753906,932.71224 631.616536,933.304688 633.341797,933.304688 L645.441406,933.304688 Z M645.617188,931.419922 L633.15625,931.419922 C633.045573,931.419922 632.969076,931.402018 632.926758,931.366211 C632.88444,931.330404 632.863281,931.270182 632.863281,931.185547 C632.863281,930.833984 633.008138,930.428711 633.297852,929.969727 C633.587565,929.510742 634.010742,929.068034 634.567383,928.641602 C635.124023,928.215169 635.80599,927.860352 636.613281,927.577148 C637.420573,927.293945 638.345052,927.152344 639.386719,927.152344 C640.428385,927.152344 641.352865,927.293945 642.160156,927.577148 C642.967448,927.860352 643.649414,928.215169 644.206055,928.641602 C644.762695,929.068034 645.184245,929.510742 645.470703,929.969727 C645.757161,930.428711 645.900391,930.833984 645.900391,931.185547 C645.900391,931.270182 645.879232,931.330404 645.836914,931.366211 C645.794596,931.402018 645.721354,931.419922 645.617188,931.419922 Z" id="􀉫"></path>
        </g>
    </g>
</svg>