<?xml version="1.0" encoding="UTF-8"?>
<svg width="54px" height="42px" viewBox="0 0 54 42" version="1.1" xmlns="http://www.w3.org/2000/svg" xmlns:xlink="http://www.w3.org/1999/xlink">
    <title>􀫯</title>
    <g id="Icons" stroke="none" stroke-width="1" fill="none" fill-rule="evenodd">
        <g id="Desktop-HD" transform="translate(-948.000000, -451.000000)" fill="#0080FF" fill-rule="nonzero">
            <path d="M994.046875,492.59375 C996.421875,492.59375 998.207031,492 999.402344,490.8125 C1000.59766,489.625 1001.19531,487.867188 1001.19531,485.539062 L1001.19531,464.257812 C1001.19531,461.929688 1000.59766,460.167969 999.402344,458.972656 C998.207031,457.777344 996.421875,457.179688 994.046875,457.179688 L991.304,457.18 L991.304688,454.34375 C991.304688,453.4375 991.058594,452.730469 990.566406,452.222656 C990.074219,451.714844 989.367188,451.460938 988.445312,451.460938 L982.117188,451.460938 C981.210938,451.460938 980.507812,451.714844 980.007812,452.222656 C979.507812,452.730469 979.257812,453.4375 979.257812,454.34375 L979.257,457.18 L970.656,457.18 L970.65625,454.34375 C970.65625,453.4375 970.40625,452.730469 969.90625,452.222656 C969.40625,451.714844 968.710938,451.460938 967.820312,451.460938 L961.46875,451.460938 C960.5625,451.460938 959.859375,451.714844 959.359375,452.222656 C958.859375,452.730469 958.609375,453.4375 958.609375,454.34375 L958.609,457.18 L955.914062,457.179688 C953.554688,457.179688 951.773438,457.777344 950.570312,458.972656 C949.367188,460.167969 948.765625,461.929688 948.765625,464.257812 L948.765625,485.539062 C948.765625,487.882812 949.367188,489.644531 950.570312,490.824219 C951.773438,492.003906 953.554688,492.59375 955.914062,492.59375 L994.046875,492.59375 Z M971.921875,486.371094 C971.625,486.363281 971.398438,486.242188 971.242188,486.007812 C971.085938,485.773438 971.078125,485.46875 971.21875,485.09375 L974.195312,477.125 L968.617188,477.125 C968.398438,477.125 968.207031,477.054688 968.042969,476.914062 C967.878906,476.773438 967.796875,476.601562 967.796875,476.398438 C967.796875,476.164062 967.890625,475.929688 968.078125,475.695312 L977.195312,464.328125 C977.445312,464.015625 977.710938,463.867188 977.992188,463.882812 C978.273438,463.898438 978.496094,464.019531 978.660156,464.246094 C978.824219,464.472656 978.835938,464.773438 978.695312,465.148438 L975.71875,473.09375 L981.296875,473.09375 C981.515625,473.09375 981.707031,473.167969 981.871094,473.316406 C982.035156,473.464844 982.117188,473.648438 982.117188,473.867188 C982.117188,474.117188 982.007812,474.34375 981.789062,474.546875 L972.71875,485.9375 C972.484375,486.234375 972.21875,486.378906 971.921875,486.371094 Z" id="􀫯"></path>
        </g>
    </g>
</svg>