<?xml version="1.0" encoding="UTF-8"?>
<svg width="46px" height="46px" viewBox="0 0 46 46" version="1.1" xmlns="http://www.w3.org/2000/svg" xmlns:xlink="http://www.w3.org/1999/xlink">
    <title>Group</title>
    <g id="Web" stroke="none" stroke-width="1" fill="none" fill-rule="evenodd">
        <g id="Desktop-HD" transform="translate(-606.000000, -574.000000)">
            <g id="Group-9" transform="translate(0.000000, 96.000000)">
                <g id="Group-7" transform="translate(507.000000, 291.000000)">
                    <g id="Group" transform="translate(100.000000, 188.000000)">
                        <rect id="Rectangle-Copy-3" stroke-opacity="0.8" stroke="#000000" fill="#FFFFFF" x="0" y="0" width="44" height="44" rx="6"></rect>
                        <path d="M21.3500977,34.4296875 C22.5600586,34.4296875 23.5769043,34.151123 24.4006348,33.5939941 C25.2243652,33.0368652 25.8857422,32.1960449 26.3847656,31.0715332 C26.8837891,29.9470215 27.2563477,28.5371094 27.5024414,26.8417969 C27.659668,25.7548828 27.8562012,24.8935547 28.092041,24.2578125 C28.3278809,23.6220703 28.6115723,23.1691895 28.9431152,22.8991699 C29.2746582,22.6291504 29.6557617,22.4941406 30.0864258,22.4941406 C30.5854492,22.4941406 31.0092773,22.6599121 31.3579102,22.9914551 C31.706543,23.322998 31.9697266,23.8544922 32.1474609,24.5859375 C32.2363281,24.9516602 32.3012695,25.3771973 32.3422852,25.8625488 L32.349,25.959 C32.2026777,26.026291 32.0603027,26.1052246 31.921875,26.1958008 C31.3681641,26.5581055 30.9272461,27.0332031 30.5991211,27.6210938 C30.2709961,28.2089844 30.1069336,28.8378906 30.1069336,29.5078125 C30.1069336,30.1914062 30.2709961,30.8100586 30.5991211,31.3637695 C30.9272461,31.9174805 31.3681641,32.3583984 31.921875,32.6865234 C32.4755859,33.0146484 33.0908203,33.1787109 33.7675781,33.1787109 C34.4375,33.1787109 35.0493164,33.0146484 35.6030273,32.6865234 C36.1567383,32.3583984 36.5976562,31.9174805 36.9257812,31.3637695 C37.2539062,30.8100586 37.4179688,30.1914062 37.4179688,29.5078125 C37.4179688,28.8378906 37.2539062,28.2089844 36.9257812,27.6210938 C36.5976562,27.0332031 36.1567383,26.5581055 35.6030273,26.1958008 C35.3953857,26.0599365 35.1795731,25.9495468 34.9555893,25.8646317 L34.917,25.852 L34.8890157,25.5801417 C34.7802879,24.6365396 34.6081355,23.8197867 34.3725586,23.1298828 C33.9897461,22.0087891 33.4462891,21.1867676 32.7421875,20.6638184 C32.0380859,20.1408691 31.1733398,19.8793945 30.1479492,19.8793945 C29.190918,19.8793945 28.3654785,20.1015625 27.6716309,20.5458984 C26.9777832,20.9902344 26.4052734,21.6704102 25.9541016,22.5864258 C25.5029297,23.5024414 25.1679688,24.6748047 24.9492188,26.1035156 C24.8056641,27.0400391 24.6398926,27.8637695 24.4519043,28.574707 C24.263916,29.2856445 24.0366211,29.8820801 23.7700195,30.3640137 C23.503418,30.8459473 23.175293,31.2099609 22.7856445,31.4560547 C22.3959961,31.7021484 21.9243164,31.8251953 21.3706055,31.8251953 C20.2973633,31.8251953 19.4975586,31.2561035 18.9711914,30.1179199 C18.576416,29.2642822 18.3392944,28.1251373 18.2598267,26.7004852 L18.253,26.575 L18.4305827,26.5217104 C18.763265,26.4111539 19.0989855,26.2563748 19.4377441,26.057373 C20.1999512,25.6096191 20.9279785,25.0063477 21.6218262,24.2475586 C22.3156738,23.4887695 22.9377441,22.6359863 23.4880371,21.689209 C24.0383301,20.7424316 24.4724121,19.7648926 24.7902832,18.7565918 C25.1081543,17.748291 25.2670898,16.7758789 25.2670898,15.8393555 C25.2670898,14.574707 24.9406738,13.6074219 24.2878418,12.9375 C23.6350098,12.2675781 22.6660156,11.9326172 21.3808594,11.9326172 L21.238,11.933 L21.0999023,11.7954199 C21.0014648,11.7070996 20.893457,11.6280762 20.7758789,11.5583496 C20.4819336,11.3840332 20.1606445,11.296875 19.8120117,11.296875 C19.456543,11.296875 19.1335449,11.3840332 18.8430176,11.5583496 C18.5524902,11.732666 18.3200684,11.9650879 18.145752,12.2556152 C17.9714355,12.5461426 17.8842773,12.8691406 17.8842773,13.2246094 C17.8842773,13.5732422 17.9714355,13.8945312 18.145752,14.1884766 C18.3200684,14.4824219 18.5524902,14.7165527 18.8430176,14.8908691 C19.1335449,15.0651855 19.456543,15.1523438 19.8120117,15.1523438 C20.1606445,15.1523438 20.4819336,15.0651855 20.7758789,14.8908691 C20.893457,14.8211426 21.0014648,14.7418457 21.0999023,14.6529785 L21.215,14.538 L21.4423828,14.5371094 C21.8320312,14.5371094 22.1328125,14.6499023 22.3447266,14.8754883 C22.5566406,15.1010742 22.6625977,15.4155273 22.6625977,15.8188477 C22.6625977,16.4614258 22.5446777,17.1586914 22.3088379,17.9106445 C22.072998,18.6625977 21.7568359,19.4042969 21.3603516,20.1357422 C20.9638672,20.8671875 20.5178223,21.5319824 20.0222168,22.130127 C19.5266113,22.7282715 19.013916,23.2084961 18.4841309,23.5708008 C17.9543457,23.9331055 17.4399414,24.1142578 16.940918,24.1142578 C16.4487305,24.1142578 15.9377441,23.9331055 15.407959,23.5708008 C14.8781738,23.2084961 14.3654785,22.7282715 13.869873,22.130127 C13.3742676,21.5319824 12.9282227,20.8671875 12.5317383,20.1357422 C12.1352539,19.4042969 11.8190918,18.6625977 11.583252,17.9106445 C11.3474121,17.1586914 11.2294922,16.4614258 11.2294922,15.8188477 C11.2294922,15.4155273 11.3354492,15.1010742 11.5473633,14.8754883 C11.7592773,14.6499023 12.0600586,14.5371094 12.449707,14.5371094 L12.668,14.538 L12.7827539,14.6529785 C12.8806445,14.7418457 12.9883789,14.8211426 13.105957,14.8908691 C13.3999023,15.0651855 13.7211914,15.1523438 14.0698242,15.1523438 C14.425293,15.1523438 14.748291,15.0651855 15.0388184,14.8908691 C15.3293457,14.7165527 15.5617676,14.4824219 15.736084,14.1884766 C15.9104004,13.8945312 15.9975586,13.5732422 15.9975586,13.2246094 C15.9975586,12.8691406 15.9104004,12.5461426 15.736084,12.2556152 C15.5617676,11.9650879 15.3293457,11.732666 15.0388184,11.5583496 C14.748291,11.3840332 14.425293,11.296875 14.0698242,11.296875 C13.7211914,11.296875 13.3999023,11.3840332 13.105957,11.5583496 C12.9883789,11.6280762 12.8806445,11.7070996 12.7827539,11.7954199 L12.645,11.933 L12.5009766,11.9326172 C11.2158203,11.9326172 10.2468262,12.2675781 9.59399414,12.9375 C8.94116211,13.6074219 8.61474609,14.574707 8.61474609,15.8393555 C8.61474609,16.7758789 8.77539062,17.748291 9.09667969,18.7565918 C9.41796875,19.7648926 9.85205078,20.7424316 10.3989258,21.689209 C10.9458008,22.6359863 11.5678711,23.4887695 12.2651367,24.2475586 C12.9624023,25.0063477 13.6904297,25.6096191 14.4492188,26.057373 C14.7864583,26.2563748 15.1216725,26.4111539 15.4548611,26.5217104 L15.638,26.577 L15.6499721,26.8216611 C15.773298,29.0362568 16.229248,30.7827148 17.0178223,32.0610352 C17.9919434,33.6401367 19.4360352,34.4296875 21.3500977,34.4296875 Z M33.777832,30.8100586 C33.5385742,30.8100586 33.3198242,30.7519531 33.121582,30.6357422 C32.9233398,30.5195312 32.7661133,30.3605957 32.6499023,30.1589355 C32.5336914,29.9572754 32.4755859,29.7402344 32.4755859,29.5078125 C32.4755859,29.2685547 32.5336914,29.0498047 32.6499023,28.8515625 C32.7661133,28.6533203 32.9233398,28.4978027 33.121582,28.3850098 C33.3198242,28.2722168 33.5385742,28.2158203 33.777832,28.2158203 C34.0102539,28.2158203 34.2255859,28.2722168 34.4238281,28.3850098 C34.6220703,28.4978027 34.7775879,28.6533203 34.8903809,28.8515625 C35.0031738,29.0498047 35.0595703,29.2685547 35.0595703,29.5078125 C35.0595703,29.7402344 35.0031738,29.9572754 34.8903809,30.1589355 C34.7775879,30.3605957 34.6220703,30.5195312 34.4238281,30.6357422 C34.2255859,30.7519531 34.0102539,30.8100586 33.777832,30.8100586 Z" id="􀝾" fill="#000000" fill-rule="nonzero"></path>
                    </g>
                </g>
            </g>
        </g>
    </g>
</svg>