<?xml version="1.0" encoding="UTF-8"?>
<svg width="19px" height="22px" viewBox="0 0 19 22" version="1.1" xmlns="http://www.w3.org/2000/svg" xmlns:xlink="http://www.w3.org/1999/xlink">
    <title>􀅈</title>
    <g id="icons" stroke="none" stroke-width="1" fill="none" fill-rule="evenodd">
        <g id="Desktop-HD" transform="translate(-858.000000, -526.000000)" fill="#0080FF" fill-rule="nonzero">
            <path d="M867.556641,547.451172 C868.774089,547.451172 869.915039,547.223307 870.979492,546.767578 C872.043945,546.311849 872.981445,545.680339 873.791992,544.873047 C874.602539,544.065755 875.234049,543.128255 875.686523,542.060547 C876.138997,540.992839 876.365234,539.847005 876.365234,538.623047 C876.365234,538.291016 876.25944,538.019206 876.047852,537.807617 C875.836263,537.596029 875.564453,537.490234 875.232422,537.490234 C874.906901,537.490234 874.643229,537.596029 874.441406,537.807617 C874.239583,538.019206 874.138672,538.291016 874.138672,538.623047 C874.138672,539.541016 873.969401,540.398763 873.630859,541.196289 C873.292318,541.993815 872.82194,542.693685 872.219727,543.295898 C871.617513,543.898112 870.917643,544.36849 870.120117,544.707031 C869.322591,545.045573 868.468099,545.214844 867.556641,545.214844 C866.645182,545.214844 865.792318,545.045573 864.998047,544.707031 C864.203776,544.36849 863.505534,543.898112 862.90332,543.295898 C862.301107,542.693685 861.830729,541.993815 861.492188,541.196289 C861.153646,540.398763 860.984375,539.541016 860.984375,538.623047 C860.984375,537.698568 861.150391,536.837565 861.482422,536.040039 C861.814453,535.242513 862.27832,534.542643 862.874023,533.94043 C863.469727,533.338216 864.161458,532.866211 864.949219,532.524414 C865.736979,532.182617 866.589844,532.011719 867.507812,532.011719 C868.022135,532.011719 868.495768,532.042643 868.928711,532.104492 L869.017,532.119 L866.560547,534.541016 C866.469401,534.638672 866.394531,534.747721 866.335938,534.868164 C866.277344,534.988607 866.248047,535.123698 866.248047,535.273438 C866.248047,535.579427 866.353841,535.838216 866.56543,536.049805 C866.777018,536.261393 867.032552,536.367188 867.332031,536.367188 C867.644531,536.367188 867.898438,536.266276 868.09375,536.064453 L872.097656,532.021484 C872.214844,531.904297 872.301107,531.777344 872.356445,531.640625 C872.411784,531.503906 872.439453,531.357422 872.439453,531.201172 C872.439453,530.895182 872.325521,530.625 872.097656,530.390625 L868.09375,526.318359 C867.891927,526.103516 867.638021,525.996094 867.332031,525.996094 C867.026042,525.996094 866.76888,526.103516 866.560547,526.318359 C866.352214,526.533203 866.248047,526.796875 866.248047,527.109375 C866.248047,527.259115 866.275716,527.394206 866.331055,527.514648 C866.386393,527.635091 866.459635,527.744141 866.550781,527.841797 L868.68,529.936 L868.564258,529.918555 C868.211523,529.875195 867.859375,529.853516 867.507812,529.853516 C866.283854,529.853516 865.142904,530.079753 864.084961,530.532227 C863.027018,530.984701 862.099284,531.611328 861.301758,532.412109 C860.504232,533.212891 859.879232,534.14388 859.426758,535.205078 C858.974284,536.266276 858.748047,537.405599 858.748047,538.623047 C858.748047,539.847005 858.975911,540.992839 859.431641,542.060547 C859.88737,543.128255 860.517253,544.065755 861.321289,544.873047 C862.125326,545.680339 863.061198,546.311849 864.128906,546.767578 C865.196615,547.223307 866.339193,547.451172 867.556641,547.451172 Z" id="􀅈"></path>
        </g>
    </g>
</svg>