<?xml version="1.0" encoding="UTF-8"?>
<svg width="23px" height="16px" viewBox="0 0 23 16" version="1.1" xmlns="http://www.w3.org/2000/svg" xmlns:xlink="http://www.w3.org/1999/xlink">
    <title>􀙵</title>
    <g id="Page-1" stroke="none" stroke-width="1" fill="none" fill-rule="evenodd">
        <g id="Desktop-HD" transform="translate(-1222.000000, -874.000000)" fill="#2F55D4" fill-rule="nonzero">
            <path d="M1239.4292,889.621582 C1240.10335,889.621582 1240.73267,889.507161 1241.31714,889.27832 C1241.90161,889.049479 1242.41341,888.730957 1242.85254,888.322754 C1243.29167,887.914551 1243.63338,887.442952 1243.87769,886.907959 C1244.12199,886.372965 1244.24414,885.796224 1244.24414,885.177734 C1244.24414,884.559245 1244.13127,883.976318 1243.90552,883.428955 C1243.67977,882.881592 1243.35815,882.396077 1242.94067,881.972412 C1242.52319,881.548747 1242.02686,881.216309 1241.45166,880.975098 C1241.45166,879.985514 1241.28776,879.076335 1240.95996,878.247559 C1240.63216,877.418783 1240.17448,876.699788 1239.58691,876.090576 C1238.99935,875.481364 1238.31283,875.009766 1237.52734,874.675781 C1236.74186,874.341797 1235.89453,874.174805 1234.98535,874.174805 C1234.19987,874.174805 1233.48551,874.301595 1232.84229,874.555176 C1232.19906,874.808757 1231.62541,875.145833 1231.12134,875.566406 C1230.61727,875.986979 1230.18587,876.460124 1229.82715,876.98584 C1229.27669,876.831217 1228.73242,876.80957 1228.19434,876.920898 C1227.65625,877.032227 1227.1661,877.25179 1226.72388,877.57959 C1226.28166,877.907389 1225.92448,878.318685 1225.65234,878.813477 C1225.38021,879.308268 1225.23486,879.868001 1225.21631,880.492676 C1224.54834,880.604004 1223.97314,880.862223 1223.49072,881.267334 C1223.0083,881.672445 1222.63566,882.179606 1222.3728,882.788818 C1222.10994,883.398031 1221.97852,884.064453 1221.97852,884.788086 C1221.97852,885.443685 1222.11458,886.063721 1222.38672,886.648193 C1222.65885,887.232666 1223.03459,887.747559 1223.51392,888.192871 C1223.99325,888.638184 1224.55762,888.986084 1225.20703,889.236572 C1225.85645,889.487061 1226.56152,889.612305 1227.32227,889.612305 L1239.4292,889.621582 Z M1239.41992,888.035156 L1227.32227,888.025879 C1226.611,888.025879 1225.97241,887.877441 1225.40649,887.580566 C1224.84058,887.283691 1224.39681,886.889404 1224.0752,886.397705 C1223.75358,885.906006 1223.59277,885.369466 1223.59277,884.788086 C1223.59277,884.200521 1223.70719,883.673258 1223.93604,883.206299 C1224.16488,882.739339 1224.49422,882.369792 1224.92407,882.097656 C1225.35392,881.825521 1225.875,881.689453 1226.4873,881.689453 C1226.60482,881.689453 1226.66048,881.627604 1226.6543,881.503906 C1226.64811,880.625651 1226.82747,879.937581 1227.19238,879.439697 C1227.55729,878.941813 1228.02425,878.626383 1228.59326,878.493408 C1229.16227,878.360433 1229.75602,878.395996 1230.37451,878.600098 C1230.47965,878.631022 1230.55697,878.600098 1230.60645,878.507324 C1230.89095,878.000163 1231.23112,877.539388 1231.62695,877.125 C1232.02279,876.710612 1232.49593,876.381266 1233.04639,876.136963 C1233.59684,875.89266 1234.24316,875.770508 1234.98535,875.770508 C1235.91927,875.770508 1236.74805,875.993164 1237.47168,876.438477 C1238.19531,876.883789 1238.77051,877.471354 1239.19727,878.201172 C1239.62402,878.93099 1239.86214,879.725749 1239.91162,880.585449 C1239.92399,880.801921 1239.92554,881.027669 1239.91626,881.262695 C1239.90698,881.497721 1239.88997,881.72347 1239.86523,881.939941 C1239.85905,882.05127 1239.90853,882.116211 1240.01367,882.134766 C1240.81152,882.301758 1241.44702,882.655843 1241.92017,883.197021 C1242.39331,883.7382 1242.62988,884.398438 1242.62988,885.177734 C1242.62988,885.703451 1242.48918,886.18278 1242.20776,886.615723 C1241.92635,887.048665 1241.54289,887.393473 1241.05737,887.650146 C1240.57186,887.90682 1240.02604,888.035156 1239.41992,888.035156 Z M1235.01318,886.550781 C1235.55127,886.550781 1235.82031,886.266276 1235.82031,885.697266 L1235.82031,882.663574 C1235.82031,882.144043 1235.59766,881.865723 1235.15234,881.828613 L1235.15234,880.928711 C1235.15234,880.229818 1234.95752,879.660807 1234.56787,879.22168 C1234.17822,878.782552 1233.67106,878.562988 1233.04639,878.562988 C1232.41553,878.562988 1231.90682,878.782552 1231.52026,879.22168 C1231.13371,879.660807 1230.94043,880.229818 1230.94043,880.928711 L1230.94043,881.828613 C1230.49512,881.865723 1230.27246,882.144043 1230.27246,882.663574 L1230.27246,885.697266 C1230.27246,886.266276 1230.53841,886.550781 1231.07031,886.550781 L1235.01318,886.550781 Z M1234.29883,881.810059 L1231.79395,881.810059 L1231.79395,880.854492 C1231.79395,880.415365 1231.90837,880.062826 1232.13721,879.796875 C1232.36605,879.530924 1232.66911,879.397949 1233.04639,879.397949 C1233.41748,879.397949 1233.71899,879.530924 1233.95093,879.796875 C1234.18286,880.062826 1234.29883,880.415365 1234.29883,880.854492 L1234.29883,881.810059 Z" id="􀙵"></path>
        </g>
    </g>
</svg>