<?xml version="1.0" encoding="UTF-8"?>
<svg width="23px" height="16px" viewBox="0 0 23 16" version="1.1" xmlns="http://www.w3.org/2000/svg" xmlns:xlink="http://www.w3.org/1999/xlink">
    <title>􀙶</title>
    <g id="Page-1" stroke="none" stroke-width="1" fill="none" fill-rule="evenodd">
        <g id="Desktop-HD" transform="translate(-1095.000000, -803.000000)" fill="#000000" fill-rule="nonzero">
            <path d="M1112.4292,818.621582 C1113.10335,818.621582 1113.73267,818.507161 1114.31714,818.27832 C1114.90161,818.049479 1115.41341,817.730957 1115.85254,817.322754 C1116.29167,816.914551 1116.63338,816.442952 1116.87769,815.907959 C1117.12199,815.372965 1117.24414,814.796224 1117.24414,814.177734 C1117.24414,813.559245 1117.13127,812.976318 1116.90552,812.428955 C1116.67977,811.881592 1116.35815,811.396077 1115.94067,810.972412 C1115.52319,810.548747 1115.02686,810.213216 1114.45166,809.96582 C1114.45166,808.976237 1114.28776,808.068604 1113.95996,807.24292 C1113.63216,806.417236 1113.17448,805.699788 1112.58691,805.090576 C1111.99935,804.481364 1111.31283,804.009766 1110.52734,803.675781 C1109.74186,803.341797 1108.89453,803.174805 1107.98535,803.174805 C1107.19987,803.174805 1106.48551,803.300049 1105.84229,803.550537 C1105.19906,803.801025 1104.62541,804.138102 1104.12134,804.561768 C1103.61727,804.985433 1103.18587,805.457031 1102.82715,805.976562 C1102.27669,805.82194 1101.73242,805.801839 1101.19434,805.91626 C1100.65625,806.03068 1100.1661,806.250244 1099.72388,806.574951 C1099.28166,806.899658 1098.92448,807.310954 1098.65234,807.808838 C1098.38021,808.306722 1098.23486,808.864909 1098.21631,809.483398 C1097.54834,809.600911 1096.97314,809.862223 1096.49072,810.267334 C1096.0083,810.672445 1095.63566,811.17806 1095.3728,811.78418 C1095.10994,812.390299 1094.97852,813.058268 1094.97852,813.788086 C1094.97852,814.443685 1095.11458,815.062174 1095.38672,815.643555 C1095.65885,816.224935 1096.03459,816.739827 1096.51392,817.188232 C1096.99325,817.636637 1097.55762,817.986084 1098.20703,818.236572 C1098.85645,818.487061 1099.56152,818.612305 1100.32227,818.612305 L1112.4292,818.621582 Z M1108.0874,815.680664 L1103.99609,815.680664 C1103.44564,815.680664 1103.17041,815.389974 1103.17041,814.808594 L1103.17041,811.663574 C1103.17041,811.119303 1103.39925,810.825521 1103.85693,810.782227 L1103.85693,809.873047 C1103.85693,809.137044 1104.05794,808.543294 1104.45996,808.091797 C1104.86198,807.640299 1105.3877,807.414551 1106.03711,807.414551 C1106.69271,807.414551 1107.22152,807.640299 1107.62354,808.091797 C1108.02555,808.543294 1108.22656,809.137044 1108.22656,809.873047 L1108.22656,810.782227 C1108.68424,810.825521 1108.91309,811.119303 1108.91309,811.663574 L1108.91309,814.808594 C1108.91309,815.389974 1108.63786,815.680664 1108.0874,815.680664 Z M1107.32666,810.772949 L1107.32666,809.780273 C1107.32666,809.334961 1107.20915,808.974691 1106.97412,808.699463 C1106.7391,808.424235 1106.42676,808.286621 1106.03711,808.286621 C1105.64746,808.286621 1105.33667,808.424235 1105.10474,808.699463 C1104.8728,808.974691 1104.75684,809.334961 1104.75684,809.780273 L1104.75684,810.772949 L1107.32666,810.772949 Z" id="􀙶"></path>
        </g>
    </g>
</svg>