<?xml version="1.0" encoding="UTF-8"?>
<svg width="39px" height="34px" viewBox="0 0 39 34" version="1.1" xmlns="http://www.w3.org/2000/svg" xmlns:xlink="http://www.w3.org/1999/xlink">
    <title>􀌆</title>
    <g id="icons" stroke="none" stroke-width="1" fill="none" fill-rule="evenodd">
        <g id="Desktop-HD" transform="translate(-338.000000, -321.000000)" fill="#0080FF" fill-rule="nonzero">
            <path d="M364.462891,331.857422 C365.400391,331.857422 366.258789,331.625977 367.038086,331.163086 C367.817383,330.700195 368.435547,330.079102 368.892578,329.299805 L369.036458,329.037109 L369.036458,329.037109 L369.099,328.905 L374.359375,328.904297 C374.933594,328.904297 375.425781,328.6875 375.835938,328.253906 C376.246094,327.820312 376.451172,327.310547 376.451172,326.724609 C376.451172,326.126953 376.246094,325.614258 375.835938,325.186523 C375.425781,324.758789 374.933594,324.544922 374.359375,324.544922 L369.099,324.545 L369.036458,324.412109 C368.991319,324.323568 368.943359,324.236003 368.892578,324.149414 C368.435547,323.370117 367.817383,322.749023 367.038086,322.286133 C366.258789,321.823242 365.400391,321.591797 364.462891,321.591797 C363.525391,321.591797 362.666992,321.823242 361.887695,322.286133 C361.108398,322.749023 360.487305,323.370117 360.024414,324.149414 L359.878689,324.412109 L359.878689,324.412109 L359.815,324.545 L340.609375,324.544922 C340.011719,324.544922 339.507812,324.761719 339.097656,325.195312 C338.6875,325.628906 338.482422,326.138672 338.482422,326.724609 C338.482422,327.298828 338.69043,327.805664 339.106445,328.245117 C339.522461,328.68457 340.023438,328.904297 340.609375,328.904297 L359.815,328.905 L359.878689,329.037109 C359.924407,329.125651 359.972982,329.213216 360.024414,329.299805 C360.487305,330.079102 361.108398,330.700195 361.887695,331.163086 C362.666992,331.625977 363.525391,331.857422 364.462891,331.857422 Z M364.462891,329.080078 C363.806641,329.080078 363.25,328.848633 362.792969,328.385742 C362.335938,327.922852 362.107422,327.369141 362.107422,326.724609 C362.107422,326.056641 362.335938,325.494141 362.792969,325.037109 C363.25,324.580078 363.806641,324.351562 364.462891,324.351562 C365.130859,324.351562 365.69043,324.580078 366.141602,325.037109 C366.592773,325.494141 366.818359,326.056641 366.818359,326.724609 C366.818359,327.369141 366.592773,327.922852 366.141602,328.385742 C365.69043,328.848633 365.130859,329.080078 364.462891,329.080078 Z M350.699219,343.230469 C351.625,343.230469 352.477539,342.999023 353.256836,342.536133 C354.036133,342.073242 354.657227,341.452148 355.120117,340.672852 L355.265842,340.410156 L355.265842,340.410156 L355.329,340.278 L374.324219,340.277344 C374.910156,340.277344 375.411133,340.060547 375.827148,339.626953 C376.243164,339.193359 376.451172,338.683594 376.451172,338.097656 C376.451172,337.5 376.246094,336.987305 375.835938,336.55957 C375.425781,336.131836 374.921875,335.917969 374.324219,335.917969 L355.325,335.918 L355.265842,335.792101 C355.220124,335.704138 355.171549,335.617188 355.120117,335.53125 C354.657227,334.757812 354.039062,334.139648 353.265625,333.676758 C352.492188,333.213867 351.636719,332.982422 350.699219,332.982422 C349.75,332.982422 348.888672,333.213867 348.115234,333.676758 C347.341797,334.139648 346.723633,334.757812 346.260742,335.53125 L346.115017,335.792101 L346.115017,335.792101 L346.055,335.918 L340.574219,335.917969 C340,335.917969 339.507812,336.134766 339.097656,336.568359 C338.6875,337.001953 338.482422,337.511719 338.482422,338.097656 C338.482422,338.671875 338.6875,339.178711 339.097656,339.618164 C339.507812,340.057617 340,340.277344 340.574219,340.277344 L346.051,340.278 L346.115017,340.410156 C346.160735,340.498698 346.20931,340.586263 346.260742,340.672852 C346.723633,341.452148 347.341797,342.073242 348.115234,342.536133 C348.888672,342.999023 349.75,343.230469 350.699219,343.230469 Z M350.699219,340.470703 C350.042969,340.470703 349.483398,340.239258 349.020508,339.776367 C348.557617,339.313477 348.326172,338.753906 348.326172,338.097656 C348.326172,337.429688 348.557617,336.870117 349.020508,336.418945 C349.483398,335.967773 350.042969,335.742188 350.699219,335.742188 C351.367188,335.742188 351.926758,335.967773 352.37793,336.418945 C352.829102,336.870117 353.054688,337.429688 353.054688,338.097656 C353.054688,338.753906 352.829102,339.313477 352.37793,339.776367 C351.926758,340.239258 351.367188,340.470703 350.699219,340.470703 Z M364.462891,354.603516 C365.400391,354.603516 366.258789,354.37207 367.038086,353.90918 C367.817383,353.446289 368.435547,352.828125 368.892578,352.054688 L369.036458,351.79362 L369.036458,351.79362 L369.096,351.668 L374.359375,351.667969 C374.933594,351.667969 375.425781,351.448242 375.835938,351.008789 C376.246094,350.569336 376.451172,350.056641 376.451172,349.470703 C376.451172,348.873047 376.246094,348.360352 375.835938,347.932617 C375.425781,347.504883 374.933594,347.291016 374.359375,347.291016 L369.096,347.292 L369.036458,347.165148 C368.991319,347.077185 368.943359,346.990234 368.892578,346.904297 C368.435547,346.130859 367.817383,345.512695 367.038086,345.049805 C366.258789,344.586914 365.400391,344.355469 364.462891,344.355469 C363.525391,344.355469 362.666992,344.586914 361.887695,345.049805 C361.108398,345.512695 360.487305,346.130859 360.024414,346.904297 L359.878689,347.165148 L359.878689,347.165148 L359.818,347.292 L340.609375,347.291016 C340.011719,347.291016 339.507812,347.507812 339.097656,347.941406 C338.6875,348.375 338.482422,348.884766 338.482422,349.470703 C338.482422,350.044922 338.69043,350.554688 339.106445,351 C339.522461,351.445312 340.023438,351.667969 340.609375,351.667969 L359.818,351.668 L359.878689,351.79362 C359.924407,351.881727 359.972982,351.96875 360.024414,352.054688 C360.487305,352.828125 361.108398,353.446289 361.887695,353.90918 C362.666992,354.37207 363.525391,354.603516 364.462891,354.603516 Z M364.462891,351.84375 C363.806641,351.84375 363.25,351.612305 362.792969,351.149414 C362.335938,350.686523 362.107422,350.126953 362.107422,349.470703 C362.107422,348.802734 362.335938,348.243164 362.792969,347.791992 C363.25,347.34082 363.806641,347.115234 364.462891,347.115234 C365.130859,347.115234 365.69043,347.34082 366.141602,347.791992 C366.592773,348.243164 366.818359,348.802734 366.818359,349.470703 C366.818359,350.126953 366.592773,350.686523 366.141602,351.149414 C365.69043,351.612305 365.130859,351.84375 364.462891,351.84375 Z" id="􀌆"></path>
        </g>
    </g>
</svg>