<?xml version="1.0" encoding="UTF-8"?>
<svg width="19px" height="20px" viewBox="0 0 19 20" version="1.1" xmlns="http://www.w3.org/2000/svg" xmlns:xlink="http://www.w3.org/1999/xlink">
    <title>􀃲</title>
    <g id="icons" stroke="none" stroke-width="1" fill="none" fill-rule="evenodd">
        <g id="Desktop-HD" transform="translate(-1160.000000, -853.000000)" fill="#0080FF" fill-rule="nonzero">
            <path d="M1175.61719,872.197266 C1176.70443,872.197266 1177.53125,871.91569 1178.09766,871.352539 C1178.66406,870.789388 1178.94727,869.967448 1178.94727,868.886719 L1178.94727,857.041016 C1178.94727,855.960286 1178.66406,855.138346 1178.09766,854.575195 C1177.53125,854.012044 1176.70443,853.730469 1175.61719,853.730469 L1163.82031,853.730469 C1162.73307,853.730469 1161.90625,854.012044 1161.33984,854.575195 C1160.77344,855.138346 1160.49023,855.960286 1160.49023,857.041016 L1160.49023,868.886719 C1160.49023,869.967448 1160.77344,870.789388 1161.33984,871.352539 C1161.90625,871.91569 1162.73307,872.197266 1163.82031,872.197266 L1175.61719,872.197266 Z M1175.42188,869.960938 L1164.02539,869.960938 C1163.60221,869.960938 1163.27995,869.853516 1163.05859,869.638672 C1162.83724,869.423828 1162.72656,869.095052 1162.72656,868.652344 L1162.72656,857.275391 C1162.72656,856.832682 1162.83724,856.503906 1163.05859,856.289062 C1163.27995,856.074219 1163.60221,855.966797 1164.02539,855.966797 L1175.42188,855.966797 C1175.83854,855.966797 1176.15918,856.074219 1176.38379,856.289062 C1176.6084,856.503906 1176.7207,856.832682 1176.7207,857.275391 L1176.7207,868.652344 C1176.7207,869.095052 1176.6084,869.423828 1176.38379,869.638672 C1176.15918,869.853516 1175.83854,869.960938 1175.42188,869.960938 Z M1168.69336,867.587891 C1169.07747,867.587891 1169.38672,867.415365 1169.62109,867.070312 L1173.98633,860.341797 C1174.05794,860.23112 1174.11654,860.117188 1174.16211,860 C1174.20768,859.882812 1174.23047,859.76888 1174.23047,859.658203 C1174.23047,859.391276 1174.13281,859.174805 1173.9375,859.008789 C1173.74219,858.842773 1173.51758,858.759766 1173.26367,858.759766 C1172.93164,858.759766 1172.65169,858.942057 1172.42383,859.306641 L1168.66406,865.292969 L1166.94531,863.144531 C1166.82161,862.988281 1166.69629,862.879232 1166.56934,862.817383 C1166.44238,862.755534 1166.30078,862.724609 1166.14453,862.724609 C1165.89062,862.724609 1165.6709,862.815755 1165.48535,862.998047 C1165.2998,863.180339 1165.20703,863.404948 1165.20703,863.671875 C1165.20703,863.90625 1165.29818,864.140625 1165.48047,864.375 L1167.72656,867.080078 C1167.86979,867.249349 1168.0179,867.376302 1168.1709,867.460938 C1168.32389,867.545573 1168.49805,867.587891 1168.69336,867.587891 Z" id="􀃲"></path>
        </g>
    </g>
</svg>