<?xml version="1.0" encoding="UTF-8"?>
<svg width="19px" height="20px" viewBox="0 0 19 20" version="1.1" xmlns="http://www.w3.org/2000/svg" xmlns:xlink="http://www.w3.org/1999/xlink">
    <title>􀂒</title>
    <g id="icons" stroke="none" stroke-width="1" fill="none" fill-rule="evenodd">
        <g id="Desktop-HD" transform="translate(-1162.000000, -888.000000)" fill="#0080FF" fill-rule="nonzero">
            <path d="M1177.61719,907.197266 C1178.70443,907.197266 1179.53125,906.91569 1180.09766,906.352539 C1180.66406,905.789388 1180.94727,904.967448 1180.94727,903.886719 L1180.94727,892.041016 C1180.94727,890.960286 1180.66406,890.138346 1180.09766,889.575195 C1179.53125,889.012044 1178.70443,888.730469 1177.61719,888.730469 L1165.82031,888.730469 C1164.73307,888.730469 1163.90625,889.012044 1163.33984,889.575195 C1162.77344,890.138346 1162.49023,890.960286 1162.49023,892.041016 L1162.49023,903.886719 C1162.49023,904.967448 1162.77344,905.789388 1163.33984,906.352539 C1163.90625,906.91569 1164.73307,907.197266 1165.82031,907.197266 L1177.61719,907.197266 Z M1177.42188,904.960938 L1166.02539,904.960938 C1165.60221,904.960938 1165.27995,904.853516 1165.05859,904.638672 C1164.83724,904.423828 1164.72656,904.095052 1164.72656,903.652344 L1164.72656,892.275391 C1164.72656,891.832682 1164.83724,891.503906 1165.05859,891.289062 C1165.27995,891.074219 1165.60221,890.966797 1166.02539,890.966797 L1177.42188,890.966797 C1177.83854,890.966797 1178.15918,891.074219 1178.38379,891.289062 C1178.6084,891.503906 1178.7207,891.832682 1178.7207,892.275391 L1178.7207,903.652344 C1178.7207,904.095052 1178.6084,904.423828 1178.38379,904.638672 C1178.15918,904.853516 1177.83854,904.960938 1177.42188,904.960938 Z" id="􀂒"></path>
        </g>
    </g>
</svg>