<?xml version="1.0" encoding="UTF-8"?>
<svg width="37px" height="40px" viewBox="0 0 37 40" version="1.1" xmlns="http://www.w3.org/2000/svg" xmlns:xlink="http://www.w3.org/1999/xlink">
    <title>􀑆</title>
    <g id="icons" stroke="none" stroke-width="1" fill="none" fill-rule="evenodd">
        <g id="Desktop-HD" transform="translate(-229.000000, -105.000000)" fill="#0080FF" fill-rule="nonzero">
            <path d="M248.447266,144.644531 C249.994141,144.644531 251.163086,144.27832 251.954102,143.545898 C252.745117,142.813477 253.140625,141.726562 253.140625,140.285156 L253.140625,135.328125 L257.394531,137.806641 C258.25,138.322266 259.070312,138.580078 259.855469,138.580078 C260.570312,138.580078 261.232422,138.360352 261.841797,137.920898 C262.451172,137.481445 263.007812,136.822266 263.511719,135.943359 L264.654297,133.992188 C265.228516,132.972656 265.515625,132.041016 265.515625,131.197266 C265.515625,130.517578 265.319336,129.887695 264.926758,129.307617 C264.53418,128.727539 263.951172,128.214844 263.177734,127.769531 L258.923828,125.308594 L263.160156,122.847656 C264.71875,121.957031 265.498047,120.814453 265.498047,119.419922 C265.498047,118.587891 265.205078,117.662109 264.619141,116.642578 L263.511719,114.691406 C262.996094,113.8125 262.430664,113.15332 261.81543,112.713867 C261.200195,112.274414 260.529297,112.054688 259.802734,112.054688 C259.052734,112.054688 258.244141,112.300781 257.376953,112.792969 L253.140625,115.253906 L253.140625,110.349609 C253.140625,108.908203 252.745117,107.821289 251.954102,107.088867 C251.163086,106.356445 249.994141,105.990234 248.447266,105.990234 L246.179688,105.990234 C244.644531,105.990234 243.484375,106.356445 242.699219,107.088867 C241.914062,107.821289 241.521484,108.908203 241.521484,110.349609 L241.521484,115.253906 L237.285156,112.792969 C236.417969,112.300781 235.609375,112.054688 234.859375,112.054688 C234.132812,112.054688 233.461914,112.274414 232.84668,112.713867 C232.231445,113.15332 231.666016,113.8125 231.150391,114.691406 L230.025391,116.642578 C229.451172,117.662109 229.164062,118.587891 229.164062,119.419922 C229.164062,120.814453 229.943359,121.957031 231.501953,122.847656 L235.738281,125.308594 L231.484375,127.769531 C230.699219,128.214844 230.113281,128.727539 229.726562,129.307617 C229.339844,129.887695 229.146484,130.517578 229.146484,131.197266 C229.146484,132.041016 229.433594,132.972656 230.007812,133.992188 L231.150391,135.943359 C231.654297,136.822266 232.210938,137.481445 232.820312,137.920898 C233.429688,138.360352 234.091797,138.580078 234.806641,138.580078 C235.591797,138.580078 236.412109,138.322266 237.267578,137.806641 L241.521484,135.328125 L241.521484,140.285156 C241.521484,141.726562 241.914062,142.813477 242.699219,143.545898 C243.484375,144.27832 244.644531,144.644531 246.179688,144.644531 L248.447266,144.644531 Z M247.849609,141.058594 L246.8125,141.058594 C246.179688,141.058594 245.754883,140.958984 245.538086,140.759766 C245.321289,140.560547 245.21875,140.162109 245.230469,139.564453 L245.283203,129.896484 C245.283203,129.720703 245.227539,129.580078 245.116211,129.474609 C245.004883,129.369141 244.873047,129.316406 244.720703,129.316406 C244.603516,129.316406 244.486328,129.345703 244.369141,129.404297 L236.142578,134.220703 C235.943359,134.326172 235.764648,134.408203 235.606445,134.466797 C235.448242,134.525391 235.304688,134.554688 235.175781,134.554688 C234.964844,134.554688 234.774414,134.475586 234.604492,134.317383 C234.43457,134.15918 234.25,133.916016 234.050781,133.587891 L233.523438,132.673828 C233.265625,132.205078 233.136719,131.847656 233.136719,131.601562 C233.136719,131.214844 233.435547,130.863281 234.033203,130.546875 L242.400391,125.748047 C242.599609,125.630859 242.699219,125.466797 242.699219,125.255859 C242.699219,125.021484 242.587891,124.839844 242.365234,124.710938 L234.033203,120.070312 C233.447266,119.742188 233.154297,119.378906 233.154297,118.980469 C233.154297,118.722656 233.277344,118.371094 233.523438,117.925781 L234.050781,117.029297 C234.238281,116.689453 234.422852,116.443359 234.604492,116.291016 C234.786133,116.138672 234.982422,116.0625 235.193359,116.0625 C235.439453,116.0625 235.755859,116.173828 236.142578,116.396484 L244.351562,121.195312 C244.46875,121.265625 244.585938,121.300781 244.703125,121.300781 C244.867188,121.300781 245.004883,121.248047 245.116211,121.142578 C245.227539,121.037109 245.283203,120.890625 245.283203,120.703125 L245.230469,111.158203 C245.21875,110.560547 245.321289,110.15918 245.538086,109.954102 C245.754883,109.749023 246.179688,109.646484 246.8125,109.646484 L247.849609,109.646484 C248.482422,109.646484 248.907227,109.749023 249.124023,109.954102 C249.34082,110.15918 249.443359,110.560547 249.431641,111.158203 L249.378906,120.703125 C249.378906,120.890625 249.43457,121.037109 249.545898,121.142578 C249.657227,121.248047 249.789062,121.300781 249.941406,121.300781 C250.070312,121.300781 250.1875,121.265625 250.292969,121.195312 L258.519531,116.396484 C258.90625,116.162109 259.228516,116.044922 259.486328,116.044922 C259.697266,116.044922 259.887695,116.124023 260.057617,116.282227 C260.227539,116.44043 260.412109,116.689453 260.611328,117.029297 L261.138672,117.925781 C261.267578,118.148438 261.364258,118.347656 261.428711,118.523438 C261.493164,118.699219 261.525391,118.857422 261.525391,118.998047 C261.525391,119.373047 261.226562,119.730469 260.628906,120.070312 L252.296875,124.710938 C252.0625,124.839844 251.945312,125.021484 251.945312,125.255859 C251.945312,125.455078 252.050781,125.619141 252.261719,125.748047 L260.646484,130.546875 C261.244141,130.863281 261.542969,131.214844 261.542969,131.601562 C261.542969,131.742188 261.507812,131.900391 261.4375,132.076172 C261.367188,132.251953 261.267578,132.451172 261.138672,132.673828 L260.628906,133.587891 C260.429688,133.916016 260.245117,134.15918 260.075195,134.317383 C259.905273,134.475586 259.714844,134.554688 259.503906,134.554688 C259.363281,134.554688 259.216797,134.525391 259.064453,134.466797 C258.912109,134.408203 258.736328,134.326172 258.537109,134.220703 L250.275391,129.404297 C250.169922,129.345703 250.058594,129.316406 249.941406,129.316406 C249.789062,129.316406 249.657227,129.369141 249.545898,129.474609 C249.43457,129.580078 249.378906,129.720703 249.378906,129.896484 L249.431641,139.564453 C249.443359,140.162109 249.34082,140.560547 249.124023,140.759766 C248.907227,140.958984 248.482422,141.058594 247.849609,141.058594 Z" id="􀑆"></path>
        </g>
    </g>
</svg>