<?xml version="1.0" encoding="UTF-8"?>
<svg width="46px" height="37px" viewBox="0 0 46 37" version="1.1" xmlns="http://www.w3.org/2000/svg" xmlns:xlink="http://www.w3.org/1999/xlink">
    <title>􀝾</title>
    <g id="icons" stroke="none" stroke-width="1" fill="none" fill-rule="evenodd">
        <g id="Desktop-HD" transform="translate(-694.000000, -473.000000)" fill="#504F4F" fill-rule="nonzero">
            <path d="M713.853516,509.451172 C715.599609,509.451172 717.076172,509.00293 718.283203,508.106445 C719.490234,507.209961 720.483398,505.859375 721.262695,504.054688 C722.041992,502.25 722.660156,499.988281 723.117188,497.269531 C723.445312,495.300781 723.832031,493.753906 724.277344,492.628906 C724.722656,491.503906 725.241211,490.701172 725.833008,490.220703 C726.424805,489.740234 727.119141,489.5 727.916016,489.5 C728.830078,489.5 729.591797,489.807617 730.201172,490.422852 C730.810547,491.038086 731.276367,491.975586 731.598633,493.235352 C731.840332,494.180176 732.007874,495.314514 732.101257,496.638367 L732.104,496.683 L732.074648,496.691562 C731.719805,496.809687 731.379492,496.967187 731.053711,497.164062 C730.239258,497.65625 729.591797,498.318359 729.111328,499.150391 C728.630859,499.982422 728.390625,500.890625 728.390625,501.875 C728.390625,502.871094 728.630859,503.776367 729.111328,504.59082 C729.591797,505.405273 730.239258,506.055664 731.053711,506.541992 C731.868164,507.02832 732.773438,507.271484 733.769531,507.271484 C734.765625,507.271484 735.667969,507.02832 736.476562,506.541992 C737.285156,506.055664 737.932617,505.405273 738.418945,504.59082 C738.905273,503.776367 739.148438,502.871094 739.148438,501.875 C739.148438,500.890625 738.905273,499.982422 738.418945,499.150391 C737.932617,498.318359 737.285156,497.65918 736.476562,497.172852 C736.072266,496.929688 735.644531,496.74585 735.193359,496.621338 L735.06,496.589 L735.054141,496.524922 C734.861016,494.595547 734.544141,492.951172 734.103516,491.591797 C733.552734,489.892578 732.767578,488.624023 731.748047,487.786133 C730.728516,486.948242 729.457031,486.529297 727.933594,486.529297 C726.539062,486.529297 725.34375,486.866211 724.347656,487.540039 C723.351562,488.213867 722.516602,489.286133 721.842773,490.756836 C721.168945,492.227539 720.615234,494.164062 720.181641,496.566406 C719.900391,498.183594 719.586914,499.607422 719.241211,500.837891 C718.895508,502.068359 718.479492,503.099609 717.993164,503.931641 C717.506836,504.763672 716.917969,505.393555 716.226562,505.821289 C715.535156,506.249023 714.703125,506.462891 713.730469,506.462891 C711.9375,506.462891 710.566406,505.53125 709.617188,503.667969 C708.797408,502.058771 708.335994,499.859581 708.232946,497.070397 L708.229,496.953 L708.306641,496.938477 C709.07487,496.77832 709.845703,496.458008 710.619141,495.977539 C711.779297,495.256836 712.880859,494.292969 713.923828,493.085938 C714.966797,491.878906 715.889648,490.52832 716.692383,489.03418 C717.495117,487.540039 718.130859,486.016602 718.599609,484.463867 C719.068359,482.911133 719.302734,481.4375 719.302734,480.042969 C719.302734,478.15625 718.836914,476.732422 717.905273,475.771484 C716.973633,474.810547 715.605469,474.330078 713.800781,474.330078 L713.368,474.331 L713.323359,474.264687 C713.240859,474.153594 713.148047,474.046484 713.044922,473.943359 C712.529297,473.427734 711.908203,473.169922 711.181641,473.169922 C710.466797,473.169922 709.854492,473.427734 709.344727,473.943359 C708.834961,474.458984 708.580078,475.074219 708.580078,475.789062 C708.580078,476.515625 708.834961,477.136719 709.344727,477.652344 C709.854492,478.167969 710.466797,478.425781 711.181641,478.425781 C711.908203,478.425781 712.529297,478.167969 713.044922,477.652344 C713.148047,477.549219 713.240859,477.441875 713.323359,477.330312 L713.343,477.301 L713.90625,477.300781 C714.714844,477.300781 715.318359,477.532227 715.716797,477.995117 C716.115234,478.458008 716.314453,479.123047 716.314453,479.990234 C716.314453,481.056641 716.132812,482.216797 715.769531,483.470703 C715.40625,484.724609 714.908203,485.978516 714.275391,487.232422 C713.642578,488.486328 712.918945,489.628906 712.104492,490.660156 C711.290039,491.691406 710.425781,492.520508 709.511719,493.147461 C708.597656,493.774414 707.677734,494.087891 706.751953,494.087891 C705.849609,494.087891 704.938477,493.774414 704.018555,493.147461 C703.098633,492.520508 702.231445,491.691406 701.416992,490.660156 C700.602539,489.628906 699.881836,488.486328 699.254883,487.232422 C698.62793,485.978516 698.132812,484.724609 697.769531,483.470703 C697.40625,482.216797 697.224609,481.056641 697.224609,479.990234 C697.224609,479.123047 697.423828,478.458008 697.822266,477.995117 C698.220703,477.532227 698.8125,477.300781 699.597656,477.300781 L700.16,477.301 L700.180547,477.330312 C700.263047,477.441875 700.355859,477.549219 700.458984,477.652344 C700.974609,478.167969 701.595703,478.425781 702.322266,478.425781 C703.025391,478.425781 703.634766,478.167969 704.150391,477.652344 C704.666016,477.136719 704.923828,476.515625 704.923828,475.789062 C704.923828,475.074219 704.666016,474.458984 704.150391,473.943359 C703.634766,473.427734 703.025391,473.169922 702.322266,473.169922 C701.595703,473.169922 700.974609,473.427734 700.458984,473.943359 C700.355859,474.046484 700.263047,474.153594 700.180547,474.264687 L700.135,474.331 L699.738281,474.330078 C697.921875,474.330078 696.550781,474.810547 695.625,475.771484 C694.699219,476.732422 694.236328,478.15625 694.236328,480.042969 C694.236328,481.4375 694.467773,482.911133 694.930664,484.463867 C695.393555,486.016602 696.029297,487.540039 696.837891,489.03418 C697.646484,490.52832 698.566406,491.878906 699.597656,493.085938 C700.628906,494.292969 701.724609,495.256836 702.884766,495.977539 C703.658203,496.458008 704.434245,496.77832 705.212891,496.938477 L705.258,496.947 L705.266134,497.197243 C705.408873,500.905291 706.138522,503.80634 707.455078,505.900391 C708.943359,508.267578 711.076172,509.451172 713.853516,509.451172 Z M733.769531,504.634766 C733.265625,504.634766 732.802734,504.511719 732.380859,504.265625 C731.958984,504.019531 731.62207,503.685547 731.370117,503.263672 C731.118164,502.841797 730.992188,502.378906 730.992188,501.875 C730.992188,501.359375 731.118164,500.890625 731.370117,500.46875 C731.62207,500.046875 731.958984,499.71582 732.380859,499.475586 C732.802734,499.235352 733.265625,499.115234 733.769531,499.115234 C734.285156,499.115234 734.750977,499.235352 735.166992,499.475586 C735.583008,499.71582 735.914062,500.046875 736.160156,500.46875 C736.40625,500.890625 736.529297,501.359375 736.529297,501.875 C736.529297,502.378906 736.40625,502.841797 736.160156,503.263672 C735.914062,503.685547 735.583008,504.019531 735.166992,504.265625 C734.750977,504.511719 734.285156,504.634766 733.769531,504.634766 Z" id="􀝾"></path>
        </g>
    </g>
</svg>