<?xml version="1.0" encoding="UTF-8"?>
<svg width="22px" height="18px" viewBox="0 0 22 18" version="1.1" xmlns="http://www.w3.org/2000/svg" xmlns:xlink="http://www.w3.org/1999/xlink">
    <title>􀝾</title>
    <g id="Dashboard---doctors--webapp" stroke="none" stroke-width="1" fill="none" fill-rule="evenodd">
        <g id="Dashboard" transform="translate(-32.000000, -20.000000)" fill="#0080FF" fill-rule="nonzero">
            <g id="Group-11" transform="translate(31.000000, 19.000000)">
                <path d="M10.9765625,18.1328125 C11.8307292,18.1328125 12.5494792,17.9322917 13.1328125,17.53125 C13.7161458,17.1302083 14.1875,16.5247396 14.546875,15.7148438 C14.90625,14.9049479 15.1744792,13.8932292 15.3515625,12.6796875 C15.4765625,11.8776042 15.6263021,11.2447917 15.8007812,10.78125 C15.9752604,10.3177083 16.1822917,9.98567708 16.421875,9.78515625 C16.6614583,9.58463542 16.9427083,9.484375 17.265625,9.484375 C17.6354167,9.484375 17.9466146,9.60677083 18.1992188,9.8515625 C18.4518229,10.0963542 18.6432292,10.4856771 18.7734375,11.0195312 C18.8385417,11.2864583 18.8873698,11.5953776 18.9199219,11.9462891 L18.932,12.11 L18.7764668,12.1846301 C18.7186437,12.2155612 18.6616443,12.2490699 18.6054688,12.2851562 C18.2122396,12.5377604 17.8984375,12.8723958 17.6640625,13.2890625 C17.4296875,13.7057292 17.3125,14.1484375 17.3125,14.6171875 C17.3125,15.0963542 17.4296875,15.5325521 17.6640625,15.9257812 C17.8984375,16.3190104 18.2122396,16.6328125 18.6054688,16.8671875 C18.9986979,17.1015625 19.4322917,17.21875 19.90625,17.21875 C20.3854167,17.21875 20.8203125,17.1015625 21.2109375,16.8671875 C21.6015625,16.6328125 21.9140625,16.3190104 22.1484375,15.9257812 C22.3828125,15.5325521 22.5,15.0963542 22.5,14.6171875 C22.5,14.1484375 22.3828125,13.7057292 22.1484375,13.2890625 C21.9140625,12.8723958 21.6015625,12.5377604 21.2109375,12.2851562 C21.0993304,12.2129836 20.9841093,12.1511214 20.8652742,12.0995695 L20.687,12.031 L20.6534375,11.714375 C20.5740625,11.06625 20.4539062,10.5039062 20.2929688,10.0273438 C20.0247396,9.23307292 19.640625,8.64713542 19.140625,8.26953125 C18.640625,7.89192708 18.0286458,7.703125 17.3046875,7.703125 C16.6276042,7.703125 16.0429688,7.86067708 15.5507812,8.17578125 C15.0585938,8.49088542 14.6536458,8.97916667 14.3359375,9.640625 C14.0182292,10.3020833 13.7760417,11.1510417 13.609375,12.1875 C13.5052083,12.8697917 13.3841146,13.4700521 13.2460938,13.9882812 C13.1080729,14.5065104 12.9401042,14.9401042 12.7421875,15.2890625 C12.5442708,15.6380208 12.3020833,15.9023438 12.015625,16.0820312 C11.7291667,16.2617188 11.3854167,16.3515625 10.984375,16.3515625 C10.203125,16.3515625 9.61979167,15.9414062 9.234375,15.1210938 C8.93790064,14.4900841 8.76007766,13.6441152 8.70090607,12.5831869 L8.696,12.495 L8.77929688,12.4726562 C9.04622396,12.3919271 9.31510417,12.2708333 9.5859375,12.109375 C10.1276042,11.7864583 10.6471354,11.3528646 11.1445312,10.8085938 C11.6419271,10.2643229 12.0846354,9.65234375 12.4726562,8.97265625 C12.8606771,8.29296875 13.1679688,7.59375 13.3945312,6.875 C13.6210938,6.15625 13.734375,5.46354167 13.734375,4.796875 C13.734375,3.89583333 13.5039062,3.20833333 13.0429688,2.734375 C12.5820312,2.26041667 11.8984375,2.0234375 10.9921875,2.0234375 L10.865,2.024 L10.8085938,1.9609375 L10.8085938,1.9609375 C10.5455729,1.6953125 10.2265625,1.5625 9.8515625,1.5625 C9.48177083,1.5625 9.16536458,1.6953125 8.90234375,1.9609375 C8.63932292,2.2265625 8.5078125,2.54166667 8.5078125,2.90625 C8.5078125,3.27604167 8.63932292,3.59375 8.90234375,3.859375 C9.16536458,4.125 9.48177083,4.2578125 9.8515625,4.2578125 C10.2265625,4.2578125 10.5455729,4.125 10.8085938,3.859375 L10.85,3.813 L11.03125,3.8125 C11.3333333,3.8125 11.5611979,3.89713542 11.7148438,4.06640625 C11.8684896,4.23567708 11.9453125,4.47135417 11.9453125,4.7734375 C11.9453125,5.24739583 11.8619792,5.75520833 11.6953125,6.296875 C11.5286458,6.83854167 11.3033854,7.375 11.0195312,7.90625 C10.7356771,8.4375 10.4127604,8.92317708 10.0507812,9.36328125 C9.68880208,9.80338542 9.31510417,10.1549479 8.9296875,10.4179688 C8.54427083,10.6809896 8.16927083,10.8125 7.8046875,10.8125 C7.4453125,10.8125 7.07161458,10.6809896 6.68359375,10.4179688 C6.29557292,10.1549479 5.921875,9.80338542 5.5625,9.36328125 C5.203125,8.92317708 4.88151042,8.4375 4.59765625,7.90625 C4.31380208,7.375 4.08854167,6.83854167 3.921875,6.296875 C3.75520833,5.75520833 3.671875,5.24739583 3.671875,4.7734375 C3.671875,4.47135417 3.74869792,4.23567708 3.90234375,4.06640625 C4.05598958,3.89713542 4.28125,3.8125 4.578125,3.8125 L4.758,3.813 L4.80078125,3.859375 L4.80078125,3.859375 C5.06380208,4.125 5.3828125,4.2578125 5.7578125,4.2578125 C6.12239583,4.2578125 6.43619792,4.125 6.69921875,3.859375 C6.96223958,3.59375 7.09375,3.27604167 7.09375,2.90625 C7.09375,2.54166667 6.96223958,2.2265625 6.69921875,1.9609375 C6.43619792,1.6953125 6.12239583,1.5625 5.7578125,1.5625 C5.3828125,1.5625 5.06380208,1.6953125 4.80078125,1.9609375 L4.744,2.024 L4.625,2.0234375 C3.71875,2.0234375 3.03515625,2.26041667 2.57421875,2.734375 C2.11328125,3.20833333 1.8828125,3.89583333 1.8828125,4.796875 C1.8828125,5.46354167 1.99609375,6.15625 2.22265625,6.875 C2.44921875,7.59375 2.75651042,8.29296875 3.14453125,8.97265625 C3.53255208,9.65234375 3.97395833,10.2643229 4.46875,10.8085938 C4.96354167,11.3528646 5.48177083,11.7864583 6.0234375,12.109375 C6.29427083,12.2708333 6.56380208,12.3919271 6.83203125,12.4726562 L6.917,12.496 L6.92712402,12.717926 C7.01281738,14.2982279 7.33919271,15.5432943 7.90625,16.453125 C8.60416667,17.5729167 9.62760417,18.1328125 10.9765625,18.1328125 Z M19.9140625,15.609375 C19.7317708,15.609375 19.5651042,15.5651042 19.4140625,15.4765625 C19.2630208,15.3880208 19.1432292,15.2682292 19.0546875,15.1171875 C18.9661458,14.9661458 18.921875,14.7994792 18.921875,14.6171875 C18.921875,14.4348958 18.9661458,14.2695312 19.0546875,14.1210938 C19.1432292,13.9726562 19.2630208,13.8541667 19.4140625,13.765625 C19.5651042,13.6770833 19.7317708,13.6328125 19.9140625,13.6328125 C20.0963542,13.6328125 20.2617188,13.6770833 20.4101562,13.765625 C20.5585938,13.8541667 20.6757812,13.9726562 20.7617188,14.1210938 C20.8476562,14.2695312 20.890625,14.4348958 20.890625,14.6171875 C20.890625,14.7994792 20.8476562,14.9661458 20.7617188,15.1171875 C20.6757812,15.2682292 20.5585938,15.3880208 20.4101562,15.4765625 C20.2617188,15.5651042 20.0963542,15.609375 19.9140625,15.609375 Z" id="􀝾"></path>
            </g>
        </g>
    </g>
</svg>