<?xml version="1.0" encoding="UTF-8"?>
<svg width="21px" height="24px" viewBox="0 0 21 24" version="1.1" xmlns="http://www.w3.org/2000/svg" xmlns:xlink="http://www.w3.org/1999/xlink">
    <title>􀈑</title>
    <g id="Icons" stroke="none" stroke-width="1" fill="none" fill-rule="evenodd">
        <g id="Desktop-HD" transform="translate(-1157.000000, -30.000000)" fill="#0080FF" fill-rule="nonzero">
            <path d="M1171.78125,53.1738281 C1172.58203,53.1738281 1173.2168,52.9557292 1173.68555,52.5195312 C1174.1543,52.0833333 1174.4082,51.4648438 1174.44727,50.6640625 L1175.0918,36.7089844 L1176.09766,36.7089844 C1176.3776,36.7089844 1176.61198,36.6162109 1176.80078,36.4306641 C1176.98958,36.2451172 1177.08398,36.0123698 1177.08398,35.7324219 C1177.08398,35.4589844 1176.98958,35.2294922 1176.80078,35.0439453 C1176.61198,34.8583984 1176.3776,34.765625 1176.09766,34.765625 L1171.849,34.766 L1171.84961,33.3300781 C1171.84961,32.5488281 1171.61361,31.9417318 1171.1416,31.5087891 C1170.6696,31.0758464 1170.00065,30.859375 1169.13477,30.859375 L1165.42383,30.859375 C1164.55794,30.859375 1163.889,31.0758464 1163.41699,31.5087891 C1162.94499,31.9417318 1162.70898,32.5488281 1162.70898,33.3300781 L1162.708,34.766 L1158.48047,34.765625 C1158.20703,34.765625 1157.97428,34.8583984 1157.78223,35.0439453 C1157.59017,35.2294922 1157.49414,35.4589844 1157.49414,35.7324219 C1157.49414,36.0123698 1157.59017,36.2451172 1157.78223,36.4306641 C1157.97428,36.6162109 1158.20703,36.7089844 1158.48047,36.7089844 L1159.48633,36.7089844 L1160.13086,50.6738281 C1160.16341,51.468099 1160.41569,52.0833333 1160.8877,52.5195312 C1161.3597,52.9557292 1161.99284,53.1738281 1162.78711,53.1738281 L1171.78125,53.1738281 Z M1169.818,34.766 L1164.75,34.766 L1164.75,33.4082031 C1164.75,33.1803385 1164.82324,32.9980469 1164.96973,32.8613281 C1165.11621,32.7246094 1165.31641,32.65625 1165.57031,32.65625 L1168.99805,32.65625 C1169.25195,32.65625 1169.45215,32.7246094 1169.59863,32.8613281 C1169.74512,32.9980469 1169.81836,33.1803385 1169.81836,33.4082031 L1169.818,34.766 Z M1171.52734,51.2109375 L1163.04102,51.2109375 C1162.7806,51.2109375 1162.56576,51.1230469 1162.39648,50.9472656 C1162.22721,50.7714844 1162.13607,50.5403646 1162.12305,50.2539062 L1161.47852,36.7089844 L1173.06055,36.7089844 L1172.45508,50.2539062 C1172.44206,50.546875 1172.35091,50.7796224 1172.18164,50.9521484 C1172.01237,51.1246745 1171.79427,51.2109375 1171.52734,51.2109375 Z M1164.41797,49.7167969 C1164.64583,49.7167969 1164.8265,49.6500651 1164.95996,49.5166016 C1165.09342,49.383138 1165.15365,49.2122396 1165.14062,49.0039062 L1164.85742,38.9550781 C1164.85091,38.7532552 1164.7793,38.5872396 1164.64258,38.4570312 C1164.50586,38.3268229 1164.33008,38.2617188 1164.11523,38.2617188 C1163.89388,38.2617188 1163.7181,38.3268229 1163.58789,38.4570312 C1163.45768,38.5872396 1163.39583,38.7597656 1163.40234,38.9746094 L1163.69531,49.0136719 C1163.70182,49.2285156 1163.77181,49.3994141 1163.90527,49.5263672 C1164.03874,49.6533203 1164.20964,49.7167969 1164.41797,49.7167969 Z M1167.28906,49.7167969 C1167.50391,49.7167969 1167.67969,49.6516927 1167.81641,49.5214844 C1167.95312,49.391276 1168.02148,49.2252604 1168.02148,49.0234375 L1168.02148,38.9648438 C1168.02148,38.7565104 1167.95312,38.5872396 1167.81641,38.4570312 C1167.67969,38.3268229 1167.50391,38.2617188 1167.28906,38.2617188 C1167.06771,38.2617188 1166.88867,38.3268229 1166.75195,38.4570312 C1166.61523,38.5872396 1166.54688,38.7565104 1166.54688,38.9648438 L1166.54688,49.0234375 C1166.54688,49.2252604 1166.61523,49.391276 1166.75195,49.5214844 C1166.88867,49.6516927 1167.06771,49.7167969 1167.28906,49.7167969 Z M1170.15039,49.7167969 C1170.35872,49.7167969 1170.53125,49.6533203 1170.66797,49.5263672 C1170.80469,49.3994141 1170.87305,49.2285156 1170.87305,49.0136719 L1171.17578,38.9746094 C1171.18229,38.7597656 1171.12044,38.5872396 1170.99023,38.4570312 C1170.86003,38.3268229 1170.68099,38.2617188 1170.45312,38.2617188 C1170.24479,38.2617188 1170.07227,38.3268229 1169.93555,38.4570312 C1169.79883,38.5872396 1169.72721,38.7565104 1169.7207,38.9648438 L1169.42773,49.0039062 C1169.42122,49.2122396 1169.4847,49.383138 1169.61816,49.5166016 C1169.75163,49.6500651 1169.92904,49.7167969 1170.15039,49.7167969 Z" id="􀈑"></path>
        </g>
    </g>
</svg>