<?xml version="1.0" encoding="UTF-8"?>
<svg width="25px" height="25px" viewBox="0 0 25 25" version="1.1" xmlns="http://www.w3.org/2000/svg" xmlns:xlink="http://www.w3.org/1999/xlink">
    <title>􀐫</title>
    <g id="Web" stroke="none" stroke-width="1" fill="none" fill-rule="evenodd">
        <g id="Desktop-HD" transform="translate(-884.000000, -447.000000)" fill="#000000" fill-rule="nonzero">
            <path d="M896.214844,471.667969 C897.878906,471.667969 899.441406,471.351562 900.902344,470.71875 C902.363281,470.085938 903.652344,469.210938 904.769531,468.09375 C905.886719,466.976562 906.761719,465.685547 907.394531,464.220703 C908.027344,462.755859 908.34375,461.195312 908.34375,459.539062 C908.34375,457.882812 908.027344,456.324219 907.394531,454.863281 C906.761719,453.402344 905.886719,452.113281 904.769531,450.996094 C903.652344,449.878906 902.361328,449.003906 900.896484,448.371094 C899.431641,447.738281 897.871094,447.421875 896.214844,447.421875 C894.550781,447.421875 892.988281,447.738281 891.527344,448.371094 C890.066406,449.003906 888.779297,449.878906 887.666016,450.996094 C886.552734,452.113281 885.679688,453.402344 885.046875,454.863281 C884.414062,456.324219 884.097656,457.882812 884.097656,459.539062 C884.097656,461.195312 884.414062,462.755859 885.046875,464.220703 C885.679688,465.685547 886.554688,466.976562 887.671875,468.09375 C888.789062,469.210938 890.078125,470.085938 891.539062,470.71875 C893,471.351562 894.558594,471.667969 896.214844,471.667969 Z M896.214844,469.230469 C894.871094,469.230469 893.615234,468.980469 892.447266,468.480469 C891.279297,467.980469 890.251953,467.287109 889.365234,466.400391 C888.478516,465.513672 887.785156,464.484375 887.285156,463.3125 C886.785156,462.140625 886.535156,460.882812 886.535156,459.539062 C886.535156,458.195312 886.785156,456.9375 887.285156,455.765625 C887.785156,454.59375 888.476562,453.564453 889.359375,452.677734 C890.242188,451.791016 891.269531,451.097656 892.441406,450.597656 C893.613281,450.097656 894.871094,449.847656 896.214844,449.847656 C897.558594,449.847656 898.814453,450.097656 899.982422,450.597656 C901.150391,451.097656 902.179688,451.791016 903.070312,452.677734 C903.960938,453.564453 904.658203,454.59375 905.162109,455.765625 C905.666016,456.9375 905.917969,458.195312 905.917969,459.539062 C905.917969,460.882812 905.667969,462.140625 905.167969,463.3125 C904.667969,464.484375 903.974609,465.513672 903.087891,466.400391 C902.201172,467.287109 901.171875,467.980469 900,468.480469 C898.828125,468.980469 897.566406,469.230469 896.214844,469.230469 Z M896.214844,461.015625 C896.480469,461.015625 896.703125,460.925781 896.882812,460.746094 C897.0625,460.566406 897.152344,460.34375 897.152344,460.078125 L897.152344,452.414062 C897.152344,452.15625 897.0625,451.9375 896.882812,451.757812 C896.703125,451.578125 896.480469,451.488281 896.214844,451.488281 C895.949219,451.488281 895.726562,451.578125 895.546875,451.757812 C895.367188,451.9375 895.277344,452.15625 895.277344,452.414062 L895.277344,459.140625 L890.320312,459.140625 C890.054688,459.140625 889.830078,459.230469 889.646484,459.410156 C889.462891,459.589844 889.371094,459.8125 889.371094,460.078125 C889.371094,460.34375 889.462891,460.566406 889.646484,460.746094 C889.830078,460.925781 890.054688,461.015625 890.320312,461.015625 L896.214844,461.015625 Z" id="􀐫"></path>
        </g>
    </g>
</svg>