<?xml version="1.0" encoding="UTF-8"?>
<svg width="48px" height="48px" viewBox="0 0 48 48" version="1.1" xmlns="http://www.w3.org/2000/svg" xmlns:xlink="http://www.w3.org/1999/xlink">
    <title>􀉭</title>
    <g id="icons" stroke="none" stroke-width="1" fill="none" fill-rule="evenodd">
        <g id="Desktop-HD" transform="translate(-971.000000, -131.000000)" fill="#0080FF" fill-rule="nonzero">
            <path d="M994.703125,178.585938 C997.921875,178.585938 1000.94922,177.972656 1003.78516,176.746094 C1006.62109,175.519531 1009.11719,173.824219 1011.27344,171.660156 C1013.42969,169.496094 1015.125,166.996094 1016.35938,164.160156 C1017.59375,161.324219 1018.21094,158.296875 1018.21094,155.078125 C1018.21094,151.859375 1017.59375,148.832031 1016.35938,145.996094 C1015.125,143.160156 1013.42969,140.660156 1011.27344,138.496094 C1009.11719,136.332031 1006.61719,134.636719 1003.77344,133.410156 C1000.92969,132.183594 997.898438,131.570312 994.679688,131.570312 C991.460938,131.570312 988.433594,132.183594 985.597656,133.410156 C982.761719,134.636719 980.265625,136.332031 978.109375,138.496094 C975.953125,140.660156 974.261719,143.160156 973.035156,145.996094 C971.808594,148.832031 971.195312,151.859375 971.195312,155.078125 C971.195312,158.296875 971.808594,161.324219 973.035156,164.160156 C974.261719,166.996094 975.957031,169.496094 978.121094,171.660156 C980.285156,173.824219 982.785156,175.519531 985.621094,176.746094 C988.457031,177.972656 991.484375,178.585938 994.703125,178.585938 Z M1009.843,168.901 L1009.80531,168.847188 C1009.30281,168.174063 1008.62031,167.502344 1007.75781,166.832031 C1006.32031,165.714844 1004.49219,164.789062 1002.27344,164.054688 C1000.05469,163.320312 997.53125,162.953125 994.703125,162.953125 C991.890625,162.953125 989.375,163.320312 987.15625,164.054688 C984.9375,164.789062 983.105469,165.710938 981.660156,166.820312 C980.792969,167.485938 980.104375,168.151562 979.594375,168.817187 L979.557,168.869 L979.490625,168.796458 C977.960417,167.101944 976.738281,165.18151 975.824219,163.035156 C974.769531,160.558594 974.242188,157.90625 974.242188,155.078125 C974.242188,152.25 974.769531,149.597656 975.824219,147.121094 C976.878906,144.644531 978.339844,142.464844 980.207031,140.582031 C982.074219,138.699219 984.246094,137.230469 986.722656,136.175781 C989.199219,135.121094 991.851562,134.59375 994.679688,134.59375 C997.523438,134.59375 1000.17969,135.121094 1002.64844,136.175781 C1005.11719,137.230469 1007.29297,138.699219 1009.17578,140.582031 C1011.05859,142.464844 1012.53125,144.644531 1013.59375,147.121094 C1014.65625,149.597656 1015.1875,152.25 1015.1875,155.078125 C1015.1875,157.90625 1014.66016,160.558594 1013.60547,163.035156 C1012.69141,165.18151 1011.46927,167.101944 1009.93906,168.796458 L1009.843,168.901 Z M994.703125,158.945312 C996.203125,158.945312 997.554688,158.558594 998.757812,157.785156 C999.960938,157.011719 1000.91797,155.957031 1001.62891,154.621094 C1002.33984,153.285156 1002.69531,151.78125 1002.69531,150.109375 C1002.69531,148.546875 1002.33594,147.109375 1001.61719,145.796875 C1000.89844,144.484375 999.9375,143.433594 998.734375,142.644531 C997.53125,141.855469 996.1875,141.460938 994.703125,141.460938 C993.21875,141.460938 991.871094,141.855469 990.660156,142.644531 C989.449219,143.433594 988.484375,144.484375 987.765625,145.796875 C987.046875,147.109375 986.695312,148.546875 986.710938,150.109375 C986.726562,151.78125 987.085938,153.28125 987.789062,154.609375 C988.492188,155.9375 989.445312,156.988281 990.648438,157.761719 C991.851562,158.535156 993.203125,158.929688 994.703125,158.945312 Z" id="􀉭"></path>
        </g>
    </g>
</svg>