<?xml version="1.0" encoding="UTF-8"?>
<svg width="47px" height="47px" viewBox="0 0 47 47" version="1.1" xmlns="http://www.w3.org/2000/svg" xmlns:xlink="http://www.w3.org/1999/xlink">
    <title>􀉭</title>
    <g id="icons" stroke="none" stroke-width="1" fill="none" fill-rule="evenodd">
        <g id="Desktop-HD" transform="translate(-971.000000, -132.000000)" fill="#0080FF" fill-rule="nonzero">
            <path d="M994.164062,178.046875 C997.335938,178.046875 1000.30469,177.449219 1003.07031,176.253906 C1005.83594,175.058594 1008.27734,173.40625 1010.39453,171.296875 C1012.51172,169.1875 1014.16797,166.746094 1015.36328,163.972656 C1016.55859,161.199219 1017.15625,158.234375 1017.15625,155.078125 C1017.15625,151.921875 1016.55859,148.957031 1015.36328,146.183594 C1014.16797,143.410156 1012.51172,140.96875 1010.39453,138.859375 C1008.27734,136.75 1005.83203,135.097656 1003.05859,133.902344 C1000.28516,132.707031 997.320312,132.109375 994.164062,132.109375 C991.007812,132.109375 988.042969,132.707031 985.269531,133.902344 C982.496094,135.097656 980.054688,136.75 977.945312,138.859375 C975.835938,140.96875 974.183594,143.410156 972.988281,146.183594 C971.792969,148.957031 971.195312,151.921875 971.195312,155.078125 C971.195312,158.234375 971.792969,161.199219 972.988281,163.972656 C974.183594,166.746094 975.835938,169.1875 977.945312,171.296875 C980.054688,173.40625 982.496094,175.058594 985.269531,176.253906 C988.042969,177.449219 991.007812,178.046875 994.164062,178.046875 Z M1009.651,169.574 L1009.56578,169.428438 C1009.02453,168.558437 1008.17578,167.673438 1007.01953,166.773438 C1005.57422,165.648438 1003.76172,164.703125 1001.58203,163.9375 C999.402344,163.171875 996.929688,162.789062 994.164062,162.789062 C991.429688,162.789062 988.972656,163.167969 986.792969,163.925781 C984.613281,164.683594 982.800781,165.617188 981.355469,166.726562 C980.116629,167.677455 979.219308,168.611129 978.663504,169.527583 L978.661,169.532 L978.420365,169.271823 C976.83283,167.514566 975.565104,165.525521 974.617188,163.304688 C973.523438,160.742188 972.976562,158 972.976562,155.078125 C972.976562,152.15625 973.523438,149.414062 974.617188,146.851562 C975.710938,144.289062 977.230469,142.03125 979.175781,140.078125 C981.121094,138.125 983.375,136.601562 985.9375,135.507812 C988.5,134.414062 991.242188,133.867188 994.164062,133.867188 C997.101562,133.867188 999.847656,134.414062 1002.40234,135.507812 C1004.95703,136.601562 1007.21094,138.125 1009.16406,140.078125 C1011.11719,142.03125 1012.64062,144.289062 1013.73438,146.851562 C1014.82812,149.414062 1015.375,152.15625 1015.375,155.078125 C1015.375,158 1014.82812,160.742188 1013.73438,163.304688 C1012.78646,165.525521 1011.51873,167.514566 1009.9312,169.271823 L1009.651,169.574 Z M994.164062,158.757812 C995.664062,158.757812 997.011719,158.371094 998.207031,157.597656 C999.402344,156.824219 1000.35156,155.769531 1001.05469,154.433594 C1001.75781,153.097656 1002.10938,151.601562 1002.10938,149.945312 C1002.10938,148.382812 1001.75391,146.949219 1001.04297,145.644531 C1000.33203,144.339844 999.378906,143.292969 998.183594,142.503906 C996.988281,141.714844 995.648438,141.320312 994.164062,141.320312 C992.695312,141.320312 991.359375,141.714844 990.15625,142.503906 C988.953125,143.292969 987.996094,144.339844 987.285156,145.644531 C986.574219,146.949219 986.226562,148.382812 986.242188,149.945312 C986.242188,151.601562 986.589844,153.09375 987.285156,154.421875 C987.980469,155.75 988.929688,156.800781 990.132812,157.574219 C991.335938,158.347656 992.679688,158.742188 994.164062,158.757812 Z" id="􀉭"></path>
        </g>
    </g>
</svg>