<?xml version="1.0" encoding="UTF-8"?>
<svg width="46px" height="31px" viewBox="0 0 46 31" version="1.1" xmlns="http://www.w3.org/2000/svg" xmlns:xlink="http://www.w3.org/1999/xlink">
    <title>􀍉</title>
    <g id="icons" stroke="none" stroke-width="1" fill="none" fill-rule="evenodd">
        <g id="Desktop-HD" transform="translate(-335.000000, -183.000000)" fill="#504F4F" fill-rule="nonzero">
            <path d="M361.375,213.443359 C363.824219,213.443359 365.705078,212.795898 367.017578,211.500977 C368.330078,210.206055 368.986328,208.392578 368.986328,206.060547 L368.986,204.477 L374.734375,209.365234 C375.261719,209.810547 375.774414,210.170898 376.272461,210.446289 C376.770508,210.72168 377.283203,210.859375 377.810547,210.859375 C378.677734,210.859375 379.389648,210.578125 379.946289,210.015625 C380.50293,209.453125 380.78125,208.691406 380.78125,207.730469 L380.78125,189.027344 C380.78125,188.066406 380.50293,187.307617 379.946289,186.750977 C379.389648,186.194336 378.677734,185.916016 377.810547,185.916016 C377.283203,185.916016 376.770508,186.050781 376.272461,186.320312 C375.774414,186.589844 375.261719,186.947266 374.734375,187.392578 L368.986,192.281 L368.986328,190.451172 C368.986328,188.107422 368.330078,186.293945 367.017578,185.010742 C365.705078,183.727539 363.824219,183.085938 361.375,183.085938 L343.234375,183.085938 C340.832031,183.085938 338.962891,183.727539 337.626953,185.010742 C336.291016,186.293945 335.623047,188.113281 335.623047,190.46875 L335.623047,206.394531 C335.623047,208.726562 336.279297,210.484375 337.591797,211.667969 C338.904297,212.851562 340.785156,213.443359 343.234375,213.443359 L361.375,213.443359 Z M360.601562,209.3125 L343.990234,209.3125 C342.724609,209.3125 341.749023,208.972656 341.063477,208.292969 C340.37793,207.613281 340.035156,206.646484 340.035156,205.392578 L340.035156,191.119141 C340.035156,189.806641 340.37793,188.825195 341.063477,188.174805 C341.749023,187.524414 342.724609,187.199219 343.990234,187.199219 L360.619141,187.199219 C361.884766,187.199219 362.860352,187.539062 363.545898,188.21875 C364.231445,188.898438 364.574219,189.865234 364.574219,191.119141 L364.574219,205.392578 C364.574219,206.646484 364.225586,207.613281 363.52832,208.292969 C362.831055,208.972656 361.855469,209.3125 360.601562,209.3125 Z M376.421875,205.761719 C376.351562,205.761719 376.287109,205.744141 376.228516,205.708984 C376.169922,205.673828 376.111328,205.632812 376.052734,205.585938 L368.986,199.915 L368.986,196.844 L376.052734,191.171875 C376.111328,191.125 376.169922,191.083984 376.228516,191.048828 C376.287109,191.013672 376.351562,190.996094 376.421875,190.996094 C376.597656,190.996094 376.685547,191.113281 376.685547,191.347656 L376.685547,205.427734 C376.685547,205.650391 376.597656,205.761719 376.421875,205.761719 Z" id="􀍉"></path>
        </g>
    </g>
</svg>