<?xml version="1.0" encoding="UTF-8"?>
<svg width="46px" height="31px" viewBox="0 0 46 31" version="1.1" xmlns="http://www.w3.org/2000/svg" xmlns:xlink="http://www.w3.org/1999/xlink">
    <title>􀍉</title>
    <g id="icons" stroke="none" stroke-width="1" fill="none" fill-rule="evenodd">
        <g id="Desktop-HD" transform="translate(-329.000000, -240.000000)" fill="#0080FF" fill-rule="nonzero">
            <path d="M355.375,270.443359 C357.824219,270.443359 359.705078,269.795898 361.017578,268.500977 C362.330078,267.206055 362.986328,265.392578 362.986328,263.060547 L362.986,261.477 L368.734375,266.365234 C369.261719,266.810547 369.774414,267.170898 370.272461,267.446289 C370.770508,267.72168 371.283203,267.859375 371.810547,267.859375 C372.677734,267.859375 373.389648,267.578125 373.946289,267.015625 C374.50293,266.453125 374.78125,265.691406 374.78125,264.730469 L374.78125,246.027344 C374.78125,245.066406 374.50293,244.307617 373.946289,243.750977 C373.389648,243.194336 372.677734,242.916016 371.810547,242.916016 C371.283203,242.916016 370.770508,243.050781 370.272461,243.320312 C369.774414,243.589844 369.261719,243.947266 368.734375,244.392578 L362.986,249.281 L362.986328,247.451172 C362.986328,245.107422 362.330078,243.293945 361.017578,242.010742 C359.705078,240.727539 357.824219,240.085938 355.375,240.085938 L337.234375,240.085938 C334.832031,240.085938 332.962891,240.727539 331.626953,242.010742 C330.291016,243.293945 329.623047,245.113281 329.623047,247.46875 L329.623047,263.394531 C329.623047,265.726562 330.279297,267.484375 331.591797,268.667969 C332.904297,269.851562 334.785156,270.443359 337.234375,270.443359 L355.375,270.443359 Z M354.601562,266.3125 L337.990234,266.3125 C336.724609,266.3125 335.749023,265.972656 335.063477,265.292969 C334.37793,264.613281 334.035156,263.646484 334.035156,262.392578 L334.035156,248.119141 C334.035156,246.806641 334.37793,245.825195 335.063477,245.174805 C335.749023,244.524414 336.724609,244.199219 337.990234,244.199219 L354.619141,244.199219 C355.884766,244.199219 356.860352,244.539062 357.545898,245.21875 C358.231445,245.898438 358.574219,246.865234 358.574219,248.119141 L358.574219,262.392578 C358.574219,263.646484 358.225586,264.613281 357.52832,265.292969 C356.831055,265.972656 355.855469,266.3125 354.601562,266.3125 Z M370.421875,262.761719 C370.351562,262.761719 370.287109,262.744141 370.228516,262.708984 C370.169922,262.673828 370.111328,262.632812 370.052734,262.585938 L362.986,256.915 L362.986,253.844 L370.052734,248.171875 C370.111328,248.125 370.169922,248.083984 370.228516,248.048828 C370.287109,248.013672 370.351562,247.996094 370.421875,247.996094 C370.597656,247.996094 370.685547,248.113281 370.685547,248.347656 L370.685547,262.427734 C370.685547,262.650391 370.597656,262.761719 370.421875,262.761719 Z" id="􀍉"></path>
        </g>
    </g>
</svg>