<?xml version="1.0" encoding="UTF-8"?>
<svg width="42px" height="42px" viewBox="0 0 42 42" version="1.1" xmlns="http://www.w3.org/2000/svg" xmlns:xlink="http://www.w3.org/1999/xlink">
    <title>video-call</title>
    <g id="Page-1" stroke="none" stroke-width="1" fill="none" fill-rule="evenodd">
        <g id="video-call">
            <circle id="Oval" fill="#0080FF" cx="21" cy="21" r="21"></circle>
            <path d="M24.0946166,28.954323 C25.2365416,28.954323 26.1223491,28.6443719 26.7520392,28.0244698 C27.3817292,27.4045677 27.6965742,26.5269168 27.6965742,25.3915171 L27.695698,23.6662093 L31.5921697,26.8988581 C31.7814029,27.0489396 31.9706362,27.1712887 32.1598695,27.2659054 C32.3491028,27.360522 32.5448613,27.4078303 32.7471452,27.4078303 C33.1256117,27.4078303 33.4290375,27.2822186 33.6574225,27.0309951 C33.8858075,26.7797716 34,26.4453507 34,26.0277325 L34,15.9265905 C34,15.5089723 33.8858075,15.1745514 33.6574225,14.9233279 C33.4290375,14.6721044 33.1256117,14.5464927 32.7471452,14.5464927 C32.5448613,14.5464927 32.3491028,14.593801 32.1598695,14.6884176 C31.9706362,14.7830343 31.7814029,14.9053834 31.5921697,15.0554649 L27.695698,18.2891951 L27.6965742,16.5725938 C27.6965742,15.4306688 27.3817292,14.5497553 26.7520392,13.9298532 C26.1223491,13.3099511 25.2365416,13 24.0946166,13 L13.6019576,13 C12.4991843,13 11.6231648,13.3099511 10.9738989,13.9298532 C10.324633,14.5497553 10,15.4306688 10,16.5725938 L10,25.3915171 C10,26.5269168 10.3164763,27.4045677 10.949429,28.0244698 C11.5823817,28.6443719 12.4665579,28.954323 13.6019576,28.954323 L24.0946166,28.954323 Z M23.8792822,27.8287113 L13.8270799,27.8287113 C12.9722675,27.8287113 12.3213703,27.6101142 11.8743883,27.1729201 C11.4274062,26.7357259 11.2039152,26.0766721 11.2039152,25.1957586 L11.2039152,16.7585644 C11.2039152,15.8776509 11.4274062,15.2185971 11.8743883,14.7814029 C12.3213703,14.3442088 12.9722675,14.1256117 13.8270799,14.1256117 L23.8792822,14.1256117 C24.7275693,14.1256117 25.3752039,14.3442088 25.822186,14.7814029 C26.269168,15.2185971 26.4926591,15.8776509 26.4926591,16.7585644 L26.4926591,25.1957586 C26.4926591,26.0766721 26.269168,26.7357259 25.822186,27.1729201 C25.3752039,27.6101142 24.7275693,27.8287113 23.8792822,27.8287113 Z M32.5709625,26.08646 C32.5057096,26.08646 32.4437194,26.0685155 32.3849918,26.0326264 C32.3262643,25.9967374 32.2577488,25.949429 32.1794454,25.8907015 L27.695698,22.2534663 L27.695698,19.710529 L32.1794454,16.0636215 C32.2577488,16.004894 32.3262643,15.9575856 32.3849918,15.9216966 C32.4437194,15.8858075 32.5057096,15.867863 32.5709625,15.867863 C32.7471452,15.867863 32.8352365,15.9885808 32.8352365,16.2300163 L32.8352365,25.7243067 C32.8352365,25.9657423 32.7471452,26.08646 32.5709625,26.08646 Z" id="􀍉" fill="#FFFFFF" fill-rule="nonzero"></path>
        </g>
    </g>
</svg>