<?xml version="1.0" encoding="UTF-8"?>
<svg width="34px" height="33px" viewBox="0 0 34 33" version="1.1" xmlns="http://www.w3.org/2000/svg" xmlns:xlink="http://www.w3.org/1999/xlink">
    <title>􀍋</title>
    <g id="Icons" stroke="none" stroke-width="1" fill="none" fill-rule="evenodd">
        <g id="Desktop-HD" transform="translate(-340.000000, -194.000000)" fill="#0080FF" fill-rule="nonzero">
            <path d="M356.953125,226.890625 C359.171875,226.890625 361.255208,226.46875 363.203125,225.625 C365.151042,224.78125 366.869792,223.614583 368.359375,222.125 C369.848958,220.635417 371.015625,218.914062 371.859375,216.960938 C372.703125,215.007812 373.125,212.927083 373.125,210.71875 C373.125,208.510417 372.703125,206.432292 371.859375,204.484375 C371.015625,202.536458 369.848958,200.817708 368.359375,199.328125 C366.869792,197.838542 365.148438,196.671875 363.195312,195.828125 C361.242188,194.984375 359.161458,194.5625 356.953125,194.5625 C354.734375,194.5625 352.651042,194.984375 350.703125,195.828125 C348.755208,196.671875 347.039062,197.838542 345.554688,199.328125 C344.070312,200.817708 342.90625,202.536458 342.0625,204.484375 C341.21875,206.432292 340.796875,208.510417 340.796875,210.71875 C340.796875,212.927083 341.21875,215.007812 342.0625,216.960938 C342.90625,218.914062 344.072917,220.635417 345.5625,222.125 C347.052083,223.614583 348.770833,224.78125 350.71875,225.625 C352.666667,226.46875 354.744792,226.890625 356.953125,226.890625 Z M356.953125,223.640625 C355.161458,223.640625 353.486979,223.307292 351.929688,222.640625 C350.372396,221.973958 349.002604,221.049479 347.820312,219.867188 C346.638021,218.684896 345.713542,217.3125 345.046875,215.75 C344.380208,214.1875 344.046875,212.510417 344.046875,210.71875 C344.046875,208.927083 344.380208,207.25 345.046875,205.6875 C345.713542,204.125 346.635417,202.752604 347.8125,201.570312 C348.989583,200.388021 350.359375,199.463542 351.921875,198.796875 C353.484375,198.130208 355.161458,197.796875 356.953125,197.796875 C358.744792,197.796875 360.419271,198.130208 361.976562,198.796875 C363.533854,199.463542 364.90625,200.388021 366.09375,201.570312 C367.28125,202.752604 368.210938,204.125 368.882812,205.6875 C369.554688,207.25 369.890625,208.927083 369.890625,210.71875 C369.890625,212.510417 369.557292,214.1875 368.890625,215.75 C368.223958,217.3125 367.299479,218.684896 366.117188,219.867188 C364.934896,221.049479 363.5625,221.973958 362,222.640625 C360.4375,223.307292 358.755208,223.640625 356.953125,223.640625 Z M358.546875,216.890625 C359.348958,216.890625 359.96875,216.674479 360.40625,216.242188 C360.84375,215.809896 361.0625,215.208333 361.0625,214.4375 L361.0625,207.078125 C361.0625,206.296875 360.854167,205.692708 360.4375,205.265625 C360.020833,204.838542 359.411458,204.625 358.609375,204.625 L350.671875,204.625 C349.911458,204.625 349.302083,204.838542 348.84375,205.265625 C348.385417,205.692708 348.15625,206.296875 348.15625,207.078125 L348.15625,214.46875 C348.15625,215.25 348.377604,215.848958 348.820312,216.265625 C349.263021,216.682292 349.880208,216.890625 350.671875,216.890625 L358.546875,216.890625 Z M365.65625,215.78125 C365.958333,215.78125 366.203125,215.682292 366.390625,215.484375 C366.578125,215.286458 366.671875,215.020833 366.671875,214.6875 L366.671875,206.84375 C366.671875,206.510417 366.578125,206.247396 366.390625,206.054688 C366.203125,205.861979 365.958333,205.765625 365.65625,205.765625 C365.510417,205.765625 365.356771,205.804688 365.195312,205.882812 C365.033854,205.960938 364.875,206.0625 364.71875,206.1875 L361.9375,208.546875 L361.9375,213 L364.71875,215.34375 C364.875,215.46875 365.033854,215.572917 365.195312,215.65625 C365.356771,215.739583 365.510417,215.78125 365.65625,215.78125 Z" id="􀍋"></path>
        </g>
    </g>
</svg>