<?xml version="1.0" encoding="UTF-8"?>
<svg width="42px" height="42px" viewBox="0 0 42 42" version="1.1" xmlns="http://www.w3.org/2000/svg" xmlns:xlink="http://www.w3.org/1999/xlink">
    <title>video-off</title>
    <g id="Page-1" stroke="none" stroke-width="1" fill="none" fill-rule="evenodd">
        <g id="video-off">
            <circle id="Oval" fill="#FFFFFF" cx="21" cy="21" r="21"></circle>
            <path d="M28.1843262,31.2402344 C28.3518066,31.2402344 28.4936523,31.1787109 28.6098633,31.0556641 C28.7260742,30.9326172 28.7858887,30.7890625 28.7894452,30.625 C28.7927246,30.4609375 28.7329102,30.3173828 28.6098633,30.1943359 L8.61474609,10.2094727 C8.49169922,10.0932617 8.34643555,10.0317383 8.17895508,10.0249023 C8.01147461,10.0180664 7.86621094,10.0795898 7.74316406,10.2094727 C7.62695312,10.3256836 7.56884766,10.4675293 7.56884766,10.6350098 C7.56884766,10.8024902 7.62695312,10.9477539 7.74316406,11.0708008 L27.7485352,31.0556641 C27.871582,31.1787109 28.0168457,31.2402344 28.1843262,31.2402344 Z M32.7319336,27.34375 C33.128418,27.34375 33.4462891,27.2121582 33.6855469,26.9489746 C33.9248047,26.685791 34.0444336,26.3354492 34.0444336,25.8979492 L34.0444336,15.315918 C34.0444336,14.878418 33.9248047,14.5280762 33.6855469,14.2648926 C33.4462891,14.001709 33.128418,13.8701172 32.7319336,13.8701172 C32.5200195,13.8701172 32.3149414,13.9196777 32.1166992,14.0187988 C31.918457,14.1179199 31.7202148,14.2460938 31.5219727,14.4033203 L27.44,17.776 L27.440918,15.9926758 C27.440918,14.7963867 27.111084,13.8735352 26.451416,13.2241211 C25.791748,12.574707 24.8637695,12.25 23.6674805,12.25 L12.2446289,12.25 L13.4238281,13.4291992 L23.4418945,13.4291992 C24.3305664,13.4291992 25.0090332,13.6582031 25.4772949,14.1162109 C25.9455566,14.5742188 26.1796875,15.2646484 26.1796875,16.1875 L26.1796875,24.9648438 C26.1796875,25.1767578 26.1643066,25.3647461 26.1335449,25.5288086 C26.1027832,25.6928711 26.0532227,25.8500977 25.9848633,26.0004883 L27.0615234,27.0668945 C27.3144531,26.5678711 27.440918,25.9833984 27.440918,25.3134766 L27.44,23.439 L31.5219727,26.8105469 C31.7202148,26.9677734 31.918457,27.0959473 32.1166992,27.1950684 C32.3149414,27.2941895 32.5200195,27.34375 32.7319336,27.34375 Z M24.0673828,28.9638672 L22.8984375,27.784668 L12.9111328,27.784668 C12.015625,27.784668 11.3337402,27.5556641 10.8654785,27.0976562 C10.3972168,26.6396484 10.1630859,25.9492188 10.1630859,25.0263672 L10.1630859,15.2441406 L8.90185547,13.9418945 L8.90185547,25.2314453 C8.90185547,26.4208984 9.23339844,27.340332 9.89648438,27.9897461 C10.5595703,28.6391602 11.4858398,28.9638672 12.675293,28.9638672 L24.0673828,28.9638672 Z M32.5473633,25.9594727 C32.4790039,25.9594727 32.4140625,25.9406738 32.3525391,25.9030762 C32.2910156,25.8654785 32.2192383,25.815918 32.137207,25.7543945 L27.44,21.948 L27.44,19.267 L32.137207,15.4594727 C32.2192383,15.3979492 32.2910156,15.3483887 32.3525391,15.310791 C32.4140625,15.2731934 32.4790039,15.2543945 32.5473633,15.2543945 C32.7319336,15.2543945 32.8242188,15.3808594 32.8242188,15.6337891 L32.8242188,25.5800781 C32.8242188,25.8330078 32.7319336,25.9594727 32.5473633,25.9594727 Z" id="􀍍" fill="#222222" fill-rule="nonzero"></path>
        </g>
    </g>
</svg>