<?xml version="1.0" encoding="UTF-8"?>
<svg width="36px" height="34px" viewBox="0 0 36 34" version="1.1" xmlns="http://www.w3.org/2000/svg" xmlns:xlink="http://www.w3.org/1999/xlink">
    <title>Group 13</title>
    <g id="Dashboard---doctors--webapp" stroke="none" stroke-width="1" fill="none" fill-rule="evenodd">
        <g id="Dashboard" transform="translate(-1155.000000, -597.000000)">
            <g id="Group-13" transform="translate(1155.000000, 597.000000)">
                <ellipse id="Oval" fill="#0080FF" cx="18" cy="17" rx="18" ry="17"></ellipse>
                <path d="M26.6591797,11.2646484 L27.265625,10.6230469 C27.4179688,10.4707031 27.4956055,10.2963867 27.4985352,10.1000977 C27.5014648,9.90380859 27.4267578,9.72949219 27.2744141,9.57714844 L27.0722656,9.36621094 C26.9375,9.23144531 26.7734375,9.17138672 26.5800781,9.18603516 C26.3867188,9.20068359 26.2167969,9.28125 26.0703125,9.42773438 L25.4462891,10.0429688 L26.6591797,11.2646484 Z M16.7363281,20.2119141 L18.40625,19.5 L26.0439453,11.8710938 L24.8310547,10.6669922 L17.1933594,18.3046875 L16.4462891,19.9130859 C16.4052734,19.9951172 16.4228516,20.0756836 16.4990234,20.1547852 C16.5751953,20.2338867 16.6542969,20.2529297 16.7363281,20.2119141 Z M23.3632813,25.7050781 C24.1367188,25.7050781 24.7387695,25.4824219 25.1694336,25.0371094 C25.6000977,24.5917969 25.8154297,23.9326172 25.8154297,23.0595703 L25.8154297,14.2265625 L24.3037109,15.7294922 L24.3037109,22.9365234 C24.3037109,23.3583984 24.2055664,23.6733398 24.0092773,23.8813477 C23.8129883,24.0893555 23.5742188,24.1933594 23.2929688,24.1933594 L13.7041016,24.1933594 C13.3056641,24.1933594 13.0009766,24.0893555 12.7900391,23.8813477 C12.5791016,23.6733398 12.4736328,23.3583984 12.4736328,22.9365234 L12.4736328,13.6201172 C12.4736328,13.2041016 12.5791016,12.890625 12.7900391,12.6796875 C13.0009766,12.46875 13.3056641,12.3632813 13.7041016,12.3632813 L21.0078125,12.3632813 L22.5107422,10.8603516 L13.6425781,10.8603516 C12.7578125,10.8603516 12.0898438,11.081543 11.6386719,11.5239258 C11.1875,11.9663086 10.9619141,12.6269531 10.9619141,13.5058594 L10.9619141,23.0595703 C10.9619141,23.9326172 11.1875,24.5917969 11.6386719,25.0371094 C12.0898438,25.4824219 12.7578125,25.7050781 13.6425781,25.7050781 L23.3632813,25.7050781 Z" id="􀈎" fill="#FFFFFF" fill-rule="nonzero"></path>
            </g>
        </g>
    </g>
</svg>