<?xml version="1.0" encoding="UTF-8"?>
<svg width="20px" height="15px" viewBox="0 0 20 15" version="1.1" xmlns="http://www.w3.org/2000/svg" xmlns:xlink="http://www.w3.org/1999/xlink">
    <title>􀍯</title>
    <g id="Settings" stroke="none" stroke-width="1" fill="none" fill-rule="evenodd">
        <g id="Edit-profile" transform="translate(-32.000000, -281.000000)" fill="#504F4F" fill-rule="nonzero">
            <g id="􀍯" transform="translate(32.992188, 281.599365)">
                <path d="M3.74133301,10.567749 L5.65539551,10.567749 C5.88456217,10.567749 6.0696818,10.4974365 6.21075439,10.3568115 C6.35182699,10.2161865 6.42236328,10.036499 6.42236328,9.81774902 L6.42236328,8.37243652 C6.42236328,8.14945475 6.35182699,7.96870931 6.21075439,7.8302002 C6.0696818,7.69169108 5.88456217,7.62243652 5.65539551,7.62243652 L3.74133301,7.62243652 C3.51216634,7.62243652 3.32727051,7.69169108 3.18664551,7.8302002 C3.04602051,7.96870931 2.97570801,8.14945475 2.97570801,8.37243652 L2.97570801,9.81774902 C2.97570801,10.036499 3.04602051,10.2161865 3.18664551,10.3568115 C3.32727051,10.4974365 3.51216634,10.567749 3.74133301,10.567749 Z M0.909301758,5.0904541 L17.5969238,5.0904541 L17.5969238,3.25683594 L0.909301758,3.25683594 L0.909301758,5.0904541 Z M2.57629395,13.5371094 L15.9219971,13.5371094 C16.7703044,13.5371094 17.4117635,13.3216756 17.8463745,12.8908081 C18.2809855,12.4599406 18.498291,11.8272298 18.498291,10.9926758 L18.498291,2.55078125 C18.498291,1.71525065 18.2809855,1.08123779 17.8463745,0.648742676 C17.4117635,0.216247559 16.7703044,0 15.9219971,0 L2.57629395,0 C1.72896322,0 1.08774821,0.215189616 0.652648926,0.645568848 C0.217549642,1.07594808 0,1.71101888 0,2.55078125 L0,10.9926758 C0,11.8272298 0.217549642,12.4599406 0.652648926,12.8908081 C1.08774821,13.3216756 1.72896322,13.5371094 2.57629395,13.5371094 Z M2.67504883,11.9727783 C2.31494141,11.9727783 2.03979492,11.8796997 1.84960938,11.6935425 C1.65942383,11.5073853 1.56433105,11.2259928 1.56433105,10.8493652 L1.56433105,2.6940918 C1.56433105,2.31648763 1.65942383,2.03354899 1.84960938,1.84527588 C2.03979492,1.65700277 2.31494141,1.56286621 2.67504883,1.56286621 L15.8232422,1.56286621 C16.180013,1.56286621 16.4545695,1.65700277 16.6469116,1.84527588 C16.8392537,2.03354899 16.9354248,2.31648763 16.9354248,2.6940918 L16.9354248,10.8493652 C16.9354248,11.2259928 16.8392537,11.5073853 16.6469116,11.6935425 C16.4545695,11.8796997 16.180013,11.9727783 15.8232422,11.9727783 L2.67504883,11.9727783 Z" id="Shape"></path>
            </g>
        </g>
    </g>
</svg>