<?xml version="1.0" encoding="UTF-8"?>
<svg width="46px" height="46px" viewBox="0 0 46 46" version="1.1" xmlns="http://www.w3.org/2000/svg" xmlns:xlink="http://www.w3.org/1999/xlink">
    <title>Group 8@3x</title>
    <g id="Web" stroke="none" stroke-width="1" fill="none" fill-rule="evenodd">
        <g id="Home" transform="translate(-726.000000, -564.000000)">
            <g id="Group-6" transform="translate(727.000000, 565.000000)">
                <g id="Group-3" fill="#FFFFFF" stroke="#034D2E" stroke-opacity="0.153829081">
                    <rect id="Rectangle-Copy" x="0" y="0" width="44" height="44" rx="6"></rect>
                </g>
                <g id="Group" transform="translate(8.000000, 8.000000)" fill="#212244" fill-rule="nonzero" opacity="0.799548921">
                    <path d="M27.5436985,12.3504631 C27.551487,10.3776969 26.5021431,8.55183838 24.793655,7.56546307 C24.8143495,7.32757896 24.8143495,7.08834717 24.793655,6.85046307 C24.793655,4.57228847 22.9468296,2.72546307 20.668655,2.72546307 L20.421155,2.72546307 C19.9562046,1.43641563 18.8814632,0.462413636 17.55302,0.126168663 C16.2245767,-0.21007631 14.8158756,0.135336501 13.793655,1.04796307 C12.7714344,0.135336501 11.3627333,-0.21007631 10.03429,0.126168663 C8.70584678,0.462413636 7.63110541,1.43641563 7.16615501,2.72546307 L6.91865501,2.72546307 C4.64048042,2.72546307 2.79365501,4.57228847 2.79365501,6.85046307 C2.77296052,7.08834717 2.77296052,7.32757896 2.79365501,7.56546307 C1.20924796,8.46102704 0.170463443,10.082393 0.0190933481,11.896082 C-0.132276747,13.7097709 0.623370868,15.4808998 2.03740501,16.6267131 C1.12064607,18.3366088 1.17259392,20.403026 2.17411101,22.064698 C3.17562811,23.72637 4.97853989,24.7374524 6.91865501,24.7254631 L7.16615501,24.7254631 C7.63110541,26.0145105 8.70584678,26.9885125 10.03429,27.3247575 C11.3627333,27.6610024 12.7714344,27.3155896 13.793655,26.4029631 C14.8158756,27.3155896 16.2245767,27.6610024 17.55302,27.3247575 C18.8814632,26.9885125 19.9562046,26.0145105 20.421155,24.7254631 L20.668655,24.7254631 C22.5965147,24.7132788 24.3772531,23.69257 25.3621049,22.0352051 C26.3469567,20.3778402 26.3921254,18.3258082 25.481155,16.6267131 C26.78015,15.5866981 27.5384488,14.0144919 27.5436985,12.3504631 Z M12.418655,8.98171307 C12.1191786,8.81042787 11.8065212,8.66329494 11.483655,8.54171307 C11.0169768,8.38451621 10.5018849,8.48823016 10.1324093,8.81378689 C9.76293376,9.13934361 9.59520671,9.6372833 9.69240933,10.1200369 C9.78961194,10.6027905 10.1369768,10.9970162 10.603655,11.1542131 C11.6877881,11.5461497 12.4123944,12.5726753 12.418655,13.7254631 L12.418655,15.8567131 C12.1191786,15.6854279 11.8065212,15.5382949 11.483655,15.4167131 C10.7622331,15.1737078 9.98041033,15.5615411 9.73740504,16.2829631 C9.49439976,17.004385 9.88223307,17.7862078 10.603655,18.0292131 C11.6877881,18.4211497 12.4123944,19.4476753 12.418655,20.6004631 L12.418655,23.3504631 C12.418655,24.1098546 11.8030465,24.7254631 11.043655,24.7254631 C10.5001793,24.7219171 10.0097884,24.3985825 9.79240501,23.9004631 C10.0229599,23.7651705 10.2435246,23.6135322 10.452405,23.4467131 C10.83066,23.1323194 11.0124549,22.640011 10.9293094,22.1552357 C10.846164,21.6704604 10.5107099,21.2668672 10.0493094,21.0964857 C9.58790899,20.9261042 9.07065995,21.0148193 8.69240501,21.3292131 C8.19593291,21.7471785 7.56763824,21.976092 6.91865501,21.9754631 C5.39987195,21.9754631 4.16865501,20.7442461 4.16865501,19.2254631 C4.17523448,18.7079029 4.3277465,18.2027069 4.60865501,17.7679631 C4.91723505,17.8233115 5.23015082,17.8509217 5.54365501,17.8504631 C6.30304654,17.8504631 6.91865501,17.2348546 6.91865501,16.4754631 C6.91865501,15.7160715 6.30304654,15.1004631 5.54365501,15.1004631 C5.21886301,15.1023316 4.89674937,15.0416435 4.59490501,14.9217131 C3.58509403,14.5575168 2.8795109,13.6390184 2.78791837,12.569454 C2.69632584,11.4998896 3.235469,10.4747986 4.16865501,9.94421307 C4.36404026,10.1239781 4.57579382,10.285095 4.80115501,10.4254631 C5.46182564,10.8051588 6.30520924,10.5773837 6.68490501,9.91671307 C7.06460077,9.25604243 6.83682564,8.41265883 6.17615501,8.03296307 C5.98259067,7.92618435 5.82116292,7.76950447 5.70865501,7.57921307 C5.58153148,7.35845169 5.52402218,7.1044523 5.54365501,6.85046307 C5.54365501,6.09107153 6.15926348,5.47546307 6.91865501,5.47546307 C7.01444128,5.4621013 7.11161874,5.4621013 7.20740501,5.47546307 C7.28019579,5.6963854 7.36746827,5.91226995 7.46865501,6.12171307 C7.65008794,6.43994267 7.9510036,6.67262 8.30464998,6.76813034 C8.65829636,6.86364067 9.03543487,6.81408746 9.35240501,6.63046307 C9.98595309,6.24927913 10.2046276,5.43532418 9.84740501,4.78796307 C9.73203316,4.5770457 9.67062608,4.34086463 9.66865501,4.10046307 C9.66865501,3.34107153 10.2842635,2.72546307 11.043655,2.72546307 C11.8030465,2.72546307 12.418655,3.34107153 12.418655,4.10046307 L12.418655,8.98171307 Z M22.992405,14.9217131 C22.6905606,15.0416435 22.368447,15.1023316 22.043655,15.1004631 C21.2842635,15.1004631 20.668655,15.7160715 20.668655,16.4754631 C20.668655,17.2348546 21.2842635,17.8504631 22.043655,17.8504631 C22.3571592,17.8509217 22.670075,17.8233115 22.978655,17.7679631 C23.2595635,18.2027069 23.4120755,18.7079029 23.418655,19.2254631 C23.418655,20.7442461 22.1874381,21.9754631 20.668655,21.9754631 C20.0196718,21.976092 19.3913771,21.7471785 18.894905,21.3292131 C18.3101735,20.8432025 17.4421656,20.9232316 16.956155,21.5079631 C16.4701444,22.0926945 16.5501735,22.9607025 17.134905,23.4467131 C17.3437854,23.6135322 17.5643501,23.7651705 17.794905,23.9004631 C17.5775217,24.3985825 17.0871308,24.7219171 16.543655,24.7254631 C15.7842635,24.7254631 15.168655,24.1098546 15.168655,23.3504631 L15.168655,20.6004631 C15.1749156,19.4476753 15.8995219,18.4211497 16.983655,18.0292131 C17.7050769,17.7862078 18.0929103,17.004385 17.849905,16.2829631 C17.6068997,15.5615411 16.825077,15.1737078 16.103655,15.4167131 C15.7807888,15.5382949 15.4681314,15.6854279 15.168655,15.8567131 L15.168655,13.7254631 C15.1749156,12.5726753 15.8995219,11.5461497 16.983655,11.1542131 C17.705077,10.9112078 18.0929103,10.129385 17.849905,9.40796307 C17.6068997,8.68654111 16.825077,8.29870778 16.103655,8.54171307 C15.7807888,8.66329494 15.4681314,8.81042787 15.168655,8.98171307 L15.168655,4.10046307 C15.168655,3.34107153 15.7842635,2.72546307 16.543655,2.72546307 C17.3030465,2.72546307 17.918655,3.34107153 17.918655,4.10046307 C17.9166839,4.34086463 17.8552769,4.5770457 17.739905,4.78796307 C17.5551408,5.10326246 17.5034939,5.47914372 17.5963707,5.8325916 C17.6892475,6.18603948 17.9190068,6.48797459 18.234905,6.67171307 C18.5518751,6.85533746 18.9290137,6.90489067 19.28266,6.80938034 C19.6363064,6.71387 19.9372221,6.48119267 20.118655,6.16296307 C20.2215714,5.94013011 20.3088654,5.7104092 20.379905,5.47546307 C20.4756913,5.4621013 20.5728687,5.4621013 20.668655,5.47546307 C21.4280465,5.47546307 22.043655,6.09107153 22.043655,6.85046307 C22.0415501,7.12000905 21.9602647,7.3829913 21.809905,7.60671307 C21.6974497,7.78514171 21.5412571,7.93186805 21.356155,8.03296307 C20.6954844,8.41265884 20.4677093,9.25604243 20.847405,9.91671306 C21.2271008,10.5773837 22.0704844,10.8051588 22.731155,10.4254631 C22.9780271,10.2919556 23.2087119,10.1304762 23.418655,9.94421307 C24.3549607,10.4653871 24.903254,11.4829781 24.8235507,12.5515931 C24.7438474,13.6202081 24.050665,14.5452028 23.047405,14.9217131 L22.992405,14.9217131 Z" id="Shape"></path>
                </g>
            </g>
        </g>
    </g>
</svg>