<?xml version="1.0" encoding="UTF-8"?>
<svg width="16px" height="17px" viewBox="0 0 16 17" version="1.1" xmlns="http://www.w3.org/2000/svg" xmlns:xlink="http://www.w3.org/1999/xlink">
    <title>􀝖</title>
    <g id="Settings" stroke="none" stroke-width="1" fill="none" fill-rule="evenodd">
        <g id="Edit-profile" transform="translate(-34.000000, -399.000000)" fill="#504F4F" fill-rule="nonzero">
            <g id="􀝖" transform="translate(34.570312, 399.085938)">
                <path d="M7.6015625,16.3984375 C8.20572917,16.3984375 8.734375,16.2630208 9.1875,15.9921875 C9.640625,15.7213542 9.99869792,15.3671875 10.2617188,14.9296875 C10.5247396,14.4921875 10.6640625,14.0234375 10.6796875,13.5234375 L9.1796875,13.5234375 C9.15364583,14.0130208 8.99609375,14.4049479 8.70703125,14.6992188 C8.41796875,14.9934896 8.04947917,15.140625 7.6015625,15.140625 C7.1640625,15.140625 6.79817708,14.9934896 6.50390625,14.6992188 C6.20963542,14.4049479 6.05208333,14.0130208 6.03125,13.5234375 L4.53125,13.5234375 C4.546875,14.0234375 4.68619792,14.4921875 4.94921875,14.9296875 C5.21223958,15.3671875 5.57161458,15.7213542 6.02734375,15.9921875 C6.48307292,16.2630208 7.0078125,16.3984375 7.6015625,16.3984375 Z M1.3203125,13.5390625 L13.890625,13.5390625 C14.3020833,13.5390625 14.625,13.4361979 14.859375,13.2304688 C15.09375,13.0247396 15.2109375,12.7552083 15.2109375,12.421875 C15.2109375,12.1458333 15.1380208,11.8802083 14.9921875,11.625 C14.8463542,11.3697917 14.6614583,11.1236979 14.4375,10.8867188 C14.2135417,10.6497396 13.984375,10.4192708 13.75,10.1953125 C13.5625,10.0130208 13.4192708,9.78125 13.3203125,9.5 C13.2213542,9.21875 13.1458333,8.90885417 13.09375,8.5703125 C13.0416667,8.23177083 12.9973958,7.88541667 12.9609375,7.53125 C12.9557292,7.30729167 12.9453125,7.09244792 12.9296875,6.88671875 C12.9140625,6.68098958 12.8958333,6.47916667 12.875,6.28125 C12.640625,6.38020833 12.3841146,6.44791667 12.1054688,6.484375 C11.8268229,6.52083333 11.5651042,6.52083333 11.3203125,6.484375 C11.3359375,6.66145833 11.3502604,6.84765625 11.3632812,7.04296875 C11.3763021,7.23828125 11.3854167,7.4453125 11.390625,7.6640625 C11.4114583,8.03385417 11.4440104,8.3828125 11.4882812,8.7109375 C11.5325521,9.0390625 11.5885417,9.33984375 11.65625,9.61328125 C11.7239583,9.88671875 11.8072917,10.1328125 11.90625,10.3515625 C12.0052083,10.5703125 12.1223958,10.7552083 12.2578125,10.90625 C12.3880208,11.0520833 12.5182292,11.1940104 12.6484375,11.3320312 C12.7786458,11.4700521 12.8997396,11.5950521 13.0117188,11.7070312 C13.1236979,11.8190104 13.2135417,11.9140625 13.28125,11.9921875 L13.28125,12.078125 L1.90625,12.078125 L1.90625,11.9921875 C1.97395833,11.9140625 2.06510417,11.8190104 2.1796875,11.7070312 C2.29427083,11.5950521 2.41927083,11.4700521 2.5546875,11.3320312 C2.69010417,11.1940104 2.8203125,11.0520833 2.9453125,10.90625 C3.08072917,10.7552083 3.19791667,10.5703125 3.296875,10.3515625 C3.39583333,10.1328125 3.48046875,9.88671875 3.55078125,9.61328125 C3.62109375,9.33984375 3.67708333,9.0390625 3.71875,8.7109375 C3.76041667,8.3828125 3.79427083,8.03385417 3.8203125,7.6640625 C3.8515625,6.62239583 3.97135417,5.79166667 4.1796875,5.171875 C4.38802083,4.55208333 4.66015625,4.08723958 4.99609375,3.77734375 C5.33203125,3.46744792 5.70833333,3.2578125 6.125,3.1484375 C6.22395833,3.12239583 6.29947917,3.08333333 6.3515625,3.03125 C6.40364583,2.97916667 6.43489583,2.90104167 6.4453125,2.796875 C6.46614583,2.39583333 6.57942708,2.07421875 6.78515625,1.83203125 C6.99088542,1.58984375 7.26302083,1.46875 7.6015625,1.46875 C7.7421875,1.46875 7.86197917,1.48697917 7.9609375,1.5234375 C8.02864583,1.28385417 8.12369792,1.05859375 8.24609375,0.84765625 C8.36848958,0.63671875 8.51302083,0.4375 8.6796875,0.25 C8.3515625,0.0833333333 7.9921875,0 7.6015625,0 C7.0234375,0 6.52864583,0.173177083 6.1171875,0.51953125 C5.70572917,0.865885417 5.42447917,1.29947917 5.2734375,1.8203125 C4.59635417,2.06510417 4.04166667,2.44401042 3.609375,2.95703125 C3.17708333,3.47005208 2.85286458,4.10546875 2.63671875,4.86328125 C2.42057292,5.62109375 2.296875,6.48958333 2.265625,7.46875 C2.22916667,7.83333333 2.18489583,8.19010417 2.1328125,8.5390625 C2.08072917,8.88802083 2.00260417,9.20572917 1.8984375,9.4921875 C1.79427083,9.77864583 1.65104167,10.0130208 1.46875,10.1953125 C1.234375,10.4192708 1.00390625,10.6497396 0.77734375,10.8867188 C0.55078125,11.1236979 0.364583333,11.3697917 0.21875,11.625 C0.0729166667,11.8802083 0,12.1458333 0,12.421875 C0,12.7552083 0.1171875,13.0247396 0.3515625,13.2304688 C0.5859375,13.4361979 0.908854167,13.5390625 1.3203125,13.5390625 Z M11.5078125,5.46875 C11.9973958,5.46875 12.4466146,5.34765625 12.8554688,5.10546875 C13.2643229,4.86328125 13.5898438,4.53645833 13.8320312,4.125 C14.0742188,3.71354167 14.1953125,3.26302083 14.1953125,2.7734375 C14.1953125,2.28385417 14.0742188,1.83333333 13.8320312,1.421875 C13.5898438,1.01041667 13.2643229,0.68359375 12.8554688,0.44140625 C12.4466146,0.19921875 11.9973958,0.078125 11.5078125,0.078125 C11.0130208,0.078125 10.5625,0.19921875 10.15625,0.44140625 C9.75,0.68359375 9.42447917,1.01041667 9.1796875,1.421875 C8.93489583,1.83333333 8.8125,2.28385417 8.8125,2.7734375 C8.8125,3.26302083 8.93489583,3.71354167 9.1796875,4.125 C9.42447917,4.53645833 9.75,4.86328125 10.15625,5.10546875 C10.5625,5.34765625 11.0130208,5.46875 11.5078125,5.46875 Z" id="Shape"></path>
            </g>
        </g>
    </g>
</svg>