<?xml version="1.0" encoding="UTF-8"?>
<svg width="15px" height="15px" viewBox="0 0 15 15" version="1.1" xmlns="http://www.w3.org/2000/svg" xmlns:xlink="http://www.w3.org/1999/xlink">
    <title>􀉩@3x</title>
    <g id="Settings" stroke="none" stroke-width="1" fill="none" fill-rule="evenodd">
        <g id="Edit-profile" transform="translate(-35.000000, -155.000000)" fill="#504F4F" fill-rule="nonzero">
            <g id="􀉩" transform="translate(35.992188, 155.190430)">
                <path d="M2.00146484,14.6048584 L11.7429199,14.6048584 C13.0772298,14.6048584 13.7443848,14.1542969 13.7443848,13.2531738 C13.7443848,12.7169596 13.583374,12.1578776 13.2613525,11.5759277 C12.9393311,10.9939779 12.4777222,10.4503174 11.8765259,9.94494629 C11.2753296,9.4395752 10.5524902,9.02996826 9.70800781,8.71612549 C8.86352539,8.40228271 7.91931152,8.24536133 6.87536621,8.24536133 C5.82629395,8.24536133 4.8797404,8.40228271 4.03570557,8.71612549 C3.19167074,9.02996826 2.46907552,9.4395752 1.86791992,9.94494629 C1.26676432,10.4503174 0.805155436,10.9939779 0.483093262,11.5759277 C0.161031087,12.1578776 0,12.7169596 0,13.2531738 C0,14.1542969 0.667154948,14.6048584 2.00146484,14.6048584 Z M1.76599121,13.236084 C1.67142741,13.236084 1.6046346,13.2207031 1.56561279,13.1899414 C1.52659098,13.1591797 1.50708008,13.1068929 1.50708008,13.0330811 C1.50708008,12.7383219 1.62483724,12.396342 1.86035156,12.0071411 C2.09586589,11.6179403 2.44248454,11.2418823 2.90020752,10.8789673 C3.3579305,10.5160522 3.9202474,10.2147624 4.5871582,9.97509766 C5.25406901,9.73543294 6.01680501,9.61560059 6.87536621,9.61560059 C7.73400879,9.61560059 8.4954834,9.73543294 9.15979004,9.97509766 C9.82409668,10.2147624 10.3853556,10.5160522 10.8435669,10.8789673 C11.3017782,11.2418823 11.6483968,11.6179403 11.8834229,12.0071411 C12.1184489,12.396342 12.2359619,12.7383219 12.2359619,13.0330811 C12.2359619,13.1068929 12.2166951,13.1591797 12.1781616,13.1899414 C12.1396281,13.2207031 12.0751546,13.236084 11.9847412,13.236084 L1.76599121,13.236084 Z M6.87536621,7.34106445 C7.50565592,7.34106445 8.07958984,7.17297363 8.59716797,6.83679199 C9.11474609,6.50061035 9.5275472,6.05181885 9.83557129,5.49041748 C10.1435954,4.92901611 10.2976074,4.30712891 10.2976074,3.62475586 C10.2976074,2.95141602 10.1441854,2.34092204 9.83734131,1.79327393 C9.53049723,1.24562581 9.11828613,0.809834798 8.60070801,0.485900879 C8.08312988,0.16196696 7.50801595,0 6.87536621,0 C6.24702962,0 5.67382812,0.16410319 5.15576172,0.49230957 C4.63769531,0.820515951 4.22416178,1.25950114 3.91516113,1.80926514 C3.60616048,2.35902913 3.45214844,2.96846517 3.45312039,3.63757324 C3.45312039,4.31571452 3.60713704,4.93546549 3.91516113,5.49682617 C4.22318522,6.05818685 4.63574219,6.50590007 5.15283203,6.83996582 C5.66992188,7.17403158 6.24409993,7.34106445 6.87536621,7.34106445 Z M6.87536621,5.97229004 C6.51713053,5.97229004 6.18741862,5.86830648 5.88623047,5.66033936 C5.58504232,5.45237223 5.34299723,5.171875 5.16009521,4.81884766 C4.9771932,4.46582031 4.88573436,4.07157389 4.88573436,3.6361084 C4.88476562,3.21065267 4.97513835,2.82745361 5.15686035,2.48651123 C5.33858236,2.14556885 5.58028158,1.87428792 5.88195801,1.67266846 C6.18363444,1.47104899 6.51477051,1.37023926 6.87536621,1.37023926 C7.24019368,1.37023926 7.57322184,1.46891276 7.87445068,1.66625977 C8.17567952,1.86360677 8.41609701,2.13301595 8.59570312,2.4744873 C8.77530924,2.81595866 8.8651123,3.19938151 8.8651123,3.62475586 C8.8651123,4.05924479 8.77471924,4.45408122 8.59393311,4.80926514 C8.41314697,5.16444906 8.17215983,5.44708252 7.87097168,5.65716553 C7.56978353,5.86724854 7.23791504,5.97229004 6.87536621,5.97229004 Z" id="Shape"></path>
            </g>
        </g>
    </g>
</svg>