<?xml version="1.0" encoding="UTF-8"?>
<svg width="46px" height="46px" viewBox="0 0 46 46" version="1.1" xmlns="http://www.w3.org/2000/svg" xmlns:xlink="http://www.w3.org/1999/xlink">
    <title>Group 4</title>
    <g id="Web" stroke="none" stroke-width="1" fill="none" fill-rule="evenodd">
        <g id="Home" transform="translate(-669.000000, -564.000000)">
            <g id="Group-4" transform="translate(670.000000, 565.000000)">
                <rect id="Rectangle-Copy-2" stroke-opacity="0.153829081" stroke="#034D2E" fill="#FFFFFF" x="0" y="0" width="44" height="44" rx="6"></rect>
                <path d="M32.942627,29.4001465 C33.7937012,29.1574707 34.5849609,28.6738281 35.3164062,27.9492188 C36.0410156,27.2314453 36.5246582,26.4453125 36.767334,25.5908203 C37.0100098,24.7363281 37.0117188,23.8818359 36.7724609,23.0273438 C36.5332031,22.1728516 36.0512695,21.3867188 35.3266602,20.6689453 L27.6875,13.0297852 C26.9628906,12.3051758 26.1767578,11.8232422 25.3291016,11.5839844 C24.4814453,11.3447266 23.6320801,11.3447266 22.7810059,11.5839844 C21.9299316,11.8232422 21.1386719,12.3051758 20.4072266,13.0297852 C19.6826172,13.7543945 19.1989746,14.5422363 18.9562988,15.3933105 C18.713623,16.2443848 18.713623,17.097168 18.9562988,17.9516602 C19.1989746,18.8061523 19.6791992,19.5922852 20.3969727,20.3100586 L28.0361328,27.9594727 C28.7607422,28.684082 29.546875,29.1660156 30.3945312,29.4052734 C31.2421875,29.6445312 32.0915527,29.6428223 32.942627,29.4001465 Z M25.207,21.111 L22.5195312,18.4233398 C22.1640625,18.0678711 21.9248047,17.6936035 21.8017578,17.3005371 C21.6787109,16.9074707 21.668457,16.5178223 21.7709961,16.1315918 C21.8735352,15.7453613 22.0922852,15.3847656 22.4272461,15.0498047 C22.7553711,14.7216797 23.1125488,14.5063477 23.4987793,14.4038086 C23.8850098,14.3012695 24.2746582,14.3115234 24.6677246,14.4345703 C25.060791,14.5576172 25.4350586,14.793457 25.7905273,15.1420898 L28.484,17.84 L25.207,21.111 Z M31.0559082,26.5546875 C30.6628418,26.4316406 30.2885742,26.1923828 29.9331055,25.8369141 L27.227,23.131 L30.503,19.861 L33.2041016,22.565918 C33.5595703,22.9145508 33.7988281,23.2871094 33.921875,23.6835938 C34.0449219,24.0800781 34.0551758,24.4697266 33.9526367,24.8525391 C33.8500977,25.2353516 33.6313477,25.5942383 33.2963867,25.9291992 C32.9750977,26.2641602 32.6196289,26.4829102 32.2299805,26.5854492 C31.840332,26.6879883 31.4489746,26.6777344 31.0559082,26.5546875 Z M16.5517578,34.3271484 C17.40625,34.3271484 18.2077637,34.1665039 18.9562988,33.8452148 C19.704834,33.5239258 20.362793,33.0795898 20.9301758,32.512207 C21.4975586,31.9448242 21.9401855,31.2851562 22.2580566,30.5332031 C22.5759277,29.78125 22.7348633,28.9780273 22.7348633,28.1235352 C22.7348633,27.2758789 22.5759277,26.4794922 22.2580566,25.734375 C21.9401855,24.9892578 21.4975586,24.3330078 20.9301758,23.765625 C20.362793,23.1982422 19.704834,22.7539062 18.9562988,22.4326172 C18.2077637,22.1113281 17.40625,21.9506836 16.5517578,21.9506836 C15.6972656,21.9506836 14.895752,22.1113281 14.1472168,22.4326172 C13.3986816,22.7539062 12.7407227,23.1982422 12.1733398,23.765625 C11.605957,24.3330078 11.1616211,24.9892578 10.840332,25.734375 C10.519043,26.4794922 10.3583984,27.2758789 10.3583984,28.1235352 C10.3583984,28.9780273 10.519043,29.78125 10.840332,30.5332031 C11.1616211,31.2851562 11.605957,31.9448242 12.1733398,32.512207 C12.7407227,33.0795898 13.3986816,33.5239258 14.1472168,33.8452148 C14.895752,34.1665039 15.6972656,34.3271484 16.5517578,34.3271484 Z M19.711,26.801 L13.392,26.801 L13.4802322,26.6122856 C13.5138779,26.5461159 13.5499268,26.4807739 13.5883789,26.4162598 C13.8959961,25.9001465 14.3095703,25.4882812 14.8291016,25.1806641 C15.3486328,24.8730469 15.9228516,24.7192383 16.5517578,24.7192383 C17.1806641,24.7192383 17.7548828,24.8730469 18.2744141,25.1806641 C18.7939453,25.4882812 19.2075195,25.9001465 19.5151367,26.4162598 L19.6232834,26.6122856 L19.6232834,26.6122856 L19.711,26.801 Z M16.5517578,31.5688477 C15.9228516,31.5688477 15.3486328,31.4133301 14.8291016,31.1022949 C14.3095703,30.7912598 13.8959961,30.3759766 13.5883789,29.8564453 L13.4802322,29.6588974 L13.4802322,29.6588974 L13.391,29.467 L19.709,29.467 L19.6232834,29.652729 C19.5896378,29.7197533 19.5535889,29.7859497 19.5151367,29.8513184 C19.2075195,30.3742676 18.7956543,30.7912598 18.279541,31.1022949 C17.7634277,31.4133301 17.1875,31.5688477 16.5517578,31.5688477 Z" id="􀠱" fill="#212244" fill-rule="nonzero" opacity="0.799548921"></path>
            </g>
        </g>
    </g>
</svg>