<?xml version="1.0" encoding="UTF-8"?>
<svg width="15px" height="17px" viewBox="0 0 15 17" version="1.1" xmlns="http://www.w3.org/2000/svg" xmlns:xlink="http://www.w3.org/1999/xlink">
    <title>􀞙</title>
    <g id="Settings" stroke="none" stroke-width="1" fill="none" fill-rule="evenodd">
        <g id="Edit-profile" transform="translate(-35.000000, -343.000000)" fill="#504F4F" fill-rule="nonzero">
            <g id="􀞙" transform="translate(35.843750, 343.601562)">
                <path d="M6.609375,15.90625 C6.67708333,15.90625 6.76041667,15.8919271 6.859375,15.8632812 C6.95833333,15.8346354 7.05729167,15.7942708 7.15625,15.7421875 C8.28125,15.1276042 9.23177083,14.5794271 10.0078125,14.0976562 C10.7838542,13.6158854 11.4075521,13.1445312 11.8789062,12.6835938 C12.3502604,12.2226562 12.6914062,11.7239583 12.9023438,11.1875 C13.1132812,10.6510417 13.21875,10.0286458 13.21875,9.3203125 L13.21875,3.421875 C13.21875,3.10416667 13.1770833,2.84765625 13.09375,2.65234375 C13.0104167,2.45703125 12.8841146,2.29557292 12.7148438,2.16796875 C12.5455729,2.04036458 12.328125,1.91927083 12.0625,1.8046875 C11.890625,1.73177083 11.6497396,1.63802083 11.3398438,1.5234375 C11.0299479,1.40885417 10.6875,1.28385417 10.3125,1.1484375 C9.9375,1.01302083 9.56119792,0.87890625 9.18359375,0.74609375 C8.80598958,0.61328125 8.46354167,0.493489583 8.15625,0.38671875 C7.84895833,0.279947917 7.61197917,0.197916667 7.4453125,0.140625 C7.31510417,0.0989583333 7.17578125,0.0651041667 7.02734375,0.0390625 C6.87890625,0.0130208333 6.73958333,0 6.609375,0 C6.47395833,0 6.33333333,0.0143229167 6.1875,0.04296875 C6.04166667,0.0716145833 5.90364583,0.104166667 5.7734375,0.140625 C5.6015625,0.1875 5.36197917,0.263020833 5.0546875,0.3671875 C4.74739583,0.471354167 4.40625,0.591145833 4.03125,0.7265625 C3.65625,0.861979167 3.27994792,0.998697917 2.90234375,1.13671875 C2.52473958,1.27473958 2.18098958,1.40234375 1.87109375,1.51953125 C1.56119792,1.63671875 1.3203125,1.73177083 1.1484375,1.8046875 C0.888020833,1.9140625 0.671875,2.03385417 0.5,2.1640625 C0.328125,2.29427083 0.201822917,2.45703125 0.12109375,2.65234375 C0.0403645833,2.84765625 0,3.10416667 0,3.421875 L0,9.3203125 C0,10.0286458 0.10546875,10.6497396 0.31640625,11.1835938 C0.52734375,11.7174479 0.868489583,12.2148438 1.33984375,12.6757812 C1.81119792,13.1367188 2.43489583,13.609375 3.2109375,14.09375 C3.98697917,14.578125 4.93489583,15.1276042 6.0546875,15.7421875 C6.15364583,15.7942708 6.25260417,15.8346354 6.3515625,15.8632812 C6.45052083,15.8919271 6.53645833,15.90625 6.609375,15.90625 Z M6.609375,14.2421875 C6.55208333,14.2421875 6.49088542,14.2291667 6.42578125,14.203125 C6.36067708,14.1770833 6.2734375,14.1302083 6.1640625,14.0625 C5.2734375,13.515625 4.52734375,13.0507812 3.92578125,12.6679688 C3.32421875,12.2851562 2.84505208,11.9231771 2.48828125,11.5820312 C2.13151042,11.2408854 1.87630208,10.8723958 1.72265625,10.4765625 C1.56901042,10.0807292 1.4921875,9.59635417 1.4921875,9.0234375 L1.4921875,3.671875 C1.4921875,3.53645833 1.51041667,3.43359375 1.546875,3.36328125 C1.58333333,3.29296875 1.65625,3.23697917 1.765625,3.1953125 C1.99479167,3.1015625 2.26041667,2.99869792 2.5625,2.88671875 C2.86458333,2.77473958 3.18359375,2.66015625 3.51953125,2.54296875 C3.85546875,2.42578125 4.18880208,2.30859375 4.51953125,2.19140625 C4.85026042,2.07421875 5.15885417,1.96354167 5.4453125,1.859375 C5.73177083,1.75520833 5.9765625,1.6640625 6.1796875,1.5859375 C6.2734375,1.54947917 6.35416667,1.52473958 6.421875,1.51171875 C6.48958333,1.49869792 6.55208333,1.4921875 6.609375,1.4921875 C6.66145833,1.4921875 6.72135417,1.49869792 6.7890625,1.51171875 C6.85677083,1.52473958 6.9375,1.54947917 7.03125,1.5859375 C7.234375,1.6640625 7.47916667,1.75651042 7.765625,1.86328125 C8.05208333,1.97005208 8.36067708,2.08333333 8.69140625,2.203125 C9.02213542,2.32291667 9.35416667,2.44270833 9.6875,2.5625 C10.0208333,2.68229167 10.3398438,2.796875 10.6445312,2.90625 C10.9492188,3.015625 11.21875,3.11197917 11.453125,3.1953125 C11.5572917,3.23177083 11.6289062,3.28645833 11.6679688,3.359375 C11.7070312,3.43229167 11.7265625,3.53645833 11.7265625,3.671875 L11.7265625,9.0234375 C11.7265625,9.6015625 11.6471354,10.0911458 11.4882812,10.4921875 C11.3294271,10.8932292 11.0690104,11.2643229 10.7070312,11.6054688 C10.3450521,11.9466146 9.86458333,12.3085938 9.265625,12.6914062 C8.66666667,13.0742188 7.9296875,13.53125 7.0546875,14.0625 C6.94010417,14.1302083 6.85026042,14.1770833 6.78515625,14.203125 C6.72005208,14.2291667 6.66145833,14.2421875 6.609375,14.2421875 Z M3.8125,10.46875 C3.8125,11.0520833 4.0859375,11.34375 4.6328125,11.34375 L8.59375,11.34375 C9.140625,11.34375 9.4140625,11.0520833 9.4140625,10.46875 L9.4140625,7.4296875 C9.4140625,6.90885417 9.19270833,6.625 8.75,6.578125 L8.75,5.703125 C8.75,4.984375 8.55338542,4.40494792 8.16015625,3.96484375 C7.76692708,3.52473958 7.25,3.3046875 6.609375,3.3046875 C5.97395833,3.3046875 5.45833333,3.52473958 5.0625,3.96484375 C4.66666667,4.40494792 4.46875,4.984375 4.46875,5.703125 L4.46875,6.578125 C4.03125,6.625 3.8125,6.90885417 3.8125,7.4296875 L3.8125,10.46875 Z M5.390625,6.5625 L5.390625,5.625 C5.390625,5.19791667 5.50260417,4.85416667 5.7265625,4.59375 C5.95052083,4.33333333 6.24479167,4.203125 6.609375,4.203125 C6.97916667,4.203125 7.27473958,4.33333333 7.49609375,4.59375 C7.71744792,4.85416667 7.828125,5.19791667 7.828125,5.625 L7.828125,6.5625 L5.390625,6.5625 Z" id="Shape"></path>
            </g>
        </g>
    </g>
</svg>