<?xml version="1.0" encoding="UTF-8"?>
<svg width="23px" height="19px" viewBox="0 0 23 19" version="1.1" xmlns="http://www.w3.org/2000/svg" xmlns:xlink="http://www.w3.org/1999/xlink">
    <title>􀝾</title>
    <g id="Settings" stroke="none" stroke-width="1" fill="none" fill-rule="evenodd">
        <g id="Edit-profile" transform="translate(-31.000000, -216.000000)" fill="#504F4F" fill-rule="nonzero">
            <g id="􀝾" transform="translate(31.992188, 216.933105)">
                <path d="M0,3.27783203 C0,3.94523112 0.11142985,4.6484375 0.334289551,5.38745117 C0.557149251,6.12646484 0.862325033,6.84816488 1.24981689,7.55255127 C1.63730876,8.25693766 2.07912191,8.89489746 2.57525635,9.46643066 C3.07139079,10.0379639 3.59556071,10.4934692 4.14776611,10.8329468 C4.69997152,11.1724243 5.25073242,11.3421631 5.80004883,11.3421631 L6.16650391,11.3421631 C6.71492513,11.3421631 7.26523844,11.1724243 7.81744385,10.8329468 C8.36964925,10.4934692 8.89381917,10.0379639 9.38995361,9.46643066 C9.88608805,8.89489746 10.3278809,8.25693766 10.715332,7.55255127 C11.1027832,6.84816488 11.4079386,6.12646484 11.6307983,5.38745117 C11.853658,4.6484375 11.9650879,3.94523112 11.9650879,3.27783203 C11.9650879,2.37695312 11.7411296,1.69439697 11.2932129,1.23016357 C10.8452962,0.765930176 10.1812337,0.533813477 9.30102539,0.533813477 L8.45141602,0.533813477 L8.45141602,2.05944824 L9.35644531,2.05944824 C9.71687826,2.05944824 9.98748779,2.16328939 10.1682739,2.37097168 C10.3490601,2.57865397 10.4394531,2.87573242 10.4394531,3.26220703 C10.4394531,3.75602214 10.3539836,4.29656982 10.1830444,4.8838501 C10.0121053,5.47113037 9.77699788,6.05497233 9.47772217,6.63537598 C9.17844645,7.21577962 8.83835856,7.74562581 8.4574585,8.22491455 C8.07655843,8.70420329 7.67437744,9.08905029 7.25091553,9.37945557 C6.82745361,9.66986084 6.40466309,9.81506348 5.98254395,9.81506348 C5.56465658,9.81506348 5.14294434,9.66986084 4.71740723,9.37945557 C4.29187012,9.08905029 3.88865153,8.70420329 3.50775146,8.22491455 C3.1268514,7.74562581 2.78782145,7.21577962 2.49066162,6.63537598 C2.19350179,6.05497233 1.95837402,5.47113037 1.78527832,4.8838501 C1.61218262,4.29656982 1.52563477,3.75602214 1.52563477,3.26220703 C1.52563477,2.87573242 1.61708577,2.57865397 1.79998779,2.37097168 C1.98288981,2.16328939 2.2524821,2.05944824 2.60876465,2.05944824 L3.51367187,2.05944824 L3.51367187,0.533813477 L2.6640625,0.533813477 C1.78385417,0.533813477 1.11979167,0.765930176 0.671875,1.23016357 C0.223958333,1.69439697 0,2.37695312 0,3.27783203 Z M3.86779785,2.57128906 C4.1056722,2.57128906 4.32126872,2.5131429 4.5145874,2.39685059 C4.70790609,2.28055827 4.86273193,2.12467448 4.97906494,1.92919922 C5.09539795,1.73372396 5.15356445,1.51920573 5.15356445,1.28564453 C5.15356445,1.05208333 5.09539795,0.837565104 4.97906494,0.642089844 C4.86273193,0.446614583 4.70790609,0.290730794 4.5145874,0.174438477 C4.32126872,0.0581461589 4.1056722,0 3.86779785,0 C3.63521322,0 3.42120361,0.0581461589 3.22576904,0.174438477 C3.03033447,0.290730794 2.87550863,0.446614583 2.7612915,0.642089844 C2.64707438,0.837565104 2.58996582,1.05208333 2.58996582,1.28564453 C2.58996582,1.51920573 2.64707438,1.73372396 2.7612915,1.92919922 C2.87550863,2.12467448 3.03033447,2.28055827 3.22576904,2.39685059 C3.42120361,2.5131429 3.63521322,2.57128906 3.86779785,2.57128906 Z M8.08447266,2.57128906 C8.31811523,2.57128906 8.53265381,2.5131429 8.72808838,2.39685059 C8.92352295,2.28055827 9.07940674,2.12467448 9.19573975,1.92919922 C9.31207275,1.73372396 9.37023926,1.51920573 9.37023926,1.28564453 C9.37023926,1.05208333 9.31207275,0.837565104 9.19573975,0.642089844 C9.07940674,0.446614583 8.92352295,0.290730794 8.72808838,0.174438477 C8.53265381,0.0581461589 8.31811523,0 8.08447266,0 C7.85091146,0 7.63641357,0.0581461589 7.440979,0.174438477 C7.24554443,0.290730794 7.08966064,0.446614583 6.97332764,0.642089844 C6.85699463,0.837565104 6.79882812,1.05208333 6.79882812,1.28564453 C6.79882812,1.51920573 6.85699463,1.73372396 6.97332764,1.92919922 C7.08966064,2.12467448 7.24554443,2.28055827 7.440979,2.39685059 C7.63641357,2.5131429 7.85091146,2.57128906 8.08447266,2.57128906 Z M9.32214355,17.1697998 C10.1606038,17.1697998 10.8705444,16.9581502 11.4519653,16.5348511 C12.0333862,16.1115519 12.508667,15.4758708 12.8778076,14.6278076 C13.2469482,13.7797445 13.5347087,12.7169596 13.7410889,11.4394531 C13.8914795,10.5354818 14.0672404,9.82232666 14.2683716,9.29998779 C14.4695028,8.77764893 14.7076823,8.40702311 14.9829102,8.18811035 C15.258138,7.96919759 15.5746663,7.85974121 15.9324951,7.85974121 C16.3532308,7.85974121 16.7044067,7.99981689 16.9860229,8.27996826 C17.2676392,8.56011963 17.4835815,8.99228923 17.6338501,9.57647705 C17.7841187,10.1606649 17.8688965,10.9087321 17.8881836,11.8206787 L19.4180908,11.8206787 C19.3552653,10.5738525 19.1895752,9.5447998 18.9210205,8.73352051 C18.6524658,7.92224121 18.2741089,7.3192749 17.7859497,6.92462158 C17.2977905,6.52996826 16.6861572,6.3326416 15.9510498,6.3326416 C15.2845459,6.3326416 14.7106527,6.49342855 14.2293701,6.81500244 C13.7480876,7.13657633 13.3457031,7.64408366 13.0222168,8.33752441 C12.6987305,9.03096517 12.4404704,9.93680827 12.2474365,11.0550537 C12.1173096,11.8006592 11.9726156,12.4591268 11.8133545,13.0304565 C11.6540934,13.6017863 11.4638265,14.0807088 11.2425537,14.4672241 C11.0212809,14.8537394 10.7504272,15.1465047 10.4299927,15.34552 C10.1095581,15.5445353 9.72521973,15.644043 9.27697754,15.644043 C8.43949382,15.644043 7.80314128,15.2073975 7.36791992,14.3341064 C6.93269857,13.4608154 6.71940104,12.2125651 6.72802734,10.5893555 L5.20239258,10.5893555 C5.18994141,12.7128092 5.53855387,14.3404134 6.24822998,15.472168 C6.95790609,16.6039225 7.98254395,17.1697998 9.32214355,17.1697998 Z M18.7039795,16.1622314 C19.1781006,16.1622314 19.6104329,16.0460612 20.0009766,15.8137207 C20.3915202,15.5813802 20.7027181,15.2691243 20.9345703,14.8769531 C21.1664225,14.4847819 21.2823486,14.0489909 21.2823486,13.5695801 C21.2823486,13.095459 21.1664225,12.6583659 20.9345703,12.2583008 C20.7027181,11.8582357 20.3915202,11.5374959 20.0009766,11.2960815 C19.6104329,11.0546672 19.1781006,10.9318441 18.7039795,10.9276123 C18.2245687,10.9276123 17.7887777,11.0482992 17.3966064,11.2896729 C17.0044352,11.5310465 16.6921794,11.8528442 16.4598389,12.2550659 C16.2274984,12.6572876 16.1113281,13.095459 16.1113281,13.5695801 C16.1113281,14.0489909 16.2274984,14.4847819 16.4598389,14.8769531 C16.6921794,15.2691243 17.0044352,15.5813802 17.3966064,15.8137207 C17.7887777,16.0460612 18.2245687,16.1622314 18.7039795,16.1622314 Z M18.7053223,14.8013916 C18.476888,14.8013916 18.2692464,14.7463989 18.0823975,14.6364136 C17.8955485,14.5264282 17.7460734,14.3769531 17.6339722,14.1879883 C17.5218709,13.9990234 17.4658203,13.7924398 17.4658203,13.5682373 C17.4658203,13.3397217 17.5218709,13.1320394 17.6339722,12.9451904 C17.7460734,12.7583415 17.8955485,12.6101685 18.0823975,12.5006714 C18.2692464,12.3911743 18.476888,12.3364258 18.7053223,12.3364258 C18.9296061,12.3364258 19.1351522,12.3911743 19.3219604,12.5006714 C19.5087687,12.6101685 19.6569417,12.7583415 19.7664795,12.9451904 C19.8760173,13.1320394 19.9307861,13.3397217 19.9307861,13.5682373 C19.9307861,13.7924398 19.8760173,13.9990234 19.7664795,14.1879883 C19.6569417,14.3769531 19.5087687,14.5264282 19.3219604,14.6364136 C19.1351522,14.7463989 18.9296061,14.8013916 18.7053223,14.8013916 Z" id="Shape"></path>
            </g>
        </g>
    </g>
</svg>